{"asset":{"generator":"glTF-Transform v4.5.1","version":"2.0"},"accessors":[{"type":"SCALAR","componentType":5123,"count":1329,"normalized":false,"byteOffset":0,"bufferView":0},{"type":"VEC3","componentType":5122,"count":683,"max":[8401,32767,6988],"min":[-8401,-32767,-6988],"normalized":true,"byteOffset":0,"bufferView":1},{"type":"VEC3","componentType":5122,"count":683,"normalized":true,"byteOffset":0,"bufferView":2},{"type":"VEC2","componentType":5123,"count":683,"normalized":true,"byteOffset":0,"bufferView":3}],"bufferViews":[{"buffer":1,"byteOffset":0,"byteLength":2658,"target":34963,"extensions":{"EXT_meshopt_compression":{"buffer":0,"byteOffset":0,"byteLength":476,"mode":"TRIANGLES","byteStride":2,"count":1329}}},{"buffer":1,"byteOffset":2660,"byteLength":5464,"target":34962,"byteStride":8,"extensions":{"EXT_meshopt_compression":{"buffer":0,"byteOffset":476,"byteLength":3692,"mode":"ATTRIBUTES","byteStride":8,"count":683}}},{"buffer":1,"byteOffset":8124,"byteLength":5464,"target":34962,"byteStride":8,"extensions":{"EXT_meshopt_compression":{"buffer":0,"byteOffset":4168,"byteLength":3321,"mode":"ATTRIBUTES","byteStride":8,"count":683}}},{"buffer":1,"byteOffset":13588,"byteLength":2732,"target":34962,"byteStride":4,"extensions":{"EXT_meshopt_compression":{"buffer":0,"byteOffset":7492,"byteLength":2173,"mode":"ATTRIBUTES","byteStride":4,"count":683}}}],"samplers":[{"magFilter":9729,"minFilter":9987,"wrapS":10497,"wrapT":10497}],"textures":[{"sampler":0,"extensions":{"EXT_texture_webp":{"source":0}}}],"images":[{"name":"c1","mimeType":"image/webp","uri":"../textures/7f0b20dc771da584.webp"}],"buffers":[{"uri":"1-Crystal.bin","byteLength":9668},{"byteLength":16320,"extensions":{"EXT_meshopt_compression":{"fallback":true}}}],"materials":[{"name":"s","doubleSided":true,"pbrMetallicRoughness":{"roughnessFactor":0.8,"metallicFactor":0.1,"baseColorTexture":{"index":0}},"extensions":{"KHR_materials_clearcoat":{"clearcoatFactor":1,"clearcoatRoughnessFactor":0.05727272480726242},"KHR_materials_ior":{"ior":1.4500000476837158},"KHR_materials_specular":{"specularColorFactor":[2.371357614441398,2.371357614441398,2.371357614441398]}}}],"meshes":[{"name":"s","primitives":[{"attributes":{"POSITION":1,"NORMAL":2,"TEXCOORD_0":3},"mode":4,"material":0,"indices":0}]}],"nodes":[{"name":"s","translation":[0.0265352725982666,0.34751395881175995,0.0379154197871685],"scale":[0.6639222651720047,0.6639222651720047,0.6639222651720047],"mesh":0},{"name":"pack_root","children":[0]}],"scenes":[{"name":"Scene","nodes":[1]}],"scene":0,"extensionsUsed":["EXT_meshopt_compression","EXT_texture_webp","KHR_materials_clearcoat","KHR_materials_ior","KHR_materials_specular","KHR_mesh_quantization"],"extensionsRequired":["EXT_meshopt_compression","EXT_texture_webp","KHR_mesh_quantization"]}