{"asset":{"generator":"glTF-Transform v4.5.1","version":"2.0"},"accessors":[{"type":"SCALAR","componentType":5123,"count":4413,"normalized":false,"byteOffset":0,"bufferView":0},{"type":"VEC2","componentType":5126,"count":933,"normalized":false,"byteOffset":0,"bufferView":1},{"type":"VEC3","componentType":5122,"count":933,"max":[5604,32767,4932],"min":[-5604,-32767,-4932],"normalized":true,"byteOffset":0,"bufferView":2},{"type":"VEC3","componentType":5122,"count":933,"normalized":true,"byteOffset":0,"bufferView":3}],"bufferViews":[{"buffer":1,"byteOffset":0,"byteLength":8826,"target":34963,"extensions":{"EXT_meshopt_compression":{"buffer":0,"byteOffset":0,"byteLength":1656,"mode":"TRIANGLES","byteStride":2,"count":4413}}},{"buffer":1,"byteOffset":8828,"byteLength":7464,"target":34962,"byteStride":8,"extensions":{"EXT_meshopt_compression":{"buffer":0,"byteOffset":1656,"byteLength":4028,"mode":"ATTRIBUTES","byteStride":8,"count":933}}},{"buffer":1,"byteOffset":16292,"byteLength":7464,"target":34962,"byteStride":8,"extensions":{"EXT_meshopt_compression":{"buffer":0,"byteOffset":5684,"byteLength":4380,"mode":"ATTRIBUTES","byteStride":8,"count":933}}},{"buffer":1,"byteOffset":23756,"byteLength":7464,"target":34962,"byteStride":8,"extensions":{"EXT_meshopt_compression":{"buffer":0,"byteOffset":10064,"byteLength":5726,"mode":"ATTRIBUTES","byteStride":8,"count":933}}}],"samplers":[{"magFilter":9729,"minFilter":9987,"wrapS":10497,"wrapT":10497}],"textures":[{"sampler":0,"extensions":{"EXT_texture_webp":{"source":0}}},{"sampler":0,"extensions":{"EXT_texture_webp":{"source":1}}}],"images":[{"name":"c10","mimeType":"image/webp","uri":"../textures/80b7e390caf0c28f.webp"},{"name":"m10-r10","mimeType":"image/webp","uri":"../textures/a014787ded69824a.webp"}],"buffers":[{"uri":"10-Snake.bin","byteLength":15792},{"byteLength":31220,"extensions":{"EXT_meshopt_compression":{"fallback":true}}}],"materials":[{"name":"s","doubleSided":true,"pbrMetallicRoughness":{"baseColorTexture":{"index":0},"metallicRoughnessTexture":{"index":1}},"extensions":{"KHR_materials_clearcoat":{"clearcoatFactor":0.5545454621315002,"clearcoatRoughnessFactor":0.2845454216003418}}}],"meshes":[{"name":"s","primitives":[{"attributes":{"TEXCOORD_0":1,"POSITION":2,"NORMAL":3},"mode":4,"material":0,"indices":0}]}],"nodes":[{"name":"s","translation":[-0.00008655339479446411,0.2252206802368164,0.027569105848670006],"scale":[0.4917631149291992,0.4917631149291992,0.4917631149291992],"mesh":0},{"name":"pack_root","children":[0]}],"scenes":[{"name":"Scene","nodes":[1]}],"scene":0,"extensionsUsed":["EXT_meshopt_compression","EXT_texture_webp","KHR_materials_clearcoat","KHR_mesh_quantization"],"extensionsRequired":["EXT_meshopt_compression","EXT_texture_webp","KHR_mesh_quantization"]}