{"asset":{"generator":"glTF-Transform v4.5.1","version":"2.0"},"accessors":[{"type":"SCALAR","componentType":5123,"count":258,"normalized":false,"byteOffset":0,"bufferView":0},{"type":"SCALAR","componentType":5123,"count":429,"normalized":false,"byteOffset":516,"bufferView":0},{"type":"SCALAR","componentType":5123,"count":57,"normalized":false,"byteOffset":1374,"bufferView":0},{"type":"VEC3","componentType":5122,"count":105,"max":[7704,26819,2444],"min":[-3528,-32767,-2444],"normalized":true,"byteOffset":0,"bufferView":1},{"type":"VEC3","componentType":5122,"count":105,"normalized":true,"byteOffset":0,"bufferView":2},{"type":"VEC3","componentType":5122,"count":163,"max":[6768,25167,2440],"min":[-3528,-31979,-2444],"normalized":true,"byteOffset":0,"bufferView":3},{"type":"VEC3","componentType":5122,"count":163,"normalized":true,"byteOffset":0,"bufferView":4},{"type":"VEC3","componentType":5122,"count":21,"max":[2560,32767,4],"min":[-7704,-12481,-8],"normalized":true,"byteOffset":0,"bufferView":5},{"type":"VEC3","componentType":5122,"count":21,"normalized":true,"byteOffset":0,"bufferView":6},{"type":"VEC2","componentType":5123,"count":21,"normalized":true,"byteOffset":0,"bufferView":7}],"bufferViews":[{"buffer":1,"byteOffset":0,"byteLength":1488,"target":34963,"extensions":{"EXT_meshopt_compression":{"buffer":0,"byteOffset":0,"byteLength":272,"mode":"TRIANGLES","byteStride":2,"count":744}}},{"buffer":1,"byteOffset":1488,"byteLength":840,"target":34962,"byteStride":8,"extensions":{"EXT_meshopt_compression":{"buffer":0,"byteOffset":272,"byteLength":592,"mode":"ATTRIBUTES","byteStride":8,"count":105}}},{"buffer":1,"byteOffset":2328,"byteLength":840,"target":34962,"byteStride":8,"extensions":{"EXT_meshopt_compression":{"buffer":0,"byteOffset":864,"byteLength":602,"mode":"ATTRIBUTES","byteStride":8,"count":105}}},{"buffer":1,"byteOffset":3168,"byteLength":1304,"target":34962,"byteStride":8,"extensions":{"EXT_meshopt_compression":{"buffer":0,"byteOffset":1468,"byteLength":650,"mode":"ATTRIBUTES","byteStride":8,"count":163}}},{"buffer":1,"byteOffset":4472,"byteLength":1304,"target":34962,"byteStride":8,"extensions":{"EXT_meshopt_compression":{"buffer":0,"byteOffset":2120,"byteLength":523,"mode":"ATTRIBUTES","byteStride":8,"count":163}}},{"buffer":1,"byteOffset":5776,"byteLength":168,"target":34962,"byteStride":8,"extensions":{"EXT_meshopt_compression":{"buffer":0,"byteOffset":2644,"byteLength":167,"mode":"ATTRIBUTES","byteStride":8,"count":21}}},{"buffer":1,"byteOffset":5944,"byteLength":168,"target":34962,"byteStride":8,"extensions":{"EXT_meshopt_compression":{"buffer":0,"byteOffset":2812,"byteLength":62,"mode":"ATTRIBUTES","byteStride":8,"count":21}}},{"buffer":1,"byteOffset":6112,"byteLength":84,"target":34962,"byteStride":4,"extensions":{"EXT_meshopt_compression":{"buffer":0,"byteOffset":2876,"byteLength":129,"mode":"ATTRIBUTES","byteStride":4,"count":21}}}],"samplers":[{"magFilter":9729,"minFilter":9987,"wrapS":10497,"wrapT":10497}],"textures":[{"sampler":0,"extensions":{"EXT_texture_webp":{"source":0}}}],"images":[{"name":"ce11","mimeType":"image/webp","uri":"../textures/be05c0d914381fa8.webp"}],"buffers":[{"uri":"11-Neon.bin","byteLength":3008},{"byteLength":6196,"extensions":{"EXT_meshopt_compression":{"fallback":true}}}],"materials":[{"name":"s","doubleSided":true,"pbrMetallicRoughness":{"baseColorFactor":[0.011050492525100708,0.18846705555915833,0.253200888633728,1],"roughnessFactor":0.8,"metallicFactor":0.1},"extensions":{"KHR_materials_clearcoat":{"clearcoatFactor":1,"clearcoatRoughnessFactor":0.029999999329447746}}},{"name":"g","doubleSided":true,"pbrMetallicRoughness":{"baseColorFactor":[0,0.7667641639709473,1,1],"metallicFactor":0},"emissiveFactor":[0,0.7667639851570129,1]},{"name":"gt","alphaMode":"BLEND","doubleSided":true,"pbrMetallicRoughness":{"baseColorFactor":[0.800000011920929,0.800000011920929,0.800000011920929,1],"roughnessFactor":0.8,"metallicFactor":0,"baseColorTexture":{"index":0}},"emissiveFactor":[1,1,1],"emissiveTexture":{"index":0}}],"meshes":[{"name":"1","primitives":[{"attributes":{"POSITION":3,"NORMAL":4},"mode":4,"material":0,"indices":0},{"attributes":{"POSITION":5,"NORMAL":6},"mode":4,"material":1,"indices":1},{"attributes":{"POSITION":7,"NORMAL":8,"TEXCOORD_0":9},"mode":4,"material":2,"indices":2}]}],"nodes":[{"name":"a","translation":[-0.0593256875872612,0.29195383191108704,0.00006232410669326782],"scale":[0.7574418485164642,0.7574418485164642,0.7574418485164642],"mesh":0},{"name":"b","translation":[0.05932568759667188,0.29195383191108704,-0.00006231514876346005],"rotation":[0,0.9999999999999971,0,7.549790126404267e-8],"scale":[0.7574418485164729,0.7574418485164642,0.7574418485164729],"mesh":0},{"name":"pack_root","children":[0,1]}],"scenes":[{"name":"Scene","nodes":[2]}],"scene":0,"extensionsUsed":["EXT_meshopt_compression","EXT_texture_webp","KHR_materials_clearcoat","KHR_mesh_quantization"],"extensionsRequired":["EXT_meshopt_compression","EXT_texture_webp","KHR_mesh_quantization"]}