{"asset":{"generator":"glTF-Transform v4.5.1","version":"2.0"},"accessors":[{"type":"SCALAR","componentType":5123,"count":1041,"normalized":false,"byteOffset":0,"bufferView":0},{"type":"SCALAR","componentType":5123,"count":2826,"normalized":false,"byteOffset":2082,"bufferView":0},{"type":"VEC3","componentType":5122,"count":191,"max":[8201,32767,8104],"min":[-8201,-32767,-8104],"normalized":true,"byteOffset":0,"bufferView":1},{"type":"VEC3","componentType":5122,"count":191,"normalized":true,"byteOffset":0,"bufferView":2},{"type":"VEC3","componentType":5122,"count":878,"max":[8617,32767,1664],"min":[-8617,-32767,-1664],"normalized":true,"byteOffset":0,"bufferView":3},{"type":"VEC3","componentType":5122,"count":878,"normalized":true,"byteOffset":0,"bufferView":4}],"bufferViews":[{"buffer":1,"byteOffset":0,"byteLength":7734,"target":34963,"extensions":{"EXT_meshopt_compression":{"buffer":0,"byteOffset":0,"byteLength":1379,"mode":"TRIANGLES","byteStride":2,"count":3867}}},{"buffer":1,"byteOffset":7736,"byteLength":1528,"target":34962,"byteStride":8,"extensions":{"EXT_meshopt_compression":{"buffer":0,"byteOffset":1380,"byteLength":1183,"mode":"ATTRIBUTES","byteStride":8,"count":191}}},{"buffer":1,"byteOffset":9264,"byteLength":1528,"target":34962,"byteStride":8,"extensions":{"EXT_meshopt_compression":{"buffer":0,"byteOffset":2564,"byteLength":1209,"mode":"ATTRIBUTES","byteStride":8,"count":191}}},{"buffer":1,"byteOffset":10792,"byteLength":7024,"target":34962,"byteStride":8,"extensions":{"EXT_meshopt_compression":{"buffer":0,"byteOffset":3776,"byteLength":4179,"mode":"ATTRIBUTES","byteStride":8,"count":878}}},{"buffer":1,"byteOffset":17816,"byteLength":7024,"target":34962,"byteStride":8,"extensions":{"EXT_meshopt_compression":{"buffer":0,"byteOffset":7956,"byteLength":4725,"mode":"ATTRIBUTES","byteStride":8,"count":878}}}],"buffers":[{"uri":"12-Woven.bin","byteLength":12684},{"byteLength":24840,"extensions":{"EXT_meshopt_compression":{"fallback":true}}}],"materials":[{"name":"s","doubleSided":true,"pbrMetallicRoughness":{"baseColorFactor":[0.05099999159574509,0.16588068008422852,0.3400000035762787,1],"roughnessFactor":0.8,"metallicFactor":0.1},"extensions":{"KHR_materials_clearcoat":{"clearcoatFactor":1,"clearcoatRoughnessFactor":0.029999999329447746}}}],"meshes":[{"name":"s","primitives":[{"attributes":{"POSITION":2,"NORMAL":3},"mode":4,"material":0,"indices":0}]},{"name":"b","primitives":[{"attributes":{"POSITION":4,"NORMAL":5},"mode":4,"material":0,"indices":1}]}],"nodes":[{"name":"s","translation":[-0.002436138689517975,-0.14819762110710144,-0.00008215755224227905],"scale":[0.1285635232925415,0.1285635232925415,0.1285635232925415],"mesh":0},{"name":"a","translation":[-0.005410432815551758,0.40196743607521057,0.000011261552572250366],"scale":[0.8168703019618988,0.8168703019618988,0.8168703019618988],"mesh":1},{"name":"b","translation":[0.0054104328145672415,0.40196743607521057,-0.000011262025567309566],"rotation":[0,0.999999999999999,0,-4.371138828673781e-8],"scale":[0.8168703019619019,0.8168703019618988,0.8168703019619019],"mesh":1},{"name":"pack_root","children":[0,1,2]}],"scenes":[{"name":"Scene","nodes":[3]}],"scene":0,"extensionsUsed":["EXT_meshopt_compression","KHR_materials_clearcoat","KHR_mesh_quantization"],"extensionsRequired":["EXT_meshopt_compression","KHR_mesh_quantization"]}