{"asset":{"generator":"glTF-Transform v4.5.1","version":"2.0"},"accessors":[{"type":"SCALAR","componentType":5126,"count":7,"max":[4],"min":[0],"normalized":false,"byteOffset":0,"bufferView":0},{"type":"VEC3","componentType":5126,"count":7,"normalized":false,"byteOffset":0,"bufferView":1},{"type":"SCALAR","componentType":5126,"count":4,"max":[4],"min":[0],"normalized":false,"byteOffset":28,"bufferView":0},{"type":"VEC4","componentType":5126,"count":4,"normalized":false,"byteOffset":0,"bufferView":2},{"type":"SCALAR","componentType":5123,"count":606,"normalized":false,"byteOffset":0,"bufferView":3},{"type":"SCALAR","componentType":5123,"count":1428,"normalized":false,"byteOffset":1212,"bufferView":3},{"type":"VEC3","componentType":5122,"count":181,"max":[3812,32767,2080],"min":[-3812,-32767,-2080],"normalized":true,"byteOffset":0,"bufferView":4},{"type":"VEC3","componentType":5122,"count":181,"normalized":true,"byteOffset":0,"bufferView":5},{"type":"VEC2","componentType":5123,"count":181,"normalized":true,"byteOffset":0,"bufferView":6},{"type":"VEC3","componentType":5122,"count":240,"max":[31903,32767,32575],"min":[-31903,-32767,-32575],"normalized":true,"byteOffset":0,"bufferView":7},{"type":"VEC3","componentType":5122,"count":240,"normalized":true,"byteOffset":0,"bufferView":8},{"type":"VEC2","componentType":5123,"count":240,"normalized":true,"byteOffset":0,"bufferView":9}],"bufferViews":[{"buffer":1,"byteOffset":0,"byteLength":44,"extensions":{"EXT_meshopt_compression":{"buffer":0,"byteOffset":0,"byteLength":56,"mode":"ATTRIBUTES","byteStride":4,"count":11}}},{"buffer":1,"byteOffset":44,"byteLength":84,"extensions":{"EXT_meshopt_compression":{"buffer":0,"byteOffset":56,"byteLength":75,"mode":"ATTRIBUTES","byteStride":12,"count":7}}},{"buffer":1,"byteOffset":128,"byteLength":64,"extensions":{"EXT_meshopt_compression":{"buffer":0,"byteOffset":132,"byteLength":157,"mode":"ATTRIBUTES","byteStride":16,"count":4}}},{"buffer":1,"byteOffset":192,"byteLength":4068,"target":34963,"extensions":{"EXT_meshopt_compression":{"buffer":0,"byteOffset":292,"byteLength":762,"mode":"TRIANGLES","byteStride":2,"count":2034}}},{"buffer":1,"byteOffset":4260,"byteLength":1448,"target":34962,"byteStride":8,"extensions":{"EXT_meshopt_compression":{"buffer":0,"byteOffset":1056,"byteLength":953,"mode":"ATTRIBUTES","byteStride":8,"count":181}}},{"buffer":1,"byteOffset":5708,"byteLength":1448,"target":34962,"byteStride":8,"extensions":{"EXT_meshopt_compression":{"buffer":0,"byteOffset":2012,"byteLength":974,"mode":"ATTRIBUTES","byteStride":8,"count":181}}},{"buffer":1,"byteOffset":7156,"byteLength":724,"target":34962,"byteStride":4,"extensions":{"EXT_meshopt_compression":{"buffer":0,"byteOffset":2988,"byteLength":223,"mode":"ATTRIBUTES","byteStride":4,"count":181}}},{"buffer":1,"byteOffset":7880,"byteLength":1920,"target":34962,"byteStride":8,"extensions":{"EXT_meshopt_compression":{"buffer":0,"byteOffset":3212,"byteLength":1445,"mode":"ATTRIBUTES","byteStride":8,"count":240}}},{"buffer":1,"byteOffset":9800,"byteLength":1920,"target":34962,"byteStride":8,"extensions":{"EXT_meshopt_compression":{"buffer":0,"byteOffset":4660,"byteLength":1492,"mode":"ATTRIBUTES","byteStride":8,"count":240}}},{"buffer":1,"byteOffset":11720,"byteLength":960,"target":34962,"byteStride":4,"extensions":{"EXT_meshopt_compression":{"buffer":0,"byteOffset":6152,"byteLength":49,"mode":"ATTRIBUTES","byteStride":4,"count":240}}}],"samplers":[{"magFilter":9729,"minFilter":9987,"wrapS":10497,"wrapT":10497}],"textures":[{"sampler":0,"extensions":{"EXT_texture_webp":{"source":0}}},{"sampler":0,"extensions":{"EXT_texture_webp":{"source":1}}}],"images":[{"name":"c15","mimeType":"image/webp","uri":"../textures/0b73d4c19e0b132e.webp"},{"name":"m15-r15","mimeType":"image/webp","uri":"../textures/1b3c1e16d7e1d3f1.webp"}],"buffers":[{"uri":"15-Paranormal.bin","byteLength":6204},{"byteLength":12680,"extensions":{"EXT_meshopt_compression":{"fallback":true}}}],"materials":[{"name":"s","doubleSided":true,"pbrMetallicRoughness":{"baseColorTexture":{"index":0},"metallicRoughnessTexture":{"index":1}}}],"meshes":[{"name":"s","primitives":[{"attributes":{"POSITION":6,"NORMAL":7,"TEXCOORD_0":8},"mode":4,"material":0,"indices":4}]},{"name":"Icosphere.001","primitives":[{"attributes":{"POSITION":9,"NORMAL":10,"TEXCOORD_0":11},"mode":4,"material":0,"indices":5}]}],"nodes":[{"name":"s","translation":[0.00006948783993721008,0.269285649061203,-0.00007934868335723877],"scale":[0.44788095355033875,0.44788095355033875,0.44788095355033875],"mesh":0},{"name":"i","translation":[0,0.08826704323291779,0],"rotation":[0.1493333876132965,0.04043307155370712,0.2582002580165863,0.9536232948303223],"children":[3]},{"name":"pack_root","children":[0,1]},{"translation":[0.000002421438694000244,0,0.000030316412448883057],"scale":[0.07667697221040726,0.07667697221040726,0.07667697221040726],"mesh":1}],"animations":[{"name":"Animation","samplers":[{"input":0,"output":1,"interpolation":"LINEAR"},{"input":2,"output":3,"interpolation":"LINEAR"}],"channels":[{"sampler":0,"target":{"node":1,"path":"translation"}},{"sampler":1,"target":{"node":1,"path":"rotation"}}]}],"scenes":[{"name":"Scene","nodes":[2]}],"scene":0,"extensionsUsed":["EXT_meshopt_compression","EXT_texture_webp","KHR_mesh_quantization"],"extensionsRequired":["EXT_meshopt_compression","EXT_texture_webp","KHR_mesh_quantization"]}