{"asset":{"generator":"glTF-Transform v4.5.1","version":"2.0"},"accessors":[{"type":"SCALAR","componentType":5123,"count":1032,"normalized":false,"byteOffset":0,"bufferView":0},{"type":"VEC3","componentType":5122,"count":363,"max":[8745,32767,6500],"min":[-8745,-32767,-6500],"normalized":true,"byteOffset":0,"bufferView":1},{"type":"VEC3","componentType":5122,"count":363,"normalized":true,"byteOffset":0,"bufferView":2},{"type":"VEC2","componentType":5123,"count":363,"normalized":true,"byteOffset":0,"bufferView":3}],"bufferViews":[{"buffer":1,"byteOffset":0,"byteLength":2064,"target":34963,"extensions":{"EXT_meshopt_compression":{"buffer":0,"byteOffset":0,"byteLength":365,"mode":"TRIANGLES","byteStride":2,"count":1032}}},{"buffer":1,"byteOffset":2064,"byteLength":2904,"target":34962,"byteStride":8,"extensions":{"EXT_meshopt_compression":{"buffer":0,"byteOffset":368,"byteLength":2044,"mode":"ATTRIBUTES","byteStride":8,"count":363}}},{"buffer":1,"byteOffset":4968,"byteLength":2904,"target":34962,"byteStride":8,"extensions":{"EXT_meshopt_compression":{"buffer":0,"byteOffset":2412,"byteLength":2201,"mode":"ATTRIBUTES","byteStride":8,"count":363}}},{"buffer":1,"byteOffset":7872,"byteLength":1452,"target":34962,"byteStride":4,"extensions":{"EXT_meshopt_compression":{"buffer":0,"byteOffset":4616,"byteLength":786,"mode":"ATTRIBUTES","byteStride":4,"count":363}}}],"samplers":[{"magFilter":9729,"minFilter":9987,"wrapS":10497,"wrapT":10497}],"textures":[{"sampler":0,"extensions":{"EXT_texture_webp":{"source":0}}},{"sampler":0,"extensions":{"EXT_texture_webp":{"source":1}}}],"images":[{"name":"c","mimeType":"image/webp","uri":"../textures/0f2fc75c5bdc4b31.webp"},{"name":"m2-r2","mimeType":"image/webp","uri":"../textures/f478975c3b7a01e1.webp"}],"buffers":[{"uri":"16-Shell.bin","byteLength":5404},{"byteLength":9324,"extensions":{"EXT_meshopt_compression":{"fallback":true}}}],"materials":[{"name":"s","doubleSided":true,"pbrMetallicRoughness":{"baseColorTexture":{"index":0},"metallicRoughnessTexture":{"index":1}},"extensions":{"KHR_materials_ior":{"ior":1.4500000476837158},"KHR_materials_specular":{"specularColorFactor":[2.371357614441398,2.371357614441398,2.371357614441398]}}}],"meshes":[{"name":"s","primitives":[{"attributes":{"POSITION":1,"NORMAL":2,"TEXCOORD_0":3},"mode":4,"material":0,"indices":0}]}],"nodes":[{"name":"s","translation":[0.006732918322086334,0.17327973246574402,0.013796433806419373],"scale":[0.44498375058174133,0.44498375058174133,0.44498375058174133],"mesh":0},{"name":"pack_root","children":[0]}],"scenes":[{"name":"Scene","nodes":[1]}],"scene":0,"extensionsUsed":["EXT_meshopt_compression","EXT_texture_webp","KHR_materials_ior","KHR_materials_specular","KHR_mesh_quantization"],"extensionsRequired":["EXT_meshopt_compression","EXT_texture_webp","KHR_mesh_quantization"]}