{"asset":{"generator":"glTF-Transform v4.5.1","version":"2.0"},"accessors":[{"type":"SCALAR","componentType":5126,"count":16,"max":[2.6666667461395264],"min":[0.1666666716337204],"normalized":false,"byteOffset":0,"bufferView":0},{"type":"VEC3","componentType":5126,"count":16,"normalized":false,"byteOffset":0,"bufferView":1},{"type":"VEC3","componentType":5126,"count":16,"normalized":false,"byteOffset":192,"bufferView":1},{"type":"SCALAR","componentType":5123,"count":96,"normalized":false,"byteOffset":0,"bufferView":2},{"type":"SCALAR","componentType":5123,"count":759,"normalized":false,"byteOffset":192,"bufferView":2},{"type":"VEC3","componentType":5122,"count":24,"max":[32767,25459,32767],"min":[-32767,-25459,-32767],"normalized":true,"byteOffset":0,"bufferView":3},{"type":"VEC3","componentType":5122,"count":24,"normalized":true,"byteOffset":0,"bufferView":4},{"type":"VEC2","componentType":5123,"count":24,"normalized":true,"byteOffset":0,"bufferView":5},{"type":"VEC3","componentType":5122,"count":261,"max":[8721,32767,4040],"min":[-8721,-32767,-4040],"normalized":true,"byteOffset":0,"bufferView":6},{"type":"VEC3","componentType":5122,"count":261,"normalized":true,"byteOffset":0,"bufferView":7},{"type":"VEC2","componentType":5123,"count":261,"normalized":true,"byteOffset":0,"bufferView":8}],"bufferViews":[{"buffer":1,"byteOffset":0,"byteLength":64,"extensions":{"EXT_meshopt_compression":{"buffer":0,"byteOffset":0,"byteLength":89,"mode":"ATTRIBUTES","byteStride":4,"count":16}}},{"buffer":1,"byteOffset":64,"byteLength":384,"extensions":{"EXT_meshopt_compression":{"buffer":0,"byteOffset":92,"byteLength":315,"mode":"ATTRIBUTES","byteStride":12,"count":32}}},{"buffer":1,"byteOffset":448,"byteLength":1710,"target":34963,"extensions":{"EXT_meshopt_compression":{"buffer":0,"byteOffset":408,"byteLength":319,"mode":"TRIANGLES","byteStride":2,"count":855}}},{"buffer":1,"byteOffset":2160,"byteLength":192,"target":34962,"byteStride":8,"extensions":{"EXT_meshopt_compression":{"buffer":0,"byteOffset":728,"byteLength":193,"mode":"ATTRIBUTES","byteStride":8,"count":24}}},{"buffer":1,"byteOffset":2352,"byteLength":192,"target":34962,"byteStride":8,"extensions":{"EXT_meshopt_compression":{"buffer":0,"byteOffset":924,"byteLength":200,"mode":"ATTRIBUTES","byteStride":8,"count":24}}},{"buffer":1,"byteOffset":2544,"byteLength":96,"target":34962,"byteStride":4,"extensions":{"EXT_meshopt_compression":{"buffer":0,"byteOffset":1124,"byteLength":79,"mode":"ATTRIBUTES","byteStride":4,"count":24}}},{"buffer":1,"byteOffset":2640,"byteLength":2088,"target":34962,"byteStride":8,"extensions":{"EXT_meshopt_compression":{"buffer":0,"byteOffset":1204,"byteLength":1406,"mode":"ATTRIBUTES","byteStride":8,"count":261}}},{"buffer":1,"byteOffset":4728,"byteLength":2088,"target":34962,"byteStride":8,"extensions":{"EXT_meshopt_compression":{"buffer":0,"byteOffset":2612,"byteLength":1533,"mode":"ATTRIBUTES","byteStride":8,"count":261}}},{"buffer":1,"byteOffset":6816,"byteLength":1044,"target":34962,"byteStride":4,"extensions":{"EXT_meshopt_compression":{"buffer":0,"byteOffset":4148,"byteLength":585,"mode":"ATTRIBUTES","byteStride":4,"count":261}}}],"samplers":[{"magFilter":9729,"minFilter":9987,"wrapS":33071,"wrapT":33071},{"magFilter":9729,"minFilter":9987,"wrapS":10497,"wrapT":10497}],"textures":[{"sampler":0,"extensions":{"EXT_texture_webp":{"source":0}}},{"sampler":1,"extensions":{"EXT_texture_webp":{"source":2}}},{"sampler":1,"extensions":{"EXT_texture_webp":{"source":1}}},{"sampler":1,"extensions":{"EXT_texture_webp":{"source":3}}}],"images":[{"name":"ce17","mimeType":"image/webp","uri":"../textures/09f3006527d28fea.webp"},{"name":"e17","mimeType":"image/webp","uri":"../textures/9bfab714dc1677cf.webp"},{"name":"c17","mimeType":"image/webp","uri":"../textures/36b6c41c960609a1.webp"},{"name":"m2-r17","mimeType":"image/webp","uri":"../textures/3d38340b0fc33cd9.webp"}],"buffers":[{"uri":"17-Smoke.bin","byteLength":4736},{"byteLength":7860,"extensions":{"EXT_meshopt_compression":{"fallback":true}}}],"materials":[{"name":"m","alphaMode":"BLEND","doubleSided":true,"pbrMetallicRoughness":{"roughnessFactor":0.8,"metallicFactor":0,"baseColorTexture":{"index":0}}},{"name":"s","doubleSided":true,"pbrMetallicRoughness":{"baseColorTexture":{"index":1},"metallicRoughnessTexture":{"index":3}},"emissiveFactor":[1,1,1],"emissiveTexture":{"index":2}}],"meshes":[{"name":"m","primitives":[{"attributes":{"POSITION":5,"NORMAL":6,"TEXCOORD_0":7},"mode":4,"material":0,"indices":3}]},{"name":"s","primitives":[{"attributes":{"POSITION":8,"NORMAL":9,"TEXCOORD_0":10},"mode":4,"material":1,"indices":4}]}],"nodes":[{"name":"m","translation":[0.12597119808197021,0.13094907999038696,-0.006509983912110329],"rotation":[-0.007315953727811575,0.0012196825118735433,-0.17455321550369263,0.9846198558807373],"scale":[0.5510856509208679,1,0.5510857105255127],"children":[3]},{"name":"s","translation":[0.007143348455429077,0.3156067430973053,0.0003239288926124573],"scale":[0.6883605420589447,0.6883605420589447,0.6883605420589447],"mesh":1},{"name":"pack_root","children":[0,1]},{"translation":[0,-0.000011751428246498108,0],"scale":[0.0324862040579319,0.0324862040579319,0.0324862040579319],"mesh":0}],"animations":[{"name":"0","samplers":[{"input":0,"output":1,"interpolation":"LINEAR"},{"input":0,"output":2,"interpolation":"LINEAR"}],"channels":[{"sampler":0,"target":{"node":0,"path":"translation"}},{"sampler":1,"target":{"node":0,"path":"scale"}}]}],"scenes":[{"name":"Scene","nodes":[2]}],"scene":0,"extensionsUsed":["EXT_meshopt_compression","EXT_texture_webp","KHR_mesh_quantization"],"extensionsRequired":["EXT_meshopt_compression","EXT_texture_webp","KHR_mesh_quantization"]}