{"asset":{"generator":"glTF-Transform v4.5.1","version":"2.0"},"accessors":[{"type":"SCALAR","componentType":5123,"count":192,"normalized":false,"byteOffset":0,"bufferView":0},{"type":"SCALAR","componentType":5123,"count":432,"normalized":false,"byteOffset":384,"bufferView":0},{"type":"VEC3","componentType":5122,"count":84,"max":[10609,31851,376],"min":[-10613,-32767,-380],"normalized":true,"byteOffset":0,"bufferView":1},{"type":"VEC3","componentType":5122,"count":84,"normalized":true,"byteOffset":0,"bufferView":2},{"type":"VEC3","componentType":5122,"count":288,"max":[10613,32767,380],"min":[-10613,-32767,-380],"normalized":true,"byteOffset":0,"bufferView":3},{"type":"VEC3","componentType":5122,"count":288,"normalized":true,"byteOffset":0,"bufferView":4}],"bufferViews":[{"buffer":1,"byteOffset":0,"byteLength":1248,"target":34963,"extensions":{"EXT_meshopt_compression":{"buffer":0,"byteOffset":0,"byteLength":227,"mode":"TRIANGLES","byteStride":2,"count":624}}},{"buffer":1,"byteOffset":1248,"byteLength":672,"target":34962,"byteStride":8,"extensions":{"EXT_meshopt_compression":{"buffer":0,"byteOffset":228,"byteLength":463,"mode":"ATTRIBUTES","byteStride":8,"count":84}}},{"buffer":1,"byteOffset":1920,"byteLength":672,"target":34962,"byteStride":8,"extensions":{"EXT_meshopt_compression":{"buffer":0,"byteOffset":692,"byteLength":105,"mode":"ATTRIBUTES","byteStride":8,"count":84}}},{"buffer":1,"byteOffset":2592,"byteLength":2304,"target":34962,"byteStride":8,"extensions":{"EXT_meshopt_compression":{"buffer":0,"byteOffset":800,"byteLength":1550,"mode":"ATTRIBUTES","byteStride":8,"count":288}}},{"buffer":1,"byteOffset":4896,"byteLength":2304,"target":34962,"byteStride":8,"extensions":{"EXT_meshopt_compression":{"buffer":0,"byteOffset":2352,"byteLength":813,"mode":"ATTRIBUTES","byteStride":8,"count":288}}}],"buffers":[{"uri":"18-Geometric.bin","byteLength":3168},{"byteLength":7200,"extensions":{"EXT_meshopt_compression":{"fallback":true}}}],"materials":[{"name":"0","alphaMode":"BLEND","doubleSided":true,"pbrMetallicRoughness":{"baseColorFactor":[0,0.3306376338005066,1,1],"roughnessFactor":0.8,"metallicFactor":0.1},"emissiveFactor":[0,0.049337662756443024,0.08546967059373856],"extensions":{"KHR_materials_clearcoat":{"clearcoatFactor":1,"clearcoatRoughnessFactor":0.029999999329447746},"KHR_materials_ior":{"ior":1.4500000476837158},"KHR_materials_transmission":{"transmissionFactor":0.949999988079071}}},{"name":"1","doubleSided":true,"pbrMetallicRoughness":{"baseColorFactor":[0,0.5243042707443237,1,1],"roughnessFactor":0.8,"metallicFactor":0},"emissiveFactor":[0,0.33063799142837524,1]}],"meshes":[{"name":"0","primitives":[{"attributes":{"POSITION":2,"NORMAL":3},"mode":4,"material":0,"indices":0},{"attributes":{"POSITION":4,"NORMAL":5},"mode":4,"material":1,"indices":1}]}],"nodes":[{"name":"0","translation":[-0.0001684427261352539,0.25089436769485474,0.0000196751207113266],"scale":[0.7119711637496948,0.7119711637496948,0.7119711637496948],"mesh":0},{"name":"pack_root","children":[0]}],"scenes":[{"name":"Scene","nodes":[1]}],"scene":0,"extensionsUsed":["EXT_meshopt_compression","KHR_materials_clearcoat","KHR_materials_ior","KHR_materials_transmission","KHR_mesh_quantization"],"extensionsRequired":["EXT_meshopt_compression","KHR_mesh_quantization"]}