{"asset":{"generator":"glTF-Transform v4.5.1","version":"2.0"},"accessors":[{"type":"SCALAR","componentType":5123,"count":1197,"normalized":false,"byteOffset":0,"bufferView":0},{"type":"VEC2","componentType":5126,"count":457,"normalized":false,"byteOffset":0,"bufferView":1},{"type":"SCALAR","componentType":5123,"count":144,"normalized":false,"byteOffset":2394,"bufferView":0},{"type":"VEC3","componentType":5122,"count":457,"max":[4676,32767,1696],"min":[-4676,-32767,-1696],"normalized":true,"byteOffset":0,"bufferView":2},{"type":"VEC3","componentType":5122,"count":457,"normalized":true,"byteOffset":0,"bufferView":3},{"type":"VEC3","componentType":5122,"count":32,"max":[6244,32767,6692],"min":[-6244,-32767,-6692],"normalized":true,"byteOffset":0,"bufferView":4},{"type":"VEC3","componentType":5122,"count":32,"normalized":true,"byteOffset":0,"bufferView":5},{"type":"VEC2","componentType":5123,"count":32,"normalized":true,"byteOffset":0,"bufferView":6}],"bufferViews":[{"buffer":1,"byteOffset":0,"byteLength":2682,"target":34963,"extensions":{"EXT_meshopt_compression":{"buffer":0,"byteOffset":0,"byteLength":497,"mode":"TRIANGLES","byteStride":2,"count":1341}}},{"buffer":1,"byteOffset":2684,"byteLength":3656,"target":34962,"byteStride":8,"extensions":{"EXT_meshopt_compression":{"buffer":0,"byteOffset":500,"byteLength":371,"mode":"ATTRIBUTES","byteStride":8,"count":457}}},{"buffer":1,"byteOffset":6340,"byteLength":3656,"target":34962,"byteStride":8,"extensions":{"EXT_meshopt_compression":{"buffer":0,"byteOffset":872,"byteLength":2024,"mode":"ATTRIBUTES","byteStride":8,"count":457}}},{"buffer":1,"byteOffset":9996,"byteLength":3656,"target":34962,"byteStride":8,"extensions":{"EXT_meshopt_compression":{"buffer":0,"byteOffset":2896,"byteLength":1727,"mode":"ATTRIBUTES","byteStride":8,"count":457}}},{"buffer":1,"byteOffset":13652,"byteLength":256,"target":34962,"byteStride":8,"extensions":{"EXT_meshopt_compression":{"buffer":0,"byteOffset":4624,"byteLength":204,"mode":"ATTRIBUTES","byteStride":8,"count":32}}},{"buffer":1,"byteOffset":13908,"byteLength":256,"target":34962,"byteStride":8,"extensions":{"EXT_meshopt_compression":{"buffer":0,"byteOffset":4828,"byteLength":209,"mode":"ATTRIBUTES","byteStride":8,"count":32}}},{"buffer":1,"byteOffset":14164,"byteLength":128,"target":34962,"byteStride":4,"extensions":{"EXT_meshopt_compression":{"buffer":0,"byteOffset":5040,"byteLength":37,"mode":"ATTRIBUTES","byteStride":4,"count":32}}}],"samplers":[{"magFilter":9729,"minFilter":9987,"wrapS":10497,"wrapT":10497}],"textures":[{"sampler":0,"extensions":{"EXT_texture_webp":{"source":0}}},{"sampler":0,"extensions":{"EXT_texture_webp":{"source":1}}}],"images":[{"name":"c","mimeType":"image/webp","uri":"../textures/0f2fc75c5bdc4b31.webp"},{"name":"m4-r17","mimeType":"image/webp","uri":"../textures/23c9d22fd4ee4587.webp"}],"buffers":[{"uri":"19-Heirloom.bin","byteLength":5080},{"byteLength":14292,"extensions":{"EXT_meshopt_compression":{"fallback":true}}}],"materials":[{"name":"s","doubleSided":true,"pbrMetallicRoughness":{"baseColorTexture":{"index":0},"metallicRoughnessTexture":{"index":1}}}],"meshes":[{"name":"s","primitives":[{"attributes":{"TEXCOORD_0":1,"POSITION":3,"NORMAL":4},"mode":4,"material":0,"indices":0}]},{"name":"b","primitives":[{"attributes":{"POSITION":5,"NORMAL":6,"TEXCOORD_0":7},"mode":4,"material":0,"indices":2}]}],"nodes":[{"name":"1","translation":[-0.08538740128278732,0.3121970593929291,-0.0008382201194763184],"scale":[0.7593072950839996,0.7593072950839996,0.7593072950839996],"mesh":0},{"name":"3","translation":[0.08538740135606686,0.3121970593929291,0.0008382126546726138],"rotation":[0,0.9999999999999991,0,-4.37113882867378e-8],"scale":[0.7593072950840025,0.7593072950839996,0.7593072950840025],"mesh":0},{"name":"2","translation":[0.00003577210009098053,-0.19425341486930847,0.00002790987491607666],"scale":[0.10300454497337341,0.10300454497337341,0.10300454497337341],"mesh":1},{"name":"pack_root","children":[0,1,2]}],"scenes":[{"name":"Scene","nodes":[3]}],"scene":0,"extensionsUsed":["EXT_meshopt_compression","EXT_texture_webp","KHR_mesh_quantization"],"extensionsRequired":["EXT_meshopt_compression","EXT_texture_webp","KHR_mesh_quantization"]}