{"asset":{"generator":"glTF-Transform v4.5.1","version":"2.0"},"accessors":[{"type":"SCALAR","componentType":5123,"count":1662,"normalized":false,"byteOffset":0,"bufferView":0},{"type":"VEC3","componentType":5122,"count":627,"max":[6884,32767,1792],"min":[-6884,-32767,-1792],"normalized":true,"byteOffset":0,"bufferView":1},{"type":"VEC3","componentType":5122,"count":627,"normalized":true,"byteOffset":0,"bufferView":2},{"type":"VEC2","componentType":5123,"count":627,"normalized":true,"byteOffset":0,"bufferView":3}],"bufferViews":[{"buffer":1,"byteOffset":0,"byteLength":3324,"target":34963,"extensions":{"EXT_meshopt_compression":{"buffer":0,"byteOffset":0,"byteLength":585,"mode":"TRIANGLES","byteStride":2,"count":1662}}},{"buffer":1,"byteOffset":3324,"byteLength":5016,"target":34962,"byteStride":8,"extensions":{"EXT_meshopt_compression":{"buffer":0,"byteOffset":588,"byteLength":3198,"mode":"ATTRIBUTES","byteStride":8,"count":627}}},{"buffer":1,"byteOffset":8340,"byteLength":5016,"target":34962,"byteStride":8,"extensions":{"EXT_meshopt_compression":{"buffer":0,"byteOffset":3788,"byteLength":3678,"mode":"ATTRIBUTES","byteStride":8,"count":627}}},{"buffer":1,"byteOffset":13356,"byteLength":2508,"target":34962,"byteStride":4,"extensions":{"EXT_meshopt_compression":{"buffer":0,"byteOffset":7468,"byteLength":955,"mode":"ATTRIBUTES","byteStride":4,"count":627}}}],"samplers":[{"magFilter":9728,"minFilter":9984,"wrapS":10497,"wrapT":10497},{"magFilter":9729,"minFilter":9987,"wrapS":10497,"wrapT":10497}],"textures":[{"sampler":0,"extensions":{"EXT_texture_webp":{"source":0}}},{"sampler":1,"extensions":{"EXT_texture_webp":{"source":1}}}],"images":[{"name":"c20","mimeType":"image/webp","uri":"../textures/777c733da0064ecb.webp"},{"name":"m-r20","mimeType":"image/webp","uri":"../textures/e5bc8e53bf043f92.webp"}],"buffers":[{"uri":"20-Leaf.bin","byteLength":8424},{"byteLength":15864,"extensions":{"EXT_meshopt_compression":{"fallback":true}}}],"materials":[{"name":"s","doubleSided":true,"pbrMetallicRoughness":{"baseColorTexture":{"index":0},"metallicRoughnessTexture":{"index":1}}}],"meshes":[{"name":"s.001","primitives":[{"attributes":{"POSITION":1,"NORMAL":2,"TEXCOORD_0":3},"mode":4,"material":0,"indices":0}]}],"nodes":[{"name":"s","translation":[0.00022906064987182617,0.46145278215408325,-0.001779511570930481],"scale":[0.9454144835472107,0.9454144835472107,0.9454144835472107],"mesh":0},{"name":"pack_root","children":[0]}],"scenes":[{"name":"Scene","nodes":[1]}],"scene":0,"extensionsUsed":["EXT_meshopt_compression","EXT_texture_webp","KHR_mesh_quantization"],"extensionsRequired":["EXT_meshopt_compression","EXT_texture_webp","KHR_mesh_quantization"]}