{"asset":{"generator":"glTF-Transform v4.5.1","version":"2.0"},"accessors":[{"type":"SCALAR","componentType":5123,"count":3006,"normalized":false,"byteOffset":0,"bufferView":0},{"type":"VEC3","componentType":5122,"count":676,"max":[5604,32767,7816],"min":[-5604,-32767,-7816],"normalized":true,"byteOffset":0,"bufferView":1},{"type":"VEC3","componentType":5122,"count":676,"normalized":true,"byteOffset":0,"bufferView":2},{"type":"VEC2","componentType":5123,"count":676,"normalized":true,"byteOffset":0,"bufferView":3}],"bufferViews":[{"buffer":1,"byteOffset":0,"byteLength":6012,"target":34963,"extensions":{"EXT_meshopt_compression":{"buffer":0,"byteOffset":0,"byteLength":1037,"mode":"TRIANGLES","byteStride":2,"count":3006}}},{"buffer":1,"byteOffset":6012,"byteLength":5408,"target":34962,"byteStride":8,"extensions":{"EXT_meshopt_compression":{"buffer":0,"byteOffset":1040,"byteLength":3201,"mode":"ATTRIBUTES","byteStride":8,"count":676}}},{"buffer":1,"byteOffset":11420,"byteLength":5408,"target":34962,"byteStride":8,"extensions":{"EXT_meshopt_compression":{"buffer":0,"byteOffset":4244,"byteLength":4034,"mode":"ATTRIBUTES","byteStride":8,"count":676}}},{"buffer":1,"byteOffset":16828,"byteLength":2704,"target":34962,"byteStride":4,"extensions":{"EXT_meshopt_compression":{"buffer":0,"byteOffset":8280,"byteLength":715,"mode":"ATTRIBUTES","byteStride":4,"count":676}}}],"samplers":[{"magFilter":9729,"minFilter":9987,"wrapS":10497,"wrapT":10497}],"textures":[{"sampler":0,"extensions":{"EXT_texture_webp":{"source":0}}},{"sampler":0,"extensions":{"EXT_texture_webp":{"source":1}}}],"images":[{"name":"c22","mimeType":"image/webp","uri":"../textures/8473d9267917b982.webp"},{"name":"m22-r22","mimeType":"image/webp","uri":"../textures/6251bcec80457e33.webp"}],"buffers":[{"uri":"22-Antler.bin","byteLength":8996},{"byteLength":19532,"extensions":{"EXT_meshopt_compression":{"fallback":true}}}],"materials":[{"name":"s","doubleSided":true,"pbrMetallicRoughness":{"baseColorTexture":{"index":0},"metallicRoughnessTexture":{"index":1}},"extensions":{"KHR_materials_ior":{"ior":1.4500000476837158},"KHR_materials_specular":{"specularColorFactor":[2.371357614441398,2.371357614441398,2.371357614441398]}}}],"meshes":[{"name":"s","primitives":[{"attributes":{"POSITION":1,"NORMAL":2,"TEXCOORD_0":3},"mode":4,"material":0,"indices":0}]}],"nodes":[{"name":"s","translation":[0.000585407018661499,0.6379602998495102,0.0003921687602996826],"scale":[1.015834465622902,1.015834465622902,1.015834465622902],"mesh":0},{"name":"pack_root","children":[0]}],"scenes":[{"name":"Scene","nodes":[1]}],"scene":0,"extensionsUsed":["EXT_meshopt_compression","EXT_texture_webp","KHR_materials_ior","KHR_materials_specular","KHR_mesh_quantization"],"extensionsRequired":["EXT_meshopt_compression","EXT_texture_webp","KHR_mesh_quantization"]}