{"asset":{"generator":"glTF-Transform v4.5.1","version":"2.0"},"accessors":[{"type":"SCALAR","componentType":5123,"count":1422,"normalized":false,"byteOffset":0,"bufferView":0},{"type":"SCALAR","componentType":5123,"count":753,"normalized":false,"byteOffset":2844,"bufferView":0},{"type":"SCALAR","componentType":5123,"count":726,"normalized":false,"byteOffset":4350,"bufferView":0},{"type":"VEC3","componentType":5122,"count":288,"max":[3908,32767,2372],"min":[-3908,-32767,-2372],"normalized":true,"byteOffset":0,"bufferView":1},{"type":"VEC3","componentType":5122,"count":288,"normalized":true,"byteOffset":0,"bufferView":2},{"type":"VEC2","componentType":5123,"count":288,"normalized":true,"byteOffset":0,"bufferView":3},{"type":"VEC3","componentType":5122,"count":236,"max":[7816,32767,2404],"min":[-7816,-32767,-2404],"normalized":true,"byteOffset":0,"bufferView":4},{"type":"VEC3","componentType":5122,"count":236,"normalized":true,"byteOffset":0,"bufferView":5},{"type":"VEC2","componentType":5123,"count":236,"normalized":true,"byteOffset":0,"bufferView":6},{"type":"VEC3","componentType":5122,"count":209,"max":[5348,32767,8617],"min":[-5348,-32767,-8617],"normalized":true,"byteOffset":0,"bufferView":7},{"type":"VEC3","componentType":5122,"count":209,"normalized":true,"byteOffset":0,"bufferView":8},{"type":"VEC2","componentType":5123,"count":209,"normalized":true,"byteOffset":0,"bufferView":9}],"bufferViews":[{"buffer":1,"byteOffset":0,"byteLength":5802,"target":34963,"extensions":{"EXT_meshopt_compression":{"buffer":0,"byteOffset":0,"byteLength":1054,"mode":"TRIANGLES","byteStride":2,"count":2901}}},{"buffer":1,"byteOffset":5804,"byteLength":2304,"target":34962,"byteStride":8,"extensions":{"EXT_meshopt_compression":{"buffer":0,"byteOffset":1056,"byteLength":1352,"mode":"ATTRIBUTES","byteStride":8,"count":288}}},{"buffer":1,"byteOffset":8108,"byteLength":2304,"target":34962,"byteStride":8,"extensions":{"EXT_meshopt_compression":{"buffer":0,"byteOffset":2408,"byteLength":1749,"mode":"ATTRIBUTES","byteStride":8,"count":288}}},{"buffer":1,"byteOffset":10412,"byteLength":1152,"target":34962,"byteStride":4,"extensions":{"EXT_meshopt_compression":{"buffer":0,"byteOffset":4160,"byteLength":341,"mode":"ATTRIBUTES","byteStride":4,"count":288}}},{"buffer":1,"byteOffset":11564,"byteLength":1888,"target":34962,"byteStride":8,"extensions":{"EXT_meshopt_compression":{"buffer":0,"byteOffset":4504,"byteLength":1190,"mode":"ATTRIBUTES","byteStride":8,"count":236}}},{"buffer":1,"byteOffset":13452,"byteLength":1888,"target":34962,"byteStride":8,"extensions":{"EXT_meshopt_compression":{"buffer":0,"byteOffset":5696,"byteLength":1330,"mode":"ATTRIBUTES","byteStride":8,"count":236}}},{"buffer":1,"byteOffset":15340,"byteLength":944,"target":34962,"byteStride":4,"extensions":{"EXT_meshopt_compression":{"buffer":0,"byteOffset":7028,"byteLength":485,"mode":"ATTRIBUTES","byteStride":4,"count":236}}},{"buffer":1,"byteOffset":16284,"byteLength":1672,"target":34962,"byteStride":8,"extensions":{"EXT_meshopt_compression":{"buffer":0,"byteOffset":7516,"byteLength":1209,"mode":"ATTRIBUTES","byteStride":8,"count":209}}},{"buffer":1,"byteOffset":17956,"byteLength":1672,"target":34962,"byteStride":8,"extensions":{"EXT_meshopt_compression":{"buffer":0,"byteOffset":8728,"byteLength":1341,"mode":"ATTRIBUTES","byteStride":8,"count":209}}},{"buffer":1,"byteOffset":19628,"byteLength":836,"target":34962,"byteStride":4,"extensions":{"EXT_meshopt_compression":{"buffer":0,"byteOffset":10072,"byteLength":407,"mode":"ATTRIBUTES","byteStride":4,"count":209}}}],"samplers":[{"magFilter":9729,"minFilter":9987,"wrapS":10497,"wrapT":10497}],"textures":[{"sampler":0,"extensions":{"EXT_texture_webp":{"source":0}}}],"images":[{"name":"c24","mimeType":"image/webp","uri":"../textures/477b3d35feac9e64.webp"}],"buffers":[{"uri":"24-Coral.bin","byteLength":10480},{"byteLength":20464,"extensions":{"EXT_meshopt_compression":{"fallback":true}}}],"materials":[{"name":"s","doubleSided":true,"pbrMetallicRoughness":{"roughnessFactor":0.8,"metallicFactor":0.1,"baseColorTexture":{"index":0}}}],"meshes":[{"name":"s","primitives":[{"attributes":{"POSITION":3,"NORMAL":4,"TEXCOORD_0":5},"mode":4,"material":0,"indices":0}]},{"name":"1","primitives":[{"attributes":{"POSITION":6,"NORMAL":7,"TEXCOORD_0":8},"mode":4,"material":0,"indices":1}]},{"name":"2","primitives":[{"attributes":{"POSITION":9,"NORMAL":10,"TEXCOORD_0":11},"mode":4,"material":0,"indices":2}]}],"nodes":[{"name":"s","translation":[-0.0020820721983909607,0.3204897940158844,-0.0051121897995471954],"scale":[0.8079639375209808,0.8079639375209808,0.8079639375209808],"mesh":0},{"name":"1","translation":[-0.12023529410362244,0.7537871189415455,-0.030200306326150894],"scale":[0.6624370031058788,0.6624370031058788,0.6624370031058788],"mesh":1},{"name":"2","translation":[0.12023528954350295,0.7537871189415455,0.03020032448117562],"rotation":[0,0.9999999999999971,0,7.549790126404267e-8],"scale":[0.6624370031058864,0.6624370031058788,0.6624370031058864],"mesh":1},{"name":"3","translation":[-0.046208322048187256,-0.0885145366191864,-0.0023914501070976257],"scale":[0.2821699380874634,0.2821699380874634,0.2821699380874634],"mesh":2},{"name":"4","translation":[0.046208322048187256,-0.0885145366191864,-0.0023914501070976257],"scale":[-0.2821699380874634,0.2821699380874634,0.2821699380874634],"mesh":2},{"name":"pack_root","children":[0,1,2,3,4]}],"scenes":[{"name":"Scene","nodes":[5]}],"scene":0,"extensionsUsed":["EXT_meshopt_compression","EXT_texture_webp","KHR_mesh_quantization"],"extensionsRequired":["EXT_meshopt_compression","EXT_texture_webp","KHR_mesh_quantization"]}