{"asset":{"generator":"glTF-Transform v4.5.1","version":"2.0"},"accessors":[{"type":"SCALAR","componentType":5123,"count":1242,"normalized":false,"byteOffset":0,"bufferView":0},{"type":"SCALAR","componentType":5123,"count":114,"normalized":false,"byteOffset":2484,"bufferView":0},{"type":"VEC3","componentType":5122,"count":444,"max":[6028,32767,2116],"min":[-6028,-32767,-2116],"normalized":true,"byteOffset":0,"bufferView":1},{"type":"VEC3","componentType":5122,"count":444,"normalized":true,"byteOffset":0,"bufferView":2},{"type":"VEC4","componentType":5121,"count":444,"normalized":true,"byteOffset":0,"bufferView":3},{"type":"VEC3","componentType":5122,"count":54,"max":[32767,18210,4936],"min":[-32767,-18210,-4936],"normalized":true,"byteOffset":0,"bufferView":4},{"type":"VEC3","componentType":5122,"count":54,"normalized":true,"byteOffset":0,"bufferView":5}],"bufferViews":[{"buffer":1,"byteOffset":0,"byteLength":2712,"target":34963,"extensions":{"EXT_meshopt_compression":{"buffer":0,"byteOffset":0,"byteLength":555,"mode":"TRIANGLES","byteStride":2,"count":1356}}},{"buffer":1,"byteOffset":2712,"byteLength":3552,"target":34962,"byteStride":8,"extensions":{"EXT_meshopt_compression":{"buffer":0,"byteOffset":556,"byteLength":2143,"mode":"ATTRIBUTES","byteStride":8,"count":444}}},{"buffer":1,"byteOffset":6264,"byteLength":3552,"target":34962,"byteStride":8,"extensions":{"EXT_meshopt_compression":{"buffer":0,"byteOffset":2700,"byteLength":2710,"mode":"ATTRIBUTES","byteStride":8,"count":444}}},{"buffer":1,"byteOffset":9816,"byteLength":1776,"target":34962,"byteStride":4,"extensions":{"EXT_meshopt_compression":{"buffer":0,"byteOffset":5412,"byteLength":1620,"mode":"ATTRIBUTES","byteStride":4,"count":444}}},{"buffer":1,"byteOffset":11592,"byteLength":432,"target":34962,"byteStride":8,"extensions":{"EXT_meshopt_compression":{"buffer":0,"byteOffset":7032,"byteLength":331,"mode":"ATTRIBUTES","byteStride":8,"count":54}}},{"buffer":1,"byteOffset":12024,"byteLength":432,"target":34962,"byteStride":8,"extensions":{"EXT_meshopt_compression":{"buffer":0,"byteOffset":7364,"byteLength":299,"mode":"ATTRIBUTES","byteStride":8,"count":54}}}],"buffers":[{"uri":"26-Wooden.bin","byteLength":7664},{"byteLength":12456,"extensions":{"EXT_meshopt_compression":{"fallback":true}}}],"materials":[{"name":"1","doubleSided":true,"pbrMetallicRoughness":{"baseColorFactor":[0.9653504490852356,0.5640179514884949,0.1448025405406952,1],"roughnessFactor":0.8,"metallicFactor":0.1}},{"name":"2","doubleSided":true,"pbrMetallicRoughness":{"baseColorFactor":[0.05834435299038887,0.3563010096549988,0.04709681496024132,1],"roughnessFactor":0.8,"metallicFactor":0}}],"meshes":[{"name":"s","primitives":[{"attributes":{"POSITION":2,"NORMAL":3,"COLOR_0":4},"mode":4,"material":0,"indices":0}]},{"name":"2","primitives":[{"attributes":{"POSITION":5,"NORMAL":6},"mode":4,"material":1,"indices":1}]}],"nodes":[{"name":"s","translation":[0.026338711380958557,0.5031956434249878,-0.0011393316090106964],"scale":[0.8784736394882202,0.8784736394882202,0.8784736394882202],"mesh":0},{"name":"2","translation":[0.006312474608421326,0.1789398416876793,-0.002653110772371292],"scale":[0.15706861019134521,0.15706861019134521,0.15706861019134521],"mesh":1},{"name":"pack_root","children":[0,1]}],"scenes":[{"name":"Scene","nodes":[2]}],"scene":0,"extensionsUsed":["EXT_meshopt_compression","KHR_mesh_quantization"],"extensionsRequired":["EXT_meshopt_compression","KHR_mesh_quantization"]}