{"asset":{"generator":"glTF-Transform v4.5.1","version":"2.0"},"accessors":[{"type":"SCALAR","componentType":5123,"count":1506,"normalized":false,"byteOffset":0,"bufferView":0},{"type":"SCALAR","componentType":5123,"count":414,"normalized":false,"byteOffset":3012,"bufferView":0},{"type":"VEC3","componentType":5122,"count":614,"max":[4420,32767,864],"min":[-4420,-32767,-864],"normalized":true,"byteOffset":0,"bufferView":1},{"type":"VEC3","componentType":5122,"count":614,"normalized":true,"byteOffset":0,"bufferView":2},{"type":"VEC2","componentType":5123,"count":614,"normalized":true,"byteOffset":0,"bufferView":3},{"type":"VEC3","componentType":5122,"count":164,"max":[22390,32767,2884],"min":[-22390,-32767,-2884],"normalized":true,"byteOffset":0,"bufferView":4},{"type":"VEC3","componentType":5122,"count":164,"normalized":true,"byteOffset":0,"bufferView":5},{"type":"VEC2","componentType":5123,"count":164,"normalized":true,"byteOffset":0,"bufferView":6}],"bufferViews":[{"buffer":1,"byteOffset":0,"byteLength":3840,"target":34963,"extensions":{"EXT_meshopt_compression":{"buffer":0,"byteOffset":0,"byteLength":672,"mode":"TRIANGLES","byteStride":2,"count":1920}}},{"buffer":1,"byteOffset":3840,"byteLength":4912,"target":34962,"byteStride":8,"extensions":{"EXT_meshopt_compression":{"buffer":0,"byteOffset":672,"byteLength":2191,"mode":"ATTRIBUTES","byteStride":8,"count":614}}},{"buffer":1,"byteOffset":8752,"byteLength":4912,"target":34962,"byteStride":8,"extensions":{"EXT_meshopt_compression":{"buffer":0,"byteOffset":2864,"byteLength":593,"mode":"ATTRIBUTES","byteStride":8,"count":614}}},{"buffer":1,"byteOffset":13664,"byteLength":2456,"target":34962,"byteStride":4,"extensions":{"EXT_meshopt_compression":{"buffer":0,"byteOffset":3460,"byteLength":235,"mode":"ATTRIBUTES","byteStride":4,"count":614}}},{"buffer":1,"byteOffset":16120,"byteLength":1312,"target":34962,"byteStride":8,"extensions":{"EXT_meshopt_compression":{"buffer":0,"byteOffset":3696,"byteLength":923,"mode":"ATTRIBUTES","byteStride":8,"count":164}}},{"buffer":1,"byteOffset":17432,"byteLength":1312,"target":34962,"byteStride":8,"extensions":{"EXT_meshopt_compression":{"buffer":0,"byteOffset":4620,"byteLength":763,"mode":"ATTRIBUTES","byteStride":8,"count":164}}},{"buffer":1,"byteOffset":18744,"byteLength":656,"target":34962,"byteStride":4,"extensions":{"EXT_meshopt_compression":{"buffer":0,"byteOffset":5384,"byteLength":129,"mode":"ATTRIBUTES","byteStride":4,"count":164}}}],"samplers":[{"magFilter":9729,"minFilter":9987,"wrapS":10497,"wrapT":10497}],"textures":[{"sampler":0,"extensions":{"EXT_texture_webp":{"source":0}}},{"sampler":0,"extensions":{"EXT_texture_webp":{"source":1}}}],"images":[{"name":"c27","mimeType":"image/webp","uri":"../textures/12870a7de5b058ca.webp"},{"name":"m27-r27","mimeType":"image/webp","uri":"../textures/0560191020a8079d.webp"}],"buffers":[{"uri":"27-Pattern.bin","byteLength":5516},{"byteLength":19400,"extensions":{"EXT_meshopt_compression":{"fallback":true}}}],"materials":[{"name":"s","doubleSided":true,"pbrMetallicRoughness":{"baseColorTexture":{"index":0},"metallicRoughnessTexture":{"index":1}}}],"meshes":[{"name":"s","primitives":[{"attributes":{"POSITION":2,"NORMAL":3,"TEXCOORD_0":4},"mode":4,"material":0,"indices":0}]},{"name":"a","primitives":[{"attributes":{"POSITION":5,"NORMAL":6,"TEXCOORD_0":7},"mode":4,"material":0,"indices":1}]}],"nodes":[{"name":"s","translation":[-0.0010260790586471558,0.2346309944987297,0.012693159223999828],"scale":[0.4809296801686287,0.4809296801686287,0.4809296801686287],"mesh":0},{"name":"1","translation":[-0.0010260790586471558,0.2346309944987297,-0.012693159223999828],"rotation":[0,1,0,0],"scale":[-0.4809296801686287,0.4809296801686287,0.4809296801686287],"mesh":0},{"name":"2","translation":[0.012308284640312195,-0.13780970871448517,0.017259872518479824],"scale":[0.19619010388851166,0.19619010388851166,0.19619010388851166],"mesh":1},{"name":"3","translation":[-0.012308284640312195,-0.13780970871448517,0.017259872518479824],"scale":[-0.19619010388851166,0.19619010388851166,0.19619010388851166],"mesh":1},{"name":"4","translation":[-0.012308282034143893,-0.13780970871448517,-0.01725987437697914],"rotation":[0,0.9999999999999971,0,7.549790126404269e-8],"scale":[0.19619010388851388,0.19619010388851166,0.19619010388851388],"mesh":1},{"name":"5","translation":[0.012308284640312195,-0.13780970871448517,-0.017259872518479824],"rotation":[0,1,0,0],"scale":[-0.19619010388851166,0.19619010388851166,0.19619010388851166],"mesh":1},{"name":"pack_root","children":[0,1,2,3,4,5]}],"scenes":[{"name":"Scene","nodes":[6]}],"scene":0,"extensionsUsed":["EXT_meshopt_compression","EXT_texture_webp","KHR_mesh_quantization"],"extensionsRequired":["EXT_meshopt_compression","EXT_texture_webp","KHR_mesh_quantization"]}