{"asset":{"generator":"glTF-Transform v4.5.1","version":"2.0"},"accessors":[{"type":"SCALAR","componentType":5123,"count":972,"normalized":false,"byteOffset":0,"bufferView":0},{"type":"VEC3","componentType":5122,"count":397,"max":[8593,32767,5384],"min":[-8593,-32767,-5384],"normalized":true,"byteOffset":0,"bufferView":1},{"type":"VEC3","componentType":5122,"count":397,"normalized":true,"byteOffset":0,"bufferView":2},{"type":"VEC2","componentType":5123,"count":397,"normalized":true,"byteOffset":0,"bufferView":3}],"bufferViews":[{"buffer":1,"byteOffset":0,"byteLength":1944,"target":34963,"extensions":{"EXT_meshopt_compression":{"buffer":0,"byteOffset":0,"byteLength":354,"mode":"TRIANGLES","byteStride":2,"count":972}}},{"buffer":1,"byteOffset":1944,"byteLength":3176,"target":34962,"byteStride":8,"extensions":{"EXT_meshopt_compression":{"buffer":0,"byteOffset":356,"byteLength":2024,"mode":"ATTRIBUTES","byteStride":8,"count":397}}},{"buffer":1,"byteOffset":5120,"byteLength":3176,"target":34962,"byteStride":8,"extensions":{"EXT_meshopt_compression":{"buffer":0,"byteOffset":2380,"byteLength":2094,"mode":"ATTRIBUTES","byteStride":8,"count":397}}},{"buffer":1,"byteOffset":8296,"byteLength":1588,"target":34962,"byteStride":4,"extensions":{"EXT_meshopt_compression":{"buffer":0,"byteOffset":4476,"byteLength":556,"mode":"ATTRIBUTES","byteStride":4,"count":397}}}],"samplers":[{"magFilter":9729,"minFilter":9987,"wrapS":10497,"wrapT":10497}],"textures":[{"sampler":0,"extensions":{"EXT_texture_webp":{"source":0}}},{"sampler":0,"extensions":{"EXT_texture_webp":{"source":1}}}],"images":[{"name":"c28","mimeType":"image/webp","uri":"../textures/14493fe3c0f2ad5d.webp"},{"name":"m-r28","mimeType":"image/webp","uri":"../textures/7736e4f25f378f76.webp"}],"buffers":[{"uri":"28-Asymmetrical.bin","byteLength":5032},{"byteLength":9884,"extensions":{"EXT_meshopt_compression":{"fallback":true}}}],"materials":[{"name":"s","doubleSided":true,"pbrMetallicRoughness":{"baseColorTexture":{"index":0},"metallicRoughnessTexture":{"index":1}}}],"meshes":[{"name":"s","primitives":[{"attributes":{"POSITION":1,"NORMAL":2,"TEXCOORD_0":3},"mode":4,"material":0,"indices":0}]}],"nodes":[{"name":"s","translation":[0.03507806360721588,0.24009554088115692,-0.002688489854335785],"scale":[0.5888310223817825,0.5888310223817825,0.5888310223817825],"mesh":0},{"name":"pack_root","children":[0]}],"scenes":[{"name":"Scene","nodes":[1]}],"scene":0,"extensionsUsed":["EXT_meshopt_compression","EXT_texture_webp","KHR_mesh_quantization"],"extensionsRequired":["EXT_meshopt_compression","EXT_texture_webp","KHR_mesh_quantization"]}