{"asset":{"generator":"glTF-Transform v4.5.1","version":"2.0"},"accessors":[{"type":"SCALAR","componentType":5126,"count":34,"max":[4.949999809265137],"min":[0],"normalized":false,"byteOffset":0,"bufferView":0},{"type":"VEC4","componentType":5126,"count":34,"normalized":false,"byteOffset":0,"bufferView":1},{"type":"SCALAR","componentType":5126,"count":4,"max":[5],"min":[0],"normalized":false,"byteOffset":136,"bufferView":0},{"type":"VEC4","componentType":5126,"count":4,"normalized":false,"byteOffset":544,"bufferView":1},{"type":"SCALAR","componentType":5126,"count":33,"max":[4.949999809265137],"min":[0],"normalized":false,"byteOffset":152,"bufferView":0},{"type":"VEC4","componentType":5126,"count":33,"normalized":false,"byteOffset":608,"bufferView":1},{"type":"SCALAR","componentType":5123,"count":225,"normalized":false,"byteOffset":0,"bufferView":2},{"type":"SCALAR","componentType":5123,"count":54,"normalized":false,"byteOffset":450,"bufferView":2},{"type":"SCALAR","componentType":5123,"count":177,"normalized":false,"byteOffset":558,"bufferView":2},{"type":"SCALAR","componentType":5123,"count":348,"normalized":false,"byteOffset":912,"bufferView":2},{"type":"VEC3","componentType":5122,"count":89,"max":[7580,32767,3084],"min":[-7580,-32767,-3084],"normalized":true,"byteOffset":0,"bufferView":3},{"type":"VEC3","componentType":5122,"count":89,"normalized":true,"byteOffset":0,"bufferView":4},{"type":"VEC2","componentType":5123,"count":89,"normalized":true,"byteOffset":0,"bufferView":5},{"type":"VEC3","componentType":5122,"count":21,"max":[7708,32767,5396],"min":[-7708,-32767,-5396],"normalized":true,"byteOffset":0,"bufferView":6},{"type":"VEC3","componentType":5122,"count":21,"normalized":true,"byteOffset":0,"bufferView":7},{"type":"VEC2","componentType":5123,"count":21,"normalized":true,"byteOffset":0,"bufferView":8},{"type":"VEC3","componentType":5122,"count":101,"max":[32767,32639,10409],"min":[-32767,-32639,-10409],"normalized":true,"byteOffset":0,"bufferView":9},{"type":"VEC3","componentType":5122,"count":101,"normalized":true,"byteOffset":0,"bufferView":10},{"type":"VEC2","componentType":5123,"count":101,"normalized":true,"byteOffset":0,"bufferView":11},{"type":"VEC3","componentType":5122,"count":164,"max":[32767,32767,20818],"min":[-32767,-32767,-20818],"normalized":true,"byteOffset":0,"bufferView":12},{"type":"VEC3","componentType":5122,"count":164,"normalized":true,"byteOffset":0,"bufferView":13},{"type":"VEC2","componentType":5123,"count":164,"normalized":true,"byteOffset":0,"bufferView":14}],"bufferViews":[{"buffer":1,"byteOffset":0,"byteLength":284,"extensions":{"EXT_meshopt_compression":{"buffer":0,"byteOffset":0,"byteLength":279,"mode":"ATTRIBUTES","byteStride":4,"count":71}}},{"buffer":1,"byteOffset":284,"byteLength":1136,"extensions":{"EXT_meshopt_compression":{"buffer":0,"byteOffset":280,"byteLength":691,"mode":"ATTRIBUTES","byteStride":16,"count":71}}},{"buffer":1,"byteOffset":1420,"byteLength":1608,"target":34963,"extensions":{"EXT_meshopt_compression":{"buffer":0,"byteOffset":972,"byteLength":300,"mode":"TRIANGLES","byteStride":2,"count":804}}},{"buffer":1,"byteOffset":3028,"byteLength":712,"target":34962,"byteStride":8,"extensions":{"EXT_meshopt_compression":{"buffer":0,"byteOffset":1272,"byteLength":481,"mode":"ATTRIBUTES","byteStride":8,"count":89}}},{"buffer":1,"byteOffset":3740,"byteLength":712,"target":34962,"byteStride":8,"extensions":{"EXT_meshopt_compression":{"buffer":0,"byteOffset":1756,"byteLength":445,"mode":"ATTRIBUTES","byteStride":8,"count":89}}},{"buffer":1,"byteOffset":4452,"byteLength":356,"target":34962,"byteStride":4,"extensions":{"EXT_meshopt_compression":{"buffer":0,"byteOffset":2204,"byteLength":105,"mode":"ATTRIBUTES","byteStride":4,"count":89}}},{"buffer":1,"byteOffset":4808,"byteLength":168,"target":34962,"byteStride":8,"extensions":{"EXT_meshopt_compression":{"buffer":0,"byteOffset":2312,"byteLength":176,"mode":"ATTRIBUTES","byteStride":8,"count":21}}},{"buffer":1,"byteOffset":4976,"byteLength":168,"target":34962,"byteStride":8,"extensions":{"EXT_meshopt_compression":{"buffer":0,"byteOffset":2488,"byteLength":172,"mode":"ATTRIBUTES","byteStride":8,"count":21}}},{"buffer":1,"byteOffset":5144,"byteLength":84,"target":34962,"byteStride":4,"extensions":{"EXT_meshopt_compression":{"buffer":0,"byteOffset":2660,"byteLength":47,"mode":"ATTRIBUTES","byteStride":4,"count":21}}},{"buffer":1,"byteOffset":5228,"byteLength":808,"target":34962,"byteStride":8,"extensions":{"EXT_meshopt_compression":{"buffer":0,"byteOffset":2708,"byteLength":605,"mode":"ATTRIBUTES","byteStride":8,"count":101}}},{"buffer":1,"byteOffset":6036,"byteLength":808,"target":34962,"byteStride":8,"extensions":{"EXT_meshopt_compression":{"buffer":0,"byteOffset":3316,"byteLength":434,"mode":"ATTRIBUTES","byteStride":8,"count":101}}},{"buffer":1,"byteOffset":6844,"byteLength":404,"target":34962,"byteStride":4,"extensions":{"EXT_meshopt_compression":{"buffer":0,"byteOffset":3752,"byteLength":65,"mode":"ATTRIBUTES","byteStride":4,"count":101}}},{"buffer":1,"byteOffset":7248,"byteLength":1312,"target":34962,"byteStride":8,"extensions":{"EXT_meshopt_compression":{"buffer":0,"byteOffset":3820,"byteLength":949,"mode":"ATTRIBUTES","byteStride":8,"count":164}}},{"buffer":1,"byteOffset":8560,"byteLength":1312,"target":34962,"byteStride":8,"extensions":{"EXT_meshopt_compression":{"buffer":0,"byteOffset":4772,"byteLength":591,"mode":"ATTRIBUTES","byteStride":8,"count":164}}},{"buffer":1,"byteOffset":9872,"byteLength":656,"target":34962,"byteStride":4,"extensions":{"EXT_meshopt_compression":{"buffer":0,"byteOffset":5364,"byteLength":107,"mode":"ATTRIBUTES","byteStride":4,"count":164}}}],"samplers":[{"magFilter":9729,"minFilter":9987,"wrapS":33071,"wrapT":33071},{"magFilter":9729,"minFilter":9987,"wrapS":10497,"wrapT":10497}],"textures":[{"sampler":0,"extensions":{"EXT_texture_webp":{"source":0}}},{"sampler":1,"extensions":{"EXT_texture_webp":{"source":1}}}],"images":[{"name":"c","mimeType":"image/webp","uri":"../textures/0f2fc75c5bdc4b31.webp"},{"name":"m2-r2","mimeType":"image/webp","uri":"../textures/f478975c3b7a01e1.webp"}],"buffers":[{"uri":"3-Gears.bin","byteLength":5472},{"byteLength":10528,"extensions":{"EXT_meshopt_compression":{"fallback":true}}}],"materials":[{"name":"s","doubleSided":true,"pbrMetallicRoughness":{"baseColorTexture":{"index":0},"metallicRoughnessTexture":{"index":1}}}],"meshes":[{"name":"s","primitives":[{"attributes":{"POSITION":10,"NORMAL":11,"TEXCOORD_0":12},"mode":4,"material":0,"indices":6}]},{"name":"3","primitives":[{"attributes":{"POSITION":13,"NORMAL":14,"TEXCOORD_0":15},"mode":4,"material":0,"indices":7}]},{"name":"2","primitives":[{"attributes":{"POSITION":16,"NORMAL":17,"TEXCOORD_0":18},"mode":4,"material":0,"indices":8}]},{"name":"1","primitives":[{"attributes":{"POSITION":19,"NORMAL":20,"TEXCOORD_0":21},"mode":4,"material":0,"indices":9}]}],"nodes":[{"name":"s","translation":[0.03483973816037178,0.24578633904457092,0.0004513449966907501],"scale":[0.4615906774997711,0.4615906774997711,0.4615906774997711],"mesh":0},{"name":"3","translation":[0.07729142904281616,0.39411237835884094,-0.025603540241718292],"children":[5]},{"name":"2","translation":[0.11608245968818665,0.22150470316410065,-0.011592532508075237],"children":[6]},{"name":"1","children":[7]},{"name":"pack_root","children":[0,1,2,3]},{"translation":[0.00029168277978897095,0.17622205801308155,0.028972912579774857],"scale":[0.22957339696586132,0.22957339696586132,0.22957339696586132],"mesh":1},{"translation":[-1.4901161193847656e-8,0.00023859739303588867,0.03413699101656675],"scale":[0.1398756504058838,0.1398756504058838,0.1398756504058838],"mesh":2},{"translation":[0.00038523972034454346,-0.00015877187252044678,0.10266603529453278],"scale":[0.21043267846107483,0.21043267846107483,0.21043267846107483],"mesh":3}],"animations":[{"name":"Animation","samplers":[{"input":0,"output":1,"interpolation":"LINEAR"},{"input":4,"output":5,"interpolation":"LINEAR"},{"input":2,"output":3,"interpolation":"LINEAR"}],"channels":[{"sampler":0,"target":{"node":1,"path":"rotation"}},{"sampler":1,"target":{"node":2,"path":"rotation"}},{"sampler":2,"target":{"node":3,"path":"rotation"}}]}],"scenes":[{"name":"Scene","nodes":[4]}],"scene":0,"extensionsUsed":["EXT_meshopt_compression","EXT_texture_webp","KHR_mesh_quantization"],"extensionsRequired":["EXT_meshopt_compression","EXT_texture_webp","KHR_mesh_quantization"]}