{"asset":{"generator":"glTF-Transform v4.5.1","version":"2.0"},"accessors":[{"type":"SCALAR","componentType":5123,"count":1581,"normalized":false,"byteOffset":0,"bufferView":0},{"type":"VEC3","componentType":5122,"count":778,"max":[14237,32767,5256],"min":[-14237,-32767,-5256],"normalized":true,"byteOffset":0,"bufferView":1},{"type":"VEC3","componentType":5122,"count":778,"normalized":true,"byteOffset":0,"bufferView":2},{"type":"VEC2","componentType":5123,"count":778,"normalized":true,"byteOffset":0,"bufferView":3}],"bufferViews":[{"buffer":1,"byteOffset":0,"byteLength":3162,"target":34963,"extensions":{"EXT_meshopt_compression":{"buffer":0,"byteOffset":0,"byteLength":549,"mode":"TRIANGLES","byteStride":2,"count":1581}}},{"buffer":1,"byteOffset":3164,"byteLength":6224,"target":34962,"byteStride":8,"extensions":{"EXT_meshopt_compression":{"buffer":0,"byteOffset":552,"byteLength":4217,"mode":"ATTRIBUTES","byteStride":8,"count":778}}},{"buffer":1,"byteOffset":9388,"byteLength":6224,"target":34962,"byteStride":8,"extensions":{"EXT_meshopt_compression":{"buffer":0,"byteOffset":4772,"byteLength":4129,"mode":"ATTRIBUTES","byteStride":8,"count":778}}},{"buffer":1,"byteOffset":15612,"byteLength":3112,"target":34962,"byteStride":4,"extensions":{"EXT_meshopt_compression":{"buffer":0,"byteOffset":8904,"byteLength":1125,"mode":"ATTRIBUTES","byteStride":4,"count":778}}}],"samplers":[{"magFilter":9729,"minFilter":9987,"wrapS":10497,"wrapT":10497}],"textures":[{"sampler":0,"extensions":{"EXT_texture_webp":{"source":1}}},{"sampler":0,"extensions":{"EXT_texture_webp":{"source":0}}},{"sampler":0,"extensions":{"EXT_texture_webp":{"source":2}}}],"images":[{"name":"e4","mimeType":"image/webp","uri":"../textures/b087373f72fc77a0.webp"},{"name":"c4","mimeType":"image/webp","uri":"../textures/60153ea55a37e5bd.webp"},{"name":"m4-r4","mimeType":"image/webp","uri":"../textures/54caad14b8a87bc6.webp"}],"buffers":[{"uri":"4-Elemental.bin","byteLength":10032},{"byteLength":18724,"extensions":{"EXT_meshopt_compression":{"fallback":true}}}],"materials":[{"name":"s","doubleSided":true,"pbrMetallicRoughness":{"baseColorTexture":{"index":0},"metallicRoughnessTexture":{"index":2}},"emissiveFactor":[1,1,1],"emissiveTexture":{"index":1}}],"meshes":[{"name":"s","primitives":[{"attributes":{"POSITION":1,"NORMAL":2,"TEXCOORD_0":3},"mode":4,"material":0,"indices":0}]}],"nodes":[{"name":"s","translation":[-0.10829633474349976,0.326606348156929,0.0004175901412963867],"scale":[0.5885198563337326,0.5885198563337326,0.5885198563337326],"mesh":0},{"name":"pack_root","children":[0]}],"scenes":[{"name":"Scene","nodes":[1]}],"scene":0,"extensionsUsed":["EXT_meshopt_compression","EXT_texture_webp","KHR_mesh_quantization"],"extensionsRequired":["EXT_meshopt_compression","EXT_texture_webp","KHR_mesh_quantization"]}