{"asset":{"generator":"glTF-Transform v4.5.1","version":"2.0"},"accessors":[{"type":"SCALAR","componentType":5123,"count":3933,"normalized":false,"byteOffset":0,"bufferView":0},{"type":"VEC3","componentType":5122,"count":1027,"max":[15197,32767,11285],"min":[-15197,-32767,-11285],"normalized":true,"byteOffset":0,"bufferView":1},{"type":"VEC3","componentType":5122,"count":1027,"normalized":true,"byteOffset":0,"bufferView":2},{"type":"VEC2","componentType":5123,"count":1027,"normalized":true,"byteOffset":0,"bufferView":3}],"bufferViews":[{"buffer":1,"byteOffset":0,"byteLength":7866,"target":34963,"extensions":{"EXT_meshopt_compression":{"buffer":0,"byteOffset":0,"byteLength":1413,"mode":"TRIANGLES","byteStride":2,"count":3933}}},{"buffer":1,"byteOffset":7868,"byteLength":8216,"target":34962,"byteStride":8,"extensions":{"EXT_meshopt_compression":{"buffer":0,"byteOffset":1416,"byteLength":4918,"mode":"ATTRIBUTES","byteStride":8,"count":1027}}},{"buffer":1,"byteOffset":16084,"byteLength":8216,"target":34962,"byteStride":8,"extensions":{"EXT_meshopt_compression":{"buffer":0,"byteOffset":6336,"byteLength":6145,"mode":"ATTRIBUTES","byteStride":8,"count":1027}}},{"buffer":1,"byteOffset":24300,"byteLength":4108,"target":34962,"byteStride":4,"extensions":{"EXT_meshopt_compression":{"buffer":0,"byteOffset":12484,"byteLength":1405,"mode":"ATTRIBUTES","byteStride":4,"count":1027}}}],"samplers":[{"magFilter":9729,"minFilter":9987,"wrapS":10497,"wrapT":10497}],"textures":[{"sampler":0,"extensions":{"EXT_texture_webp":{"source":0}}},{"sampler":0,"extensions":{"EXT_texture_webp":{"source":1}}}],"images":[{"name":"c5","mimeType":"image/webp","uri":"../textures/ea4faaa3b9b7d889.webp"},{"name":"m5-r5","mimeType":"image/webp","uri":"../textures/b571e620b0e9f045.webp"}],"buffers":[{"uri":"5-Edible.bin","byteLength":13892},{"byteLength":28408,"extensions":{"EXT_meshopt_compression":{"fallback":true}}}],"materials":[{"name":"s","doubleSided":true,"pbrMetallicRoughness":{"baseColorTexture":{"index":0},"metallicRoughnessTexture":{"index":1}}}],"meshes":[{"name":"a","primitives":[{"attributes":{"POSITION":1,"NORMAL":2,"TEXCOORD_0":3},"mode":4,"material":0,"indices":0}]}],"nodes":[{"name":"a","translation":[0.028929531574249268,0.24851828813552856,-0.035018086433410645],"scale":[0.436479389667511,0.436479389667511,0.436479389667511],"mesh":0},{"name":"pack_root","children":[0]}],"scenes":[{"name":"Scene","nodes":[1]}],"scene":0,"extensionsUsed":["EXT_meshopt_compression","EXT_texture_webp","KHR_mesh_quantization"],"extensionsRequired":["EXT_meshopt_compression","EXT_texture_webp","KHR_mesh_quantization"]}