{"asset":{"generator":"glTF-Transform v4.5.1","version":"2.0"},"accessors":[{"type":"SCALAR","componentType":5123,"count":4371,"normalized":false,"byteOffset":0,"bufferView":0},{"type":"VEC3","componentType":5122,"count":942,"max":[8841,32767,7112],"min":[-8841,-32767,-7112],"normalized":true,"byteOffset":0,"bufferView":1},{"type":"VEC3","componentType":5122,"count":942,"normalized":true,"byteOffset":0,"bufferView":2},{"type":"VEC2","componentType":5123,"count":942,"normalized":true,"byteOffset":0,"bufferView":3}],"bufferViews":[{"buffer":1,"byteOffset":0,"byteLength":8742,"target":34963,"extensions":{"EXT_meshopt_compression":{"buffer":0,"byteOffset":0,"byteLength":1684,"mode":"TRIANGLES","byteStride":2,"count":4371}}},{"buffer":1,"byteOffset":8744,"byteLength":7536,"target":34962,"byteStride":8,"extensions":{"EXT_meshopt_compression":{"buffer":0,"byteOffset":1684,"byteLength":4459,"mode":"ATTRIBUTES","byteStride":8,"count":942}}},{"buffer":1,"byteOffset":16280,"byteLength":7536,"target":34962,"byteStride":8,"extensions":{"EXT_meshopt_compression":{"buffer":0,"byteOffset":6144,"byteLength":5699,"mode":"ATTRIBUTES","byteStride":8,"count":942}}},{"buffer":1,"byteOffset":23816,"byteLength":3768,"target":34962,"byteStride":4,"extensions":{"EXT_meshopt_compression":{"buffer":0,"byteOffset":11844,"byteLength":1907,"mode":"ATTRIBUTES","byteStride":4,"count":942}}}],"samplers":[{"magFilter":9729,"minFilter":9987,"wrapS":10497,"wrapT":10497}],"textures":[{"sampler":0,"extensions":{"EXT_texture_webp":{"source":0}}},{"sampler":0,"extensions":{"EXT_texture_webp":{"source":1}}}],"images":[{"name":"c7","mimeType":"image/webp","uri":"../textures/e29a454a4a050a05.webp"},{"name":"m7-r7","mimeType":"image/webp","uri":"../textures/3858bd6bd6e7eff5.webp"}],"buffers":[{"uri":"7-Cephalopod.bin","byteLength":13752},{"byteLength":27584,"extensions":{"EXT_meshopt_compression":{"fallback":true}}}],"materials":[{"name":"s","doubleSided":true,"pbrMetallicRoughness":{"baseColorTexture":{"index":0},"metallicRoughnessTexture":{"index":1}}}],"meshes":[{"name":"s","primitives":[{"attributes":{"POSITION":1,"NORMAL":2,"TEXCOORD_0":3},"mode":4,"material":0,"indices":0}]}],"nodes":[{"name":"s","translation":[0.05145849287509918,0.39087536931037903,0.004527434706687927],"scale":[0.705471009016037,0.705471009016037,0.705471009016037],"mesh":0},{"name":"pack_root","children":[0]}],"scenes":[{"name":"Scene","nodes":[1]}],"scene":0,"extensionsUsed":["EXT_meshopt_compression","EXT_texture_webp","KHR_mesh_quantization"],"extensionsRequired":["EXT_meshopt_compression","EXT_texture_webp","KHR_mesh_quantization"]}