{"asset":{"generator":"glTF-Transform v4.5.1","version":"2.0"},"accessors":[{"type":"SCALAR","componentType":5123,"count":4500,"normalized":false,"byteOffset":0,"bufferView":0},{"type":"VEC3","componentType":5122,"count":1001,"max":[10965,32767,4616],"min":[-10965,-32767,-4616],"normalized":true,"byteOffset":0,"bufferView":1},{"type":"VEC3","componentType":5122,"count":1001,"normalized":true,"byteOffset":0,"bufferView":2},{"type":"VEC2","componentType":5123,"count":1001,"normalized":true,"byteOffset":0,"bufferView":3}],"bufferViews":[{"buffer":1,"byteOffset":0,"byteLength":9000,"target":34963,"extensions":{"EXT_meshopt_compression":{"buffer":0,"byteOffset":0,"byteLength":1750,"mode":"TRIANGLES","byteStride":2,"count":4500}}},{"buffer":1,"byteOffset":9000,"byteLength":8008,"target":34962,"byteStride":8,"extensions":{"EXT_meshopt_compression":{"buffer":0,"byteOffset":1752,"byteLength":4580,"mode":"ATTRIBUTES","byteStride":8,"count":1001}}},{"buffer":1,"byteOffset":17008,"byteLength":8008,"target":34962,"byteStride":8,"extensions":{"EXT_meshopt_compression":{"buffer":0,"byteOffset":6332,"byteLength":6103,"mode":"ATTRIBUTES","byteStride":8,"count":1001}}},{"buffer":1,"byteOffset":25016,"byteLength":4004,"target":34962,"byteStride":4,"extensions":{"EXT_meshopt_compression":{"buffer":0,"byteOffset":12436,"byteLength":2413,"mode":"ATTRIBUTES","byteStride":4,"count":1001}}}],"samplers":[{"magFilter":9729,"minFilter":9987,"wrapS":10497,"wrapT":10497}],"textures":[{"sampler":0,"extensions":{"EXT_texture_webp":{"source":0}}},{"sampler":0,"extensions":{"EXT_texture_webp":{"source":1}}}],"images":[{"name":"c8","mimeType":"image/webp","uri":"../textures/0c39d2a575fddea8.webp"},{"name":"m8-r8","mimeType":"image/webp","uri":"../textures/a64c9a3745775a69.webp"}],"buffers":[{"uri":"8-Veined.bin","byteLength":14852},{"byteLength":29020,"extensions":{"EXT_meshopt_compression":{"fallback":true}}}],"materials":[{"name":"s","doubleSided":true,"pbrMetallicRoughness":{"baseColorTexture":{"index":0},"metallicRoughnessTexture":{"index":1}},"extensions":{"KHR_materials_clearcoat":{"clearcoatFactor":1,"clearcoatRoughnessFactor":0.6318181753158569},"KHR_materials_ior":{"ior":1.4500000476837158},"KHR_materials_specular":{"specularColorFactor":[2.3713576793670654,2.3713576793670654,2.3713576793670654]}}}],"meshes":[{"name":"s","primitives":[{"attributes":{"POSITION":1,"NORMAL":2,"TEXCOORD_0":3},"mode":4,"material":0,"indices":0}]}],"nodes":[{"name":"s","translation":[0.04108935594558716,0.3278677761554718,0.002295196056365967],"scale":[0.6901473701000214,0.6901473701000214,0.6901473701000214],"mesh":0},{"name":"pack_root","children":[0]}],"scenes":[{"name":"Scene","nodes":[1]}],"scene":0,"extensionsUsed":["EXT_meshopt_compression","EXT_texture_webp","KHR_materials_clearcoat","KHR_materials_ior","KHR_materials_specular","KHR_mesh_quantization"],"extensionsRequired":["EXT_meshopt_compression","EXT_texture_webp","KHR_mesh_quantization"]}