{"asset":{"generator":"glTF-Transform v4.5.1","version":"2.0"},"accessors":[{"type":"SCALAR","componentType":5123,"count":4053,"normalized":false,"byteOffset":0,"bufferView":0},{"type":"VEC3","componentType":5122,"count":1210,"max":[7432,32767,3556],"min":[-7432,-32767,-3556],"normalized":true,"byteOffset":0,"bufferView":1},{"type":"VEC3","componentType":5122,"count":1210,"normalized":true,"byteOffset":0,"bufferView":2},{"type":"VEC2","componentType":5123,"count":1210,"normalized":true,"byteOffset":0,"bufferView":3}],"bufferViews":[{"buffer":1,"byteOffset":0,"byteLength":8106,"target":34963,"extensions":{"EXT_meshopt_compression":{"buffer":0,"byteOffset":0,"byteLength":1396,"mode":"TRIANGLES","byteStride":2,"count":4053}}},{"buffer":1,"byteOffset":8108,"byteLength":9680,"target":34962,"byteStride":8,"extensions":{"EXT_meshopt_compression":{"buffer":0,"byteOffset":1396,"byteLength":5325,"mode":"ATTRIBUTES","byteStride":8,"count":1210}}},{"buffer":1,"byteOffset":17788,"byteLength":9680,"target":34962,"byteStride":8,"extensions":{"EXT_meshopt_compression":{"buffer":0,"byteOffset":6724,"byteLength":6823,"mode":"ATTRIBUTES","byteStride":8,"count":1210}}},{"buffer":1,"byteOffset":27468,"byteLength":4840,"target":34962,"byteStride":4,"extensions":{"EXT_meshopt_compression":{"buffer":0,"byteOffset":13548,"byteLength":1769,"mode":"ATTRIBUTES","byteStride":4,"count":1210}}}],"samplers":[{"magFilter":9729,"minFilter":9987,"wrapS":10497,"wrapT":10497}],"textures":[{"sampler":0,"extensions":{"EXT_texture_webp":{"source":0}}},{"sampler":0,"extensions":{"EXT_texture_webp":{"source":1}}}],"images":[{"name":"c9","mimeType":"image/webp","uri":"../textures/a8166385bfa6cd71.webp"},{"name":"m9-r9","mimeType":"image/webp","uri":"../textures/4f75943209b4850b.webp"}],"buffers":[{"uri":"9-Floral.bin","byteLength":15320},{"byteLength":32308,"extensions":{"EXT_meshopt_compression":{"fallback":true}}}],"materials":[{"name":"s","doubleSided":true,"pbrMetallicRoughness":{"baseColorTexture":{"index":0},"metallicRoughnessTexture":{"index":1}}}],"meshes":[{"name":"s","primitives":[{"attributes":{"POSITION":1,"NORMAL":2,"TEXCOORD_0":3},"mode":4,"material":0,"indices":0}]}],"nodes":[{"name":"s","translation":[-0.014651939272880554,0.4454047977924347,-0.033398061990737915],"scale":[0.8074071109294891,0.8074071109294891,0.8074071109294891],"mesh":0},{"name":"pack_root","children":[0]}],"scenes":[{"name":"Scene","nodes":[1]}],"scene":0,"extensionsUsed":["EXT_meshopt_compression","EXT_texture_webp","KHR_mesh_quantization"],"extensionsRequired":["EXT_meshopt_compression","EXT_texture_webp","KHR_mesh_quantization"]}