{"asset":{"generator":"glTF-Transform v4.5.1","version":"2.0"},"accessors":[{"type":"SCALAR","componentType":5123,"count":2700,"normalized":false,"byteOffset":0,"bufferView":0},{"type":"SCALAR","componentType":5123,"count":1404,"normalized":false,"byteOffset":5400,"bufferView":0},{"type":"VEC4","componentType":5121,"count":1800,"normalized":true,"byteOffset":0,"bufferView":1},{"type":"VEC3","componentType":5122,"count":1800,"max":[31927,26375,32767],"min":[-31927,-26375,-32767],"normalized":true,"byteOffset":0,"bufferView":2},{"type":"VEC3","componentType":5122,"count":1800,"normalized":true,"byteOffset":0,"bufferView":3},{"type":"VEC2","componentType":5123,"count":1800,"normalized":true,"byteOffset":0,"bufferView":4},{"type":"VEC4","componentType":5121,"count":715,"normalized":true,"byteOffset":0,"bufferView":5},{"type":"VEC3","componentType":5122,"count":715,"max":[31275,25755,32667],"min":[-25991,-9921,-31127],"normalized":true,"byteOffset":0,"bufferView":6},{"type":"VEC3","componentType":5122,"count":715,"normalized":true,"byteOffset":0,"bufferView":7},{"type":"VEC2","componentType":5123,"count":715,"normalized":true,"byteOffset":0,"bufferView":8}],"bufferViews":[{"buffer":1,"byteOffset":0,"byteLength":8208,"target":34963,"extensions":{"EXT_meshopt_compression":{"buffer":0,"byteOffset":0,"byteLength":1613,"mode":"TRIANGLES","byteStride":2,"count":4104}}},{"buffer":1,"byteOffset":8208,"byteLength":7200,"target":34962,"byteStride":4,"extensions":{"EXT_meshopt_compression":{"buffer":0,"byteOffset":1616,"byteLength":149,"mode":"ATTRIBUTES","byteStride":4,"count":1800}}},{"buffer":1,"byteOffset":15408,"byteLength":14400,"target":34962,"byteStride":8,"extensions":{"EXT_meshopt_compression":{"buffer":0,"byteOffset":1768,"byteLength":11089,"mode":"ATTRIBUTES","byteStride":8,"count":1800}}},{"buffer":1,"byteOffset":29808,"byteLength":14400,"target":34962,"byteStride":8,"extensions":{"EXT_meshopt_compression":{"buffer":0,"byteOffset":12860,"byteLength":11082,"mode":"ATTRIBUTES","byteStride":8,"count":1800}}},{"buffer":1,"byteOffset":44208,"byteLength":7200,"target":34962,"byteStride":4,"extensions":{"EXT_meshopt_compression":{"buffer":0,"byteOffset":23944,"byteLength":5477,"mode":"ATTRIBUTES","byteStride":4,"count":1800}}},{"buffer":1,"byteOffset":51408,"byteLength":2860,"target":34962,"byteStride":4,"extensions":{"EXT_meshopt_compression":{"buffer":0,"byteOffset":29424,"byteLength":81,"mode":"ATTRIBUTES","byteStride":4,"count":715}}},{"buffer":1,"byteOffset":54268,"byteLength":5720,"target":34962,"byteStride":8,"extensions":{"EXT_meshopt_compression":{"buffer":0,"byteOffset":29508,"byteLength":3882,"mode":"ATTRIBUTES","byteStride":8,"count":715}}},{"buffer":1,"byteOffset":59988,"byteLength":5720,"target":34962,"byteStride":8,"extensions":{"EXT_meshopt_compression":{"buffer":0,"byteOffset":33392,"byteLength":4443,"mode":"ATTRIBUTES","byteStride":8,"count":715}}},{"buffer":1,"byteOffset":65708,"byteLength":2860,"target":34962,"byteStride":4,"extensions":{"EXT_meshopt_compression":{"buffer":0,"byteOffset":37836,"byteLength":2953,"mode":"ATTRIBUTES","byteStride":4,"count":715}}}],"samplers":[{"magFilter":9729,"minFilter":9987,"wrapS":10497,"wrapT":10497}],"textures":[{"sampler":0,"extensions":{"EXT_texture_webp":{"source":0}}},{"sampler":0,"extensions":{"EXT_texture_webp":{"source":1}}}],"images":[{"name":"Leaves_NormalTree_C","mimeType":"image/webp","uri":"../../textures/dd9da6b457fac42e.webp"},{"name":"Flowers","mimeType":"image/webp","uri":"../../textures/cf082c431d5d3df3.webp"}],"buffers":[{"uri":"Bush_Common_Flowers.bin","byteLength":40792},{"byteLength":68568,"extensions":{"EXT_meshopt_compression":{"fallback":true}}}],"materials":[{"name":"Leaves_NormalTree","alphaMode":"MASK","alphaCutoff":0.20000000298023224,"doubleSided":true,"pbrMetallicRoughness":{"metallicFactor":0,"baseColorTexture":{"index":0}}},{"name":"Flowers","alphaMode":"MASK","alphaCutoff":0.20000000298023224,"doubleSided":true,"pbrMetallicRoughness":{"metallicFactor":0,"baseColorTexture":{"index":1}}}],"meshes":[{"name":"tree.009","primitives":[{"attributes":{"COLOR_0":2,"POSITION":3,"NORMAL":4,"TEXCOORD_0":5},"mode":4,"material":0,"indices":0},{"attributes":{"COLOR_0":6,"POSITION":7,"NORMAL":8,"TEXCOORD_0":9},"mode":4,"material":1,"indices":1}]}],"nodes":[{"name":"Bush_Common_Flowers","translation":[0.033946216106414795,0.5561981275677681,0.008181244134902954],"scale":[0.9825704395771027,0.9825704395771027,0.9825704395771027],"mesh":0},{"name":"pack_root","children":[0]}],"scenes":[{"name":"Scene","nodes":[1]}],"scene":0,"extensionsUsed":["EXT_meshopt_compression","EXT_texture_webp","KHR_mesh_quantization"],"extensionsRequired":["EXT_meshopt_compression","EXT_texture_webp","KHR_mesh_quantization"]}