{"asset":{"generator":"glTF-Transform v4.5.1","version":"2.0"},"accessors":[{"type":"SCALAR","componentType":5123,"count":2700,"normalized":false,"byteOffset":0,"bufferView":0},{"type":"VEC4","componentType":5121,"count":1800,"normalized":true,"byteOffset":0,"bufferView":1},{"type":"VEC3","componentType":5122,"count":1800,"max":[31927,26375,32767],"min":[-31927,-26375,-32767],"normalized":true,"byteOffset":0,"bufferView":2},{"type":"VEC3","componentType":5122,"count":1800,"normalized":true,"byteOffset":0,"bufferView":3},{"type":"VEC2","componentType":5123,"count":1800,"normalized":true,"byteOffset":0,"bufferView":4}],"bufferViews":[{"buffer":1,"byteOffset":0,"byteLength":5400,"target":34963,"extensions":{"EXT_meshopt_compression":{"buffer":0,"byteOffset":0,"byteLength":917,"mode":"TRIANGLES","byteStride":2,"count":2700}}},{"buffer":1,"byteOffset":5400,"byteLength":7200,"target":34962,"byteStride":4,"extensions":{"EXT_meshopt_compression":{"buffer":0,"byteOffset":920,"byteLength":149,"mode":"ATTRIBUTES","byteStride":4,"count":1800}}},{"buffer":1,"byteOffset":12600,"byteLength":14400,"target":34962,"byteStride":8,"extensions":{"EXT_meshopt_compression":{"buffer":0,"byteOffset":1072,"byteLength":11089,"mode":"ATTRIBUTES","byteStride":8,"count":1800}}},{"buffer":1,"byteOffset":27000,"byteLength":14400,"target":34962,"byteStride":8,"extensions":{"EXT_meshopt_compression":{"buffer":0,"byteOffset":12164,"byteLength":11082,"mode":"ATTRIBUTES","byteStride":8,"count":1800}}},{"buffer":1,"byteOffset":41400,"byteLength":7200,"target":34962,"byteStride":4,"extensions":{"EXT_meshopt_compression":{"buffer":0,"byteOffset":23248,"byteLength":5477,"mode":"ATTRIBUTES","byteStride":4,"count":1800}}}],"samplers":[{"magFilter":9729,"minFilter":9987,"wrapS":10497,"wrapT":10497}],"textures":[{"sampler":0,"extensions":{"EXT_texture_webp":{"source":0}}}],"images":[{"name":"Leaves_TwistedTree_C","mimeType":"image/webp","uri":"../../textures/5a1e14bf0272cb1b.webp"}],"buffers":[{"uri":"Bush_Common.bin","byteLength":28728},{"byteLength":48600,"extensions":{"EXT_meshopt_compression":{"fallback":true}}}],"materials":[{"name":"Leaves_TwistedTree","alphaMode":"MASK","alphaCutoff":0.20000000298023224,"doubleSided":true,"pbrMetallicRoughness":{"metallicFactor":0,"baseColorTexture":{"index":0}}}],"meshes":[{"name":"tree.008","primitives":[{"attributes":{"COLOR_0":1,"POSITION":2,"NORMAL":3,"TEXCOORD_0":4},"mode":4,"material":0,"indices":0}]}],"nodes":[{"name":"Bush_Common","translation":[0.033946216106414795,0.5561981275677681,0.008181244134902954],"scale":[0.9825704395771027,0.9825704395771027,0.9825704395771027],"mesh":0},{"name":"pack_root","children":[0]}],"scenes":[{"name":"Scene","nodes":[1]}],"scene":0,"extensionsUsed":["EXT_meshopt_compression","EXT_texture_webp","KHR_mesh_quantization"],"extensionsRequired":["EXT_meshopt_compression","EXT_texture_webp","KHR_mesh_quantization"]}