{"asset":{"generator":"glTF-Transform v4.5.1","version":"2.0"},"accessors":[{"type":"SCALAR","componentType":5123,"count":2700,"normalized":false,"byteOffset":0,"bufferView":0},{"type":"SCALAR","componentType":5123,"count":666,"normalized":false,"byteOffset":5400,"bufferView":0},{"type":"VEC4","componentType":5121,"count":1800,"normalized":true,"byteOffset":0,"bufferView":1},{"type":"VEC3","componentType":5122,"count":1800,"max":[31927,26375,32767],"min":[-31927,-26375,-32767],"normalized":true,"byteOffset":0,"bufferView":2},{"type":"VEC3","componentType":5122,"count":1800,"normalized":true,"byteOffset":0,"bufferView":3},{"type":"VEC2","componentType":5123,"count":1800,"normalized":true,"byteOffset":0,"bufferView":4},{"type":"VEC4","componentType":5121,"count":272,"normalized":true,"byteOffset":0,"bufferView":5},{"type":"VEC3","componentType":5122,"count":272,"max":[31259,25755,32659],"min":[-25867,-9921,-31127],"normalized":true,"byteOffset":0,"bufferView":6},{"type":"VEC3","componentType":5122,"count":272,"normalized":true,"byteOffset":0,"bufferView":7},{"type":"VEC2","componentType":5123,"count":272,"normalized":true,"byteOffset":0,"bufferView":8}],"bufferViews":[{"buffer":1,"byteOffset":0,"byteLength":6732,"target":34963,"extensions":{"EXT_meshopt_compression":{"buffer":0,"byteOffset":0,"byteLength":1154,"mode":"TRIANGLES","byteStride":2,"count":3366}}},{"buffer":1,"byteOffset":6732,"byteLength":7200,"target":34962,"byteStride":4,"extensions":{"EXT_meshopt_compression":{"buffer":0,"byteOffset":1156,"byteLength":149,"mode":"ATTRIBUTES","byteStride":4,"count":1800}}},{"buffer":1,"byteOffset":13932,"byteLength":14400,"target":34962,"byteStride":8,"extensions":{"EXT_meshopt_compression":{"buffer":0,"byteOffset":1308,"byteLength":11089,"mode":"ATTRIBUTES","byteStride":8,"count":1800}}},{"buffer":1,"byteOffset":28332,"byteLength":14400,"target":34962,"byteStride":8,"extensions":{"EXT_meshopt_compression":{"buffer":0,"byteOffset":12400,"byteLength":11082,"mode":"ATTRIBUTES","byteStride":8,"count":1800}}},{"buffer":1,"byteOffset":42732,"byteLength":7200,"target":34962,"byteStride":4,"extensions":{"EXT_meshopt_compression":{"buffer":0,"byteOffset":23484,"byteLength":5477,"mode":"ATTRIBUTES","byteStride":4,"count":1800}}},{"buffer":1,"byteOffset":49932,"byteLength":1088,"target":34962,"byteStride":4,"extensions":{"EXT_meshopt_compression":{"buffer":0,"byteOffset":28964,"byteLength":53,"mode":"ATTRIBUTES","byteStride":4,"count":272}}},{"buffer":1,"byteOffset":51020,"byteLength":2176,"target":34962,"byteStride":8,"extensions":{"EXT_meshopt_compression":{"buffer":0,"byteOffset":29020,"byteLength":1643,"mode":"ATTRIBUTES","byteStride":8,"count":272}}},{"buffer":1,"byteOffset":53196,"byteLength":2176,"target":34962,"byteStride":8,"extensions":{"EXT_meshopt_compression":{"buffer":0,"byteOffset":30664,"byteLength":1705,"mode":"ATTRIBUTES","byteStride":8,"count":272}}},{"buffer":1,"byteOffset":55372,"byteLength":1088,"target":34962,"byteStride":4,"extensions":{"EXT_meshopt_compression":{"buffer":0,"byteOffset":32372,"byteLength":1141,"mode":"ATTRIBUTES","byteStride":4,"count":272}}}],"samplers":[{"magFilter":9729,"minFilter":9987,"wrapS":10497,"wrapT":10497}],"textures":[{"sampler":0,"extensions":{"EXT_texture_webp":{"source":0}}},{"sampler":0,"extensions":{"EXT_texture_webp":{"source":1}}}],"images":[{"name":"Leaves_NormalTree_C","mimeType":"image/webp","uri":"../../textures/dd9da6b457fac42e.webp"},{"name":"Flowers","mimeType":"image/webp","uri":"../../textures/cf082c431d5d3df3.webp"}],"buffers":[{"uri":"Bush_Common_Flowers@lod.bin","byteLength":33516},{"byteLength":56460,"extensions":{"EXT_meshopt_compression":{"fallback":true}}}],"materials":[{"name":"Leaves_NormalTree","alphaMode":"MASK","alphaCutoff":0.20000000298023224,"doubleSided":true,"pbrMetallicRoughness":{"metallicFactor":0,"baseColorTexture":{"index":0}}},{"name":"Flowers","alphaMode":"MASK","alphaCutoff":0.20000000298023224,"doubleSided":true,"pbrMetallicRoughness":{"metallicFactor":0,"baseColorTexture":{"index":1}}}],"meshes":[{"name":"tree.009","primitives":[{"attributes":{"COLOR_0":2,"POSITION":3,"NORMAL":4,"TEXCOORD_0":5},"mode":4,"material":0,"indices":0},{"attributes":{"COLOR_0":6,"POSITION":7,"NORMAL":8,"TEXCOORD_0":9},"mode":4,"material":1,"indices":1}]}],"nodes":[{"name":"Bush_Common_Flowers","translation":[0.033946216106414795,0.5561981275677681,0.008181244134902954],"scale":[0.9825704395771027,0.9825704395771027,0.9825704395771027],"mesh":0},{"name":"pack_root","children":[0]}],"scenes":[{"name":"Scene","nodes":[1]}],"scene":0,"extensionsUsed":["EXT_meshopt_compression","EXT_texture_webp","KHR_mesh_quantization"],"extensionsRequired":["EXT_meshopt_compression","EXT_texture_webp","KHR_mesh_quantization"]}