{"asset":{"generator":"glTF-Transform v4.5.1","version":"2.0"},"accessors":[{"type":"SCALAR","componentType":5123,"count":1137,"normalized":false,"byteOffset":0,"bufferView":0},{"type":"VEC4","componentType":5121,"count":267,"normalized":true,"byteOffset":0,"bufferView":1},{"type":"VEC3","componentType":5122,"count":267,"max":[22794,32767,21866],"min":[-22794,-32767,-21866],"normalized":true,"byteOffset":0,"bufferView":2},{"type":"VEC3","componentType":5122,"count":267,"normalized":true,"byteOffset":0,"bufferView":3},{"type":"VEC2","componentType":5123,"count":267,"normalized":true,"byteOffset":0,"bufferView":4}],"bufferViews":[{"buffer":1,"byteOffset":0,"byteLength":2274,"target":34963,"extensions":{"EXT_meshopt_compression":{"buffer":0,"byteOffset":0,"byteLength":411,"mode":"TRIANGLES","byteStride":2,"count":1137}}},{"buffer":1,"byteOffset":2276,"byteLength":1068,"target":34962,"byteStride":4,"extensions":{"EXT_meshopt_compression":{"buffer":0,"byteOffset":412,"byteLength":173,"mode":"ATTRIBUTES","byteStride":4,"count":267}}},{"buffer":1,"byteOffset":3344,"byteLength":2136,"target":34962,"byteStride":8,"extensions":{"EXT_meshopt_compression":{"buffer":0,"byteOffset":588,"byteLength":1429,"mode":"ATTRIBUTES","byteStride":8,"count":267}}},{"buffer":1,"byteOffset":5480,"byteLength":2136,"target":34962,"byteStride":8,"extensions":{"EXT_meshopt_compression":{"buffer":0,"byteOffset":2020,"byteLength":1686,"mode":"ATTRIBUTES","byteStride":8,"count":267}}},{"buffer":1,"byteOffset":7616,"byteLength":1068,"target":34962,"byteStride":4,"extensions":{"EXT_meshopt_compression":{"buffer":0,"byteOffset":3708,"byteLength":860,"mode":"ATTRIBUTES","byteStride":4,"count":267}}}],"samplers":[{"magFilter":9729,"minFilter":9987,"wrapS":10497,"wrapT":10497}],"textures":[{"sampler":0,"extensions":{"EXT_texture_webp":{"source":0}}}],"images":[{"name":"Leaves","mimeType":"image/webp","uri":"../../textures/d32e4a712cc39677.webp"}],"buffers":[{"uri":"Clover_1.bin","byteLength":4568},{"byteLength":8684,"extensions":{"EXT_meshopt_compression":{"fallback":true}}}],"materials":[{"name":"Leaves","alphaMode":"MASK","alphaCutoff":0.20000000298023224,"doubleSided":true,"pbrMetallicRoughness":{"metallicFactor":0,"baseColorTexture":{"index":0}}}],"meshes":[{"name":"Cylinder.018","primitives":[{"attributes":{"COLOR_0":1,"POSITION":2,"NORMAL":3,"TEXCOORD_0":4},"mode":4,"material":0,"indices":0}]}],"nodes":[{"name":"Clover_1","translation":[-0.104153573513031,0.5595740270800889,-0.017619088292121887],"scale":[0.5723662185482681,0.5723662185482681,0.5723662185482681],"mesh":0},{"name":"pack_root","children":[0]}],"scenes":[{"name":"Scene","nodes":[1]}],"scene":0,"extensionsUsed":["EXT_meshopt_compression","EXT_texture_webp","KHR_mesh_quantization"],"extensionsRequired":["EXT_meshopt_compression","EXT_texture_webp","KHR_mesh_quantization"]}