{"asset":{"generator":"glTF-Transform v4.5.1","version":"2.0"},"accessors":[{"type":"SCALAR","componentType":5123,"count":5115,"normalized":false,"byteOffset":0,"bufferView":0},{"type":"VEC2","componentType":5126,"count":2149,"normalized":false,"byteOffset":0,"bufferView":1},{"type":"SCALAR","componentType":5123,"count":5400,"normalized":false,"byteOffset":10230,"bufferView":0},{"type":"VEC4","componentType":5121,"count":2149,"normalized":true,"byteOffset":0,"bufferView":2},{"type":"VEC3","componentType":5122,"count":2149,"max":[6940,24394,7252],"min":[-6212,-32767,-6096],"normalized":true,"byteOffset":0,"bufferView":3},{"type":"VEC3","componentType":5122,"count":2149,"normalized":true,"byteOffset":0,"bufferView":4},{"type":"VEC4","componentType":5121,"count":3600,"normalized":true,"byteOffset":0,"bufferView":5},{"type":"VEC3","componentType":5122,"count":3600,"max":[14125,32767,14745],"min":[-14125,-13165,-14745],"normalized":true,"byteOffset":0,"bufferView":6},{"type":"VEC3","componentType":5122,"count":3600,"normalized":true,"byteOffset":0,"bufferView":7},{"type":"VEC2","componentType":5123,"count":3600,"normalized":true,"byteOffset":0,"bufferView":8}],"bufferViews":[{"buffer":1,"byteOffset":0,"byteLength":21030,"target":34963,"extensions":{"EXT_meshopt_compression":{"buffer":0,"byteOffset":0,"byteLength":4342,"mode":"TRIANGLES","byteStride":2,"count":10515}}},{"buffer":1,"byteOffset":21032,"byteLength":17192,"target":34962,"byteStride":8,"extensions":{"EXT_meshopt_compression":{"buffer":0,"byteOffset":4344,"byteLength":13138,"mode":"ATTRIBUTES","byteStride":8,"count":2149}}},{"buffer":1,"byteOffset":38224,"byteLength":8596,"target":34962,"byteStride":4,"extensions":{"EXT_meshopt_compression":{"buffer":0,"byteOffset":17484,"byteLength":1441,"mode":"ATTRIBUTES","byteStride":4,"count":2149}}},{"buffer":1,"byteOffset":46820,"byteLength":17192,"target":34962,"byteStride":8,"extensions":{"EXT_meshopt_compression":{"buffer":0,"byteOffset":18928,"byteLength":10126,"mode":"ATTRIBUTES","byteStride":8,"count":2149}}},{"buffer":1,"byteOffset":64012,"byteLength":17192,"target":34962,"byteStride":8,"extensions":{"EXT_meshopt_compression":{"buffer":0,"byteOffset":29056,"byteLength":13142,"mode":"ATTRIBUTES","byteStride":8,"count":2149}}},{"buffer":1,"byteOffset":81204,"byteLength":14400,"target":34962,"byteStride":4,"extensions":{"EXT_meshopt_compression":{"buffer":0,"byteOffset":42200,"byteLength":261,"mode":"ATTRIBUTES","byteStride":4,"count":3600}}},{"buffer":1,"byteOffset":95604,"byteLength":28800,"target":34962,"byteStride":8,"extensions":{"EXT_meshopt_compression":{"buffer":0,"byteOffset":42464,"byteLength":22063,"mode":"ATTRIBUTES","byteStride":8,"count":3600}}},{"buffer":1,"byteOffset":124404,"byteLength":28800,"target":34962,"byteStride":8,"extensions":{"EXT_meshopt_compression":{"buffer":0,"byteOffset":64528,"byteLength":22086,"mode":"ATTRIBUTES","byteStride":8,"count":3600}}},{"buffer":1,"byteOffset":153204,"byteLength":14400,"target":34962,"byteStride":4,"extensions":{"EXT_meshopt_compression":{"buffer":0,"byteOffset":86616,"byteLength":10801,"mode":"ATTRIBUTES","byteStride":4,"count":3600}}}],"samplers":[{"magFilter":9729,"minFilter":9987,"wrapS":10497,"wrapT":10497}],"textures":[{"sampler":0,"extensions":{"EXT_texture_webp":{"source":1}}},{"sampler":0,"extensions":{"EXT_texture_webp":{"source":0}}},{"sampler":0,"extensions":{"EXT_texture_webp":{"source":2}}}],"images":[{"name":"Bark_NormalTree_Normal","mimeType":"image/webp","uri":"../../textures/c52ead41b179fde6.webp"},{"name":"Bark_NormalTree","mimeType":"image/webp","uri":"../../textures/6a203b313df66fa5.webp"},{"name":"Leaves_NormalTree_C","mimeType":"image/webp","uri":"../../textures/dd9da6b457fac42e.webp"}],"buffers":[{"uri":"CommonTree_3.bin","byteLength":97420},{"byteLength":167604,"extensions":{"EXT_meshopt_compression":{"fallback":true}}}],"materials":[{"name":"Bark_NormalTree","alphaMode":"MASK","alphaCutoff":0.20000000298023224,"doubleSided":true,"pbrMetallicRoughness":{"metallicFactor":0,"baseColorTexture":{"index":0}},"normalTexture":{"index":1}},{"name":"Leaves_NormalTree","alphaMode":"MASK","alphaCutoff":0.20000000298023224,"doubleSided":true,"pbrMetallicRoughness":{"metallicFactor":0,"baseColorTexture":{"index":2}}}],"meshes":[{"name":"tree.025","primitives":[{"attributes":{"TEXCOORD_0":1,"COLOR_0":3,"POSITION":4,"NORMAL":5},"mode":4,"material":0,"indices":0},{"attributes":{"COLOR_0":6,"POSITION":7,"NORMAL":8,"TEXCOORD_0":9},"mode":4,"material":1,"indices":2}]}],"nodes":[{"name":"CommonTree_3","translation":[0.044957876205444336,4.469822928309441,0.05957293510437012],"scale":[4.7125949412584305,4.7125949412584305,4.7125949412584305],"mesh":0},{"name":"pack_root","children":[0]}],"scenes":[{"name":"Scene","nodes":[1]}],"scene":0,"extensionsUsed":["EXT_meshopt_compression","EXT_texture_webp","KHR_mesh_quantization"],"extensionsRequired":["EXT_meshopt_compression","EXT_texture_webp","KHR_mesh_quantization"]}