{"asset":{"generator":"glTF-Transform v4.5.1","version":"2.0"},"accessors":[{"type":"SCALAR","componentType":5123,"count":1143,"normalized":false,"byteOffset":0,"bufferView":0},{"type":"VEC2","componentType":5126,"count":396,"normalized":false,"byteOffset":0,"bufferView":1},{"type":"SCALAR","componentType":5123,"count":2358,"normalized":false,"byteOffset":2286,"bufferView":0},{"type":"VEC4","componentType":5121,"count":396,"normalized":true,"byteOffset":0,"bufferView":2},{"type":"VEC3","componentType":5122,"count":396,"max":[7756,24170,8697],"min":[-8821,-32767,-7016],"normalized":true,"byteOffset":0,"bufferView":3},{"type":"VEC3","componentType":5122,"count":396,"normalized":true,"byteOffset":0,"bufferView":4},{"type":"VEC4","componentType":5121,"count":1572,"normalized":true,"byteOffset":0,"bufferView":5},{"type":"VEC3","componentType":5122,"count":1572,"max":[13281,32767,13037],"min":[-13281,9249,-13037],"normalized":true,"byteOffset":0,"bufferView":6},{"type":"VEC3","componentType":5122,"count":1572,"normalized":true,"byteOffset":0,"bufferView":7},{"type":"VEC2","componentType":5123,"count":1572,"normalized":true,"byteOffset":0,"bufferView":8}],"bufferViews":[{"buffer":1,"byteOffset":0,"byteLength":7002,"target":34963,"extensions":{"EXT_meshopt_compression":{"buffer":0,"byteOffset":0,"byteLength":1253,"mode":"TRIANGLES","byteStride":2,"count":3501}}},{"buffer":1,"byteOffset":7004,"byteLength":3168,"target":34962,"byteStride":8,"extensions":{"EXT_meshopt_compression":{"buffer":0,"byteOffset":1256,"byteLength":2706,"mode":"ATTRIBUTES","byteStride":8,"count":396}}},{"buffer":1,"byteOffset":10172,"byteLength":1584,"target":34962,"byteStride":4,"extensions":{"EXT_meshopt_compression":{"buffer":0,"byteOffset":3964,"byteLength":247,"mode":"ATTRIBUTES","byteStride":4,"count":396}}},{"buffer":1,"byteOffset":11756,"byteLength":3168,"target":34962,"byteStride":8,"extensions":{"EXT_meshopt_compression":{"buffer":0,"byteOffset":4212,"byteLength":2055,"mode":"ATTRIBUTES","byteStride":8,"count":396}}},{"buffer":1,"byteOffset":14924,"byteLength":3168,"target":34962,"byteStride":8,"extensions":{"EXT_meshopt_compression":{"buffer":0,"byteOffset":6268,"byteLength":2467,"mode":"ATTRIBUTES","byteStride":8,"count":396}}},{"buffer":1,"byteOffset":18092,"byteLength":6288,"target":34962,"byteStride":4,"extensions":{"EXT_meshopt_compression":{"buffer":0,"byteOffset":8736,"byteLength":133,"mode":"ATTRIBUTES","byteStride":4,"count":1572}}},{"buffer":1,"byteOffset":24380,"byteLength":12576,"target":34962,"byteStride":8,"extensions":{"EXT_meshopt_compression":{"buffer":0,"byteOffset":8872,"byteLength":9675,"mode":"ATTRIBUTES","byteStride":8,"count":1572}}},{"buffer":1,"byteOffset":36956,"byteLength":12576,"target":34962,"byteStride":8,"extensions":{"EXT_meshopt_compression":{"buffer":0,"byteOffset":18548,"byteLength":9683,"mode":"ATTRIBUTES","byteStride":8,"count":1572}}},{"buffer":1,"byteOffset":49532,"byteLength":6288,"target":34962,"byteStride":4,"extensions":{"EXT_meshopt_compression":{"buffer":0,"byteOffset":28232,"byteLength":4628,"mode":"ATTRIBUTES","byteStride":4,"count":1572}}}],"samplers":[{"magFilter":9729,"minFilter":9987,"wrapS":10497,"wrapT":10497}],"textures":[{"sampler":0,"extensions":{"EXT_texture_webp":{"source":1}}},{"sampler":0,"extensions":{"EXT_texture_webp":{"source":0}}},{"sampler":0,"extensions":{"EXT_texture_webp":{"source":2}}}],"images":[{"name":"Bark_NormalTree_Normal","mimeType":"image/webp","uri":"../../textures/c52ead41b179fde6.webp"},{"name":"Bark_NormalTree","mimeType":"image/webp","uri":"../../textures/6a203b313df66fa5.webp"},{"name":"Leaves_NormalTree_C","mimeType":"image/webp","uri":"../../textures/dd9da6b457fac42e.webp"}],"buffers":[{"uri":"CommonTree_4@lod.bin","byteLength":32860},{"byteLength":55820,"extensions":{"EXT_meshopt_compression":{"fallback":true}}}],"materials":[{"name":"Bark_NormalTree","alphaMode":"MASK","alphaCutoff":0.20000000298023224,"doubleSided":true,"pbrMetallicRoughness":{"metallicFactor":0,"baseColorTexture":{"index":0}},"normalTexture":{"index":1}},{"name":"Leaves_NormalTree","alphaMode":"MASK","alphaCutoff":0.20000000298023224,"doubleSided":true,"pbrMetallicRoughness":{"metallicFactor":0,"baseColorTexture":{"index":2}}}],"meshes":[{"name":"tree.026","primitives":[{"attributes":{"TEXCOORD_0":1,"COLOR_0":3,"POSITION":4,"NORMAL":5},"mode":4,"material":0,"indices":0},{"attributes":{"COLOR_0":6,"POSITION":7,"NORMAL":8,"TEXCOORD_0":9},"mode":4,"material":1,"indices":2}]}],"nodes":[{"name":"CommonTree_4","translation":[0.11566758155822754,4.476418539881706,-0.20192360877990723],"scale":[4.719190552830696,4.719190552830696,4.719190552830696],"mesh":0},{"name":"pack_root","children":[0]}],"scenes":[{"name":"Scene","nodes":[1]}],"scene":0,"extensionsUsed":["EXT_meshopt_compression","EXT_texture_webp","KHR_mesh_quantization"],"extensionsRequired":["EXT_meshopt_compression","EXT_texture_webp","KHR_mesh_quantization"]}