{"asset":{"generator":"glTF-Transform v4.5.1","version":"2.0"},"accessors":[{"type":"SCALAR","componentType":5123,"count":5646,"normalized":false,"byteOffset":0,"bufferView":0},{"type":"VEC2","componentType":5126,"count":2273,"normalized":false,"byteOffset":0,"bufferView":1},{"type":"SCALAR","componentType":5123,"count":3900,"normalized":false,"byteOffset":11292,"bufferView":0},{"type":"VEC2","componentType":5126,"count":2600,"normalized":false,"byteOffset":0,"bufferView":2},{"type":"VEC4","componentType":5121,"count":2273,"normalized":true,"byteOffset":0,"bufferView":3},{"type":"VEC3","componentType":5122,"count":2273,"max":[9197,20518,8020],"min":[-7660,-32767,-8116],"normalized":true,"byteOffset":0,"bufferView":4},{"type":"VEC3","componentType":5122,"count":2273,"normalized":true,"byteOffset":0,"bufferView":5},{"type":"VEC4","componentType":5121,"count":2600,"normalized":true,"byteOffset":0,"bufferView":6},{"type":"VEC3","componentType":5122,"count":2600,"max":[17170,32767,19734],"min":[-17170,-8453,-19734],"normalized":true,"byteOffset":0,"bufferView":7},{"type":"VEC3","componentType":5122,"count":2600,"normalized":true,"byteOffset":0,"bufferView":8}],"bufferViews":[{"buffer":1,"byteOffset":0,"byteLength":19092,"target":34963,"extensions":{"EXT_meshopt_compression":{"buffer":0,"byteOffset":0,"byteLength":4058,"mode":"TRIANGLES","byteStride":2,"count":9546}}},{"buffer":1,"byteOffset":19092,"byteLength":18184,"target":34962,"byteStride":8,"extensions":{"EXT_meshopt_compression":{"buffer":0,"byteOffset":4060,"byteLength":13749,"mode":"ATTRIBUTES","byteStride":8,"count":2273}}},{"buffer":1,"byteOffset":37276,"byteLength":20800,"target":34962,"byteStride":8,"extensions":{"EXT_meshopt_compression":{"buffer":0,"byteOffset":17812,"byteLength":16623,"mode":"ATTRIBUTES","byteStride":8,"count":2600}}},{"buffer":1,"byteOffset":58076,"byteLength":9092,"target":34962,"byteStride":4,"extensions":{"EXT_meshopt_compression":{"buffer":0,"byteOffset":34436,"byteLength":1431,"mode":"ATTRIBUTES","byteStride":4,"count":2273}}},{"buffer":1,"byteOffset":67168,"byteLength":18184,"target":34962,"byteStride":8,"extensions":{"EXT_meshopt_compression":{"buffer":0,"byteOffset":35868,"byteLength":10697,"mode":"ATTRIBUTES","byteStride":8,"count":2273}}},{"buffer":1,"byteOffset":85352,"byteLength":18184,"target":34962,"byteStride":8,"extensions":{"EXT_meshopt_compression":{"buffer":0,"byteOffset":46568,"byteLength":13891,"mode":"ATTRIBUTES","byteStride":8,"count":2273}}},{"buffer":1,"byteOffset":103536,"byteLength":10400,"target":34962,"byteStride":4,"extensions":{"EXT_meshopt_compression":{"buffer":0,"byteOffset":60460,"byteLength":197,"mode":"ATTRIBUTES","byteStride":4,"count":2600}}},{"buffer":1,"byteOffset":113936,"byteLength":20800,"target":34962,"byteStride":8,"extensions":{"EXT_meshopt_compression":{"buffer":0,"byteOffset":60660,"byteLength":15977,"mode":"ATTRIBUTES","byteStride":8,"count":2600}}},{"buffer":1,"byteOffset":134736,"byteLength":20800,"target":34962,"byteStride":8,"extensions":{"EXT_meshopt_compression":{"buffer":0,"byteOffset":76640,"byteLength":15985,"mode":"ATTRIBUTES","byteStride":8,"count":2600}}}],"samplers":[{"magFilter":9729,"minFilter":9987,"wrapS":10497,"wrapT":10497}],"textures":[{"sampler":0,"extensions":{"EXT_texture_webp":{"source":1}}},{"sampler":0,"extensions":{"EXT_texture_webp":{"source":0}}},{"sampler":0,"extensions":{"EXT_texture_webp":{"source":2}}}],"images":[{"name":"Bark_NormalTree_Normal","mimeType":"image/webp","uri":"../../textures/c52ead41b179fde6.webp"},{"name":"Bark_NormalTree","mimeType":"image/webp","uri":"../../textures/6a203b313df66fa5.webp"},{"name":"Leaves_NormalTree_C","mimeType":"image/webp","uri":"../../textures/dd9da6b457fac42e.webp"}],"buffers":[{"uri":"CommonTree_5.bin","byteLength":92628},{"byteLength":155536,"extensions":{"EXT_meshopt_compression":{"fallback":true}}}],"materials":[{"name":"Bark_NormalTree","alphaMode":"MASK","alphaCutoff":0.20000000298023224,"doubleSided":true,"pbrMetallicRoughness":{"metallicFactor":0,"baseColorTexture":{"index":0}},"normalTexture":{"index":1}},{"name":"Leaves_NormalTree","alphaMode":"MASK","alphaCutoff":0.20000000298023224,"doubleSided":true,"pbrMetallicRoughness":{"metallicFactor":0,"baseColorTexture":{"index":2}}}],"meshes":[{"name":"tree.027","primitives":[{"attributes":{"TEXCOORD_0":1,"COLOR_0":4,"POSITION":5,"NORMAL":6},"mode":4,"material":0,"indices":0},{"attributes":{"TEXCOORD_0":3,"COLOR_0":7,"POSITION":8,"NORMAL":9},"mode":4,"material":1,"indices":2}]}],"nodes":[{"name":"CommonTree_5","translation":[-0.07677191495895386,3.2603478878736496,-0.05262291431427002],"scale":[3.5031199008226395,3.5031199008226395,3.5031199008226395],"mesh":0},{"name":"pack_root","children":[0]}],"scenes":[{"name":"Scene","nodes":[1]}],"scene":0,"extensionsUsed":["EXT_meshopt_compression","EXT_texture_webp","KHR_mesh_quantization"],"extensionsRequired":["EXT_meshopt_compression","EXT_texture_webp","KHR_mesh_quantization"]}