{"asset":{"generator":"glTF-Transform v4.5.1","version":"2.0"},"accessors":[{"type":"SCALAR","componentType":5123,"count":675,"normalized":false,"byteOffset":0,"bufferView":0},{"type":"VEC2","componentType":5126,"count":215,"normalized":false,"byteOffset":0,"bufferView":1},{"type":"SCALAR","componentType":5123,"count":3900,"normalized":false,"byteOffset":1350,"bufferView":0},{"type":"VEC2","componentType":5126,"count":2600,"normalized":false,"byteOffset":0,"bufferView":2},{"type":"VEC4","componentType":5121,"count":215,"normalized":true,"byteOffset":0,"bufferView":3},{"type":"VEC3","componentType":5122,"count":215,"max":[9045,20518,7808],"min":[-7620,-32767,-8076],"normalized":true,"byteOffset":0,"bufferView":4},{"type":"VEC3","componentType":5122,"count":215,"normalized":true,"byteOffset":0,"bufferView":5},{"type":"VEC4","componentType":5121,"count":2600,"normalized":true,"byteOffset":0,"bufferView":6},{"type":"VEC3","componentType":5122,"count":2600,"max":[17170,32767,19734],"min":[-17170,-8453,-19734],"normalized":true,"byteOffset":0,"bufferView":7},{"type":"VEC3","componentType":5122,"count":2600,"normalized":true,"byteOffset":0,"bufferView":8}],"bufferViews":[{"buffer":1,"byteOffset":0,"byteLength":9150,"target":34963,"extensions":{"EXT_meshopt_compression":{"buffer":0,"byteOffset":0,"byteLength":1568,"mode":"TRIANGLES","byteStride":2,"count":4575}}},{"buffer":1,"byteOffset":9152,"byteLength":1720,"target":34962,"byteStride":8,"extensions":{"EXT_meshopt_compression":{"buffer":0,"byteOffset":1568,"byteLength":1479,"mode":"ATTRIBUTES","byteStride":8,"count":215}}},{"buffer":1,"byteOffset":10872,"byteLength":20800,"target":34962,"byteStride":8,"extensions":{"EXT_meshopt_compression":{"buffer":0,"byteOffset":3048,"byteLength":16623,"mode":"ATTRIBUTES","byteStride":8,"count":2600}}},{"buffer":1,"byteOffset":31672,"byteLength":860,"target":34962,"byteStride":4,"extensions":{"EXT_meshopt_compression":{"buffer":0,"byteOffset":19672,"byteLength":202,"mode":"ATTRIBUTES","byteStride":4,"count":215}}},{"buffer":1,"byteOffset":32532,"byteLength":1720,"target":34962,"byteStride":8,"extensions":{"EXT_meshopt_compression":{"buffer":0,"byteOffset":19876,"byteLength":1212,"mode":"ATTRIBUTES","byteStride":8,"count":215}}},{"buffer":1,"byteOffset":34252,"byteLength":1720,"target":34962,"byteStride":8,"extensions":{"EXT_meshopt_compression":{"buffer":0,"byteOffset":21088,"byteLength":1367,"mode":"ATTRIBUTES","byteStride":8,"count":215}}},{"buffer":1,"byteOffset":35972,"byteLength":10400,"target":34962,"byteStride":4,"extensions":{"EXT_meshopt_compression":{"buffer":0,"byteOffset":22456,"byteLength":197,"mode":"ATTRIBUTES","byteStride":4,"count":2600}}},{"buffer":1,"byteOffset":46372,"byteLength":20800,"target":34962,"byteStride":8,"extensions":{"EXT_meshopt_compression":{"buffer":0,"byteOffset":22656,"byteLength":15977,"mode":"ATTRIBUTES","byteStride":8,"count":2600}}},{"buffer":1,"byteOffset":67172,"byteLength":20800,"target":34962,"byteStride":8,"extensions":{"EXT_meshopt_compression":{"buffer":0,"byteOffset":38636,"byteLength":15985,"mode":"ATTRIBUTES","byteStride":8,"count":2600}}}],"samplers":[{"magFilter":9729,"minFilter":9987,"wrapS":10497,"wrapT":10497}],"textures":[{"sampler":0,"extensions":{"EXT_texture_webp":{"source":1}}},{"sampler":0,"extensions":{"EXT_texture_webp":{"source":0}}},{"sampler":0,"extensions":{"EXT_texture_webp":{"source":2}}}],"images":[{"name":"Bark_NormalTree_Normal","mimeType":"image/webp","uri":"../../textures/c52ead41b179fde6.webp"},{"name":"Bark_NormalTree","mimeType":"image/webp","uri":"../../textures/6a203b313df66fa5.webp"},{"name":"Leaves_NormalTree_C","mimeType":"image/webp","uri":"../../textures/dd9da6b457fac42e.webp"}],"buffers":[{"uri":"CommonTree_5@lod.bin","byteLength":54624},{"byteLength":87972,"extensions":{"EXT_meshopt_compression":{"fallback":true}}}],"materials":[{"name":"Bark_NormalTree","alphaMode":"MASK","alphaCutoff":0.20000000298023224,"doubleSided":true,"pbrMetallicRoughness":{"metallicFactor":0,"baseColorTexture":{"index":0}},"normalTexture":{"index":1}},{"name":"Leaves_NormalTree","alphaMode":"MASK","alphaCutoff":0.20000000298023224,"doubleSided":true,"pbrMetallicRoughness":{"metallicFactor":0,"baseColorTexture":{"index":2}}}],"meshes":[{"name":"tree.027","primitives":[{"attributes":{"TEXCOORD_0":1,"COLOR_0":4,"POSITION":5,"NORMAL":6},"mode":4,"material":0,"indices":0},{"attributes":{"TEXCOORD_0":3,"COLOR_0":7,"POSITION":8,"NORMAL":9},"mode":4,"material":1,"indices":2}]}],"nodes":[{"name":"CommonTree_5","translation":[-0.07677191495895386,3.2603478878736496,-0.05262291431427002],"scale":[3.5031199008226395,3.5031199008226395,3.5031199008226395],"mesh":0},{"name":"pack_root","children":[0]}],"scenes":[{"name":"Scene","nodes":[1]}],"scene":0,"extensionsUsed":["EXT_meshopt_compression","EXT_texture_webp","KHR_mesh_quantization"],"extensionsRequired":["EXT_meshopt_compression","EXT_texture_webp","KHR_mesh_quantization"]}