{"asset":{"generator":"glTF-Transform v4.5.1","version":"2.0"},"accessors":[{"type":"SCALAR","componentType":5123,"count":13035,"normalized":false,"byteOffset":0,"bufferView":0},{"type":"VEC2","componentType":5126,"count":5618,"normalized":false,"byteOffset":0,"bufferView":1},{"type":"SCALAR","componentType":5123,"count":5760,"normalized":false,"byteOffset":26070,"bufferView":0},{"type":"VEC4","componentType":5121,"count":5618,"normalized":true,"byteOffset":0,"bufferView":2},{"type":"VEC3","componentType":5122,"count":5618,"max":[11793,27911,11641],"min":[-11909,-32767,-10741],"normalized":true,"byteOffset":0,"bufferView":3},{"type":"VEC3","componentType":5122,"count":5618,"normalized":true,"byteOffset":0,"bufferView":4},{"type":"VEC4","componentType":5121,"count":3840,"normalized":true,"byteOffset":0,"bufferView":5},{"type":"VEC3","componentType":5122,"count":3840,"max":[19446,32767,20646],"min":[-19446,-9409,-20646],"normalized":true,"byteOffset":0,"bufferView":6},{"type":"VEC3","componentType":5122,"count":3840,"normalized":true,"byteOffset":0,"bufferView":7},{"type":"VEC2","componentType":5123,"count":3840,"normalized":true,"byteOffset":0,"bufferView":8}],"bufferViews":[{"buffer":1,"byteOffset":0,"byteLength":37590,"target":34963,"extensions":{"EXT_meshopt_compression":{"buffer":0,"byteOffset":0,"byteLength":8208,"mode":"TRIANGLES","byteStride":2,"count":18795}}},{"buffer":1,"byteOffset":37592,"byteLength":44944,"target":34962,"byteStride":8,"extensions":{"EXT_meshopt_compression":{"buffer":0,"byteOffset":8208,"byteLength":33893,"mode":"ATTRIBUTES","byteStride":8,"count":5618}}},{"buffer":1,"byteOffset":82536,"byteLength":22472,"target":34962,"byteStride":4,"extensions":{"EXT_meshopt_compression":{"buffer":0,"byteOffset":42104,"byteLength":1636,"mode":"ATTRIBUTES","byteStride":4,"count":5618}}},{"buffer":1,"byteOffset":105008,"byteLength":44944,"target":34962,"byteStride":8,"extensions":{"EXT_meshopt_compression":{"buffer":0,"byteOffset":43740,"byteLength":25391,"mode":"ATTRIBUTES","byteStride":8,"count":5618}}},{"buffer":1,"byteOffset":149952,"byteLength":44944,"target":34962,"byteStride":8,"extensions":{"EXT_meshopt_compression":{"buffer":0,"byteOffset":69132,"byteLength":34233,"mode":"ATTRIBUTES","byteStride":8,"count":5618}}},{"buffer":1,"byteOffset":194896,"byteLength":15360,"target":34962,"byteStride":4,"extensions":{"EXT_meshopt_compression":{"buffer":0,"byteOffset":103368,"byteLength":273,"mode":"ATTRIBUTES","byteStride":4,"count":3840}}},{"buffer":1,"byteOffset":210256,"byteLength":30720,"target":34962,"byteStride":8,"extensions":{"EXT_meshopt_compression":{"buffer":0,"byteOffset":103644,"byteLength":23547,"mode":"ATTRIBUTES","byteStride":8,"count":3840}}},{"buffer":1,"byteOffset":240976,"byteLength":30720,"target":34962,"byteStride":8,"extensions":{"EXT_meshopt_compression":{"buffer":0,"byteOffset":127192,"byteLength":23553,"mode":"ATTRIBUTES","byteStride":8,"count":3840}}},{"buffer":1,"byteOffset":271696,"byteLength":15360,"target":34962,"byteStride":4,"extensions":{"EXT_meshopt_compression":{"buffer":0,"byteOffset":150748,"byteLength":11311,"mode":"ATTRIBUTES","byteStride":4,"count":3840}}}],"samplers":[{"magFilter":9729,"minFilter":9987,"wrapS":10497,"wrapT":10497}],"textures":[{"sampler":0,"extensions":{"EXT_texture_webp":{"source":1}}},{"sampler":0,"extensions":{"EXT_texture_webp":{"source":0}}},{"sampler":0,"extensions":{"EXT_texture_webp":{"source":2}}}],"images":[{"name":"Bark_NormalTree_Normal","mimeType":"image/webp","uri":"../../textures/c52ead41b179fde6.webp"},{"name":"Bark_NormalTree","mimeType":"image/webp","uri":"../../textures/6a203b313df66fa5.webp"},{"name":"Leaves_NormalTree_C","mimeType":"image/webp","uri":"../../textures/dd9da6b457fac42e.webp"}],"buffers":[{"uri":"CommonTree_1.bin","byteLength":162060},{"byteLength":287056,"extensions":{"EXT_meshopt_compression":{"fallback":true}}}],"materials":[{"name":"Bark_NormalTree","alphaMode":"MASK","alphaCutoff":0.20000000298023224,"doubleSided":true,"pbrMetallicRoughness":{"metallicFactor":0,"baseColorTexture":{"index":0}},"normalTexture":{"index":1}},{"name":"Leaves_NormalTree","alphaMode":"MASK","alphaCutoff":0.20000000298023224,"doubleSided":true,"pbrMetallicRoughness":{"metallicFactor":0,"baseColorTexture":{"index":2}}}],"meshes":[{"name":"tree.023","primitives":[{"attributes":{"TEXCOORD_0":1,"COLOR_0":3,"POSITION":4,"NORMAL":5},"mode":4,"material":0,"indices":0},{"attributes":{"COLOR_0":6,"POSITION":7,"NORMAL":8,"TEXCOORD_0":9},"mode":4,"material":1,"indices":2}]}],"nodes":[{"name":"CommonTree_1","translation":[-0.038747310638427734,3.3896205872297287,0.06433796882629395],"scale":[3.6323926001787186,3.6323926001787186,3.6323926001787186],"mesh":0},{"name":"pack_root","children":[0]}],"scenes":[{"name":"Scene","nodes":[1]}],"scene":0,"extensionsUsed":["EXT_meshopt_compression","EXT_texture_webp","KHR_mesh_quantization"],"extensionsRequired":["EXT_meshopt_compression","EXT_texture_webp","KHR_mesh_quantization"]}