{"asset":{"generator":"glTF-Transform v4.5.1","version":"2.0"},"accessors":[{"type":"SCALAR","componentType":5123,"count":9840,"normalized":false,"byteOffset":0,"bufferView":0},{"type":"VEC2","componentType":5126,"count":4328,"normalized":false,"byteOffset":0,"bufferView":1},{"type":"SCALAR","componentType":5123,"count":2358,"normalized":false,"byteOffset":19680,"bufferView":0},{"type":"VEC4","componentType":5121,"count":4328,"normalized":true,"byteOffset":0,"bufferView":2},{"type":"VEC3","componentType":5122,"count":4328,"max":[7780,24170,8721],"min":[-8909,-32767,-7016],"normalized":true,"byteOffset":0,"bufferView":3},{"type":"VEC3","componentType":5122,"count":4328,"normalized":true,"byteOffset":0,"bufferView":4},{"type":"VEC4","componentType":5121,"count":1572,"normalized":true,"byteOffset":0,"bufferView":5},{"type":"VEC3","componentType":5122,"count":1572,"max":[13281,32767,13037],"min":[-13281,9249,-13037],"normalized":true,"byteOffset":0,"bufferView":6},{"type":"VEC3","componentType":5122,"count":1572,"normalized":true,"byteOffset":0,"bufferView":7},{"type":"VEC2","componentType":5123,"count":1572,"normalized":true,"byteOffset":0,"bufferView":8}],"bufferViews":[{"buffer":1,"byteOffset":0,"byteLength":24396,"target":34963,"extensions":{"EXT_meshopt_compression":{"buffer":0,"byteOffset":0,"byteLength":5461,"mode":"TRIANGLES","byteStride":2,"count":12198}}},{"buffer":1,"byteOffset":24396,"byteLength":34624,"target":34962,"byteStride":8,"extensions":{"EXT_meshopt_compression":{"buffer":0,"byteOffset":5464,"byteLength":25532,"mode":"ATTRIBUTES","byteStride":8,"count":4328}}},{"buffer":1,"byteOffset":59020,"byteLength":17312,"target":34962,"byteStride":4,"extensions":{"EXT_meshopt_compression":{"buffer":0,"byteOffset":30996,"byteLength":1601,"mode":"ATTRIBUTES","byteStride":4,"count":4328}}},{"buffer":1,"byteOffset":76332,"byteLength":34624,"target":34962,"byteStride":8,"extensions":{"EXT_meshopt_compression":{"buffer":0,"byteOffset":32600,"byteLength":19106,"mode":"ATTRIBUTES","byteStride":8,"count":4328}}},{"buffer":1,"byteOffset":110956,"byteLength":34624,"target":34962,"byteStride":8,"extensions":{"EXT_meshopt_compression":{"buffer":0,"byteOffset":51708,"byteLength":26438,"mode":"ATTRIBUTES","byteStride":8,"count":4328}}},{"buffer":1,"byteOffset":145580,"byteLength":6288,"target":34962,"byteStride":4,"extensions":{"EXT_meshopt_compression":{"buffer":0,"byteOffset":78148,"byteLength":133,"mode":"ATTRIBUTES","byteStride":4,"count":1572}}},{"buffer":1,"byteOffset":151868,"byteLength":12576,"target":34962,"byteStride":8,"extensions":{"EXT_meshopt_compression":{"buffer":0,"byteOffset":78284,"byteLength":9675,"mode":"ATTRIBUTES","byteStride":8,"count":1572}}},{"buffer":1,"byteOffset":164444,"byteLength":12576,"target":34962,"byteStride":8,"extensions":{"EXT_meshopt_compression":{"buffer":0,"byteOffset":87960,"byteLength":9683,"mode":"ATTRIBUTES","byteStride":8,"count":1572}}},{"buffer":1,"byteOffset":177020,"byteLength":6288,"target":34962,"byteStride":4,"extensions":{"EXT_meshopt_compression":{"buffer":0,"byteOffset":97644,"byteLength":4628,"mode":"ATTRIBUTES","byteStride":4,"count":1572}}}],"samplers":[{"magFilter":9729,"minFilter":9987,"wrapS":10497,"wrapT":10497}],"textures":[{"sampler":0,"extensions":{"EXT_texture_webp":{"source":1}}},{"sampler":0,"extensions":{"EXT_texture_webp":{"source":0}}},{"sampler":0,"extensions":{"EXT_texture_webp":{"source":2}}}],"images":[{"name":"Bark_NormalTree_Normal","mimeType":"image/webp","uri":"../../textures/c52ead41b179fde6.webp"},{"name":"Bark_NormalTree","mimeType":"image/webp","uri":"../../textures/6a203b313df66fa5.webp"},{"name":"Leaves_NormalTree_C","mimeType":"image/webp","uri":"../../textures/dd9da6b457fac42e.webp"}],"buffers":[{"uri":"CommonTree_4.bin","byteLength":102272},{"byteLength":183308,"extensions":{"EXT_meshopt_compression":{"fallback":true}}}],"materials":[{"name":"Bark_NormalTree","alphaMode":"MASK","alphaCutoff":0.20000000298023224,"doubleSided":true,"pbrMetallicRoughness":{"metallicFactor":0,"baseColorTexture":{"index":0}},"normalTexture":{"index":1}},{"name":"Leaves_NormalTree","alphaMode":"MASK","alphaCutoff":0.20000000298023224,"doubleSided":true,"pbrMetallicRoughness":{"metallicFactor":0,"baseColorTexture":{"index":2}}}],"meshes":[{"name":"tree.026","primitives":[{"attributes":{"TEXCOORD_0":1,"COLOR_0":3,"POSITION":4,"NORMAL":5},"mode":4,"material":0,"indices":0},{"attributes":{"COLOR_0":6,"POSITION":7,"NORMAL":8,"TEXCOORD_0":9},"mode":4,"material":1,"indices":2}]}],"nodes":[{"name":"CommonTree_4","translation":[0.11566758155822754,4.476418539881706,-0.20192360877990723],"scale":[4.719190552830696,4.719190552830696,4.719190552830696],"mesh":0},{"name":"pack_root","children":[0]}],"scenes":[{"name":"Scene","nodes":[1]}],"scene":0,"extensionsUsed":["EXT_meshopt_compression","EXT_texture_webp","KHR_mesh_quantization"],"extensionsRequired":["EXT_meshopt_compression","EXT_texture_webp","KHR_mesh_quantization"]}