{"asset":{"generator":"glTF-Transform v4.5.1","version":"2.0"},"accessors":[{"type":"SCALAR","componentType":5123,"count":2796,"normalized":false,"byteOffset":0,"bufferView":0},{"type":"VEC2","componentType":5126,"count":1191,"normalized":false,"byteOffset":0,"bufferView":1},{"type":"VEC4","componentType":5121,"count":1191,"normalized":true,"byteOffset":0,"bufferView":2},{"type":"VEC3","componentType":5122,"count":1191,"max":[19538,32767,19778],"min":[-19538,-32767,-19778],"normalized":true,"byteOffset":0,"bufferView":3},{"type":"VEC3","componentType":5122,"count":1191,"normalized":true,"byteOffset":0,"bufferView":4}],"bufferViews":[{"buffer":1,"byteOffset":0,"byteLength":5592,"target":34963,"extensions":{"EXT_meshopt_compression":{"buffer":0,"byteOffset":0,"byteLength":1061,"mode":"TRIANGLES","byteStride":2,"count":2796}}},{"buffer":1,"byteOffset":5592,"byteLength":9528,"target":34962,"byteStride":8,"extensions":{"EXT_meshopt_compression":{"buffer":0,"byteOffset":1064,"byteLength":7563,"mode":"ATTRIBUTES","byteStride":8,"count":1191}}},{"buffer":1,"byteOffset":15120,"byteLength":4764,"target":34962,"byteStride":4,"extensions":{"EXT_meshopt_compression":{"buffer":0,"byteOffset":8628,"byteLength":235,"mode":"ATTRIBUTES","byteStride":4,"count":1191}}},{"buffer":1,"byteOffset":19884,"byteLength":9528,"target":34962,"byteStride":8,"extensions":{"EXT_meshopt_compression":{"buffer":0,"byteOffset":8864,"byteLength":6340,"mode":"ATTRIBUTES","byteStride":8,"count":1191}}},{"buffer":1,"byteOffset":29412,"byteLength":9528,"target":34962,"byteStride":8,"extensions":{"EXT_meshopt_compression":{"buffer":0,"byteOffset":15204,"byteLength":7354,"mode":"ATTRIBUTES","byteStride":8,"count":1191}}}],"samplers":[{"magFilter":9729,"minFilter":9987,"wrapS":10497,"wrapT":10497}],"textures":[{"sampler":0,"extensions":{"EXT_texture_webp":{"source":1}}},{"sampler":0,"extensions":{"EXT_texture_webp":{"source":0}}}],"images":[{"name":"Bark_DeadTree_Normal","mimeType":"image/webp","uri":"../../textures/3a34b6327d8e2501.webp"},{"name":"Bark_DeadTree","mimeType":"image/webp","uri":"../../textures/2839f95a47145f83.webp"}],"buffers":[{"uri":"DeadTree_4@lod.bin","byteLength":22560},{"byteLength":38940,"extensions":{"EXT_meshopt_compression":{"fallback":true}}}],"materials":[{"name":"Bark_DeadTree","doubleSided":true,"pbrMetallicRoughness":{"metallicFactor":0,"baseColorTexture":{"index":0}},"normalTexture":{"index":1}}],"meshes":[{"name":"tree.018","primitives":[{"attributes":{"TEXCOORD_0":1,"COLOR_0":2,"POSITION":3,"NORMAL":4},"mode":4,"material":0,"indices":0}]}],"nodes":[{"name":"DeadTree_4","translation":[0.46920736144903685,6.044867347540553,0.26064647550111175],"scale":[6.380421947302516,6.380421947302516,6.380421947302516],"mesh":0},{"name":"pack_root","children":[0]}],"scenes":[{"name":"Scene","nodes":[1]}],"scene":0,"extensionsUsed":["EXT_meshopt_compression","EXT_texture_webp","KHR_mesh_quantization"],"extensionsRequired":["EXT_meshopt_compression","EXT_texture_webp","KHR_mesh_quantization"]}