{"asset":{"generator":"glTF-Transform v4.5.1","version":"2.0"},"accessors":[{"type":"SCALAR","componentType":5123,"count":2808,"normalized":false,"byteOffset":0,"bufferView":0},{"type":"VEC2","componentType":5126,"count":1191,"normalized":false,"byteOffset":0,"bufferView":1},{"type":"VEC4","componentType":5121,"count":1191,"normalized":true,"byteOffset":0,"bufferView":2},{"type":"VEC3","componentType":5122,"count":1191,"max":[16614,32767,16766],"min":[-16614,-32767,-16766],"normalized":true,"byteOffset":0,"bufferView":3},{"type":"VEC3","componentType":5122,"count":1191,"normalized":true,"byteOffset":0,"bufferView":4}],"bufferViews":[{"buffer":1,"byteOffset":0,"byteLength":5616,"target":34963,"extensions":{"EXT_meshopt_compression":{"buffer":0,"byteOffset":0,"byteLength":1075,"mode":"TRIANGLES","byteStride":2,"count":2808}}},{"buffer":1,"byteOffset":5616,"byteLength":9528,"target":34962,"byteStride":8,"extensions":{"EXT_meshopt_compression":{"buffer":0,"byteOffset":1076,"byteLength":7591,"mode":"ATTRIBUTES","byteStride":8,"count":1191}}},{"buffer":1,"byteOffset":15144,"byteLength":4764,"target":34962,"byteStride":4,"extensions":{"EXT_meshopt_compression":{"buffer":0,"byteOffset":8668,"byteLength":181,"mode":"ATTRIBUTES","byteStride":4,"count":1191}}},{"buffer":1,"byteOffset":19908,"byteLength":9528,"target":34962,"byteStride":8,"extensions":{"EXT_meshopt_compression":{"buffer":0,"byteOffset":8852,"byteLength":6286,"mode":"ATTRIBUTES","byteStride":8,"count":1191}}},{"buffer":1,"byteOffset":29436,"byteLength":9528,"target":34962,"byteStride":8,"extensions":{"EXT_meshopt_compression":{"buffer":0,"byteOffset":15140,"byteLength":7354,"mode":"ATTRIBUTES","byteStride":8,"count":1191}}}],"samplers":[{"magFilter":9729,"minFilter":9987,"wrapS":10497,"wrapT":10497}],"textures":[{"sampler":0,"extensions":{"EXT_texture_webp":{"source":1}}},{"sampler":0,"extensions":{"EXT_texture_webp":{"source":0}}}],"images":[{"name":"Bark_DeadTree_Normal","mimeType":"image/webp","uri":"../../textures/3a34b6327d8e2501.webp"},{"name":"Bark_DeadTree","mimeType":"image/webp","uri":"../../textures/2839f95a47145f83.webp"}],"buffers":[{"uri":"DeadTree_5@lod.bin","byteLength":22496},{"byteLength":38964,"extensions":{"EXT_meshopt_compression":{"fallback":true}}}],"materials":[{"name":"Bark_DeadTree","doubleSided":true,"pbrMetallicRoughness":{"metallicFactor":0,"baseColorTexture":{"index":0}},"normalTexture":{"index":1}}],"meshes":[{"name":"tree.021","primitives":[{"attributes":{"TEXCOORD_0":1,"COLOR_0":2,"POSITION":3,"NORMAL":4},"mode":4,"material":0,"indices":0}]}],"nodes":[{"name":"DeadTree_5","translation":[0.20013956994983317,7.878119974951851,-0.5946099470602348],"scale":[8.213674574713814,8.213674574713814,8.213674574713814],"mesh":0},{"name":"pack_root","children":[0]}],"scenes":[{"name":"Scene","nodes":[1]}],"scene":0,"extensionsUsed":["EXT_meshopt_compression","EXT_texture_webp","KHR_mesh_quantization"],"extensionsRequired":["EXT_meshopt_compression","EXT_texture_webp","KHR_mesh_quantization"]}