{"asset":{"generator":"glTF-Transform v4.5.1","version":"2.0"},"accessors":[{"type":"SCALAR","componentType":5123,"count":2784,"normalized":false,"byteOffset":0,"bufferView":0},{"type":"VEC2","componentType":5126,"count":1189,"normalized":false,"byteOffset":0,"bufferView":1},{"type":"VEC4","componentType":5121,"count":1189,"normalized":true,"byteOffset":0,"bufferView":2},{"type":"VEC3","componentType":5122,"count":1189,"max":[15737,32767,15865],"min":[-15737,-32767,-15865],"normalized":true,"byteOffset":0,"bufferView":3},{"type":"VEC3","componentType":5122,"count":1189,"normalized":true,"byteOffset":0,"bufferView":4}],"bufferViews":[{"buffer":1,"byteOffset":0,"byteLength":5568,"target":34963,"extensions":{"EXT_meshopt_compression":{"buffer":0,"byteOffset":0,"byteLength":1063,"mode":"TRIANGLES","byteStride":2,"count":2784}}},{"buffer":1,"byteOffset":5568,"byteLength":9512,"target":34962,"byteStride":8,"extensions":{"EXT_meshopt_compression":{"buffer":0,"byteOffset":1064,"byteLength":7551,"mode":"ATTRIBUTES","byteStride":8,"count":1189}}},{"buffer":1,"byteOffset":15080,"byteLength":4756,"target":34962,"byteStride":4,"extensions":{"EXT_meshopt_compression":{"buffer":0,"byteOffset":8616,"byteLength":199,"mode":"ATTRIBUTES","byteStride":4,"count":1189}}},{"buffer":1,"byteOffset":19836,"byteLength":9512,"target":34962,"byteStride":8,"extensions":{"EXT_meshopt_compression":{"buffer":0,"byteOffset":8816,"byteLength":6187,"mode":"ATTRIBUTES","byteStride":8,"count":1189}}},{"buffer":1,"byteOffset":29348,"byteLength":9512,"target":34962,"byteStride":8,"extensions":{"EXT_meshopt_compression":{"buffer":0,"byteOffset":15004,"byteLength":7336,"mode":"ATTRIBUTES","byteStride":8,"count":1189}}}],"samplers":[{"magFilter":9729,"minFilter":9987,"wrapS":10497,"wrapT":10497}],"textures":[{"sampler":0,"extensions":{"EXT_texture_webp":{"source":1}}},{"sampler":0,"extensions":{"EXT_texture_webp":{"source":0}}}],"images":[{"name":"Bark_DeadTree_Normal","mimeType":"image/webp","uri":"../../textures/3a34b6327d8e2501.webp"},{"name":"Bark_DeadTree","mimeType":"image/webp","uri":"../../textures/2839f95a47145f83.webp"}],"buffers":[{"uri":"DeadTree_3@lod.bin","byteLength":22340},{"byteLength":38860,"extensions":{"EXT_meshopt_compression":{"fallback":true}}}],"materials":[{"name":"Bark_DeadTree","doubleSided":true,"pbrMetallicRoughness":{"metallicFactor":0,"baseColorTexture":{"index":0}},"normalTexture":{"index":1}}],"meshes":[{"name":"tree.019","primitives":[{"attributes":{"TEXCOORD_0":1,"COLOR_0":2,"POSITION":3,"NORMAL":4},"mode":4,"material":0,"indices":0}]}],"nodes":[{"name":"DeadTree_3","translation":[-0.6590517500606765,6.303827576950425,-0.1716710329055786],"scale":[6.639382176712388,6.639382176712388,6.639382176712388],"mesh":0},{"name":"pack_root","children":[0]}],"scenes":[{"name":"Scene","nodes":[1]}],"scene":0,"extensionsUsed":["EXT_meshopt_compression","EXT_texture_webp","KHR_mesh_quantization"],"extensionsRequired":["EXT_meshopt_compression","EXT_texture_webp","KHR_mesh_quantization"]}