{"asset":{"generator":"glTF-Transform v4.5.1","version":"2.0"},"accessors":[{"type":"SCALAR","componentType":5123,"count":16944,"normalized":false,"byteOffset":0,"bufferView":0},{"type":"VEC2","componentType":5126,"count":7499,"normalized":false,"byteOffset":0,"bufferView":1},{"type":"VEC4","componentType":5121,"count":7499,"normalized":true,"byteOffset":0,"bufferView":2},{"type":"VEC3","componentType":5122,"count":7499,"max":[16658,32767,16770],"min":[-16658,-32767,-16770],"normalized":true,"byteOffset":0,"bufferView":3},{"type":"VEC3","componentType":5122,"count":7499,"normalized":true,"byteOffset":0,"bufferView":4}],"bufferViews":[{"buffer":1,"byteOffset":0,"byteLength":33888,"target":34963,"extensions":{"EXT_meshopt_compression":{"buffer":0,"byteOffset":0,"byteLength":8033,"mode":"TRIANGLES","byteStride":2,"count":16944}}},{"buffer":1,"byteOffset":33888,"byteLength":59992,"target":34962,"byteStride":8,"extensions":{"EXT_meshopt_compression":{"buffer":0,"byteOffset":8036,"byteLength":44923,"mode":"ATTRIBUTES","byteStride":8,"count":7499}}},{"buffer":1,"byteOffset":93880,"byteLength":29996,"target":34962,"byteStride":4,"extensions":{"EXT_meshopt_compression":{"buffer":0,"byteOffset":52960,"byteLength":1279,"mode":"ATTRIBUTES","byteStride":4,"count":7499}}},{"buffer":1,"byteOffset":123876,"byteLength":59992,"target":34962,"byteStride":8,"extensions":{"EXT_meshopt_compression":{"buffer":0,"byteOffset":54240,"byteLength":34996,"mode":"ATTRIBUTES","byteStride":8,"count":7499}}},{"buffer":1,"byteOffset":183868,"byteLength":59992,"target":34962,"byteStride":8,"extensions":{"EXT_meshopt_compression":{"buffer":0,"byteOffset":89236,"byteLength":45887,"mode":"ATTRIBUTES","byteStride":8,"count":7499}}}],"samplers":[{"magFilter":9729,"minFilter":9987,"wrapS":10497,"wrapT":10497}],"textures":[{"sampler":0,"extensions":{"EXT_texture_webp":{"source":1}}},{"sampler":0,"extensions":{"EXT_texture_webp":{"source":0}}}],"images":[{"name":"Bark_DeadTree_Normal","mimeType":"image/webp","uri":"../../textures/3a34b6327d8e2501.webp"},{"name":"Bark_DeadTree","mimeType":"image/webp","uri":"../../textures/2839f95a47145f83.webp"}],"buffers":[{"uri":"DeadTree_5.bin","byteLength":135124},{"byteLength":243860,"extensions":{"EXT_meshopt_compression":{"fallback":true}}}],"materials":[{"name":"Bark_DeadTree","doubleSided":true,"pbrMetallicRoughness":{"metallicFactor":0,"baseColorTexture":{"index":0}},"normalTexture":{"index":1}}],"meshes":[{"name":"tree.021","primitives":[{"attributes":{"TEXCOORD_0":1,"COLOR_0":2,"POSITION":3,"NORMAL":4},"mode":4,"material":0,"indices":0}]}],"nodes":[{"name":"DeadTree_5","translation":[0.20766425132751465,7.883136510848999,-0.5905969142913818],"scale":[8.218691110610962,8.218691110610962,8.218691110610962],"mesh":0},{"name":"pack_root","children":[0]}],"scenes":[{"name":"Scene","nodes":[1]}],"scene":0,"extensionsUsed":["EXT_meshopt_compression","EXT_texture_webp","KHR_mesh_quantization"],"extensionsRequired":["EXT_meshopt_compression","EXT_texture_webp","KHR_mesh_quantization"]}