{"asset":{"generator":"glTF-Transform v4.5.1","version":"2.0"},"accessors":[{"type":"SCALAR","componentType":5123,"count":3582,"normalized":false,"byteOffset":0,"bufferView":0},{"type":"VEC2","componentType":5126,"count":1344,"normalized":false,"byteOffset":0,"bufferView":1},{"type":"VEC4","componentType":5121,"count":1344,"normalized":true,"byteOffset":0,"bufferView":2},{"type":"VEC3","componentType":5122,"count":1344,"max":[21230,32767,19818],"min":[-21230,-32767,-19818],"normalized":true,"byteOffset":0,"bufferView":3},{"type":"VEC3","componentType":5122,"count":1344,"normalized":true,"byteOffset":0,"bufferView":4}],"bufferViews":[{"buffer":1,"byteOffset":0,"byteLength":7164,"target":34963,"extensions":{"EXT_meshopt_compression":{"buffer":0,"byteOffset":0,"byteLength":1443,"mode":"TRIANGLES","byteStride":2,"count":3582}}},{"buffer":1,"byteOffset":7164,"byteLength":10752,"target":34962,"byteStride":8,"extensions":{"EXT_meshopt_compression":{"buffer":0,"byteOffset":1444,"byteLength":8585,"mode":"ATTRIBUTES","byteStride":8,"count":1344}}},{"buffer":1,"byteOffset":17916,"byteLength":5376,"target":34962,"byteStride":4,"extensions":{"EXT_meshopt_compression":{"buffer":0,"byteOffset":10032,"byteLength":237,"mode":"ATTRIBUTES","byteStride":4,"count":1344}}},{"buffer":1,"byteOffset":23292,"byteLength":10752,"target":34962,"byteStride":8,"extensions":{"EXT_meshopt_compression":{"buffer":0,"byteOffset":10272,"byteLength":6912,"mode":"ATTRIBUTES","byteStride":8,"count":1344}}},{"buffer":1,"byteOffset":34044,"byteLength":10752,"target":34962,"byteStride":8,"extensions":{"EXT_meshopt_compression":{"buffer":0,"byteOffset":17184,"byteLength":7477,"mode":"ATTRIBUTES","byteStride":8,"count":1344}}}],"samplers":[{"magFilter":9729,"minFilter":9987,"wrapS":10497,"wrapT":10497}],"textures":[{"sampler":0,"extensions":{"EXT_texture_webp":{"source":1}}},{"sampler":0,"extensions":{"EXT_texture_webp":{"source":0}}}],"images":[{"name":"Bark_DeadTree_Normal","mimeType":"image/webp","uri":"../../textures/3a34b6327d8e2501.webp"},{"name":"Bark_DeadTree","mimeType":"image/webp","uri":"../../textures/2839f95a47145f83.webp"}],"buffers":[{"uri":"DeadTree_1@lod.bin","byteLength":24664},{"byteLength":44796,"extensions":{"EXT_meshopt_compression":{"fallback":true}}}],"materials":[{"name":"Bark_DeadTree","doubleSided":true,"pbrMetallicRoughness":{"metallicFactor":0,"baseColorTexture":{"index":0}},"normalTexture":{"index":1}}],"meshes":[{"name":"tree","primitives":[{"attributes":{"TEXCOORD_0":1,"COLOR_0":2,"POSITION":3,"NORMAL":4},"mode":4,"material":0,"indices":0}]}],"nodes":[{"name":"DeadTree_1","translation":[0.48446260979644507,4.405808721241648,-0.03583092173166591],"scale":[4.741363321003611,4.741363321003611,4.741363321003611],"mesh":0},{"name":"pack_root","children":[0]}],"scenes":[{"name":"Scene","nodes":[1]}],"scene":0,"extensionsUsed":["EXT_meshopt_compression","EXT_texture_webp","KHR_mesh_quantization"],"extensionsRequired":["EXT_meshopt_compression","EXT_texture_webp","KHR_mesh_quantization"]}