{"asset":{"generator":"glTF-Transform v4.5.1","version":"2.0"},"accessors":[{"type":"SCALAR","componentType":5123,"count":810,"normalized":false,"byteOffset":0,"bufferView":0},{"type":"SCALAR","componentType":5123,"count":45,"normalized":false,"byteOffset":1620,"bufferView":0},{"type":"VEC4","componentType":5121,"count":211,"normalized":true,"byteOffset":0,"bufferView":1},{"type":"VEC3","componentType":5122,"count":211,"max":[14365,23950,13865],"min":[-14365,-32767,-13901],"normalized":true,"byteOffset":0,"bufferView":2},{"type":"VEC3","componentType":5122,"count":211,"normalized":true,"byteOffset":0,"bufferView":3},{"type":"VEC2","componentType":5123,"count":211,"normalized":true,"byteOffset":0,"bufferView":4},{"type":"VEC4","componentType":5121,"count":16,"normalized":true,"byteOffset":0,"bufferView":5},{"type":"VEC3","componentType":5122,"count":16,"max":[14201,32767,13901],"min":[-7764,23434,-9161],"normalized":true,"byteOffset":0,"bufferView":6},{"type":"VEC3","componentType":5122,"count":16,"normalized":true,"byteOffset":0,"bufferView":7},{"type":"VEC2","componentType":5123,"count":16,"normalized":true,"byteOffset":0,"bufferView":8}],"bufferViews":[{"buffer":1,"byteOffset":0,"byteLength":1710,"target":34963,"extensions":{"EXT_meshopt_compression":{"buffer":0,"byteOffset":0,"byteLength":321,"mode":"TRIANGLES","byteStride":2,"count":855}}},{"buffer":1,"byteOffset":1712,"byteLength":844,"target":34962,"byteStride":4,"extensions":{"EXT_meshopt_compression":{"buffer":0,"byteOffset":324,"byteLength":427,"mode":"ATTRIBUTES","byteStride":4,"count":211}}},{"buffer":1,"byteOffset":2556,"byteLength":1688,"target":34962,"byteStride":8,"extensions":{"EXT_meshopt_compression":{"buffer":0,"byteOffset":752,"byteLength":1183,"mode":"ATTRIBUTES","byteStride":8,"count":211}}},{"buffer":1,"byteOffset":4244,"byteLength":1688,"target":34962,"byteStride":8,"extensions":{"EXT_meshopt_compression":{"buffer":0,"byteOffset":1936,"byteLength":1311,"mode":"ATTRIBUTES","byteStride":8,"count":211}}},{"buffer":1,"byteOffset":5932,"byteLength":844,"target":34962,"byteStride":4,"extensions":{"EXT_meshopt_compression":{"buffer":0,"byteOffset":3248,"byteLength":778,"mode":"ATTRIBUTES","byteStride":4,"count":211}}},{"buffer":1,"byteOffset":6776,"byteLength":64,"target":34962,"byteStride":4,"extensions":{"EXT_meshopt_compression":{"buffer":0,"byteOffset":4028,"byteLength":37,"mode":"ATTRIBUTES","byteStride":4,"count":16}}},{"buffer":1,"byteOffset":6840,"byteLength":128,"target":34962,"byteStride":8,"extensions":{"EXT_meshopt_compression":{"buffer":0,"byteOffset":4068,"byteLength":131,"mode":"ATTRIBUTES","byteStride":8,"count":16}}},{"buffer":1,"byteOffset":6968,"byteLength":128,"target":34962,"byteStride":8,"extensions":{"EXT_meshopt_compression":{"buffer":0,"byteOffset":4200,"byteLength":137,"mode":"ATTRIBUTES","byteStride":8,"count":16}}},{"buffer":1,"byteOffset":7096,"byteLength":64,"target":34962,"byteStride":4,"extensions":{"EXT_meshopt_compression":{"buffer":0,"byteOffset":4340,"byteLength":101,"mode":"ATTRIBUTES","byteStride":4,"count":16}}}],"samplers":[{"magFilter":9729,"minFilter":9987,"wrapS":10497,"wrapT":10497}],"textures":[{"sampler":0,"extensions":{"EXT_texture_webp":{"source":0}}},{"sampler":0,"extensions":{"EXT_texture_webp":{"source":1}}}],"images":[{"name":"Leaves","mimeType":"image/webp","uri":"../../textures/d32e4a712cc39677.webp"},{"name":"Flowers","mimeType":"image/webp","uri":"../../textures/cf082c431d5d3df3.webp"}],"buffers":[{"uri":"Flower_3_Single.bin","byteLength":4444},{"byteLength":7160,"extensions":{"EXT_meshopt_compression":{"fallback":true}}}],"materials":[{"name":"Leaves","alphaMode":"MASK","alphaCutoff":0.20000000298023224,"doubleSided":true,"pbrMetallicRoughness":{"metallicFactor":0,"baseColorTexture":{"index":0}}},{"name":"Flowers","alphaMode":"MASK","alphaCutoff":0.20000000298023224,"doubleSided":true,"pbrMetallicRoughness":{"metallicFactor":0,"baseColorTexture":{"index":1}}}],"meshes":[{"name":"Plane.020","primitives":[{"attributes":{"COLOR_0":2,"POSITION":3,"NORMAL":4,"TEXCOORD_0":5},"mode":4,"material":0,"indices":0},{"attributes":{"COLOR_0":6,"POSITION":7,"NORMAL":8,"TEXCOORD_0":9},"mode":4,"material":1,"indices":1}]}],"nodes":[{"name":"Flower_3_Single","translation":[-0.027433693408966064,1.0157698607072234,-0.08195233345031738],"scale":[1.034096815623343,1.034096815623343,1.034096815623343],"mesh":0},{"name":"pack_root","children":[0]}],"scenes":[{"name":"Scene","nodes":[1]}],"scene":0,"extensionsUsed":["EXT_meshopt_compression","EXT_texture_webp","KHR_mesh_quantization"],"extensionsRequired":["EXT_meshopt_compression","EXT_texture_webp","KHR_mesh_quantization"]}