{"asset":{"generator":"glTF-Transform v4.5.1","version":"2.0"},"accessors":[{"type":"SCALAR","componentType":5123,"count":1470,"normalized":false,"byteOffset":0,"bufferView":0},{"type":"SCALAR","componentType":5123,"count":3600,"normalized":false,"byteOffset":2940,"bufferView":0},{"type":"VEC2","componentType":5126,"count":1000,"normalized":false,"byteOffset":0,"bufferView":1},{"type":"VEC4","componentType":5121,"count":302,"normalized":true,"byteOffset":0,"bufferView":2},{"type":"VEC3","componentType":5122,"count":302,"max":[17570,29199,12657],"min":[-19738,-32767,-17546],"normalized":true,"byteOffset":0,"bufferView":3},{"type":"VEC3","componentType":5122,"count":302,"normalized":true,"byteOffset":0,"bufferView":4},{"type":"VEC2","componentType":5123,"count":302,"normalized":true,"byteOffset":0,"bufferView":5},{"type":"VEC4","componentType":5121,"count":1000,"normalized":true,"byteOffset":0,"bufferView":6},{"type":"VEC3","componentType":5122,"count":1000,"max":[23462,32767,18018],"min":[-23462,-1696,-18018],"normalized":true,"byteOffset":0,"bufferView":7},{"type":"VEC3","componentType":5122,"count":1000,"normalized":true,"byteOffset":0,"bufferView":8}],"bufferViews":[{"buffer":1,"byteOffset":0,"byteLength":10140,"target":34963,"extensions":{"EXT_meshopt_compression":{"buffer":0,"byteOffset":0,"byteLength":1909,"mode":"TRIANGLES","byteStride":2,"count":5070}}},{"buffer":1,"byteOffset":10140,"byteLength":8000,"target":34962,"byteStride":8,"extensions":{"EXT_meshopt_compression":{"buffer":0,"byteOffset":1912,"byteLength":6183,"mode":"ATTRIBUTES","byteStride":8,"count":1000}}},{"buffer":1,"byteOffset":18140,"byteLength":1208,"target":34962,"byteStride":4,"extensions":{"EXT_meshopt_compression":{"buffer":0,"byteOffset":8096,"byteLength":599,"mode":"ATTRIBUTES","byteStride":4,"count":302}}},{"buffer":1,"byteOffset":19348,"byteLength":2416,"target":34962,"byteStride":8,"extensions":{"EXT_meshopt_compression":{"buffer":0,"byteOffset":8696,"byteLength":1544,"mode":"ATTRIBUTES","byteStride":8,"count":302}}},{"buffer":1,"byteOffset":21764,"byteLength":2416,"target":34962,"byteStride":8,"extensions":{"EXT_meshopt_compression":{"buffer":0,"byteOffset":10240,"byteLength":1869,"mode":"ATTRIBUTES","byteStride":8,"count":302}}},{"buffer":1,"byteOffset":24180,"byteLength":1208,"target":34962,"byteStride":4,"extensions":{"EXT_meshopt_compression":{"buffer":0,"byteOffset":12112,"byteLength":918,"mode":"ATTRIBUTES","byteStride":4,"count":302}}},{"buffer":1,"byteOffset":25388,"byteLength":4000,"target":34962,"byteStride":4,"extensions":{"EXT_meshopt_compression":{"buffer":0,"byteOffset":13032,"byteLength":97,"mode":"ATTRIBUTES","byteStride":4,"count":1000}}},{"buffer":1,"byteOffset":29388,"byteLength":8000,"target":34962,"byteStride":8,"extensions":{"EXT_meshopt_compression":{"buffer":0,"byteOffset":13132,"byteLength":5322,"mode":"ATTRIBUTES","byteStride":8,"count":1000}}},{"buffer":1,"byteOffset":37388,"byteLength":8000,"target":34962,"byteStride":8,"extensions":{"EXT_meshopt_compression":{"buffer":0,"byteOffset":18456,"byteLength":5908,"mode":"ATTRIBUTES","byteStride":8,"count":1000}}}],"samplers":[{"magFilter":9729,"minFilter":9987,"wrapS":10497,"wrapT":10497}],"textures":[{"sampler":0,"extensions":{"EXT_texture_webp":{"source":0}}},{"sampler":0,"extensions":{"EXT_texture_webp":{"source":1}}}],"images":[{"name":"Leaves","mimeType":"image/webp","uri":"../../textures/d32e4a712cc39677.webp"},{"name":"Flowers","mimeType":"image/webp","uri":"../../textures/cf082c431d5d3df3.webp"}],"buffers":[{"uri":"Flower_4_Group.bin","byteLength":24364},{"byteLength":45388,"extensions":{"EXT_meshopt_compression":{"fallback":true}}}],"materials":[{"name":"Leaves","alphaMode":"MASK","alphaCutoff":0.20000000298023224,"doubleSided":true,"pbrMetallicRoughness":{"metallicFactor":0,"baseColorTexture":{"index":0}}},{"name":"Flowers","alphaMode":"MASK","alphaCutoff":0.20000000298023224,"doubleSided":true,"pbrMetallicRoughness":{"metallicFactor":0,"baseColorTexture":{"index":1}}}],"meshes":[{"name":"Plane.003","primitives":[{"attributes":{"COLOR_0":3,"POSITION":4,"NORMAL":5,"TEXCOORD_0":6},"mode":4,"material":0,"indices":0},{"attributes":{"TEXCOORD_0":2,"COLOR_0":7,"POSITION":8,"NORMAL":9},"mode":4,"material":1,"indices":1}]}],"nodes":[{"name":"Flower_4_Group","translation":[-0.041122883558273315,1.1863865479826927,0.047613948583602905],"scale":[1.2433841601014137,1.2433841601014137,1.2433841601014137],"mesh":0},{"name":"pack_root","children":[0]}],"scenes":[{"name":"Scene","nodes":[1]}],"scene":0,"extensionsUsed":["EXT_meshopt_compression","EXT_texture_webp","KHR_mesh_quantization"],"extensionsRequired":["EXT_meshopt_compression","EXT_texture_webp","KHR_mesh_quantization"]}