{"asset":{"generator":"glTF-Transform v4.5.1","version":"2.0"},"accessors":[{"type":"SCALAR","componentType":5123,"count":162,"normalized":false,"byteOffset":0,"bufferView":0},{"type":"SCALAR","componentType":5123,"count":1464,"normalized":false,"byteOffset":324,"bufferView":0},{"type":"VEC2","componentType":5126,"count":416,"normalized":false,"byteOffset":0,"bufferView":1},{"type":"VEC4","componentType":5121,"count":61,"normalized":true,"byteOffset":0,"bufferView":2},{"type":"VEC3","componentType":5122,"count":61,"max":[16185,1624,12657],"min":[-19738,-32767,-17546],"normalized":true,"byteOffset":0,"bufferView":3},{"type":"VEC3","componentType":5122,"count":61,"normalized":true,"byteOffset":0,"bufferView":4},{"type":"VEC2","componentType":5123,"count":61,"normalized":true,"byteOffset":0,"bufferView":5},{"type":"VEC4","componentType":5121,"count":416,"normalized":true,"byteOffset":0,"bufferView":6},{"type":"VEC3","componentType":5122,"count":416,"max":[23462,32767,18018],"min":[-23462,-1696,-18018],"normalized":true,"byteOffset":0,"bufferView":7},{"type":"VEC3","componentType":5122,"count":416,"normalized":true,"byteOffset":0,"bufferView":8}],"bufferViews":[{"buffer":1,"byteOffset":0,"byteLength":3252,"target":34963,"extensions":{"EXT_meshopt_compression":{"buffer":0,"byteOffset":0,"byteLength":560,"mode":"TRIANGLES","byteStride":2,"count":1626}}},{"buffer":1,"byteOffset":3252,"byteLength":3328,"target":34962,"byteStride":8,"extensions":{"EXT_meshopt_compression":{"buffer":0,"byteOffset":560,"byteLength":2585,"mode":"ATTRIBUTES","byteStride":8,"count":416}}},{"buffer":1,"byteOffset":6580,"byteLength":244,"target":34962,"byteStride":4,"extensions":{"EXT_meshopt_compression":{"buffer":0,"byteOffset":3148,"byteLength":229,"mode":"ATTRIBUTES","byteStride":4,"count":61}}},{"buffer":1,"byteOffset":6824,"byteLength":488,"target":34962,"byteStride":8,"extensions":{"EXT_meshopt_compression":{"buffer":0,"byteOffset":3380,"byteLength":425,"mode":"ATTRIBUTES","byteStride":8,"count":61}}},{"buffer":1,"byteOffset":7312,"byteLength":488,"target":34962,"byteStride":8,"extensions":{"EXT_meshopt_compression":{"buffer":0,"byteOffset":3808,"byteLength":424,"mode":"ATTRIBUTES","byteStride":8,"count":61}}},{"buffer":1,"byteOffset":7800,"byteLength":244,"target":34962,"byteStride":4,"extensions":{"EXT_meshopt_compression":{"buffer":0,"byteOffset":4232,"byteLength":290,"mode":"ATTRIBUTES","byteStride":4,"count":61}}},{"buffer":1,"byteOffset":8044,"byteLength":1664,"target":34962,"byteStride":4,"extensions":{"EXT_meshopt_compression":{"buffer":0,"byteOffset":4524,"byteLength":61,"mode":"ATTRIBUTES","byteStride":4,"count":416}}},{"buffer":1,"byteOffset":9708,"byteLength":3328,"target":34962,"byteStride":8,"extensions":{"EXT_meshopt_compression":{"buffer":0,"byteOffset":4588,"byteLength":2495,"mode":"ATTRIBUTES","byteStride":8,"count":416}}},{"buffer":1,"byteOffset":13036,"byteLength":3328,"target":34962,"byteStride":8,"extensions":{"EXT_meshopt_compression":{"buffer":0,"byteOffset":7084,"byteLength":2579,"mode":"ATTRIBUTES","byteStride":8,"count":416}}}],"samplers":[{"magFilter":9729,"minFilter":9987,"wrapS":10497,"wrapT":10497}],"textures":[{"sampler":0,"extensions":{"EXT_texture_webp":{"source":0}}},{"sampler":0,"extensions":{"EXT_texture_webp":{"source":1}}}],"images":[{"name":"Leaves","mimeType":"image/webp","uri":"../../textures/d32e4a712cc39677.webp"},{"name":"Flowers","mimeType":"image/webp","uri":"../../textures/cf082c431d5d3df3.webp"}],"buffers":[{"uri":"Flower_4_Group@lod.bin","byteLength":9664},{"byteLength":16364,"extensions":{"EXT_meshopt_compression":{"fallback":true}}}],"materials":[{"name":"Leaves","alphaMode":"MASK","alphaCutoff":0.20000000298023224,"doubleSided":true,"pbrMetallicRoughness":{"metallicFactor":0,"baseColorTexture":{"index":0}}},{"name":"Flowers","alphaMode":"MASK","alphaCutoff":0.20000000298023224,"doubleSided":true,"pbrMetallicRoughness":{"metallicFactor":0,"baseColorTexture":{"index":1}}}],"meshes":[{"name":"Plane.003","primitives":[{"attributes":{"COLOR_0":3,"POSITION":4,"NORMAL":5,"TEXCOORD_0":6},"mode":4,"material":0,"indices":0},{"attributes":{"TEXCOORD_0":2,"COLOR_0":7,"POSITION":8,"NORMAL":9},"mode":4,"material":1,"indices":1}]}],"nodes":[{"name":"Flower_4_Group","translation":[-0.041122883558273315,1.1863865479826927,0.047613948583602905],"scale":[1.2433841601014137,1.2433841601014137,1.2433841601014137],"mesh":0},{"name":"pack_root","children":[0]}],"scenes":[{"name":"Scene","nodes":[1]}],"scene":0,"extensionsUsed":["EXT_meshopt_compression","EXT_texture_webp","KHR_mesh_quantization"],"extensionsRequired":["EXT_meshopt_compression","EXT_texture_webp","KHR_mesh_quantization"]}