{"asset":{"generator":"glTF-Transform v4.5.1","version":"2.0"},"accessors":[{"type":"SCALAR","componentType":5123,"count":2130,"normalized":false,"byteOffset":0,"bufferView":0},{"type":"SCALAR","componentType":5123,"count":135,"normalized":false,"byteOffset":4260,"bufferView":0},{"type":"VEC4","componentType":5121,"count":533,"normalized":true,"byteOffset":0,"bufferView":1},{"type":"VEC3","componentType":5122,"count":533,"max":[20974,24923,22666],"min":[-22290,-32767,-17110],"normalized":true,"byteOffset":0,"bufferView":2},{"type":"VEC3","componentType":5122,"count":533,"normalized":true,"byteOffset":0,"bufferView":3},{"type":"VEC2","componentType":5123,"count":533,"normalized":true,"byteOffset":0,"bufferView":4},{"type":"VEC4","componentType":5121,"count":48,"normalized":true,"byteOffset":0,"bufferView":5},{"type":"VEC3","componentType":5122,"count":48,"max":[23734,32767,25375],"min":[-23734,14633,-25375],"normalized":true,"byteOffset":0,"bufferView":6},{"type":"VEC3","componentType":5122,"count":48,"normalized":true,"byteOffset":0,"bufferView":7},{"type":"VEC2","componentType":5123,"count":48,"normalized":true,"byteOffset":0,"bufferView":8}],"bufferViews":[{"buffer":1,"byteOffset":0,"byteLength":4530,"target":34963,"extensions":{"EXT_meshopt_compression":{"buffer":0,"byteOffset":0,"byteLength":820,"mode":"TRIANGLES","byteStride":2,"count":2265}}},{"buffer":1,"byteOffset":4532,"byteLength":2132,"target":34962,"byteStride":4,"extensions":{"EXT_meshopt_compression":{"buffer":0,"byteOffset":820,"byteLength":993,"mode":"ATTRIBUTES","byteStride":4,"count":533}}},{"buffer":1,"byteOffset":6664,"byteLength":4264,"target":34962,"byteStride":8,"extensions":{"EXT_meshopt_compression":{"buffer":0,"byteOffset":1816,"byteLength":2926,"mode":"ATTRIBUTES","byteStride":8,"count":533}}},{"buffer":1,"byteOffset":10928,"byteLength":4264,"target":34962,"byteStride":8,"extensions":{"EXT_meshopt_compression":{"buffer":0,"byteOffset":4744,"byteLength":3287,"mode":"ATTRIBUTES","byteStride":8,"count":533}}},{"buffer":1,"byteOffset":15192,"byteLength":2132,"target":34962,"byteStride":4,"extensions":{"EXT_meshopt_compression":{"buffer":0,"byteOffset":8032,"byteLength":1826,"mode":"ATTRIBUTES","byteStride":4,"count":533}}},{"buffer":1,"byteOffset":17324,"byteLength":192,"target":34962,"byteStride":4,"extensions":{"EXT_meshopt_compression":{"buffer":0,"byteOffset":9860,"byteLength":37,"mode":"ATTRIBUTES","byteStride":4,"count":48}}},{"buffer":1,"byteOffset":17516,"byteLength":384,"target":34962,"byteStride":8,"extensions":{"EXT_meshopt_compression":{"buffer":0,"byteOffset":9900,"byteLength":318,"mode":"ATTRIBUTES","byteStride":8,"count":48}}},{"buffer":1,"byteOffset":17900,"byteLength":384,"target":34962,"byteStride":8,"extensions":{"EXT_meshopt_compression":{"buffer":0,"byteOffset":10220,"byteLength":329,"mode":"ATTRIBUTES","byteStride":8,"count":48}}},{"buffer":1,"byteOffset":18284,"byteLength":192,"target":34962,"byteStride":4,"extensions":{"EXT_meshopt_compression":{"buffer":0,"byteOffset":10552,"byteLength":229,"mode":"ATTRIBUTES","byteStride":4,"count":48}}}],"samplers":[{"magFilter":9729,"minFilter":9987,"wrapS":10497,"wrapT":10497}],"textures":[{"sampler":0,"extensions":{"EXT_texture_webp":{"source":0}}},{"sampler":0,"extensions":{"EXT_texture_webp":{"source":1}}}],"images":[{"name":"Leaves","mimeType":"image/webp","uri":"../../textures/d32e4a712cc39677.webp"},{"name":"Flowers","mimeType":"image/webp","uri":"../../textures/cf082c431d5d3df3.webp"}],"buffers":[{"uri":"Flower_3_Group.bin","byteLength":10784},{"byteLength":18476,"extensions":{"EXT_meshopt_compression":{"fallback":true}}}],"materials":[{"name":"Leaves","alphaMode":"MASK","alphaCutoff":0.20000000298023224,"doubleSided":true,"pbrMetallicRoughness":{"metallicFactor":0,"baseColorTexture":{"index":0}}},{"name":"Flowers","alphaMode":"MASK","alphaCutoff":0.20000000298023224,"doubleSided":true,"pbrMetallicRoughness":{"metallicFactor":0,"baseColorTexture":{"index":1}}}],"meshes":[{"name":"Plane.021","primitives":[{"attributes":{"COLOR_0":2,"POSITION":3,"NORMAL":4,"TEXCOORD_0":5},"mode":4,"material":0,"indices":0},{"attributes":{"COLOR_0":6,"POSITION":7,"NORMAL":8,"TEXCOORD_0":9},"mode":4,"material":1,"indices":1}]}],"nodes":[{"name":"Flower_3_Group","translation":[0.13063696026802063,0.992833960801363,-0.006198227405548096],"scale":[1.0274175517261028,1.0274175517261028,1.0274175517261028],"mesh":0},{"name":"pack_root","children":[0]}],"scenes":[{"name":"Scene","nodes":[1]}],"scene":0,"extensionsUsed":["EXT_meshopt_compression","EXT_texture_webp","KHR_mesh_quantization"],"extensionsRequired":["EXT_meshopt_compression","EXT_texture_webp","KHR_mesh_quantization"]}