{"asset":{"generator":"glTF-Transform v4.5.1","version":"2.0"},"accessors":[{"type":"SCALAR","componentType":5123,"count":486,"normalized":false,"byteOffset":0,"bufferView":0},{"type":"SCALAR","componentType":5123,"count":1440,"normalized":false,"byteOffset":972,"bufferView":0},{"type":"VEC2","componentType":5126,"count":400,"normalized":false,"byteOffset":0,"bufferView":1},{"type":"VEC4","componentType":5121,"count":99,"normalized":true,"byteOffset":0,"bufferView":2},{"type":"VEC3","componentType":5122,"count":99,"max":[14525,30211,6148],"min":[-14525,-32767,-9421],"normalized":true,"byteOffset":0,"bufferView":3},{"type":"VEC3","componentType":5122,"count":99,"normalized":true,"byteOffset":0,"bufferView":4},{"type":"VEC2","componentType":5123,"count":99,"normalized":true,"byteOffset":0,"bufferView":5},{"type":"VEC4","componentType":5121,"count":400,"normalized":true,"byteOffset":0,"bufferView":6},{"type":"VEC3","componentType":5122,"count":400,"max":[9465,32767,10469],"min":[-11577,-1428,-10469],"normalized":true,"byteOffset":0,"bufferView":7},{"type":"VEC3","componentType":5122,"count":400,"normalized":true,"byteOffset":0,"bufferView":8}],"bufferViews":[{"buffer":1,"byteOffset":0,"byteLength":3852,"target":34963,"extensions":{"EXT_meshopt_compression":{"buffer":0,"byteOffset":0,"byteLength":733,"mode":"TRIANGLES","byteStride":2,"count":1926}}},{"buffer":1,"byteOffset":3852,"byteLength":3200,"target":34962,"byteStride":8,"extensions":{"EXT_meshopt_compression":{"buffer":0,"byteOffset":736,"byteLength":2489,"mode":"ATTRIBUTES","byteStride":8,"count":400}}},{"buffer":1,"byteOffset":7052,"byteLength":396,"target":34962,"byteStride":4,"extensions":{"EXT_meshopt_compression":{"buffer":0,"byteOffset":3228,"byteLength":254,"mode":"ATTRIBUTES","byteStride":4,"count":99}}},{"buffer":1,"byteOffset":7448,"byteLength":792,"target":34962,"byteStride":8,"extensions":{"EXT_meshopt_compression":{"buffer":0,"byteOffset":3484,"byteLength":535,"mode":"ATTRIBUTES","byteStride":8,"count":99}}},{"buffer":1,"byteOffset":8240,"byteLength":792,"target":34962,"byteStride":8,"extensions":{"EXT_meshopt_compression":{"buffer":0,"byteOffset":4020,"byteLength":632,"mode":"ATTRIBUTES","byteStride":8,"count":99}}},{"buffer":1,"byteOffset":9032,"byteLength":396,"target":34962,"byteStride":4,"extensions":{"EXT_meshopt_compression":{"buffer":0,"byteOffset":4652,"byteLength":341,"mode":"ATTRIBUTES","byteStride":4,"count":99}}},{"buffer":1,"byteOffset":9428,"byteLength":1600,"target":34962,"byteStride":4,"extensions":{"EXT_meshopt_compression":{"buffer":0,"byteOffset":4996,"byteLength":313,"mode":"ATTRIBUTES","byteStride":4,"count":400}}},{"buffer":1,"byteOffset":11028,"byteLength":3200,"target":34962,"byteStride":8,"extensions":{"EXT_meshopt_compression":{"buffer":0,"byteOffset":5312,"byteLength":2194,"mode":"ATTRIBUTES","byteStride":8,"count":400}}},{"buffer":1,"byteOffset":14228,"byteLength":3200,"target":34962,"byteStride":8,"extensions":{"EXT_meshopt_compression":{"buffer":0,"byteOffset":7508,"byteLength":2386,"mode":"ATTRIBUTES","byteStride":8,"count":400}}}],"samplers":[{"magFilter":9729,"minFilter":9987,"wrapS":10497,"wrapT":10497}],"textures":[{"sampler":0,"extensions":{"EXT_texture_webp":{"source":0}}},{"sampler":0,"extensions":{"EXT_texture_webp":{"source":1}}}],"images":[{"name":"Leaves","mimeType":"image/webp","uri":"../../textures/d32e4a712cc39677.webp"},{"name":"Flowers","mimeType":"image/webp","uri":"../../textures/cf082c431d5d3df3.webp"}],"buffers":[{"uri":"Flower_4_Single.bin","byteLength":9896},{"byteLength":17428,"extensions":{"EXT_meshopt_compression":{"fallback":true}}}],"materials":[{"name":"Leaves","alphaMode":"MASK","alphaCutoff":0.20000000298023224,"doubleSided":true,"pbrMetallicRoughness":{"metallicFactor":0,"baseColorTexture":{"index":0}}},{"name":"Flowers","alphaMode":"MASK","alphaCutoff":0.20000000298023224,"doubleSided":true,"pbrMetallicRoughness":{"metallicFactor":0,"baseColorTexture":{"index":1}}}],"meshes":[{"name":"Plane.001","primitives":[{"attributes":{"COLOR_0":3,"POSITION":4,"NORMAL":5,"TEXCOORD_0":6},"mode":4,"material":0,"indices":0},{"attributes":{"TEXCOORD_0":2,"COLOR_0":7,"POSITION":8,"NORMAL":9},"mode":4,"material":1,"indices":1}]}],"nodes":[{"name":"Flower_4_Single","translation":[0.03113776445388794,1.1791490679606795,-0.015370190143585205],"scale":[1.2095795506611466,1.2095795506611466,1.2095795506611466],"mesh":0},{"name":"pack_root","children":[0]}],"scenes":[{"name":"Scene","nodes":[1]}],"scene":0,"extensionsUsed":["EXT_meshopt_compression","EXT_texture_webp","KHR_mesh_quantization"],"extensionsRequired":["EXT_meshopt_compression","EXT_texture_webp","KHR_mesh_quantization"]}