{"asset":{"generator":"glTF-Transform v4.5.1","version":"2.0"},"accessors":[{"type":"SCALAR","componentType":5123,"count":312,"normalized":false,"byteOffset":0,"bufferView":0},{"type":"SCALAR","componentType":5123,"count":123,"normalized":false,"byteOffset":624,"bufferView":0},{"type":"VEC4","componentType":5121,"count":126,"normalized":true,"byteOffset":0,"bufferView":1},{"type":"VEC3","componentType":5122,"count":126,"max":[20974,24923,22666],"min":[-22082,-32767,-16321],"normalized":true,"byteOffset":0,"bufferView":2},{"type":"VEC3","componentType":5122,"count":126,"normalized":true,"byteOffset":0,"bufferView":3},{"type":"VEC2","componentType":5123,"count":126,"normalized":true,"byteOffset":0,"bufferView":4},{"type":"VEC4","componentType":5121,"count":44,"normalized":true,"byteOffset":0,"bufferView":5},{"type":"VEC3","componentType":5122,"count":44,"max":[23734,32767,25375],"min":[-23734,14633,-25375],"normalized":true,"byteOffset":0,"bufferView":6},{"type":"VEC3","componentType":5122,"count":44,"normalized":true,"byteOffset":0,"bufferView":7},{"type":"VEC2","componentType":5123,"count":44,"normalized":true,"byteOffset":0,"bufferView":8}],"bufferViews":[{"buffer":1,"byteOffset":0,"byteLength":870,"target":34963,"extensions":{"EXT_meshopt_compression":{"buffer":0,"byteOffset":0,"byteLength":165,"mode":"TRIANGLES","byteStride":2,"count":435}}},{"buffer":1,"byteOffset":872,"byteLength":504,"target":34962,"byteStride":4,"extensions":{"EXT_meshopt_compression":{"buffer":0,"byteOffset":168,"byteLength":380,"mode":"ATTRIBUTES","byteStride":4,"count":126}}},{"buffer":1,"byteOffset":1376,"byteLength":1008,"target":34962,"byteStride":8,"extensions":{"EXT_meshopt_compression":{"buffer":0,"byteOffset":548,"byteLength":817,"mode":"ATTRIBUTES","byteStride":8,"count":126}}},{"buffer":1,"byteOffset":2384,"byteLength":1008,"target":34962,"byteStride":8,"extensions":{"EXT_meshopt_compression":{"buffer":0,"byteOffset":1368,"byteLength":817,"mode":"ATTRIBUTES","byteStride":8,"count":126}}},{"buffer":1,"byteOffset":3392,"byteLength":504,"target":34962,"byteStride":4,"extensions":{"EXT_meshopt_compression":{"buffer":0,"byteOffset":2188,"byteLength":551,"mode":"ATTRIBUTES","byteStride":4,"count":126}}},{"buffer":1,"byteOffset":3896,"byteLength":176,"target":34962,"byteStride":4,"extensions":{"EXT_meshopt_compression":{"buffer":0,"byteOffset":2740,"byteLength":37,"mode":"ATTRIBUTES","byteStride":4,"count":44}}},{"buffer":1,"byteOffset":4072,"byteLength":352,"target":34962,"byteStride":8,"extensions":{"EXT_meshopt_compression":{"buffer":0,"byteOffset":2780,"byteLength":313,"mode":"ATTRIBUTES","byteStride":8,"count":44}}},{"buffer":1,"byteOffset":4424,"byteLength":352,"target":34962,"byteStride":8,"extensions":{"EXT_meshopt_compression":{"buffer":0,"byteOffset":3096,"byteLength":327,"mode":"ATTRIBUTES","byteStride":8,"count":44}}},{"buffer":1,"byteOffset":4776,"byteLength":176,"target":34962,"byteStride":4,"extensions":{"EXT_meshopt_compression":{"buffer":0,"byteOffset":3424,"byteLength":225,"mode":"ATTRIBUTES","byteStride":4,"count":44}}}],"samplers":[{"magFilter":9729,"minFilter":9987,"wrapS":10497,"wrapT":10497}],"textures":[{"sampler":0,"extensions":{"EXT_texture_webp":{"source":0}}},{"sampler":0,"extensions":{"EXT_texture_webp":{"source":1}}}],"images":[{"name":"Leaves","mimeType":"image/webp","uri":"../../textures/d32e4a712cc39677.webp"},{"name":"Flowers","mimeType":"image/webp","uri":"../../textures/cf082c431d5d3df3.webp"}],"buffers":[{"uri":"Flower_3_Group@lod.bin","byteLength":3652},{"byteLength":4952,"extensions":{"EXT_meshopt_compression":{"fallback":true}}}],"materials":[{"name":"Leaves","alphaMode":"MASK","alphaCutoff":0.20000000298023224,"doubleSided":true,"pbrMetallicRoughness":{"metallicFactor":0,"baseColorTexture":{"index":0}}},{"name":"Flowers","alphaMode":"MASK","alphaCutoff":0.20000000298023224,"doubleSided":true,"pbrMetallicRoughness":{"metallicFactor":0,"baseColorTexture":{"index":1}}}],"meshes":[{"name":"Plane.021","primitives":[{"attributes":{"COLOR_0":2,"POSITION":3,"NORMAL":4,"TEXCOORD_0":5},"mode":4,"material":0,"indices":0},{"attributes":{"COLOR_0":6,"POSITION":7,"NORMAL":8,"TEXCOORD_0":9},"mode":4,"material":1,"indices":1}]}],"nodes":[{"name":"Flower_3_Group","translation":[0.13063696026802063,0.992833960801363,-0.006198227405548096],"scale":[1.0274175517261028,1.0274175517261028,1.0274175517261028],"mesh":0},{"name":"pack_root","children":[0]}],"scenes":[{"name":"Scene","nodes":[1]}],"scene":0,"extensionsUsed":["EXT_meshopt_compression","EXT_texture_webp","KHR_mesh_quantization"],"extensionsRequired":["EXT_meshopt_compression","EXT_texture_webp","KHR_mesh_quantization"]}