{"asset":{"generator":"glTF-Transform v4.5.1","version":"2.0"},"accessors":[{"type":"SCALAR","componentType":5123,"count":222,"normalized":false,"byteOffset":0,"bufferView":0},{"type":"VEC4","componentType":5121,"count":124,"normalized":true,"byteOffset":0,"bufferView":1},{"type":"VEC3","componentType":5122,"count":124,"max":[29203,32767,31399],"min":[-29203,-32767,-31399],"normalized":true,"byteOffset":0,"bufferView":2},{"type":"VEC3","componentType":5122,"count":124,"normalized":true,"byteOffset":0,"bufferView":3},{"type":"VEC2","componentType":5123,"count":124,"normalized":true,"byteOffset":0,"bufferView":4}],"bufferViews":[{"buffer":1,"byteOffset":0,"byteLength":444,"target":34963,"extensions":{"EXT_meshopt_compression":{"buffer":0,"byteOffset":0,"byteLength":91,"mode":"TRIANGLES","byteStride":2,"count":222}}},{"buffer":1,"byteOffset":444,"byteLength":496,"target":34962,"byteStride":4,"extensions":{"EXT_meshopt_compression":{"buffer":0,"byteOffset":92,"byteLength":422,"mode":"ATTRIBUTES","byteStride":4,"count":124}}},{"buffer":1,"byteOffset":940,"byteLength":992,"target":34962,"byteStride":8,"extensions":{"EXT_meshopt_compression":{"buffer":0,"byteOffset":516,"byteLength":812,"mode":"ATTRIBUTES","byteStride":8,"count":124}}},{"buffer":1,"byteOffset":1932,"byteLength":992,"target":34962,"byteStride":8,"extensions":{"EXT_meshopt_compression":{"buffer":0,"byteOffset":1328,"byteLength":143,"mode":"ATTRIBUTES","byteStride":8,"count":124}}},{"buffer":1,"byteOffset":2924,"byteLength":496,"target":34962,"byteStride":4,"extensions":{"EXT_meshopt_compression":{"buffer":0,"byteOffset":1472,"byteLength":451,"mode":"ATTRIBUTES","byteStride":4,"count":124}}}],"samplers":[{"magFilter":9729,"minFilter":9987,"wrapS":10497,"wrapT":10497}],"textures":[{"sampler":0,"extensions":{"EXT_texture_webp":{"source":0}}}],"images":[{"name":"Grass","mimeType":"image/webp","uri":"../../textures/9f5918d154b9f1cd.webp"}],"buffers":[{"uri":"Grass_Wispy_Tall@lod.bin","byteLength":1924},{"byteLength":3420,"extensions":{"EXT_meshopt_compression":{"fallback":true}}}],"materials":[{"name":"Grass","doubleSided":true,"pbrMetallicRoughness":{"metallicFactor":0,"baseColorTexture":{"index":0}}}],"meshes":[{"name":"Plane.017","primitives":[{"attributes":{"COLOR_0":1,"POSITION":2,"NORMAL":3,"TEXCOORD_0":4},"mode":4,"material":0,"indices":0}]}],"nodes":[{"name":"Grass_Wispy_Tall","translation":[0.05977153290873405,0.8042371468723545,-0.02173265814781189],"scale":[0.8315133852779141,0.8315133852779141,0.8315133852779141],"mesh":0},{"name":"pack_root","children":[0]}],"scenes":[{"name":"Scene","nodes":[1]}],"scene":0,"extensionsUsed":["EXT_meshopt_compression","EXT_texture_webp","KHR_mesh_quantization"],"extensionsRequired":["EXT_meshopt_compression","EXT_texture_webp","KHR_mesh_quantization"]}