{"asset":{"generator":"glTF-Transform v4.5.1","version":"2.0"},"accessors":[{"type":"SCALAR","componentType":5123,"count":1482,"normalized":false,"byteOffset":0,"bufferView":0},{"type":"VEC4","componentType":5121,"count":559,"normalized":true,"byteOffset":0,"bufferView":1},{"type":"VEC3","componentType":5122,"count":559,"max":[32767,26563,29979],"min":[-32767,-26563,-29979],"normalized":true,"byteOffset":0,"bufferView":2},{"type":"VEC3","componentType":5122,"count":559,"normalized":true,"byteOffset":0,"bufferView":3},{"type":"VEC2","componentType":5123,"count":559,"normalized":true,"byteOffset":0,"bufferView":4}],"bufferViews":[{"buffer":1,"byteOffset":0,"byteLength":2964,"target":34963,"extensions":{"EXT_meshopt_compression":{"buffer":0,"byteOffset":0,"byteLength":529,"mode":"TRIANGLES","byteStride":2,"count":1482}}},{"buffer":1,"byteOffset":2964,"byteLength":2236,"target":34962,"byteStride":4,"extensions":{"EXT_meshopt_compression":{"buffer":0,"byteOffset":532,"byteLength":1533,"mode":"ATTRIBUTES","byteStride":4,"count":559}}},{"buffer":1,"byteOffset":5200,"byteLength":4472,"target":34962,"byteStride":8,"extensions":{"EXT_meshopt_compression":{"buffer":0,"byteOffset":2068,"byteLength":3151,"mode":"ATTRIBUTES","byteStride":8,"count":559}}},{"buffer":1,"byteOffset":9672,"byteLength":4472,"target":34962,"byteStride":8,"extensions":{"EXT_meshopt_compression":{"buffer":0,"byteOffset":5220,"byteLength":1718,"mode":"ATTRIBUTES","byteStride":8,"count":559}}},{"buffer":1,"byteOffset":14144,"byteLength":2236,"target":34962,"byteStride":4,"extensions":{"EXT_meshopt_compression":{"buffer":0,"byteOffset":6940,"byteLength":1806,"mode":"ATTRIBUTES","byteStride":4,"count":559}}}],"samplers":[{"magFilter":9729,"minFilter":9987,"wrapS":10497,"wrapT":10497}],"textures":[{"sampler":0,"extensions":{"EXT_texture_webp":{"source":0}}}],"images":[{"name":"Grass","mimeType":"image/webp","uri":"../../textures/9f5918d154b9f1cd.webp"}],"buffers":[{"uri":"Grass_Wispy_Short.bin","byteLength":8748},{"byteLength":16380,"extensions":{"EXT_meshopt_compression":{"fallback":true}}}],"materials":[{"name":"Grass","doubleSided":true,"pbrMetallicRoughness":{"metallicFactor":0,"baseColorTexture":{"index":0}}}],"meshes":[{"name":"Plane.033","primitives":[{"attributes":{"COLOR_0":1,"POSITION":2,"NORMAL":3,"TEXCOORD_0":4},"mode":4,"material":0,"indices":0}]}],"nodes":[{"name":"Grass_Wispy_Short","translation":[-0.06695055961608887,0.45017335563898087,0.022061169147491455],"scale":[0.66109299659729,0.66109299659729,0.66109299659729],"mesh":0},{"name":"pack_root","children":[0]}],"scenes":[{"name":"Scene","nodes":[1]}],"scene":0,"extensionsUsed":["EXT_meshopt_compression","EXT_texture_webp","KHR_mesh_quantization"],"extensionsRequired":["EXT_meshopt_compression","EXT_texture_webp","KHR_mesh_quantization"]}