{"asset":{"generator":"glTF-Transform v4.5.1","version":"2.0"},"accessors":[{"type":"SCALAR","componentType":5123,"count":465,"normalized":false,"byteOffset":0,"bufferView":0},{"type":"VEC4","componentType":5121,"count":153,"normalized":true,"byteOffset":0,"bufferView":1},{"type":"VEC3","componentType":5122,"count":153,"max":[15689,32767,18110],"min":[-15689,-32767,-18110],"normalized":true,"byteOffset":0,"bufferView":2},{"type":"VEC3","componentType":5122,"count":153,"normalized":true,"byteOffset":0,"bufferView":3},{"type":"VEC2","componentType":5123,"count":153,"normalized":true,"byteOffset":0,"bufferView":4}],"bufferViews":[{"buffer":1,"byteOffset":0,"byteLength":930,"target":34963,"extensions":{"EXT_meshopt_compression":{"buffer":0,"byteOffset":0,"byteLength":172,"mode":"TRIANGLES","byteStride":2,"count":465}}},{"buffer":1,"byteOffset":932,"byteLength":612,"target":34962,"byteStride":4,"extensions":{"EXT_meshopt_compression":{"buffer":0,"byteOffset":172,"byteLength":417,"mode":"ATTRIBUTES","byteStride":4,"count":153}}},{"buffer":1,"byteOffset":1544,"byteLength":1224,"target":34962,"byteStride":8,"extensions":{"EXT_meshopt_compression":{"buffer":0,"byteOffset":592,"byteLength":930,"mode":"ATTRIBUTES","byteStride":8,"count":153}}},{"buffer":1,"byteOffset":2768,"byteLength":1224,"target":34962,"byteStride":8,"extensions":{"EXT_meshopt_compression":{"buffer":0,"byteOffset":1524,"byteLength":198,"mode":"ATTRIBUTES","byteStride":8,"count":153}}},{"buffer":1,"byteOffset":3992,"byteLength":612,"target":34962,"byteStride":4,"extensions":{"EXT_meshopt_compression":{"buffer":0,"byteOffset":1724,"byteLength":546,"mode":"ATTRIBUTES","byteStride":4,"count":153}}}],"samplers":[{"magFilter":9729,"minFilter":9987,"wrapS":10497,"wrapT":10497}],"textures":[{"sampler":0,"extensions":{"EXT_texture_webp":{"source":0}}}],"images":[{"name":"Grass","mimeType":"image/webp","uri":"../../textures/9f5918d154b9f1cd.webp"}],"buffers":[{"uri":"Grass_Common_Short.bin","byteLength":2272},{"byteLength":4604,"extensions":{"EXT_meshopt_compression":{"fallback":true}}}],"materials":[{"name":"Grass","doubleSided":true,"pbrMetallicRoughness":{"metallicFactor":0,"baseColorTexture":{"index":0}}}],"meshes":[{"name":"Plane.014","primitives":[{"attributes":{"COLOR_0":1,"POSITION":2,"NORMAL":3,"TEXCOORD_0":4},"mode":4,"material":0,"indices":0}]}],"nodes":[{"name":"Grass_Common_Short","translation":[-0.0362071692943573,0.6446665050461888,-0.11074553430080414],"scale":[0.6670517204329371,0.6670517204329371,0.6670517204329371],"mesh":0},{"name":"pack_root","children":[0]}],"scenes":[{"name":"Scene","nodes":[1]}],"scene":0,"extensionsUsed":["EXT_meshopt_compression","EXT_texture_webp","KHR_mesh_quantization"],"extensionsRequired":["EXT_meshopt_compression","EXT_texture_webp","KHR_mesh_quantization"]}