{"asset":{"generator":"glTF-Transform v4.5.1","version":"2.0"},"accessors":[{"type":"SCALAR","componentType":5123,"count":189,"normalized":false,"byteOffset":0,"bufferView":0},{"type":"VEC4","componentType":5121,"count":127,"normalized":true,"byteOffset":0,"bufferView":1},{"type":"VEC3","componentType":5122,"count":127,"max":[32767,28895,30851],"min":[-32767,-28895,-30851],"normalized":true,"byteOffset":0,"bufferView":2},{"type":"VEC3","componentType":5122,"count":127,"normalized":true,"byteOffset":0,"bufferView":3},{"type":"VEC2","componentType":5123,"count":127,"normalized":true,"byteOffset":0,"bufferView":4}],"bufferViews":[{"buffer":1,"byteOffset":0,"byteLength":378,"target":34963,"extensions":{"EXT_meshopt_compression":{"buffer":0,"byteOffset":0,"byteLength":81,"mode":"TRIANGLES","byteStride":2,"count":189}}},{"buffer":1,"byteOffset":380,"byteLength":508,"target":34962,"byteStride":4,"extensions":{"EXT_meshopt_compression":{"buffer":0,"byteOffset":84,"byteLength":425,"mode":"ATTRIBUTES","byteStride":4,"count":127}}},{"buffer":1,"byteOffset":888,"byteLength":1016,"target":34962,"byteStride":8,"extensions":{"EXT_meshopt_compression":{"buffer":0,"byteOffset":512,"byteLength":816,"mode":"ATTRIBUTES","byteStride":8,"count":127}}},{"buffer":1,"byteOffset":1904,"byteLength":1016,"target":34962,"byteStride":8,"extensions":{"EXT_meshopt_compression":{"buffer":0,"byteOffset":1328,"byteLength":599,"mode":"ATTRIBUTES","byteStride":8,"count":127}}},{"buffer":1,"byteOffset":2920,"byteLength":508,"target":34962,"byteStride":4,"extensions":{"EXT_meshopt_compression":{"buffer":0,"byteOffset":1928,"byteLength":463,"mode":"ATTRIBUTES","byteStride":4,"count":127}}}],"samplers":[{"magFilter":9729,"minFilter":9987,"wrapS":10497,"wrapT":10497}],"textures":[{"sampler":0,"extensions":{"EXT_texture_webp":{"source":0}}}],"images":[{"name":"Grass","mimeType":"image/webp","uri":"../../textures/9f5918d154b9f1cd.webp"}],"buffers":[{"uri":"Grass_Wispy_Short@lod.bin","byteLength":2392},{"byteLength":3428,"extensions":{"EXT_meshopt_compression":{"fallback":true}}}],"materials":[{"name":"Grass","doubleSided":true,"pbrMetallicRoughness":{"metallicFactor":0,"baseColorTexture":{"index":0}}}],"meshes":[{"name":"Plane.033","primitives":[{"attributes":{"COLOR_0":1,"POSITION":2,"NORMAL":3,"TEXCOORD_0":4},"mode":4,"material":0,"indices":0}]}],"nodes":[{"name":"Grass_Wispy_Short","translation":[-0.0650540545356435,0.45255407939365,0.02496644178862084],"scale":[0.6050452514914539,0.6050452514914539,0.6050452514914539],"mesh":0},{"name":"pack_root","children":[0]}],"scenes":[{"name":"Scene","nodes":[1]}],"scene":0,"extensionsUsed":["EXT_meshopt_compression","EXT_texture_webp","KHR_mesh_quantization"],"extensionsRequired":["EXT_meshopt_compression","EXT_texture_webp","KHR_mesh_quantization"]}