{"asset":{"generator":"glTF-Transform v4.5.1","version":"2.0"},"accessors":[{"type":"SCALAR","componentType":5123,"count":366,"normalized":false,"byteOffset":0,"bufferView":0},{"type":"VEC3","componentType":5122,"count":138,"max":[23298,20574,32767],"min":[-23298,-20574,-32767],"normalized":true,"byteOffset":0,"bufferView":1},{"type":"VEC3","componentType":5122,"count":138,"normalized":true,"byteOffset":0,"bufferView":2},{"type":"VEC2","componentType":5123,"count":138,"normalized":true,"byteOffset":0,"bufferView":3}],"bufferViews":[{"buffer":1,"byteOffset":0,"byteLength":732,"target":34963,"extensions":{"EXT_meshopt_compression":{"buffer":0,"byteOffset":0,"byteLength":141,"mode":"TRIANGLES","byteStride":2,"count":366}}},{"buffer":1,"byteOffset":732,"byteLength":1104,"target":34962,"byteStride":8,"extensions":{"EXT_meshopt_compression":{"buffer":0,"byteOffset":144,"byteLength":887,"mode":"ATTRIBUTES","byteStride":8,"count":138}}},{"buffer":1,"byteOffset":1836,"byteLength":1104,"target":34962,"byteStride":8,"extensions":{"EXT_meshopt_compression":{"buffer":0,"byteOffset":1032,"byteLength":886,"mode":"ATTRIBUTES","byteStride":8,"count":138}}},{"buffer":1,"byteOffset":2940,"byteLength":552,"target":34962,"byteStride":4,"extensions":{"EXT_meshopt_compression":{"buffer":0,"byteOffset":1920,"byteLength":597,"mode":"ATTRIBUTES","byteStride":4,"count":138}}}],"samplers":[{"magFilter":9729,"minFilter":9987,"wrapS":10497,"wrapT":10497}],"textures":[{"sampler":0,"extensions":{"EXT_texture_webp":{"source":0}}}],"images":[{"name":"Mushrooms","mimeType":"image/webp","uri":"../../textures/9b58c1d4dd5bba46.webp"}],"buffers":[{"uri":"Mushroom_Common@lod.bin","byteLength":2520},{"byteLength":3492,"extensions":{"EXT_meshopt_compression":{"fallback":true}}}],"materials":[{"name":"Mushrooms","doubleSided":true,"pbrMetallicRoughness":{"metallicFactor":0,"baseColorTexture":{"index":0}}}],"meshes":[{"name":"Cube.032","primitives":[{"attributes":{"POSITION":1,"NORMAL":2,"TEXCOORD_0":3},"mode":4,"material":0,"indices":0}]}],"nodes":[{"name":"Mushroom_Common","translation":[-0.05057434036828923,0.2142693931236863,-0.05803207985981729],"scale":[0.3691078173751059,0.3691078173751059,0.3691078173751059],"mesh":0},{"name":"pack_root","children":[0]}],"scenes":[{"name":"Scene","nodes":[1]}],"scene":0,"extensionsUsed":["EXT_meshopt_compression","EXT_texture_webp","KHR_mesh_quantization"],"extensionsRequired":["EXT_meshopt_compression","EXT_texture_webp","KHR_mesh_quantization"]}