{"asset":{"generator":"glTF-Transform v4.5.1","version":"2.0"},"accessors":[{"type":"SCALAR","componentType":5123,"count":2640,"normalized":false,"byteOffset":0,"bufferView":0},{"type":"VEC3","componentType":5122,"count":555,"max":[23706,19494,32767],"min":[-23706,-19494,-32767],"normalized":true,"byteOffset":0,"bufferView":1},{"type":"VEC3","componentType":5122,"count":555,"normalized":true,"byteOffset":0,"bufferView":2},{"type":"VEC2","componentType":5123,"count":555,"normalized":true,"byteOffset":0,"bufferView":3}],"bufferViews":[{"buffer":1,"byteOffset":0,"byteLength":5280,"target":34963,"extensions":{"EXT_meshopt_compression":{"buffer":0,"byteOffset":0,"byteLength":992,"mode":"TRIANGLES","byteStride":2,"count":2640}}},{"buffer":1,"byteOffset":5280,"byteLength":4440,"target":34962,"byteStride":8,"extensions":{"EXT_meshopt_compression":{"buffer":0,"byteOffset":992,"byteLength":3199,"mode":"ATTRIBUTES","byteStride":8,"count":555}}},{"buffer":1,"byteOffset":9720,"byteLength":4440,"target":34962,"byteStride":8,"extensions":{"EXT_meshopt_compression":{"buffer":0,"byteOffset":4192,"byteLength":3450,"mode":"ATTRIBUTES","byteStride":8,"count":555}}},{"buffer":1,"byteOffset":14160,"byteLength":2220,"target":34962,"byteStride":4,"extensions":{"EXT_meshopt_compression":{"buffer":0,"byteOffset":7644,"byteLength":2095,"mode":"ATTRIBUTES","byteStride":4,"count":555}}}],"samplers":[{"magFilter":9729,"minFilter":9987,"wrapS":10497,"wrapT":10497}],"textures":[{"sampler":0,"extensions":{"EXT_texture_webp":{"source":0}}}],"images":[{"name":"Mushrooms","mimeType":"image/webp","uri":"../../textures/9b58c1d4dd5bba46.webp"}],"buffers":[{"uri":"Mushroom_Common.bin","byteLength":9740},{"byteLength":16380,"extensions":{"EXT_meshopt_compression":{"fallback":true}}}],"materials":[{"name":"Mushrooms","doubleSided":true,"pbrMetallicRoughness":{"metallicFactor":0,"baseColorTexture":{"index":0}}}],"meshes":[{"name":"Cube.032","primitives":[{"attributes":{"POSITION":1,"NORMAL":2,"TEXCOORD_0":3},"mode":4,"material":0,"indices":0}]}],"nodes":[{"name":"Mushroom_Common","translation":[-0.051525428891181946,0.2142693931236863,-0.05565434694290161],"scale":[0.389556348323822,0.389556348323822,0.389556348323822],"mesh":0},{"name":"pack_root","children":[0]}],"scenes":[{"name":"Scene","nodes":[1]}],"scene":0,"extensionsUsed":["EXT_meshopt_compression","EXT_texture_webp","KHR_mesh_quantization"],"extensionsRequired":["EXT_meshopt_compression","EXT_texture_webp","KHR_mesh_quantization"]}