{"asset":{"generator":"glTF-Transform v4.5.1","version":"2.0"},"accessors":[{"type":"SCALAR","componentType":5123,"count":384,"normalized":false,"byteOffset":0,"bufferView":0},{"type":"VEC3","componentType":5122,"count":244,"max":[30395,6664,32767],"min":[-30395,-6664,-32767],"normalized":true,"byteOffset":0,"bufferView":1},{"type":"VEC3","componentType":5122,"count":244,"normalized":true,"byteOffset":0,"bufferView":2},{"type":"VEC2","componentType":5123,"count":244,"normalized":true,"byteOffset":0,"bufferView":3}],"bufferViews":[{"buffer":1,"byteOffset":0,"byteLength":768,"target":34963,"extensions":{"EXT_meshopt_compression":{"buffer":0,"byteOffset":0,"byteLength":146,"mode":"TRIANGLES","byteStride":2,"count":384}}},{"buffer":1,"byteOffset":768,"byteLength":1952,"target":34962,"byteStride":8,"extensions":{"EXT_meshopt_compression":{"buffer":0,"byteOffset":148,"byteLength":1461,"mode":"ATTRIBUTES","byteStride":8,"count":244}}},{"buffer":1,"byteOffset":2720,"byteLength":1952,"target":34962,"byteStride":8,"extensions":{"EXT_meshopt_compression":{"buffer":0,"byteOffset":1612,"byteLength":755,"mode":"ATTRIBUTES","byteStride":8,"count":244}}},{"buffer":1,"byteOffset":4672,"byteLength":976,"target":34962,"byteStride":4,"extensions":{"EXT_meshopt_compression":{"buffer":0,"byteOffset":2368,"byteLength":920,"mode":"ATTRIBUTES","byteStride":4,"count":244}}}],"samplers":[{"magFilter":9729,"minFilter":9987,"wrapS":10497,"wrapT":10497}],"textures":[{"sampler":0,"extensions":{"EXT_texture_webp":{"source":0}}}],"images":[{"name":"PathRocks_Diffuse","mimeType":"image/webp","uri":"../../textures/29f8352aaacafd52.webp"}],"buffers":[{"uri":"Pebble_Round_3.bin","byteLength":3288},{"byteLength":5648,"extensions":{"EXT_meshopt_compression":{"fallback":true}}}],"materials":[{"name":"PathRocks","doubleSided":true,"pbrMetallicRoughness":{"metallicFactor":0,"baseColorTexture":{"index":0}}}],"meshes":[{"name":"Cube.017_Retopology.009","primitives":[{"attributes":{"POSITION":1,"NORMAL":2,"TEXCOORD_0":3},"mode":4,"material":0,"indices":0}]}],"nodes":[{"name":"Pebble_Round_3","translation":[-0.0022526532411575317,0.04755817400291562,0.020919114351272583],"scale":[0.24240514636039734,0.24240514636039734,0.24240514636039734],"mesh":0},{"name":"pack_root","children":[0]}],"scenes":[{"name":"Scene","nodes":[1]}],"scene":0,"extensionsUsed":["EXT_meshopt_compression","EXT_texture_webp","KHR_mesh_quantization"],"extensionsRequired":["EXT_meshopt_compression","EXT_texture_webp","KHR_mesh_quantization"]}