{"asset":{"generator":"glTF-Transform v4.5.1","version":"2.0"},"accessors":[{"type":"SCALAR","componentType":5123,"count":342,"normalized":false,"byteOffset":0,"bufferView":0},{"type":"VEC3","componentType":5122,"count":212,"max":[32767,6868,29967],"min":[-32767,-6868,-29967],"normalized":true,"byteOffset":0,"bufferView":1},{"type":"VEC3","componentType":5122,"count":212,"normalized":true,"byteOffset":0,"bufferView":2},{"type":"VEC2","componentType":5123,"count":212,"normalized":true,"byteOffset":0,"bufferView":3}],"bufferViews":[{"buffer":1,"byteOffset":0,"byteLength":684,"target":34963,"extensions":{"EXT_meshopt_compression":{"buffer":0,"byteOffset":0,"byteLength":131,"mode":"TRIANGLES","byteStride":2,"count":342}}},{"buffer":1,"byteOffset":684,"byteLength":1696,"target":34962,"byteStride":8,"extensions":{"EXT_meshopt_compression":{"buffer":0,"byteOffset":132,"byteLength":1319,"mode":"ATTRIBUTES","byteStride":8,"count":212}}},{"buffer":1,"byteOffset":2380,"byteLength":1696,"target":34962,"byteStride":8,"extensions":{"EXT_meshopt_compression":{"buffer":0,"byteOffset":1452,"byteLength":644,"mode":"ATTRIBUTES","byteStride":8,"count":212}}},{"buffer":1,"byteOffset":4076,"byteLength":848,"target":34962,"byteStride":4,"extensions":{"EXT_meshopt_compression":{"buffer":0,"byteOffset":2096,"byteLength":804,"mode":"ATTRIBUTES","byteStride":4,"count":212}}}],"samplers":[{"magFilter":9729,"minFilter":9987,"wrapS":10497,"wrapT":10497}],"textures":[{"sampler":0,"extensions":{"EXT_texture_webp":{"source":0}}}],"images":[{"name":"PathRocks_Diffuse","mimeType":"image/webp","uri":"../../textures/29f8352aaacafd52.webp"}],"buffers":[{"uri":"Pebble_Round_2.bin","byteLength":2900},{"byteLength":4924,"extensions":{"EXT_meshopt_compression":{"fallback":true}}}],"materials":[{"name":"PathRocks","doubleSided":true,"pbrMetallicRoughness":{"metallicFactor":0,"baseColorTexture":{"index":0}}}],"meshes":[{"name":"Cube.017_Retopology.010","primitives":[{"attributes":{"POSITION":1,"NORMAL":2,"TEXCOORD_0":3},"mode":4,"material":0,"indices":0}]}],"nodes":[{"name":"Pebble_Round_2","translation":[0.009534969925880432,0.04413466656114906,-0.01674375683069229],"scale":[0.2247384488582611,0.2247384488582611,0.2247384488582611],"mesh":0},{"name":"pack_root","children":[0]}],"scenes":[{"name":"Scene","nodes":[1]}],"scene":0,"extensionsUsed":["EXT_meshopt_compression","EXT_texture_webp","KHR_mesh_quantization"],"extensionsRequired":["EXT_meshopt_compression","EXT_texture_webp","KHR_mesh_quantization"]}