{"asset":{"generator":"glTF-Transform v4.5.1","version":"2.0"},"accessors":[{"type":"SCALAR","componentType":5123,"count":216,"normalized":false,"byteOffset":0,"bufferView":0},{"type":"VEC3","componentType":5122,"count":156,"max":[25611,11069,32767],"min":[-25611,-11069,-32767],"normalized":true,"byteOffset":0,"bufferView":1},{"type":"VEC3","componentType":5122,"count":156,"normalized":true,"byteOffset":0,"bufferView":2},{"type":"VEC2","componentType":5123,"count":156,"normalized":true,"byteOffset":0,"bufferView":3}],"bufferViews":[{"buffer":1,"byteOffset":0,"byteLength":432,"target":34963,"extensions":{"EXT_meshopt_compression":{"buffer":0,"byteOffset":0,"byteLength":89,"mode":"TRIANGLES","byteStride":2,"count":216}}},{"buffer":1,"byteOffset":432,"byteLength":1248,"target":34962,"byteStride":8,"extensions":{"EXT_meshopt_compression":{"buffer":0,"byteOffset":92,"byteLength":972,"mode":"ATTRIBUTES","byteStride":8,"count":156}}},{"buffer":1,"byteOffset":1680,"byteLength":1248,"target":34962,"byteStride":8,"extensions":{"EXT_meshopt_compression":{"buffer":0,"byteOffset":1064,"byteLength":497,"mode":"ATTRIBUTES","byteStride":8,"count":156}}},{"buffer":1,"byteOffset":2928,"byteLength":624,"target":34962,"byteStride":4,"extensions":{"EXT_meshopt_compression":{"buffer":0,"byteOffset":1564,"byteLength":650,"mode":"ATTRIBUTES","byteStride":4,"count":156}}}],"samplers":[{"magFilter":9729,"minFilter":9987,"wrapS":10497,"wrapT":10497}],"textures":[{"sampler":0,"extensions":{"EXT_texture_webp":{"source":0}}}],"images":[{"name":"PathRocks_Diffuse","mimeType":"image/webp","uri":"../../textures/29f8352aaacafd52.webp"}],"buffers":[{"uri":"Pebble_Square_5.bin","byteLength":2216},{"byteLength":3552,"extensions":{"EXT_meshopt_compression":{"fallback":true}}}],"materials":[{"name":"PathRocks","doubleSided":true,"pbrMetallicRoughness":{"metallicFactor":0,"baseColorTexture":{"index":0}}}],"meshes":[{"name":"Cube.017_Retopology.002","primitives":[{"attributes":{"POSITION":1,"NORMAL":2,"TEXCOORD_0":3},"mode":4,"material":0,"indices":0}]}],"nodes":[{"name":"Pebble_Square_5","translation":[0.007452547550201416,0.06812281161546707,-0.002312667667865753],"scale":[0.22521977871656418,0.22521977871656418,0.22521977871656418],"mesh":0},{"name":"pack_root","children":[0]}],"scenes":[{"name":"Scene","nodes":[1]}],"scene":0,"extensionsUsed":["EXT_meshopt_compression","EXT_texture_webp","KHR_mesh_quantization"],"extensionsRequired":["EXT_meshopt_compression","EXT_texture_webp","KHR_mesh_quantization"]}