{"asset":{"generator":"glTF-Transform v4.5.1","version":"2.0"},"accessors":[{"type":"SCALAR","componentType":5123,"count":156,"normalized":false,"byteOffset":0,"bufferView":0},{"type":"VEC3","componentType":5122,"count":108,"max":[32767,13949,27975],"min":[-32767,-13949,-27975],"normalized":true,"byteOffset":0,"bufferView":1},{"type":"VEC3","componentType":5122,"count":108,"normalized":true,"byteOffset":0,"bufferView":2},{"type":"VEC2","componentType":5123,"count":108,"normalized":true,"byteOffset":0,"bufferView":3}],"bufferViews":[{"buffer":1,"byteOffset":0,"byteLength":312,"target":34963,"extensions":{"EXT_meshopt_compression":{"buffer":0,"byteOffset":0,"byteLength":69,"mode":"TRIANGLES","byteStride":2,"count":156}}},{"buffer":1,"byteOffset":312,"byteLength":864,"target":34962,"byteStride":8,"extensions":{"EXT_meshopt_compression":{"buffer":0,"byteOffset":72,"byteLength":688,"mode":"ATTRIBUTES","byteStride":8,"count":108}}},{"buffer":1,"byteOffset":1176,"byteLength":864,"target":34962,"byteStride":8,"extensions":{"EXT_meshopt_compression":{"buffer":0,"byteOffset":760,"byteLength":348,"mode":"ATTRIBUTES","byteStride":8,"count":108}}},{"buffer":1,"byteOffset":2040,"byteLength":432,"target":34962,"byteStride":4,"extensions":{"EXT_meshopt_compression":{"buffer":0,"byteOffset":1108,"byteLength":473,"mode":"ATTRIBUTES","byteStride":4,"count":108}}}],"samplers":[{"magFilter":9729,"minFilter":9987,"wrapS":10497,"wrapT":10497}],"textures":[{"sampler":0,"extensions":{"EXT_texture_webp":{"source":0}}}],"images":[{"name":"PathRocks_Diffuse","mimeType":"image/webp","uri":"../../textures/29f8352aaacafd52.webp"}],"buffers":[{"uri":"Pebble_Square_3.bin","byteLength":1584},{"byteLength":2472,"extensions":{"EXT_meshopt_compression":{"fallback":true}}}],"materials":[{"name":"PathRocks","doubleSided":true,"pbrMetallicRoughness":{"metallicFactor":0,"baseColorTexture":{"index":0}}}],"meshes":[{"name":"Cube.017_Retopology.003","primitives":[{"attributes":{"POSITION":1,"NORMAL":2,"TEXCOORD_0":3},"mode":4,"material":0,"indices":0}]}],"nodes":[{"name":"Pebble_Square_3","translation":[0.000016450881958007812,0.0713485018350184,-0.007117018103599548],"scale":[0.18666809797286987,0.18666809797286987,0.18666809797286987],"mesh":0},{"name":"pack_root","children":[0]}],"scenes":[{"name":"Scene","nodes":[1]}],"scene":0,"extensionsUsed":["EXT_meshopt_compression","EXT_texture_webp","KHR_mesh_quantization"],"extensionsRequired":["EXT_meshopt_compression","EXT_texture_webp","KHR_mesh_quantization"]}