{"asset":{"generator":"glTF-Transform v4.5.1","version":"2.0"},"accessors":[{"type":"SCALAR","componentType":5123,"count":144,"normalized":false,"byteOffset":0,"bufferView":0},{"type":"VEC3","componentType":5122,"count":96,"max":[32767,16221,28031],"min":[-32767,-16221,-28031],"normalized":true,"byteOffset":0,"bufferView":1},{"type":"VEC3","componentType":5122,"count":96,"normalized":true,"byteOffset":0,"bufferView":2},{"type":"VEC2","componentType":5123,"count":96,"normalized":true,"byteOffset":0,"bufferView":3}],"bufferViews":[{"buffer":1,"byteOffset":0,"byteLength":288,"target":34963,"extensions":{"EXT_meshopt_compression":{"buffer":0,"byteOffset":0,"byteLength":65,"mode":"TRIANGLES","byteStride":2,"count":144}}},{"buffer":1,"byteOffset":288,"byteLength":768,"target":34962,"byteStride":8,"extensions":{"EXT_meshopt_compression":{"buffer":0,"byteOffset":68,"byteLength":599,"mode":"ATTRIBUTES","byteStride":8,"count":96}}},{"buffer":1,"byteOffset":1056,"byteLength":768,"target":34962,"byteStride":8,"extensions":{"EXT_meshopt_compression":{"buffer":0,"byteOffset":668,"byteLength":308,"mode":"ATTRIBUTES","byteStride":8,"count":96}}},{"buffer":1,"byteOffset":1824,"byteLength":384,"target":34962,"byteStride":4,"extensions":{"EXT_meshopt_compression":{"buffer":0,"byteOffset":976,"byteLength":403,"mode":"ATTRIBUTES","byteStride":4,"count":96}}}],"samplers":[{"magFilter":9729,"minFilter":9987,"wrapS":10497,"wrapT":10497}],"textures":[{"sampler":0,"extensions":{"EXT_texture_webp":{"source":0}}}],"images":[{"name":"PathRocks_Diffuse","mimeType":"image/webp","uri":"../../textures/29f8352aaacafd52.webp"}],"buffers":[{"uri":"Pebble_Square_4.bin","byteLength":1380},{"byteLength":2208,"extensions":{"EXT_meshopt_compression":{"fallback":true}}}],"materials":[{"name":"PathRocks","doubleSided":true,"pbrMetallicRoughness":{"metallicFactor":0,"baseColorTexture":{"index":0}}}],"meshes":[{"name":"Cube.017_Retopology.001","primitives":[{"attributes":{"POSITION":1,"NORMAL":2,"TEXCOORD_0":3},"mode":4,"material":0,"indices":0}]}],"nodes":[{"name":"Pebble_Square_4","translation":[-0.001248285174369812,0.08136929129250348,-0.012258291244506836],"scale":[0.16997170448303223,0.16997170448303223,0.16997170448303223],"mesh":0},{"name":"pack_root","children":[0]}],"scenes":[{"name":"Scene","nodes":[1]}],"scene":0,"extensionsUsed":["EXT_meshopt_compression","EXT_texture_webp","KHR_mesh_quantization"],"extensionsRequired":["EXT_meshopt_compression","EXT_texture_webp","KHR_mesh_quantization"]}