{"asset":{"generator":"glTF-Transform v4.5.1","version":"2.0"},"accessors":[{"type":"SCALAR","componentType":5123,"count":960,"normalized":false,"byteOffset":0,"bufferView":0},{"type":"VEC2","componentType":5126,"count":392,"normalized":false,"byteOffset":0,"bufferView":1},{"type":"SCALAR","componentType":5123,"count":1812,"normalized":false,"byteOffset":1920,"bufferView":0},{"type":"VEC4","componentType":5121,"count":392,"normalized":true,"byteOffset":0,"bufferView":2},{"type":"VEC3","componentType":5122,"count":392,"max":[12145,30839,7024],"min":[-12813,-32767,-11105],"normalized":true,"byteOffset":0,"bufferView":3},{"type":"VEC3","componentType":5122,"count":392,"normalized":true,"byteOffset":0,"bufferView":4},{"type":"VEC4","componentType":5121,"count":1043,"normalized":true,"byteOffset":0,"bufferView":5},{"type":"VEC3","componentType":5122,"count":1043,"max":[18574,32767,17194],"min":[-18574,-15645,-17194],"normalized":true,"byteOffset":0,"bufferView":6},{"type":"VEC3","componentType":5122,"count":1043,"normalized":true,"byteOffset":0,"bufferView":7},{"type":"VEC2","componentType":5123,"count":1043,"normalized":true,"byteOffset":0,"bufferView":8}],"bufferViews":[{"buffer":1,"byteOffset":0,"byteLength":5544,"target":34963,"extensions":{"EXT_meshopt_compression":{"buffer":0,"byteOffset":0,"byteLength":1042,"mode":"TRIANGLES","byteStride":2,"count":2772}}},{"buffer":1,"byteOffset":5544,"byteLength":3136,"target":34962,"byteStride":8,"extensions":{"EXT_meshopt_compression":{"buffer":0,"byteOffset":1044,"byteLength":2638,"mode":"ATTRIBUTES","byteStride":8,"count":392}}},{"buffer":1,"byteOffset":8680,"byteLength":1568,"target":34962,"byteStride":4,"extensions":{"EXT_meshopt_compression":{"buffer":0,"byteOffset":3684,"byteLength":136,"mode":"ATTRIBUTES","byteStride":4,"count":392}}},{"buffer":1,"byteOffset":10248,"byteLength":3136,"target":34962,"byteStride":8,"extensions":{"EXT_meshopt_compression":{"buffer":0,"byteOffset":3820,"byteLength":2023,"mode":"ATTRIBUTES","byteStride":8,"count":392}}},{"buffer":1,"byteOffset":13384,"byteLength":3136,"target":34962,"byteStride":8,"extensions":{"EXT_meshopt_compression":{"buffer":0,"byteOffset":5844,"byteLength":2462,"mode":"ATTRIBUTES","byteStride":8,"count":392}}},{"buffer":1,"byteOffset":16520,"byteLength":4172,"target":34962,"byteStride":4,"extensions":{"EXT_meshopt_compression":{"buffer":0,"byteOffset":8308,"byteLength":101,"mode":"ATTRIBUTES","byteStride":4,"count":1043}}},{"buffer":1,"byteOffset":20692,"byteLength":8344,"target":34962,"byteStride":8,"extensions":{"EXT_meshopt_compression":{"buffer":0,"byteOffset":8412,"byteLength":6301,"mode":"ATTRIBUTES","byteStride":8,"count":1043}}},{"buffer":1,"byteOffset":29036,"byteLength":8344,"target":34962,"byteStride":8,"extensions":{"EXT_meshopt_compression":{"buffer":0,"byteOffset":14716,"byteLength":6451,"mode":"ATTRIBUTES","byteStride":8,"count":1043}}},{"buffer":1,"byteOffset":37380,"byteLength":4172,"target":34962,"byteStride":4,"extensions":{"EXT_meshopt_compression":{"buffer":0,"byteOffset":21168,"byteLength":4096,"mode":"ATTRIBUTES","byteStride":4,"count":1043}}}],"samplers":[{"magFilter":9729,"minFilter":9987,"wrapS":10497,"wrapT":10497}],"textures":[{"sampler":0,"extensions":{"EXT_texture_webp":{"source":1}}},{"sampler":0,"extensions":{"EXT_texture_webp":{"source":0}}},{"sampler":0,"extensions":{"EXT_texture_webp":{"source":2}}}],"images":[{"name":"Bark_NormalTree_Normal","mimeType":"image/webp","uri":"../../textures/c52ead41b179fde6.webp"},{"name":"Bark_NormalTree","mimeType":"image/webp","uri":"../../textures/6a203b313df66fa5.webp"},{"name":"Leaf_Pine_C","mimeType":"image/webp","uri":"../../textures/3a578897f2d8b7cd.webp"}],"buffers":[{"uri":"Pine_4@lod.bin","byteLength":25264},{"byteLength":41552,"extensions":{"EXT_meshopt_compression":{"fallback":true}}}],"materials":[{"name":"Bark_NormalTree","alphaMode":"MASK","alphaCutoff":0.20000000298023224,"doubleSided":true,"pbrMetallicRoughness":{"metallicFactor":0,"baseColorTexture":{"index":0}},"normalTexture":{"index":1}},{"name":"Leaves_Pine","alphaMode":"MASK","alphaCutoff":0.20000000298023224,"doubleSided":true,"pbrMetallicRoughness":{"metallicFactor":0,"baseColorTexture":{"index":2}}}],"meshes":[{"name":"tree.031","primitives":[{"attributes":{"TEXCOORD_0":1,"COLOR_0":3,"POSITION":4,"NORMAL":5},"mode":4,"material":0,"indices":0},{"attributes":{"COLOR_0":6,"POSITION":7,"NORMAL":8,"TEXCOORD_0":9},"mode":4,"material":1,"indices":2}]}],"nodes":[{"name":"Pine_4","translation":[0.0291750431060791,4.883127078413963,-0.26048457622528076],"scale":[5.118215695023537,5.118215695023537,5.118215695023537],"mesh":0},{"name":"pack_root","children":[0]}],"scenes":[{"name":"Scene","nodes":[1]}],"scene":0,"extensionsUsed":["EXT_meshopt_compression","EXT_texture_webp","KHR_mesh_quantization"],"extensionsRequired":["EXT_meshopt_compression","EXT_texture_webp","KHR_mesh_quantization"]}