{"asset":{"generator":"glTF-Transform v4.5.1","version":"2.0"},"accessors":[{"type":"SCALAR","componentType":5123,"count":1782,"normalized":false,"byteOffset":0,"bufferView":0},{"type":"VEC2","componentType":5126,"count":729,"normalized":false,"byteOffset":0,"bufferView":1},{"type":"SCALAR","componentType":5123,"count":1314,"normalized":false,"byteOffset":3564,"bufferView":0},{"type":"VEC4","componentType":5121,"count":729,"normalized":true,"byteOffset":0,"bufferView":2},{"type":"VEC3","componentType":5122,"count":729,"max":[11781,30447,13777],"min":[-10041,-32767,-14957],"normalized":true,"byteOffset":0,"bufferView":3},{"type":"VEC3","componentType":5122,"count":729,"normalized":true,"byteOffset":0,"bufferView":4},{"type":"VEC4","componentType":5121,"count":677,"normalized":true,"byteOffset":0,"bufferView":5},{"type":"VEC3","componentType":5122,"count":677,"max":[22142,32767,20326],"min":[-22142,-11325,-20326],"normalized":true,"byteOffset":0,"bufferView":6},{"type":"VEC3","componentType":5122,"count":677,"normalized":true,"byteOffset":0,"bufferView":7},{"type":"VEC2","componentType":5123,"count":677,"normalized":true,"byteOffset":0,"bufferView":8}],"bufferViews":[{"buffer":1,"byteOffset":0,"byteLength":6192,"target":34963,"extensions":{"EXT_meshopt_compression":{"buffer":0,"byteOffset":0,"byteLength":1200,"mode":"TRIANGLES","byteStride":2,"count":3096}}},{"buffer":1,"byteOffset":6192,"byteLength":5832,"target":34962,"byteStride":8,"extensions":{"EXT_meshopt_compression":{"buffer":0,"byteOffset":1200,"byteLength":4663,"mode":"ATTRIBUTES","byteStride":8,"count":729}}},{"buffer":1,"byteOffset":12024,"byteLength":2916,"target":34962,"byteStride":4,"extensions":{"EXT_meshopt_compression":{"buffer":0,"byteOffset":5864,"byteLength":150,"mode":"ATTRIBUTES","byteStride":4,"count":729}}},{"buffer":1,"byteOffset":14940,"byteLength":5832,"target":34962,"byteStride":8,"extensions":{"EXT_meshopt_compression":{"buffer":0,"byteOffset":6016,"byteLength":3446,"mode":"ATTRIBUTES","byteStride":8,"count":729}}},{"buffer":1,"byteOffset":20772,"byteLength":5832,"target":34962,"byteStride":8,"extensions":{"EXT_meshopt_compression":{"buffer":0,"byteOffset":9464,"byteLength":4232,"mode":"ATTRIBUTES","byteStride":8,"count":729}}},{"buffer":1,"byteOffset":26604,"byteLength":2708,"target":34962,"byteStride":4,"extensions":{"EXT_meshopt_compression":{"buffer":0,"byteOffset":13696,"byteLength":77,"mode":"ATTRIBUTES","byteStride":4,"count":677}}},{"buffer":1,"byteOffset":29312,"byteLength":5416,"target":34962,"byteStride":8,"extensions":{"EXT_meshopt_compression":{"buffer":0,"byteOffset":13776,"byteLength":4110,"mode":"ATTRIBUTES","byteStride":8,"count":677}}},{"buffer":1,"byteOffset":34728,"byteLength":5416,"target":34962,"byteStride":8,"extensions":{"EXT_meshopt_compression":{"buffer":0,"byteOffset":17888,"byteLength":4206,"mode":"ATTRIBUTES","byteStride":8,"count":677}}},{"buffer":1,"byteOffset":40144,"byteLength":2708,"target":34962,"byteStride":4,"extensions":{"EXT_meshopt_compression":{"buffer":0,"byteOffset":22096,"byteLength":2715,"mode":"ATTRIBUTES","byteStride":4,"count":677}}}],"samplers":[{"magFilter":9729,"minFilter":9987,"wrapS":10497,"wrapT":10497}],"textures":[{"sampler":0,"extensions":{"EXT_texture_webp":{"source":1}}},{"sampler":0,"extensions":{"EXT_texture_webp":{"source":0}}},{"sampler":0,"extensions":{"EXT_texture_webp":{"source":2}}}],"images":[{"name":"Bark_NormalTree_Normal","mimeType":"image/webp","uri":"../../textures/c52ead41b179fde6.webp"},{"name":"Bark_NormalTree","mimeType":"image/webp","uri":"../../textures/6a203b313df66fa5.webp"},{"name":"Leaf_Pine_C","mimeType":"image/webp","uri":"../../textures/3a578897f2d8b7cd.webp"}],"buffers":[{"uri":"Pine_1@lod.bin","byteLength":24812},{"byteLength":42852,"extensions":{"EXT_meshopt_compression":{"fallback":true}}}],"materials":[{"name":"Bark_NormalTree","alphaMode":"MASK","alphaCutoff":0.20000000298023224,"doubleSided":true,"pbrMetallicRoughness":{"metallicFactor":0,"baseColorTexture":{"index":0}},"normalTexture":{"index":1}},{"name":"Leaves_Pine","alphaMode":"MASK","alphaCutoff":0.20000000298023224,"doubleSided":true,"pbrMetallicRoughness":{"metallicFactor":0,"baseColorTexture":{"index":2}}}],"meshes":[{"name":"tree.028","primitives":[{"attributes":{"TEXCOORD_0":1,"COLOR_0":3,"POSITION":4,"NORMAL":5},"mode":4,"material":0,"indices":0},{"attributes":{"COLOR_0":6,"POSITION":7,"NORMAL":8,"TEXCOORD_0":9},"mode":4,"material":1,"indices":2}]}],"nodes":[{"name":"Pine_1","translation":[0.023529887199401855,3.423370234668255,-0.20773112773895264],"scale":[3.658458836376667,3.658458836376667,3.658458836376667],"mesh":0},{"name":"pack_root","children":[0]}],"scenes":[{"name":"Scene","nodes":[1]}],"scene":0,"extensionsUsed":["EXT_meshopt_compression","EXT_texture_webp","KHR_mesh_quantization"],"extensionsRequired":["EXT_meshopt_compression","EXT_texture_webp","KHR_mesh_quantization"]}