{"asset":{"generator":"glTF-Transform v4.5.1","version":"2.0"},"accessors":[{"type":"SCALAR","componentType":5123,"count":13506,"normalized":false,"byteOffset":0,"bufferView":0},{"type":"VEC2","componentType":5126,"count":5772,"normalized":false,"byteOffset":0,"bufferView":1},{"type":"SCALAR","componentType":5123,"count":1386,"normalized":false,"byteOffset":27012,"bufferView":0},{"type":"VEC4","componentType":5121,"count":5772,"normalized":true,"byteOffset":0,"bufferView":2},{"type":"VEC3","componentType":5122,"count":5772,"max":[12305,31359,12513],"min":[-5676,-32767,-8401],"normalized":true,"byteOffset":0,"bufferView":3},{"type":"VEC3","componentType":5122,"count":5772,"normalized":true,"byteOffset":0,"bufferView":4},{"type":"VEC4","componentType":5121,"count":801,"normalized":true,"byteOffset":0,"bufferView":5},{"type":"VEC3","componentType":5122,"count":801,"max":[16009,32767,17714],"min":[-16009,-2424,-17714],"normalized":true,"byteOffset":0,"bufferView":6},{"type":"VEC3","componentType":5122,"count":801,"normalized":true,"byteOffset":0,"bufferView":7},{"type":"VEC2","componentType":5123,"count":801,"normalized":true,"byteOffset":0,"bufferView":8}],"bufferViews":[{"buffer":1,"byteOffset":0,"byteLength":29784,"target":34963,"extensions":{"EXT_meshopt_compression":{"buffer":0,"byteOffset":0,"byteLength":7072,"mode":"TRIANGLES","byteStride":2,"count":14892}}},{"buffer":1,"byteOffset":29784,"byteLength":46176,"target":34962,"byteStride":8,"extensions":{"EXT_meshopt_compression":{"buffer":0,"byteOffset":7072,"byteLength":35368,"mode":"ATTRIBUTES","byteStride":8,"count":5772}}},{"buffer":1,"byteOffset":75960,"byteLength":23088,"target":34962,"byteStride":4,"extensions":{"EXT_meshopt_compression":{"buffer":0,"byteOffset":42440,"byteLength":1227,"mode":"ATTRIBUTES","byteStride":4,"count":5772}}},{"buffer":1,"byteOffset":99048,"byteLength":46176,"target":34962,"byteStride":8,"extensions":{"EXT_meshopt_compression":{"buffer":0,"byteOffset":43668,"byteLength":25607,"mode":"ATTRIBUTES","byteStride":8,"count":5772}}},{"buffer":1,"byteOffset":145224,"byteLength":46176,"target":34962,"byteStride":8,"extensions":{"EXT_meshopt_compression":{"buffer":0,"byteOffset":69276,"byteLength":35081,"mode":"ATTRIBUTES","byteStride":8,"count":5772}}},{"buffer":1,"byteOffset":191400,"byteLength":3204,"target":34962,"byteStride":4,"extensions":{"EXT_meshopt_compression":{"buffer":0,"byteOffset":104360,"byteLength":85,"mode":"ATTRIBUTES","byteStride":4,"count":801}}},{"buffer":1,"byteOffset":194604,"byteLength":6408,"target":34962,"byteStride":8,"extensions":{"EXT_meshopt_compression":{"buffer":0,"byteOffset":104448,"byteLength":4739,"mode":"ATTRIBUTES","byteStride":8,"count":801}}},{"buffer":1,"byteOffset":201012,"byteLength":6408,"target":34962,"byteStride":8,"extensions":{"EXT_meshopt_compression":{"buffer":0,"byteOffset":109188,"byteLength":4962,"mode":"ATTRIBUTES","byteStride":8,"count":801}}},{"buffer":1,"byteOffset":207420,"byteLength":3204,"target":34962,"byteStride":4,"extensions":{"EXT_meshopt_compression":{"buffer":0,"byteOffset":114152,"byteLength":3099,"mode":"ATTRIBUTES","byteStride":4,"count":801}}}],"samplers":[{"magFilter":9729,"minFilter":9987,"wrapS":10497,"wrapT":10497}],"textures":[{"sampler":0,"extensions":{"EXT_texture_webp":{"source":1}}},{"sampler":0,"extensions":{"EXT_texture_webp":{"source":0}}},{"sampler":0,"extensions":{"EXT_texture_webp":{"source":2}}}],"images":[{"name":"Bark_NormalTree_Normal","mimeType":"image/webp","uri":"../../textures/c52ead41b179fde6.webp"},{"name":"Bark_NormalTree","mimeType":"image/webp","uri":"../../textures/6a203b313df66fa5.webp"},{"name":"Leaf_Pine_C","mimeType":"image/webp","uri":"../../textures/3a578897f2d8b7cd.webp"}],"buffers":[{"uri":"Pine_3.bin","byteLength":117252},{"byteLength":210624,"extensions":{"EXT_meshopt_compression":{"fallback":true}}}],"materials":[{"name":"Bark_NormalTree","alphaMode":"MASK","alphaCutoff":0.20000000298023224,"doubleSided":true,"pbrMetallicRoughness":{"metallicFactor":0,"baseColorTexture":{"index":0}},"normalTexture":{"index":1}},{"name":"Leaves_Pine","alphaMode":"MASK","alphaCutoff":0.20000000298023224,"doubleSided":true,"pbrMetallicRoughness":{"metallicFactor":0,"baseColorTexture":{"index":2}}}],"meshes":[{"name":"tree.030","primitives":[{"attributes":{"TEXCOORD_0":1,"COLOR_0":3,"POSITION":4,"NORMAL":5},"mode":4,"material":0,"indices":0},{"attributes":{"COLOR_0":6,"POSITION":7,"NORMAL":8,"TEXCOORD_0":9},"mode":4,"material":1,"indices":2}]}],"nodes":[{"name":"Pine_3","translation":[-0.3080395460128784,3.461010806262493,-0.29443681240081787],"scale":[3.6960994079709053,3.6960994079709053,3.6960994079709053],"mesh":0},{"name":"pack_root","children":[0]}],"scenes":[{"name":"Scene","nodes":[1]}],"scene":0,"extensionsUsed":["EXT_meshopt_compression","EXT_texture_webp","KHR_mesh_quantization"],"extensionsRequired":["EXT_meshopt_compression","EXT_texture_webp","KHR_mesh_quantization"]}