{"asset":{"generator":"glTF-Transform v4.5.1","version":"2.0"},"accessors":[{"type":"SCALAR","componentType":5123,"count":1464,"normalized":false,"byteOffset":0,"bufferView":0},{"type":"VEC2","componentType":5126,"count":542,"normalized":false,"byteOffset":0,"bufferView":1},{"type":"SCALAR","componentType":5123,"count":3474,"normalized":false,"byteOffset":2928,"bufferView":0},{"type":"VEC4","componentType":5121,"count":542,"normalized":true,"byteOffset":0,"bufferView":2},{"type":"VEC3","componentType":5122,"count":542,"max":[3192,31591,8573],"min":[-5232,-32767,-6256],"normalized":true,"byteOffset":0,"bufferView":3},{"type":"VEC3","componentType":5122,"count":542,"normalized":true,"byteOffset":0,"bufferView":4},{"type":"VEC4","componentType":5121,"count":1773,"normalized":true,"byteOffset":0,"bufferView":5},{"type":"VEC3","componentType":5122,"count":1773,"max":[24114,32767,23370],"min":[-24114,-20082,-23370],"normalized":true,"byteOffset":0,"bufferView":6},{"type":"VEC3","componentType":5122,"count":1773,"normalized":true,"byteOffset":0,"bufferView":7},{"type":"VEC2","componentType":5123,"count":1773,"normalized":true,"byteOffset":0,"bufferView":8}],"bufferViews":[{"buffer":1,"byteOffset":0,"byteLength":9876,"target":34963,"extensions":{"EXT_meshopt_compression":{"buffer":0,"byteOffset":0,"byteLength":2244,"mode":"TRIANGLES","byteStride":2,"count":4938}}},{"buffer":1,"byteOffset":9876,"byteLength":4336,"target":34962,"byteStride":8,"extensions":{"EXT_meshopt_compression":{"buffer":0,"byteOffset":2244,"byteLength":3198,"mode":"ATTRIBUTES","byteStride":8,"count":542}}},{"buffer":1,"byteOffset":14212,"byteLength":2168,"target":34962,"byteStride":4,"extensions":{"EXT_meshopt_compression":{"buffer":0,"byteOffset":5444,"byteLength":939,"mode":"ATTRIBUTES","byteStride":4,"count":542}}},{"buffer":1,"byteOffset":16380,"byteLength":4336,"target":34962,"byteStride":8,"extensions":{"EXT_meshopt_compression":{"buffer":0,"byteOffset":6384,"byteLength":2810,"mode":"ATTRIBUTES","byteStride":8,"count":542}}},{"buffer":1,"byteOffset":20716,"byteLength":4336,"target":34962,"byteStride":8,"extensions":{"EXT_meshopt_compression":{"buffer":0,"byteOffset":9196,"byteLength":3358,"mode":"ATTRIBUTES","byteStride":8,"count":542}}},{"buffer":1,"byteOffset":25052,"byteLength":7092,"target":34962,"byteStride":4,"extensions":{"EXT_meshopt_compression":{"buffer":0,"byteOffset":12556,"byteLength":145,"mode":"ATTRIBUTES","byteStride":4,"count":1773}}},{"buffer":1,"byteOffset":32144,"byteLength":14184,"target":34962,"byteStride":8,"extensions":{"EXT_meshopt_compression":{"buffer":0,"byteOffset":12704,"byteLength":10546,"mode":"ATTRIBUTES","byteStride":8,"count":1773}}},{"buffer":1,"byteOffset":46328,"byteLength":14184,"target":34962,"byteStride":8,"extensions":{"EXT_meshopt_compression":{"buffer":0,"byteOffset":23252,"byteLength":10904,"mode":"ATTRIBUTES","byteStride":8,"count":1773}}},{"buffer":1,"byteOffset":60512,"byteLength":7092,"target":34962,"byteStride":4,"extensions":{"EXT_meshopt_compression":{"buffer":0,"byteOffset":34156,"byteLength":6832,"mode":"ATTRIBUTES","byteStride":4,"count":1773}}}],"samplers":[{"magFilter":9729,"minFilter":9987,"wrapS":10497,"wrapT":10497}],"textures":[{"sampler":0,"extensions":{"EXT_texture_webp":{"source":1}}},{"sampler":0,"extensions":{"EXT_texture_webp":{"source":0}}},{"sampler":0,"extensions":{"EXT_texture_webp":{"source":2}}}],"images":[{"name":"Bark_NormalTree_Normal","mimeType":"image/webp","uri":"../../textures/c52ead41b179fde6.webp"},{"name":"Bark_NormalTree","mimeType":"image/webp","uri":"../../textures/6a203b313df66fa5.webp"},{"name":"Leaf_Pine_C","mimeType":"image/webp","uri":"../../textures/3a578897f2d8b7cd.webp"}],"buffers":[{"uri":"Pine_5.bin","byteLength":40988},{"byteLength":67604,"extensions":{"EXT_meshopt_compression":{"fallback":true}}}],"materials":[{"name":"Bark_NormalTree","alphaMode":"MASK","alphaCutoff":0.20000000298023224,"doubleSided":true,"pbrMetallicRoughness":{"metallicFactor":0,"baseColorTexture":{"index":0}},"normalTexture":{"index":1}},{"name":"Leaves_Pine","alphaMode":"MASK","alphaCutoff":0.20000000298023224,"doubleSided":true,"pbrMetallicRoughness":{"metallicFactor":0,"baseColorTexture":{"index":2}}}],"meshes":[{"name":"tree.032","primitives":[{"attributes":{"TEXCOORD_0":1,"COLOR_0":3,"POSITION":4,"NORMAL":5},"mode":4,"material":0,"indices":0},{"attributes":{"COLOR_0":6,"POSITION":7,"NORMAL":8,"TEXCOORD_0":9},"mode":4,"material":1,"indices":2}]}],"nodes":[{"name":"Pine_5","translation":[0.22236394882202148,4.1268151849508286,-0.6674035787582397],"scale":[4.361903801560402,4.361903801560402,4.361903801560402],"mesh":0},{"name":"pack_root","children":[0]}],"scenes":[{"name":"Scene","nodes":[1]}],"scene":0,"extensionsUsed":["EXT_meshopt_compression","EXT_texture_webp","KHR_mesh_quantization"],"extensionsRequired":["EXT_meshopt_compression","EXT_texture_webp","KHR_mesh_quantization"]}