{"asset":{"generator":"glTF-Transform v4.5.1","version":"2.0"},"accessors":[{"type":"SCALAR","componentType":5123,"count":1473,"normalized":false,"byteOffset":0,"bufferView":0},{"type":"VEC2","componentType":5126,"count":563,"normalized":false,"byteOffset":0,"bufferView":1},{"type":"SCALAR","componentType":5123,"count":1398,"normalized":false,"byteOffset":2946,"bufferView":0},{"type":"VEC4","componentType":5121,"count":563,"normalized":true,"byteOffset":0,"bufferView":2},{"type":"VEC3","componentType":5122,"count":563,"max":[12121,30635,13197],"min":[-7288,-32767,-16109],"normalized":true,"byteOffset":0,"bufferView":3},{"type":"VEC3","componentType":5122,"count":563,"normalized":true,"byteOffset":0,"bufferView":4},{"type":"VEC4","componentType":5121,"count":836,"normalized":true,"byteOffset":0,"bufferView":5},{"type":"VEC3","componentType":5122,"count":836,"max":[25587,32767,23322],"min":[-25587,-20682,-23322],"normalized":true,"byteOffset":0,"bufferView":6},{"type":"VEC3","componentType":5122,"count":836,"normalized":true,"byteOffset":0,"bufferView":7},{"type":"VEC2","componentType":5123,"count":836,"normalized":true,"byteOffset":0,"bufferView":8}],"bufferViews":[{"buffer":1,"byteOffset":0,"byteLength":5742,"target":34963,"extensions":{"EXT_meshopt_compression":{"buffer":0,"byteOffset":0,"byteLength":1119,"mode":"TRIANGLES","byteStride":2,"count":2871}}},{"buffer":1,"byteOffset":5744,"byteLength":4504,"target":34962,"byteStride":8,"extensions":{"EXT_meshopt_compression":{"buffer":0,"byteOffset":1120,"byteLength":3601,"mode":"ATTRIBUTES","byteStride":8,"count":563}}},{"buffer":1,"byteOffset":10248,"byteLength":2252,"target":34962,"byteStride":4,"extensions":{"EXT_meshopt_compression":{"buffer":0,"byteOffset":4724,"byteLength":132,"mode":"ATTRIBUTES","byteStride":4,"count":563}}},{"buffer":1,"byteOffset":12500,"byteLength":4504,"target":34962,"byteStride":8,"extensions":{"EXT_meshopt_compression":{"buffer":0,"byteOffset":4856,"byteLength":2671,"mode":"ATTRIBUTES","byteStride":8,"count":563}}},{"buffer":1,"byteOffset":17004,"byteLength":4504,"target":34962,"byteStride":8,"extensions":{"EXT_meshopt_compression":{"buffer":0,"byteOffset":7528,"byteLength":3294,"mode":"ATTRIBUTES","byteStride":8,"count":563}}},{"buffer":1,"byteOffset":21508,"byteLength":3344,"target":34962,"byteStride":4,"extensions":{"EXT_meshopt_compression":{"buffer":0,"byteOffset":10824,"byteLength":89,"mode":"ATTRIBUTES","byteStride":4,"count":836}}},{"buffer":1,"byteOffset":24852,"byteLength":6688,"target":34962,"byteStride":8,"extensions":{"EXT_meshopt_compression":{"buffer":0,"byteOffset":10916,"byteLength":5141,"mode":"ATTRIBUTES","byteStride":8,"count":836}}},{"buffer":1,"byteOffset":31540,"byteLength":6688,"target":34962,"byteStride":8,"extensions":{"EXT_meshopt_compression":{"buffer":0,"byteOffset":16060,"byteLength":5182,"mode":"ATTRIBUTES","byteStride":8,"count":836}}},{"buffer":1,"byteOffset":38228,"byteLength":3344,"target":34962,"byteStride":4,"extensions":{"EXT_meshopt_compression":{"buffer":0,"byteOffset":21244,"byteLength":3289,"mode":"ATTRIBUTES","byteStride":4,"count":836}}}],"samplers":[{"magFilter":9729,"minFilter":9987,"wrapS":10497,"wrapT":10497}],"textures":[{"sampler":0,"extensions":{"EXT_texture_webp":{"source":1}}},{"sampler":0,"extensions":{"EXT_texture_webp":{"source":0}}},{"sampler":0,"extensions":{"EXT_texture_webp":{"source":2}}}],"images":[{"name":"Bark_NormalTree_Normal","mimeType":"image/webp","uri":"../../textures/c52ead41b179fde6.webp"},{"name":"Bark_NormalTree","mimeType":"image/webp","uri":"../../textures/6a203b313df66fa5.webp"},{"name":"Leaf_Pine_C","mimeType":"image/webp","uri":"../../textures/3a578897f2d8b7cd.webp"}],"buffers":[{"uri":"Pine_2@lod.bin","byteLength":24536},{"byteLength":41572,"extensions":{"EXT_meshopt_compression":{"fallback":true}}}],"materials":[{"name":"Bark_NormalTree","alphaMode":"MASK","alphaCutoff":0.20000000298023224,"doubleSided":true,"pbrMetallicRoughness":{"metallicFactor":0,"baseColorTexture":{"index":0}},"normalTexture":{"index":1}},{"name":"Leaves_Pine","alphaMode":"MASK","alphaCutoff":0.20000000298023224,"doubleSided":true,"pbrMetallicRoughness":{"metallicFactor":0,"baseColorTexture":{"index":2}}}],"meshes":[{"name":"tree.029","primitives":[{"attributes":{"TEXCOORD_0":1,"COLOR_0":3,"POSITION":4,"NORMAL":5},"mode":4,"material":0,"indices":0},{"attributes":{"COLOR_0":6,"POSITION":7,"NORMAL":8,"TEXCOORD_0":9},"mode":4,"material":1,"indices":2}]}],"nodes":[{"name":"Pine_2","translation":[-0.0279158353805542,3.43277035701002,-0.08309543132781982],"scale":[3.667858958718432,3.667858958718432,3.667858958718432],"mesh":0},{"name":"pack_root","children":[0]}],"scenes":[{"name":"Scene","nodes":[1]}],"scene":0,"extensionsUsed":["EXT_meshopt_compression","EXT_texture_webp","KHR_mesh_quantization"],"extensionsRequired":["EXT_meshopt_compression","EXT_texture_webp","KHR_mesh_quantization"]}