{"asset":{"generator":"glTF-Transform v4.5.1","version":"2.0"},"accessors":[{"type":"SCALAR","componentType":5123,"count":336,"normalized":false,"byteOffset":0,"bufferView":0},{"type":"VEC3","componentType":5122,"count":126,"max":[31531,6096,32767],"min":[-31531,-6096,-32767],"normalized":true,"byteOffset":0,"bufferView":1},{"type":"VEC3","componentType":5122,"count":126,"normalized":true,"byteOffset":0,"bufferView":2},{"type":"VEC2","componentType":5123,"count":126,"normalized":true,"byteOffset":0,"bufferView":3}],"bufferViews":[{"buffer":1,"byteOffset":0,"byteLength":672,"target":34963,"extensions":{"EXT_meshopt_compression":{"buffer":0,"byteOffset":0,"byteLength":129,"mode":"TRIANGLES","byteStride":2,"count":336}}},{"buffer":1,"byteOffset":672,"byteLength":1008,"target":34962,"byteStride":8,"extensions":{"EXT_meshopt_compression":{"buffer":0,"byteOffset":132,"byteLength":802,"mode":"ATTRIBUTES","byteStride":8,"count":126}}},{"buffer":1,"byteOffset":1680,"byteLength":1008,"target":34962,"byteStride":8,"extensions":{"EXT_meshopt_compression":{"buffer":0,"byteOffset":936,"byteLength":808,"mode":"ATTRIBUTES","byteStride":8,"count":126}}},{"buffer":1,"byteOffset":2688,"byteLength":504,"target":34962,"byteStride":4,"extensions":{"EXT_meshopt_compression":{"buffer":0,"byteOffset":1744,"byteLength":551,"mode":"ATTRIBUTES","byteStride":4,"count":126}}}],"samplers":[{"magFilter":9729,"minFilter":9987,"wrapS":10497,"wrapT":10497}],"textures":[{"sampler":0,"extensions":{"EXT_texture_webp":{"source":0}}}],"images":[{"name":"Leaves","mimeType":"image/webp","uri":"../../textures/d32e4a712cc39677.webp"}],"buffers":[{"uri":"Plant_7_Big.bin","byteLength":2296},{"byteLength":3192,"extensions":{"EXT_meshopt_compression":{"fallback":true}}}],"materials":[{"name":"Leaves","alphaMode":"MASK","alphaCutoff":0.20000000298023224,"doubleSided":true,"pbrMetallicRoughness":{"metallicFactor":0,"baseColorTexture":{"index":0}}}],"meshes":[{"name":"Plane.079","primitives":[{"attributes":{"POSITION":1,"NORMAL":2,"TEXCOORD_0":3},"mode":4,"material":0,"indices":0}]}],"nodes":[{"name":"Plant_7_Big","translation":[-0.04564675688743591,0.17702780291438103,-0.16944092512130737],"scale":[0.6810870170593262,0.6810870170593262,0.6810870170593262],"mesh":0},{"name":"pack_root","children":[0]}],"scenes":[{"name":"Scene","nodes":[1]}],"scene":0,"extensionsUsed":["EXT_meshopt_compression","EXT_texture_webp","KHR_mesh_quantization"],"extensionsRequired":["EXT_meshopt_compression","EXT_texture_webp","KHR_mesh_quantization"]}