{"asset":{"generator":"glTF-Transform v4.5.1","version":"2.0"},"accessors":[{"type":"SCALAR","componentType":5123,"count":1026,"normalized":false,"byteOffset":0,"bufferView":0},{"type":"VEC3","componentType":5122,"count":351,"max":[32767,22958,30371],"min":[-32767,-22958,-30371],"normalized":true,"byteOffset":0,"bufferView":1},{"type":"VEC3","componentType":5122,"count":351,"normalized":true,"byteOffset":0,"bufferView":2},{"type":"VEC2","componentType":5123,"count":351,"normalized":true,"byteOffset":0,"bufferView":3}],"bufferViews":[{"buffer":1,"byteOffset":0,"byteLength":2052,"target":34963,"extensions":{"EXT_meshopt_compression":{"buffer":0,"byteOffset":0,"byteLength":372,"mode":"TRIANGLES","byteStride":2,"count":1026}}},{"buffer":1,"byteOffset":2052,"byteLength":2808,"target":34962,"byteStride":8,"extensions":{"EXT_meshopt_compression":{"buffer":0,"byteOffset":372,"byteLength":2150,"mode":"ATTRIBUTES","byteStride":8,"count":351}}},{"buffer":1,"byteOffset":4860,"byteLength":2808,"target":34962,"byteStride":8,"extensions":{"EXT_meshopt_compression":{"buffer":0,"byteOffset":2524,"byteLength":1977,"mode":"ATTRIBUTES","byteStride":8,"count":351}}},{"buffer":1,"byteOffset":7668,"byteLength":1404,"target":34962,"byteStride":4,"extensions":{"EXT_meshopt_compression":{"buffer":0,"byteOffset":4504,"byteLength":1221,"mode":"ATTRIBUTES","byteStride":4,"count":351}}}],"samplers":[{"magFilter":9729,"minFilter":9987,"wrapS":10497,"wrapT":10497}],"textures":[{"sampler":0,"extensions":{"EXT_texture_webp":{"source":0}}}],"images":[{"name":"Rocks_Diffuse","mimeType":"image/webp","uri":"../../textures/1e654825017f3ae2.webp"}],"buffers":[{"uri":"Rock_Medium_1.bin","byteLength":5728},{"byteLength":9072,"extensions":{"EXT_meshopt_compression":{"fallback":true}}}],"materials":[{"name":"Rocks","doubleSided":true,"pbrMetallicRoughness":{"metallicFactor":0,"baseColorTexture":{"index":0}}}],"meshes":[{"name":"Cube.005_Retopology.001","primitives":[{"attributes":{"POSITION":1,"NORMAL":2,"TEXCOORD_0":3},"mode":4,"material":0,"indices":0}]}],"nodes":[{"name":"Rock_Medium_1","translation":[-0.11471307277679443,0.8587669432163239,0.3446849584579468],"scale":[1.6125742197036743,1.6125742197036743,1.6125742197036743],"mesh":0},{"name":"pack_root","children":[0]}],"scenes":[{"name":"Scene","nodes":[1]}],"scene":0,"extensionsUsed":["EXT_meshopt_compression","EXT_texture_webp","KHR_mesh_quantization"],"extensionsRequired":["EXT_meshopt_compression","EXT_texture_webp","KHR_mesh_quantization"]}