{"asset":{"generator":"glTF-Transform v4.5.1","version":"2.0"},"accessors":[{"type":"SCALAR","componentType":5123,"count":1566,"normalized":false,"byteOffset":0,"bufferView":0},{"type":"VEC3","componentType":5122,"count":531,"max":[32239,21834,32767],"min":[-32239,-21834,-32767],"normalized":true,"byteOffset":0,"bufferView":1},{"type":"VEC3","componentType":5122,"count":531,"normalized":true,"byteOffset":0,"bufferView":2},{"type":"VEC2","componentType":5123,"count":531,"normalized":true,"byteOffset":0,"bufferView":3}],"bufferViews":[{"buffer":1,"byteOffset":0,"byteLength":3132,"target":34963,"extensions":{"EXT_meshopt_compression":{"buffer":0,"byteOffset":0,"byteLength":565,"mode":"TRIANGLES","byteStride":2,"count":1566}}},{"buffer":1,"byteOffset":3132,"byteLength":4248,"target":34962,"byteStride":8,"extensions":{"EXT_meshopt_compression":{"buffer":0,"byteOffset":568,"byteLength":3247,"mode":"ATTRIBUTES","byteStride":8,"count":531}}},{"buffer":1,"byteOffset":7380,"byteLength":4248,"target":34962,"byteStride":8,"extensions":{"EXT_meshopt_compression":{"buffer":0,"byteOffset":3816,"byteLength":3077,"mode":"ATTRIBUTES","byteStride":8,"count":531}}},{"buffer":1,"byteOffset":11628,"byteLength":2124,"target":34962,"byteStride":4,"extensions":{"EXT_meshopt_compression":{"buffer":0,"byteOffset":6896,"byteLength":1805,"mode":"ATTRIBUTES","byteStride":4,"count":531}}}],"samplers":[{"magFilter":9729,"minFilter":9987,"wrapS":10497,"wrapT":10497}],"textures":[{"sampler":0,"extensions":{"EXT_texture_webp":{"source":0}}}],"images":[{"name":"Rocks_Diffuse","mimeType":"image/webp","uri":"../../textures/1e654825017f3ae2.webp"}],"buffers":[{"uri":"Rock_Medium_3.bin","byteLength":8704},{"byteLength":13752,"extensions":{"EXT_meshopt_compression":{"fallback":true}}}],"materials":[{"name":"Rocks","doubleSided":true,"pbrMetallicRoughness":{"metallicFactor":0,"baseColorTexture":{"index":0}}}],"meshes":[{"name":"Cube.002_Retopology.001","primitives":[{"attributes":{"POSITION":1,"NORMAL":2,"TEXCOORD_0":3},"mode":4,"material":0,"indices":0}]}],"nodes":[{"name":"Rock_Medium_3","translation":[-0.11423695087432861,0.8424969166517258,0.8475930094718933],"scale":[1.7380550503730774,1.7380550503730774,1.7380550503730774],"mesh":0},{"name":"pack_root","children":[0]}],"scenes":[{"name":"Scene","nodes":[1]}],"scene":0,"extensionsUsed":["EXT_meshopt_compression","EXT_texture_webp","KHR_mesh_quantization"],"extensionsRequired":["EXT_meshopt_compression","EXT_texture_webp","KHR_mesh_quantization"]}