{"asset":{"generator":"glTF-Transform v4.5.1","version":"2.0"},"accessors":[{"type":"SCALAR","componentType":5123,"count":732,"normalized":false,"byteOffset":0,"bufferView":0},{"type":"VEC3","componentType":5122,"count":249,"max":[32767,20410,26643],"min":[-32767,-20410,-26643],"normalized":true,"byteOffset":0,"bufferView":1},{"type":"VEC3","componentType":5122,"count":249,"normalized":true,"byteOffset":0,"bufferView":2},{"type":"VEC2","componentType":5123,"count":249,"normalized":true,"byteOffset":0,"bufferView":3}],"bufferViews":[{"buffer":1,"byteOffset":0,"byteLength":1464,"target":34963,"extensions":{"EXT_meshopt_compression":{"buffer":0,"byteOffset":0,"byteLength":271,"mode":"TRIANGLES","byteStride":2,"count":732}}},{"buffer":1,"byteOffset":1464,"byteLength":1992,"target":34962,"byteStride":8,"extensions":{"EXT_meshopt_compression":{"buffer":0,"byteOffset":272,"byteLength":1560,"mode":"ATTRIBUTES","byteStride":8,"count":249}}},{"buffer":1,"byteOffset":3456,"byteLength":1992,"target":34962,"byteStride":8,"extensions":{"EXT_meshopt_compression":{"buffer":0,"byteOffset":1832,"byteLength":1392,"mode":"ATTRIBUTES","byteStride":8,"count":249}}},{"buffer":1,"byteOffset":5448,"byteLength":996,"target":34962,"byteStride":4,"extensions":{"EXT_meshopt_compression":{"buffer":0,"byteOffset":3224,"byteLength":911,"mode":"ATTRIBUTES","byteStride":4,"count":249}}}],"samplers":[{"magFilter":9729,"minFilter":9987,"wrapS":10497,"wrapT":10497}],"textures":[{"sampler":0,"extensions":{"EXT_texture_webp":{"source":0}}}],"images":[{"name":"Rocks_Diffuse","mimeType":"image/webp","uri":"../../textures/1e654825017f3ae2.webp"}],"buffers":[{"uri":"Rock_Medium_2.bin","byteLength":4136},{"byteLength":6444,"extensions":{"EXT_meshopt_compression":{"fallback":true}}}],"materials":[{"name":"Rocks","doubleSided":true,"pbrMetallicRoughness":{"metallicFactor":0,"baseColorTexture":{"index":0}}}],"meshes":[{"name":"Cube.004_Retopology.001","primitives":[{"attributes":{"POSITION":1,"NORMAL":2,"TEXCOORD_0":3},"mode":4,"material":0,"indices":0}]}],"nodes":[{"name":"Rock_Medium_2","translation":[-0.18926167488098145,0.898645868524909,0.08041048049926758],"scale":[1.5243802070617676,1.5243802070617676,1.5243802070617676],"mesh":0},{"name":"pack_root","children":[0]}],"scenes":[{"name":"Scene","nodes":[1]}],"scene":0,"extensionsUsed":["EXT_meshopt_compression","EXT_texture_webp","KHR_mesh_quantization"],"extensionsRequired":["EXT_meshopt_compression","EXT_texture_webp","KHR_mesh_quantization"]}