{"asset":{"generator":"glTF-Transform v4.5.1","version":"2.0"},"accessors":[{"type":"SCALAR","componentType":5123,"count":21246,"normalized":false,"byteOffset":0,"bufferView":0},{"type":"VEC2","componentType":5126,"count":9603,"normalized":false,"byteOffset":0,"bufferView":1},{"type":"SCALAR","componentType":5123,"count":9066,"normalized":false,"byteOffset":42492,"bufferView":0},{"type":"VEC4","componentType":5121,"count":9603,"normalized":true,"byteOffset":0,"bufferView":2},{"type":"VEC3","componentType":5122,"count":9603,"max":[14377,28135,13753],"min":[-13697,-32767,-14709],"normalized":true,"byteOffset":0,"bufferView":3},{"type":"VEC3","componentType":5122,"count":9603,"normalized":true,"byteOffset":0,"bufferView":4},{"type":"VEC4","componentType":5121,"count":6044,"normalized":true,"byteOffset":0,"bufferView":5},{"type":"VEC3","componentType":5122,"count":6044,"max":[19866,32767,19638],"min":[-19866,-10637,-19638],"normalized":true,"byteOffset":0,"bufferView":6},{"type":"VEC3","componentType":5122,"count":6044,"normalized":true,"byteOffset":0,"bufferView":7},{"type":"VEC2","componentType":5123,"count":6044,"normalized":true,"byteOffset":0,"bufferView":8}],"bufferViews":[{"buffer":1,"byteOffset":0,"byteLength":60624,"target":34963,"extensions":{"EXT_meshopt_compression":{"buffer":0,"byteOffset":0,"byteLength":13368,"mode":"TRIANGLES","byteStride":2,"count":30312}}},{"buffer":1,"byteOffset":60624,"byteLength":76824,"target":34962,"byteStride":8,"extensions":{"EXT_meshopt_compression":{"buffer":0,"byteOffset":13368,"byteLength":57293,"mode":"ATTRIBUTES","byteStride":8,"count":9603}}},{"buffer":1,"byteOffset":137448,"byteLength":38412,"target":34962,"byteStride":4,"extensions":{"EXT_meshopt_compression":{"buffer":0,"byteOffset":70664,"byteLength":1602,"mode":"ATTRIBUTES","byteStride":4,"count":9603}}},{"buffer":1,"byteOffset":175860,"byteLength":76824,"target":34962,"byteStride":8,"extensions":{"EXT_meshopt_compression":{"buffer":0,"byteOffset":72268,"byteLength":42838,"mode":"ATTRIBUTES","byteStride":8,"count":9603}}},{"buffer":1,"byteOffset":252684,"byteLength":76824,"target":34962,"byteStride":8,"extensions":{"EXT_meshopt_compression":{"buffer":0,"byteOffset":115108,"byteLength":58537,"mode":"ATTRIBUTES","byteStride":8,"count":9603}}},{"buffer":1,"byteOffset":329508,"byteLength":24176,"target":34962,"byteStride":4,"extensions":{"EXT_meshopt_compression":{"buffer":0,"byteOffset":173648,"byteLength":413,"mode":"ATTRIBUTES","byteStride":4,"count":6044}}},{"buffer":1,"byteOffset":353684,"byteLength":48352,"target":34962,"byteStride":8,"extensions":{"EXT_meshopt_compression":{"buffer":0,"byteOffset":174064,"byteLength":37000,"mode":"ATTRIBUTES","byteStride":8,"count":6044}}},{"buffer":1,"byteOffset":402036,"byteLength":48352,"target":34962,"byteStride":8,"extensions":{"EXT_meshopt_compression":{"buffer":0,"byteOffset":211064,"byteLength":37059,"mode":"ATTRIBUTES","byteStride":8,"count":6044}}},{"buffer":1,"byteOffset":450388,"byteLength":24176,"target":34962,"byteStride":4,"extensions":{"EXT_meshopt_compression":{"buffer":0,"byteOffset":248124,"byteLength":18245,"mode":"ATTRIBUTES","byteStride":4,"count":6044}}}],"samplers":[{"magFilter":9729,"minFilter":9987,"wrapS":10497,"wrapT":10497}],"textures":[{"sampler":0,"extensions":{"EXT_texture_webp":{"source":1}}},{"sampler":0,"extensions":{"EXT_texture_webp":{"source":0}}},{"sampler":0,"extensions":{"EXT_texture_webp":{"source":2}}}],"images":[{"name":"Bark_TwistedTree_Normal","mimeType":"image/webp","uri":"../../textures/3a34b6327d8e2501.webp"},{"name":"Bark_TwistedTree","mimeType":"image/webp","uri":"../../textures/c41a7f788b411ad7.webp"},{"name":"Leaves_TwistedTree_C","mimeType":"image/webp","uri":"../../textures/5a1e14bf0272cb1b.webp"}],"buffers":[{"uri":"TwistedTree_5.bin","byteLength":266372},{"byteLength":474564,"extensions":{"EXT_meshopt_compression":{"fallback":true}}}],"materials":[{"name":"Bark_TwistedTree","doubleSided":true,"pbrMetallicRoughness":{"metallicFactor":0,"baseColorTexture":{"index":0}},"normalTexture":{"index":1}},{"name":"Leaves_TwistedTree","alphaMode":"MASK","alphaCutoff":0.20000000298023224,"doubleSided":true,"pbrMetallicRoughness":{"metallicFactor":0,"baseColorTexture":{"index":2}}}],"meshes":[{"name":"tree.042","primitives":[{"attributes":{"TEXCOORD_0":1,"COLOR_0":3,"POSITION":4,"NORMAL":5},"mode":4,"material":0,"indices":0},{"attributes":{"COLOR_0":6,"POSITION":7,"NORMAL":8,"TEXCOORD_0":9},"mode":4,"material":1,"indices":2}]}],"nodes":[{"name":"TwistedTree_5","translation":[1.0009187459945679,7.6296131536364555,-1.6454826593399048],"scale":[7.831087835133076,7.831087835133076,7.831087835133076],"mesh":0},{"name":"pack_root","children":[0]}],"scenes":[{"name":"Scene","nodes":[1]}],"scene":0,"extensionsUsed":["EXT_meshopt_compression","EXT_texture_webp","KHR_mesh_quantization"],"extensionsRequired":["EXT_meshopt_compression","EXT_texture_webp","KHR_mesh_quantization"]}