{"asset":{"generator":"glTF-Transform v4.5.1","version":"2.0"},"accessors":[{"type":"SCALAR","componentType":5123,"count":2895,"normalized":false,"byteOffset":0,"bufferView":0},{"type":"VEC2","componentType":5126,"count":1144,"normalized":false,"byteOffset":0,"bufferView":1},{"type":"SCALAR","componentType":5123,"count":9066,"normalized":false,"byteOffset":5790,"bufferView":0},{"type":"VEC4","componentType":5121,"count":1144,"normalized":true,"byteOffset":0,"bufferView":2},{"type":"VEC3","componentType":5122,"count":1144,"max":[14377,28135,13653],"min":[-13697,-32767,-14645],"normalized":true,"byteOffset":0,"bufferView":3},{"type":"VEC3","componentType":5122,"count":1144,"normalized":true,"byteOffset":0,"bufferView":4},{"type":"VEC4","componentType":5121,"count":6044,"normalized":true,"byteOffset":0,"bufferView":5},{"type":"VEC3","componentType":5122,"count":6044,"max":[19866,32767,19638],"min":[-19866,-10637,-19638],"normalized":true,"byteOffset":0,"bufferView":6},{"type":"VEC3","componentType":5122,"count":6044,"normalized":true,"byteOffset":0,"bufferView":7},{"type":"VEC2","componentType":5123,"count":6044,"normalized":true,"byteOffset":0,"bufferView":8}],"bufferViews":[{"buffer":1,"byteOffset":0,"byteLength":23922,"target":34963,"extensions":{"EXT_meshopt_compression":{"buffer":0,"byteOffset":0,"byteLength":4150,"mode":"TRIANGLES","byteStride":2,"count":11961}}},{"buffer":1,"byteOffset":23924,"byteLength":9152,"target":34962,"byteStride":8,"extensions":{"EXT_meshopt_compression":{"buffer":0,"byteOffset":4152,"byteLength":7559,"mode":"ATTRIBUTES","byteStride":8,"count":1144}}},{"buffer":1,"byteOffset":33076,"byteLength":4576,"target":34962,"byteStride":4,"extensions":{"EXT_meshopt_compression":{"buffer":0,"byteOffset":11712,"byteLength":237,"mode":"ATTRIBUTES","byteStride":4,"count":1144}}},{"buffer":1,"byteOffset":37652,"byteLength":9152,"target":34962,"byteStride":8,"extensions":{"EXT_meshopt_compression":{"buffer":0,"byteOffset":11952,"byteLength":5702,"mode":"ATTRIBUTES","byteStride":8,"count":1144}}},{"buffer":1,"byteOffset":46804,"byteLength":9152,"target":34962,"byteStride":8,"extensions":{"EXT_meshopt_compression":{"buffer":0,"byteOffset":17656,"byteLength":7047,"mode":"ATTRIBUTES","byteStride":8,"count":1144}}},{"buffer":1,"byteOffset":55956,"byteLength":24176,"target":34962,"byteStride":4,"extensions":{"EXT_meshopt_compression":{"buffer":0,"byteOffset":24704,"byteLength":413,"mode":"ATTRIBUTES","byteStride":4,"count":6044}}},{"buffer":1,"byteOffset":80132,"byteLength":48352,"target":34962,"byteStride":8,"extensions":{"EXT_meshopt_compression":{"buffer":0,"byteOffset":25120,"byteLength":37000,"mode":"ATTRIBUTES","byteStride":8,"count":6044}}},{"buffer":1,"byteOffset":128484,"byteLength":48352,"target":34962,"byteStride":8,"extensions":{"EXT_meshopt_compression":{"buffer":0,"byteOffset":62120,"byteLength":37059,"mode":"ATTRIBUTES","byteStride":8,"count":6044}}},{"buffer":1,"byteOffset":176836,"byteLength":24176,"target":34962,"byteStride":4,"extensions":{"EXT_meshopt_compression":{"buffer":0,"byteOffset":99180,"byteLength":18245,"mode":"ATTRIBUTES","byteStride":4,"count":6044}}}],"samplers":[{"magFilter":9729,"minFilter":9987,"wrapS":10497,"wrapT":10497}],"textures":[{"sampler":0,"extensions":{"EXT_texture_webp":{"source":1}}},{"sampler":0,"extensions":{"EXT_texture_webp":{"source":0}}},{"sampler":0,"extensions":{"EXT_texture_webp":{"source":2}}}],"images":[{"name":"Bark_TwistedTree_Normal","mimeType":"image/webp","uri":"../../textures/3a34b6327d8e2501.webp"},{"name":"Bark_TwistedTree","mimeType":"image/webp","uri":"../../textures/c41a7f788b411ad7.webp"},{"name":"Leaves_TwistedTree_C","mimeType":"image/webp","uri":"../../textures/5a1e14bf0272cb1b.webp"}],"buffers":[{"uri":"TwistedTree_5@lod.bin","byteLength":117428},{"byteLength":201012,"extensions":{"EXT_meshopt_compression":{"fallback":true}}}],"materials":[{"name":"Bark_TwistedTree","doubleSided":true,"pbrMetallicRoughness":{"metallicFactor":0,"baseColorTexture":{"index":0}},"normalTexture":{"index":1}},{"name":"Leaves_TwistedTree","alphaMode":"MASK","alphaCutoff":0.20000000298023224,"doubleSided":true,"pbrMetallicRoughness":{"metallicFactor":0,"baseColorTexture":{"index":2}}}],"meshes":[{"name":"tree.042","primitives":[{"attributes":{"TEXCOORD_0":1,"COLOR_0":3,"POSITION":4,"NORMAL":5},"mode":4,"material":0,"indices":0},{"attributes":{"COLOR_0":6,"POSITION":7,"NORMAL":8,"TEXCOORD_0":9},"mode":4,"material":1,"indices":2}]}],"nodes":[{"name":"TwistedTree_5","translation":[1.0009187459945679,7.6296131536364555,-1.6454826593399048],"scale":[7.831087835133076,7.831087835133076,7.831087835133076],"mesh":0},{"name":"pack_root","children":[0]}],"scenes":[{"name":"Scene","nodes":[1]}],"scene":0,"extensionsUsed":["EXT_meshopt_compression","EXT_texture_webp","KHR_mesh_quantization"],"extensionsRequired":["EXT_meshopt_compression","EXT_texture_webp","KHR_mesh_quantization"]}