{"asset":{"generator":"glTF-Transform v4.5.1","version":"2.0"},"accessors":[{"type":"SCALAR","componentType":5123,"count":2574,"normalized":false,"byteOffset":0,"bufferView":0},{"type":"VEC2","componentType":5126,"count":919,"normalized":false,"byteOffset":0,"bufferView":1},{"type":"SCALAR","componentType":5123,"count":7056,"normalized":false,"byteOffset":5148,"bufferView":0},{"type":"VEC4","componentType":5121,"count":919,"normalized":true,"byteOffset":0,"bufferView":2},{"type":"VEC3","componentType":5122,"count":919,"max":[20802,27899,14409],"min":[-23482,-32767,-16085],"normalized":true,"byteOffset":0,"bufferView":3},{"type":"VEC3","componentType":5122,"count":919,"normalized":true,"byteOffset":0,"bufferView":4},{"type":"VEC4","componentType":5121,"count":4704,"normalized":true,"byteOffset":0,"bufferView":5},{"type":"VEC3","componentType":5122,"count":4704,"max":[26479,32767,22626],"min":[-26479,-22398,-22626],"normalized":true,"byteOffset":0,"bufferView":6},{"type":"VEC3","componentType":5122,"count":4704,"normalized":true,"byteOffset":0,"bufferView":7},{"type":"VEC2","componentType":5123,"count":4704,"normalized":true,"byteOffset":0,"bufferView":8}],"bufferViews":[{"buffer":1,"byteOffset":0,"byteLength":19260,"target":34963,"extensions":{"EXT_meshopt_compression":{"buffer":0,"byteOffset":0,"byteLength":3322,"mode":"TRIANGLES","byteStride":2,"count":9630}}},{"buffer":1,"byteOffset":19260,"byteLength":7352,"target":34962,"byteStride":8,"extensions":{"EXT_meshopt_compression":{"buffer":0,"byteOffset":3324,"byteLength":6219,"mode":"ATTRIBUTES","byteStride":8,"count":919}}},{"buffer":1,"byteOffset":26612,"byteLength":3676,"target":34962,"byteStride":4,"extensions":{"EXT_meshopt_compression":{"buffer":0,"byteOffset":9544,"byteLength":264,"mode":"ATTRIBUTES","byteStride":4,"count":919}}},{"buffer":1,"byteOffset":30288,"byteLength":7352,"target":34962,"byteStride":8,"extensions":{"EXT_meshopt_compression":{"buffer":0,"byteOffset":9808,"byteLength":4924,"mode":"ATTRIBUTES","byteStride":8,"count":919}}},{"buffer":1,"byteOffset":37640,"byteLength":7352,"target":34962,"byteStride":8,"extensions":{"EXT_meshopt_compression":{"buffer":0,"byteOffset":14732,"byteLength":5663,"mode":"ATTRIBUTES","byteStride":8,"count":919}}},{"buffer":1,"byteOffset":44992,"byteLength":18816,"target":34962,"byteStride":4,"extensions":{"EXT_meshopt_compression":{"buffer":0,"byteOffset":20396,"byteLength":329,"mode":"ATTRIBUTES","byteStride":4,"count":4704}}},{"buffer":1,"byteOffset":63808,"byteLength":37632,"target":34962,"byteStride":8,"extensions":{"EXT_meshopt_compression":{"buffer":0,"byteOffset":20728,"byteLength":28820,"mode":"ATTRIBUTES","byteStride":8,"count":4704}}},{"buffer":1,"byteOffset":101440,"byteLength":37632,"target":34962,"byteStride":8,"extensions":{"EXT_meshopt_compression":{"buffer":0,"byteOffset":49548,"byteLength":28784,"mode":"ATTRIBUTES","byteStride":8,"count":4704}}},{"buffer":1,"byteOffset":139072,"byteLength":18816,"target":34962,"byteStride":4,"extensions":{"EXT_meshopt_compression":{"buffer":0,"byteOffset":78332,"byteLength":14239,"mode":"ATTRIBUTES","byteStride":4,"count":4704}}}],"samplers":[{"magFilter":9729,"minFilter":9987,"wrapS":10497,"wrapT":10497}],"textures":[{"sampler":0,"extensions":{"EXT_texture_webp":{"source":1}}},{"sampler":0,"extensions":{"EXT_texture_webp":{"source":0}}},{"sampler":0,"extensions":{"EXT_texture_webp":{"source":2}}}],"images":[{"name":"Bark_TwistedTree_Normal","mimeType":"image/webp","uri":"../../textures/3a34b6327d8e2501.webp"},{"name":"Bark_TwistedTree","mimeType":"image/webp","uri":"../../textures/c41a7f788b411ad7.webp"},{"name":"Leaves_TwistedTree_C","mimeType":"image/webp","uri":"../../textures/5a1e14bf0272cb1b.webp"}],"buffers":[{"uri":"TwistedTree_1@lod.bin","byteLength":92572},{"byteLength":157888,"extensions":{"EXT_meshopt_compression":{"fallback":true}}}],"materials":[{"name":"Bark_TwistedTree","doubleSided":true,"pbrMetallicRoughness":{"metallicFactor":0,"baseColorTexture":{"index":0}},"normalTexture":{"index":1}},{"name":"Leaves_TwistedTree","alphaMode":"MASK","alphaCutoff":0.20000000298023224,"doubleSided":true,"pbrMetallicRoughness":{"metallicFactor":0,"baseColorTexture":{"index":2}}}],"meshes":[{"name":"tree.038","primitives":[{"attributes":{"TEXCOORD_0":1,"COLOR_0":3,"POSITION":4,"NORMAL":5},"mode":4,"material":0,"indices":0},{"attributes":{"COLOR_0":6,"POSITION":7,"NORMAL":8,"TEXCOORD_0":9},"mode":4,"material":1,"indices":2}]}],"nodes":[{"name":"TwistedTree_1","translation":[4.583636283874512,8.16127322614193,-0.9520971775054932],"scale":[8.362747922539711,8.362747922539711,8.362747922539711],"mesh":0},{"name":"pack_root","children":[0]}],"scenes":[{"name":"Scene","nodes":[1]}],"scene":0,"extensionsUsed":["EXT_meshopt_compression","EXT_texture_webp","KHR_mesh_quantization"],"extensionsRequired":["EXT_meshopt_compression","EXT_texture_webp","KHR_mesh_quantization"]}