{"asset":{"generator":"glTF-Transform v4.5.1","version":"2.0"},"accessors":[{"type":"SCALAR","componentType":5123,"count":2631,"normalized":false,"byteOffset":0,"bufferView":0},{"type":"VEC2","componentType":5126,"count":909,"normalized":false,"byteOffset":0,"bufferView":1},{"type":"SCALAR","componentType":5123,"count":8100,"normalized":false,"byteOffset":5262,"bufferView":0},{"type":"VEC4","componentType":5121,"count":909,"normalized":true,"byteOffset":0,"bufferView":2},{"type":"VEC3","componentType":5122,"count":909,"max":[17222,28227,17622],"min":[-17222,-32767,-18366],"normalized":true,"byteOffset":0,"bufferView":3},{"type":"VEC3","componentType":5122,"count":909,"normalized":true,"byteOffset":0,"bufferView":4},{"type":"VEC4","componentType":5121,"count":5400,"normalized":true,"byteOffset":0,"bufferView":5},{"type":"VEC3","componentType":5122,"count":5400,"max":[23154,32767,23458],"min":[-23154,-24194,-23458],"normalized":true,"byteOffset":0,"bufferView":6},{"type":"VEC3","componentType":5122,"count":5400,"normalized":true,"byteOffset":0,"bufferView":7},{"type":"VEC2","componentType":5123,"count":5400,"normalized":true,"byteOffset":0,"bufferView":8}],"bufferViews":[{"buffer":1,"byteOffset":0,"byteLength":21462,"target":34963,"extensions":{"EXT_meshopt_compression":{"buffer":0,"byteOffset":0,"byteLength":3736,"mode":"TRIANGLES","byteStride":2,"count":10731}}},{"buffer":1,"byteOffset":21464,"byteLength":7272,"target":34962,"byteStride":8,"extensions":{"EXT_meshopt_compression":{"buffer":0,"byteOffset":3736,"byteLength":6213,"mode":"ATTRIBUTES","byteStride":8,"count":909}}},{"buffer":1,"byteOffset":28736,"byteLength":3636,"target":34962,"byteStride":4,"extensions":{"EXT_meshopt_compression":{"buffer":0,"byteOffset":9952,"byteLength":240,"mode":"ATTRIBUTES","byteStride":4,"count":909}}},{"buffer":1,"byteOffset":32372,"byteLength":7272,"target":34962,"byteStride":8,"extensions":{"EXT_meshopt_compression":{"buffer":0,"byteOffset":10192,"byteLength":4768,"mode":"ATTRIBUTES","byteStride":8,"count":909}}},{"buffer":1,"byteOffset":39644,"byteLength":7272,"target":34962,"byteStride":8,"extensions":{"EXT_meshopt_compression":{"buffer":0,"byteOffset":14960,"byteLength":5596,"mode":"ATTRIBUTES","byteStride":8,"count":909}}},{"buffer":1,"byteOffset":46916,"byteLength":21600,"target":34962,"byteStride":4,"extensions":{"EXT_meshopt_compression":{"buffer":0,"byteOffset":20556,"byteLength":373,"mode":"ATTRIBUTES","byteStride":4,"count":5400}}},{"buffer":1,"byteOffset":68516,"byteLength":43200,"target":34962,"byteStride":8,"extensions":{"EXT_meshopt_compression":{"buffer":0,"byteOffset":20932,"byteLength":33064,"mode":"ATTRIBUTES","byteStride":8,"count":5400}}},{"buffer":1,"byteOffset":111716,"byteLength":43200,"target":34962,"byteStride":8,"extensions":{"EXT_meshopt_compression":{"buffer":0,"byteOffset":53996,"byteLength":33113,"mode":"ATTRIBUTES","byteStride":8,"count":5400}}},{"buffer":1,"byteOffset":154916,"byteLength":21600,"target":34962,"byteStride":4,"extensions":{"EXT_meshopt_compression":{"buffer":0,"byteOffset":87112,"byteLength":16347,"mode":"ATTRIBUTES","byteStride":4,"count":5400}}}],"samplers":[{"magFilter":9729,"minFilter":9987,"wrapS":10497,"wrapT":10497}],"textures":[{"sampler":0,"extensions":{"EXT_texture_webp":{"source":1}}},{"sampler":0,"extensions":{"EXT_texture_webp":{"source":0}}},{"sampler":0,"extensions":{"EXT_texture_webp":{"source":2}}}],"images":[{"name":"Bark_TwistedTree_Normal","mimeType":"image/webp","uri":"../../textures/3a34b6327d8e2501.webp"},{"name":"Bark_TwistedTree","mimeType":"image/webp","uri":"../../textures/c41a7f788b411ad7.webp"},{"name":"Leaves_TwistedTree_C","mimeType":"image/webp","uri":"../../textures/5a1e14bf0272cb1b.webp"}],"buffers":[{"uri":"TwistedTree_3@lod.bin","byteLength":103460},{"byteLength":176516,"extensions":{"EXT_meshopt_compression":{"fallback":true}}}],"materials":[{"name":"Bark_TwistedTree","doubleSided":true,"pbrMetallicRoughness":{"metallicFactor":0,"baseColorTexture":{"index":0}},"normalTexture":{"index":1}},{"name":"Leaves_TwistedTree","alphaMode":"MASK","alphaCutoff":0.20000000298023224,"doubleSided":true,"pbrMetallicRoughness":{"metallicFactor":0,"baseColorTexture":{"index":2}}}],"meshes":[{"name":"tree.040","primitives":[{"attributes":{"TEXCOORD_0":1,"COLOR_0":3,"POSITION":4,"NORMAL":5},"mode":4,"material":0,"indices":0},{"attributes":{"COLOR_0":6,"POSITION":7,"NORMAL":8,"TEXCOORD_0":9},"mode":4,"material":1,"indices":2}]}],"nodes":[{"name":"TwistedTree_3","translation":[1.1887285709381104,7.834795705974102,-0.7672805786132812],"scale":[8.036270387470722,8.036270387470722,8.036270387470722],"mesh":0},{"name":"pack_root","children":[0]}],"scenes":[{"name":"Scene","nodes":[1]}],"scene":0,"extensionsUsed":["EXT_meshopt_compression","EXT_texture_webp","KHR_mesh_quantization"],"extensionsRequired":["EXT_meshopt_compression","EXT_texture_webp","KHR_mesh_quantization"]}