{"asset":{"generator":"glTF-Transform v4.5.1","version":"2.0"},"accessors":[{"type":"SCALAR","componentType":5123,"count":20700,"normalized":false,"byteOffset":0,"bufferView":0},{"type":"VEC2","componentType":5126,"count":9176,"normalized":false,"byteOffset":0,"bufferView":1},{"type":"SCALAR","componentType":5123,"count":8100,"normalized":false,"byteOffset":41400,"bufferView":0},{"type":"VEC4","componentType":5121,"count":9176,"normalized":true,"byteOffset":0,"bufferView":2},{"type":"VEC3","componentType":5122,"count":9176,"max":[13785,28627,14945],"min":[-12573,-32767,-15785],"normalized":true,"byteOffset":0,"bufferView":3},{"type":"VEC3","componentType":5122,"count":9176,"normalized":true,"byteOffset":0,"bufferView":4},{"type":"VEC4","componentType":5121,"count":5400,"normalized":true,"byteOffset":0,"bufferView":5},{"type":"VEC3","componentType":5122,"count":5400,"max":[18154,32767,19750],"min":[-18154,-24607,-19750],"normalized":true,"byteOffset":0,"bufferView":6},{"type":"VEC3","componentType":5122,"count":5400,"normalized":true,"byteOffset":0,"bufferView":7},{"type":"VEC2","componentType":5123,"count":5400,"normalized":true,"byteOffset":0,"bufferView":8}],"bufferViews":[{"buffer":1,"byteOffset":0,"byteLength":57600,"target":34963,"extensions":{"EXT_meshopt_compression":{"buffer":0,"byteOffset":0,"byteLength":12789,"mode":"TRIANGLES","byteStride":2,"count":28800}}},{"buffer":1,"byteOffset":57600,"byteLength":73408,"target":34962,"byteStride":8,"extensions":{"EXT_meshopt_compression":{"buffer":0,"byteOffset":12792,"byteLength":55555,"mode":"ATTRIBUTES","byteStride":8,"count":9176}}},{"buffer":1,"byteOffset":131008,"byteLength":36704,"target":34962,"byteStride":4,"extensions":{"EXT_meshopt_compression":{"buffer":0,"byteOffset":68348,"byteLength":1553,"mode":"ATTRIBUTES","byteStride":4,"count":9176}}},{"buffer":1,"byteOffset":167712,"byteLength":73408,"target":34962,"byteStride":8,"extensions":{"EXT_meshopt_compression":{"buffer":0,"byteOffset":69904,"byteLength":41148,"mode":"ATTRIBUTES","byteStride":8,"count":9176}}},{"buffer":1,"byteOffset":241120,"byteLength":73408,"target":34962,"byteStride":8,"extensions":{"EXT_meshopt_compression":{"buffer":0,"byteOffset":111052,"byteLength":56037,"mode":"ATTRIBUTES","byteStride":8,"count":9176}}},{"buffer":1,"byteOffset":314528,"byteLength":21600,"target":34962,"byteStride":4,"extensions":{"EXT_meshopt_compression":{"buffer":0,"byteOffset":167092,"byteLength":373,"mode":"ATTRIBUTES","byteStride":4,"count":5400}}},{"buffer":1,"byteOffset":336128,"byteLength":43200,"target":34962,"byteStride":8,"extensions":{"EXT_meshopt_compression":{"buffer":0,"byteOffset":167468,"byteLength":32944,"mode":"ATTRIBUTES","byteStride":8,"count":5400}}},{"buffer":1,"byteOffset":379328,"byteLength":43200,"target":34962,"byteStride":8,"extensions":{"EXT_meshopt_compression":{"buffer":0,"byteOffset":200412,"byteLength":33092,"mode":"ATTRIBUTES","byteStride":8,"count":5400}}},{"buffer":1,"byteOffset":422528,"byteLength":21600,"target":34962,"byteStride":4,"extensions":{"EXT_meshopt_compression":{"buffer":0,"byteOffset":233504,"byteLength":16351,"mode":"ATTRIBUTES","byteStride":4,"count":5400}}}],"samplers":[{"magFilter":9729,"minFilter":9987,"wrapS":10497,"wrapT":10497}],"textures":[{"sampler":0,"extensions":{"EXT_texture_webp":{"source":1}}},{"sampler":0,"extensions":{"EXT_texture_webp":{"source":0}}},{"sampler":0,"extensions":{"EXT_texture_webp":{"source":2}}}],"images":[{"name":"Bark_TwistedTree_Normal","mimeType":"image/webp","uri":"../../textures/3a34b6327d8e2501.webp"},{"name":"Bark_TwistedTree","mimeType":"image/webp","uri":"../../textures/c41a7f788b411ad7.webp"},{"name":"Leaves_TwistedTree_C","mimeType":"image/webp","uri":"../../textures/5a1e14bf0272cb1b.webp"}],"buffers":[{"uri":"TwistedTree_4.bin","byteLength":249856},{"byteLength":444128,"extensions":{"EXT_meshopt_compression":{"fallback":true}}}],"materials":[{"name":"Bark_TwistedTree","doubleSided":true,"pbrMetallicRoughness":{"metallicFactor":0,"baseColorTexture":{"index":0}},"normalTexture":{"index":1}},{"name":"Leaves_TwistedTree","alphaMode":"MASK","alphaCutoff":0.20000000298023224,"doubleSided":true,"pbrMetallicRoughness":{"metallicFactor":0,"baseColorTexture":{"index":2}}}],"meshes":[{"name":"tree.041","primitives":[{"attributes":{"TEXCOORD_0":1,"COLOR_0":3,"POSITION":4,"NORMAL":5},"mode":4,"material":0,"indices":0},{"attributes":{"COLOR_0":6,"POSITION":7,"NORMAL":8,"TEXCOORD_0":9},"mode":4,"material":1,"indices":2}]}],"nodes":[{"name":"TwistedTree_4","translation":[0.8630857467651367,9.167642824351788,-1.4962515830993652],"scale":[9.369117505848408,9.369117505848408,9.369117505848408],"mesh":0},{"name":"pack_root","children":[0]}],"scenes":[{"name":"Scene","nodes":[1]}],"scene":0,"extensionsUsed":["EXT_meshopt_compression","EXT_texture_webp","KHR_mesh_quantization"],"extensionsRequired":["EXT_meshopt_compression","EXT_texture_webp","KHR_mesh_quantization"]}