{"asset":{"generator":"glTF-Transform v4.5.1","version":"2.0"},"accessors":[{"type":"SCALAR","componentType":5123,"count":2421,"normalized":false,"byteOffset":0,"bufferView":0},{"type":"VEC2","componentType":5126,"count":837,"normalized":false,"byteOffset":0,"bufferView":1},{"type":"SCALAR","componentType":5123,"count":7032,"normalized":false,"byteOffset":4842,"bufferView":0},{"type":"VEC2","componentType":5126,"count":4688,"normalized":false,"byteOffset":0,"bufferView":2},{"type":"VEC4","componentType":5121,"count":837,"normalized":true,"byteOffset":0,"bufferView":3},{"type":"VEC3","componentType":5122,"count":837,"max":[15073,28667,10605],"min":[-14165,-32767,-11361],"normalized":true,"byteOffset":0,"bufferView":4},{"type":"VEC3","componentType":5122,"count":837,"normalized":true,"byteOffset":0,"bufferView":5},{"type":"VEC4","componentType":5121,"count":4688,"normalized":true,"byteOffset":0,"bufferView":6},{"type":"VEC3","componentType":5122,"count":4688,"max":[18266,32767,15913],"min":[-18266,-16534,-15913],"normalized":true,"byteOffset":0,"bufferView":7},{"type":"VEC3","componentType":5122,"count":4688,"normalized":true,"byteOffset":0,"bufferView":8}],"bufferViews":[{"buffer":1,"byteOffset":0,"byteLength":18906,"target":34963,"extensions":{"EXT_meshopt_compression":{"buffer":0,"byteOffset":0,"byteLength":3304,"mode":"TRIANGLES","byteStride":2,"count":9453}}},{"buffer":1,"byteOffset":18908,"byteLength":6696,"target":34962,"byteStride":8,"extensions":{"EXT_meshopt_compression":{"buffer":0,"byteOffset":3304,"byteLength":5703,"mode":"ATTRIBUTES","byteStride":8,"count":837}}},{"buffer":1,"byteOffset":25604,"byteLength":37504,"target":34962,"byteStride":8,"extensions":{"EXT_meshopt_compression":{"buffer":0,"byteOffset":9008,"byteLength":29915,"mode":"ATTRIBUTES","byteStride":8,"count":4688}}},{"buffer":1,"byteOffset":63108,"byteLength":3348,"target":34962,"byteStride":4,"extensions":{"EXT_meshopt_compression":{"buffer":0,"byteOffset":38924,"byteLength":230,"mode":"ATTRIBUTES","byteStride":4,"count":837}}},{"buffer":1,"byteOffset":66456,"byteLength":6696,"target":34962,"byteStride":8,"extensions":{"EXT_meshopt_compression":{"buffer":0,"byteOffset":39156,"byteLength":4478,"mode":"ATTRIBUTES","byteStride":8,"count":837}}},{"buffer":1,"byteOffset":73152,"byteLength":6696,"target":34962,"byteStride":8,"extensions":{"EXT_meshopt_compression":{"buffer":0,"byteOffset":43636,"byteLength":5172,"mode":"ATTRIBUTES","byteStride":8,"count":837}}},{"buffer":1,"byteOffset":79848,"byteLength":18752,"target":34962,"byteStride":4,"extensions":{"EXT_meshopt_compression":{"buffer":0,"byteOffset":48808,"byteLength":329,"mode":"ATTRIBUTES","byteStride":4,"count":4688}}},{"buffer":1,"byteOffset":98600,"byteLength":37504,"target":34962,"byteStride":8,"extensions":{"EXT_meshopt_compression":{"buffer":0,"byteOffset":49140,"byteLength":28616,"mode":"ATTRIBUTES","byteStride":8,"count":4688}}},{"buffer":1,"byteOffset":136104,"byteLength":37504,"target":34962,"byteStride":8,"extensions":{"EXT_meshopt_compression":{"buffer":0,"byteOffset":77756,"byteLength":28511,"mode":"ATTRIBUTES","byteStride":8,"count":4688}}}],"samplers":[{"magFilter":9729,"minFilter":9987,"wrapS":10497,"wrapT":10497}],"textures":[{"sampler":0,"extensions":{"EXT_texture_webp":{"source":1}}},{"sampler":0,"extensions":{"EXT_texture_webp":{"source":0}}},{"sampler":0,"extensions":{"EXT_texture_webp":{"source":2}}}],"images":[{"name":"Bark_TwistedTree_Normal","mimeType":"image/webp","uri":"../../textures/3a34b6327d8e2501.webp"},{"name":"Bark_TwistedTree","mimeType":"image/webp","uri":"../../textures/c41a7f788b411ad7.webp"},{"name":"Leaves_TwistedTree_C","mimeType":"image/webp","uri":"../../textures/5a1e14bf0272cb1b.webp"}],"buffers":[{"uri":"TwistedTree_2@lod.bin","byteLength":106268},{"byteLength":173608,"extensions":{"EXT_meshopt_compression":{"fallback":true}}}],"materials":[{"name":"Bark_TwistedTree","doubleSided":true,"pbrMetallicRoughness":{"metallicFactor":0,"baseColorTexture":{"index":0}},"normalTexture":{"index":1}},{"name":"Leaves_TwistedTree","alphaMode":"MASK","alphaCutoff":0.20000000298023224,"doubleSided":true,"pbrMetallicRoughness":{"metallicFactor":0,"baseColorTexture":{"index":2}}}],"meshes":[{"name":"tree.039","primitives":[{"attributes":{"TEXCOORD_0":1,"COLOR_0":4,"POSITION":5,"NORMAL":6},"mode":4,"material":0,"indices":0},{"attributes":{"TEXCOORD_0":3,"COLOR_0":7,"POSITION":8,"NORMAL":9},"mode":4,"material":1,"indices":2}]}],"nodes":[{"name":"TwistedTree_2","translation":[-1.3385341167449951,9.27312683314085,-0.9394241571426392],"scale":[9.47460151463747,9.47460151463747,9.47460151463747],"mesh":0},{"name":"pack_root","children":[0]}],"scenes":[{"name":"Scene","nodes":[1]}],"scene":0,"extensionsUsed":["EXT_meshopt_compression","EXT_texture_webp","KHR_mesh_quantization"],"extensionsRequired":["EXT_meshopt_compression","EXT_texture_webp","KHR_mesh_quantization"]}