{"asset":{"generator":"glTF-Transform v4.5.1","version":"2.0"},"accessors":[{"type":"SCALAR","componentType":5123,"count":2106,"normalized":false,"byteOffset":0,"bufferView":0},{"type":"VEC2","componentType":5126,"count":554,"normalized":false,"byteOffset":0,"bufferView":1},{"type":"SCALAR","componentType":5123,"count":144,"normalized":false,"byteOffset":4212,"bufferView":0},{"type":"VEC3","componentType":5122,"count":554,"max":[32767,16846,12165],"min":[-32767,-16846,-12165],"normalized":true,"byteOffset":0,"bufferView":2},{"type":"VEC3","componentType":5122,"count":554,"normalized":true,"byteOffset":0,"bufferView":3},{"type":"VEC3","componentType":5122,"count":56,"max":[5632,-9245,12165],"min":[-11965,-16846,-12165],"normalized":true,"byteOffset":0,"bufferView":4},{"type":"VEC3","componentType":5122,"count":56,"normalized":true,"byteOffset":0,"bufferView":5},{"type":"VEC2","componentType":5123,"count":56,"normalized":true,"byteOffset":0,"bufferView":6}],"bufferViews":[{"buffer":1,"byteOffset":0,"byteLength":4500,"target":34963,"extensions":{"EXT_meshopt_compression":{"buffer":0,"byteOffset":0,"byteLength":816,"mode":"TRIANGLES","byteStride":2,"count":2250}}},{"buffer":1,"byteOffset":4500,"byteLength":4432,"target":34962,"byteStride":8,"extensions":{"EXT_meshopt_compression":{"buffer":0,"byteOffset":816,"byteLength":3281,"mode":"ATTRIBUTES","byteStride":8,"count":554}}},{"buffer":1,"byteOffset":8932,"byteLength":4432,"target":34962,"byteStride":8,"extensions":{"EXT_meshopt_compression":{"buffer":0,"byteOffset":4100,"byteLength":2765,"mode":"ATTRIBUTES","byteStride":8,"count":554}}},{"buffer":1,"byteOffset":13364,"byteLength":4432,"target":34962,"byteStride":8,"extensions":{"EXT_meshopt_compression":{"buffer":0,"byteOffset":6868,"byteLength":1961,"mode":"ATTRIBUTES","byteStride":8,"count":554}}},{"buffer":1,"byteOffset":17796,"byteLength":448,"target":34962,"byteStride":8,"extensions":{"EXT_meshopt_compression":{"buffer":0,"byteOffset":8832,"byteLength":312,"mode":"ATTRIBUTES","byteStride":8,"count":56}}},{"buffer":1,"byteOffset":18244,"byteLength":448,"target":34962,"byteStride":8,"extensions":{"EXT_meshopt_compression":{"buffer":0,"byteOffset":9144,"byteLength":244,"mode":"ATTRIBUTES","byteStride":8,"count":56}}},{"buffer":1,"byteOffset":18692,"byteLength":224,"target":34962,"byteStride":4,"extensions":{"EXT_meshopt_compression":{"buffer":0,"byteOffset":9388,"byteLength":221,"mode":"ATTRIBUTES","byteStride":4,"count":56}}}],"samplers":[{"magFilter":9729,"minFilter":9987,"wrapS":10497,"wrapT":10497}],"textures":[{"sampler":0,"extensions":{"EXT_texture_webp":{"source":1}}},{"sampler":0,"extensions":{"EXT_texture_webp":{"source":0}}},{"sampler":0,"extensions":{"EXT_texture_webp":{"source":2}}}],"images":[{"name":"T_Trim_Metal_Normal","mimeType":"image/webp","uri":"../../../textures/81ac30aa058a108e.webp"},{"name":"T_Trim_Metal_BaseColor","mimeType":"image/webp","uri":"../../../textures/05903e5ec4b6be65.webp"},{"name":"T_Trim_Metal_ORM","mimeType":"image/webp","uri":"../../../textures/638ce4ce0e4c9f8e.webp"}],"buffers":[{"uri":"Anvil.bin","byteLength":9612},{"byteLength":18916,"extensions":{"EXT_meshopt_compression":{"fallback":true}}}],"materials":[{"name":"MI_Trim_Metal","doubleSided":true,"pbrMetallicRoughness":{"baseColorTexture":{"index":0},"metallicRoughnessTexture":{"index":2}},"normalTexture":{"index":1}}],"meshes":[{"name":"Cube.025","primitives":[{"attributes":{"TEXCOORD_0":1,"POSITION":3,"NORMAL":4},"mode":4,"material":0,"indices":0},{"attributes":{"POSITION":5,"NORMAL":6,"TEXCOORD_0":7},"mode":4,"material":0,"indices":2}]}],"nodes":[{"name":"Anvil","translation":[0.06136505305767059,0.2806979623856023,0],"scale":[0.5407800227403641,0.5407800227403641,0.5407800227403641],"mesh":0},{"name":"pack_root","children":[0]}],"scenes":[{"name":"Scene","nodes":[1]}],"scene":0,"extensionsUsed":["EXT_meshopt_compression","EXT_texture_webp","KHR_mesh_quantization"],"extensionsRequired":["EXT_meshopt_compression","EXT_texture_webp","KHR_mesh_quantization"]}