{"asset":{"generator":"glTF-Transform v4.5.1","version":"2.0"},"accessors":[{"type":"SCALAR","componentType":5123,"count":1710,"normalized":false,"byteOffset":0,"bufferView":0},{"type":"SCALAR","componentType":5123,"count":864,"normalized":false,"byteOffset":3420,"bufferView":0},{"type":"VEC4","componentType":5121,"count":361,"normalized":true,"byteOffset":0,"bufferView":1},{"type":"VEC3","componentType":5122,"count":361,"max":[26863,32767,22322],"min":[-26863,-32767,-22322],"normalized":true,"byteOffset":0,"bufferView":2},{"type":"VEC3","componentType":5122,"count":361,"normalized":true,"byteOffset":0,"bufferView":3},{"type":"VEC2","componentType":5123,"count":361,"normalized":true,"byteOffset":0,"bufferView":4},{"type":"VEC4","componentType":5121,"count":190,"normalized":true,"byteOffset":0,"bufferView":5},{"type":"VEC3","componentType":5122,"count":190,"max":[6152,21854,5740],"min":[-7312,16237,-7236],"normalized":true,"byteOffset":0,"bufferView":6},{"type":"VEC3","componentType":5122,"count":190,"normalized":true,"byteOffset":0,"bufferView":7},{"type":"VEC2","componentType":5123,"count":190,"normalized":true,"byteOffset":0,"bufferView":8}],"bufferViews":[{"buffer":1,"byteOffset":0,"byteLength":5148,"target":34963,"extensions":{"EXT_meshopt_compression":{"buffer":0,"byteOffset":0,"byteLength":949,"mode":"TRIANGLES","byteStride":2,"count":2574}}},{"buffer":1,"byteOffset":5148,"byteLength":1444,"target":34962,"byteStride":4,"extensions":{"EXT_meshopt_compression":{"buffer":0,"byteOffset":952,"byteLength":57,"mode":"ATTRIBUTES","byteStride":4,"count":361}}},{"buffer":1,"byteOffset":6592,"byteLength":2888,"target":34962,"byteStride":8,"extensions":{"EXT_meshopt_compression":{"buffer":0,"byteOffset":1012,"byteLength":2128,"mode":"ATTRIBUTES","byteStride":8,"count":361}}},{"buffer":1,"byteOffset":9480,"byteLength":2888,"target":34962,"byteStride":8,"extensions":{"EXT_meshopt_compression":{"buffer":0,"byteOffset":3140,"byteLength":2261,"mode":"ATTRIBUTES","byteStride":8,"count":361}}},{"buffer":1,"byteOffset":12368,"byteLength":1444,"target":34962,"byteStride":4,"extensions":{"EXT_meshopt_compression":{"buffer":0,"byteOffset":5404,"byteLength":1174,"mode":"ATTRIBUTES","byteStride":4,"count":361}}},{"buffer":1,"byteOffset":13812,"byteLength":760,"target":34962,"byteStride":4,"extensions":{"EXT_meshopt_compression":{"buffer":0,"byteOffset":6580,"byteLength":45,"mode":"ATTRIBUTES","byteStride":4,"count":190}}},{"buffer":1,"byteOffset":14572,"byteLength":1520,"target":34962,"byteStride":8,"extensions":{"EXT_meshopt_compression":{"buffer":0,"byteOffset":6628,"byteLength":1021,"mode":"ATTRIBUTES","byteStride":8,"count":190}}},{"buffer":1,"byteOffset":16092,"byteLength":1520,"target":34962,"byteStride":8,"extensions":{"EXT_meshopt_compression":{"buffer":0,"byteOffset":7652,"byteLength":1208,"mode":"ATTRIBUTES","byteStride":8,"count":190}}},{"buffer":1,"byteOffset":17612,"byteLength":760,"target":34962,"byteStride":4,"extensions":{"EXT_meshopt_compression":{"buffer":0,"byteOffset":8860,"byteLength":698,"mode":"ATTRIBUTES","byteStride":4,"count":190}}}],"samplers":[{"magFilter":9729,"minFilter":9987,"wrapS":10497,"wrapT":10497}],"textures":[{"sampler":0,"extensions":{"EXT_texture_webp":{"source":1}}},{"sampler":0,"extensions":{"EXT_texture_webp":{"source":0}}},{"sampler":0,"extensions":{"EXT_texture_webp":{"source":2}}},{"sampler":0,"extensions":{"EXT_texture_webp":{"source":4}}},{"sampler":0,"extensions":{"EXT_texture_webp":{"source":3}}},{"sampler":0,"extensions":{"EXT_texture_webp":{"source":5}}}],"images":[{"name":"T_Trim_Cloth_Normal","mimeType":"image/webp","uri":"../../../textures/e944d4b7eaea8888.webp"},{"name":"T_Trim_Cloth_BaseColor","mimeType":"image/webp","uri":"../../../textures/b27bd8fc8be0f7b3.webp"},{"name":"T_Trim_Cloth_ORM","mimeType":"image/webp","uri":"../../../textures/b293f807d8d04537.webp"},{"name":"T_Trim_Furniture_Normal","mimeType":"image/webp","uri":"../../../textures/3ebbdf3b0c251e17.webp"},{"name":"T_Trim_Furniture_BaseColor","mimeType":"image/webp","uri":"../../../textures/2b0af78966d58c77.webp"},{"name":"T_Trim_Furniture_ORM","mimeType":"image/webp","uri":"../../../textures/ecfbb27dbfcb547b.webp"}],"buffers":[{"uri":"Bag.bin","byteLength":9560},{"byteLength":18372,"extensions":{"EXT_meshopt_compression":{"fallback":true}}}],"materials":[{"name":"MI_Trim_Cloth","doubleSided":true,"pbrMetallicRoughness":{"baseColorTexture":{"index":0},"metallicRoughnessTexture":{"index":2}},"normalTexture":{"index":1}},{"name":"MI_Trim_Furniture","doubleSided":true,"pbrMetallicRoughness":{"baseColorTexture":{"index":3},"metallicRoughnessTexture":{"index":5}},"normalTexture":{"index":4}}],"meshes":[{"name":"Cube_Retopology.002","primitives":[{"attributes":{"COLOR_0":2,"POSITION":3,"NORMAL":4,"TEXCOORD_0":5},"mode":4,"material":0,"indices":0},{"attributes":{"COLOR_0":6,"POSITION":7,"NORMAL":8,"TEXCOORD_0":9},"mode":4,"material":1,"indices":1}]}],"nodes":[{"name":"Bag","translation":[-0.0021847188472747803,0.40199324185959995,0.0282936692237854],"scale":[0.3995762795675546,0.3995762795675546,0.3995762795675546],"mesh":0},{"name":"pack_root","children":[0]}],"scenes":[{"name":"Scene","nodes":[1]}],"scene":0,"extensionsUsed":["EXT_meshopt_compression","EXT_texture_webp","KHR_mesh_quantization"],"extensionsRequired":["EXT_meshopt_compression","EXT_texture_webp","KHR_mesh_quantization"]}