{"asset":{"generator":"glTF-Transform v4.5.1","version":"2.0"},"accessors":[{"type":"SCALAR","componentType":5123,"count":1176,"normalized":false,"byteOffset":0,"bufferView":0},{"type":"SCALAR","componentType":5123,"count":1296,"normalized":false,"byteOffset":2352,"bufferView":0},{"type":"VEC2","componentType":5126,"count":726,"normalized":false,"byteOffset":0,"bufferView":1},{"type":"VEC4","componentType":5121,"count":579,"normalized":true,"byteOffset":0,"bufferView":2},{"type":"VEC3","componentType":5122,"count":579,"max":[25399,32767,25399],"min":[-25399,-32767,-25399],"normalized":true,"byteOffset":0,"bufferView":3},{"type":"VEC3","componentType":5122,"count":579,"normalized":true,"byteOffset":0,"bufferView":4},{"type":"VEC2","componentType":5123,"count":579,"normalized":true,"byteOffset":0,"bufferView":5},{"type":"VEC4","componentType":5121,"count":726,"normalized":true,"byteOffset":0,"bufferView":6},{"type":"VEC3","componentType":5122,"count":726,"max":[25471,20474,25471],"min":[-25471,-22106,-25471],"normalized":true,"byteOffset":0,"bufferView":7},{"type":"VEC3","componentType":5122,"count":726,"normalized":true,"byteOffset":0,"bufferView":8}],"bufferViews":[{"buffer":1,"byteOffset":0,"byteLength":4944,"target":34963,"extensions":{"EXT_meshopt_compression":{"buffer":0,"byteOffset":0,"byteLength":858,"mode":"TRIANGLES","byteStride":2,"count":2472}}},{"buffer":1,"byteOffset":4944,"byteLength":5808,"target":34962,"byteStride":8,"extensions":{"EXT_meshopt_compression":{"buffer":0,"byteOffset":860,"byteLength":4256,"mode":"ATTRIBUTES","byteStride":8,"count":726}}},{"buffer":1,"byteOffset":10752,"byteLength":2316,"target":34962,"byteStride":4,"extensions":{"EXT_meshopt_compression":{"buffer":0,"byteOffset":5116,"byteLength":478,"mode":"ATTRIBUTES","byteStride":4,"count":579}}},{"buffer":1,"byteOffset":13068,"byteLength":4632,"target":34962,"byteStride":8,"extensions":{"EXT_meshopt_compression":{"buffer":0,"byteOffset":5596,"byteLength":3128,"mode":"ATTRIBUTES","byteStride":8,"count":579}}},{"buffer":1,"byteOffset":17700,"byteLength":4632,"target":34962,"byteStride":8,"extensions":{"EXT_meshopt_compression":{"buffer":0,"byteOffset":8724,"byteLength":2493,"mode":"ATTRIBUTES","byteStride":8,"count":579}}},{"buffer":1,"byteOffset":22332,"byteLength":2316,"target":34962,"byteStride":4,"extensions":{"EXT_meshopt_compression":{"buffer":0,"byteOffset":11220,"byteLength":1881,"mode":"ATTRIBUTES","byteStride":4,"count":579}}},{"buffer":1,"byteOffset":24648,"byteLength":2904,"target":34962,"byteStride":4,"extensions":{"EXT_meshopt_compression":{"buffer":0,"byteOffset":13104,"byteLength":81,"mode":"ATTRIBUTES","byteStride":4,"count":726}}},{"buffer":1,"byteOffset":27552,"byteLength":5808,"target":34962,"byteStride":8,"extensions":{"EXT_meshopt_compression":{"buffer":0,"byteOffset":13188,"byteLength":3975,"mode":"ATTRIBUTES","byteStride":8,"count":726}}},{"buffer":1,"byteOffset":33360,"byteLength":5808,"target":34962,"byteStride":8,"extensions":{"EXT_meshopt_compression":{"buffer":0,"byteOffset":17164,"byteLength":2040,"mode":"ATTRIBUTES","byteStride":8,"count":726}}}],"samplers":[{"magFilter":9729,"minFilter":9987,"wrapS":10497,"wrapT":10497}],"textures":[{"sampler":0,"extensions":{"EXT_texture_webp":{"source":1}}},{"sampler":0,"extensions":{"EXT_texture_webp":{"source":0}}},{"sampler":0,"extensions":{"EXT_texture_webp":{"source":2}}},{"sampler":0,"extensions":{"EXT_texture_webp":{"source":4}}},{"sampler":0,"extensions":{"EXT_texture_webp":{"source":3}}},{"sampler":0,"extensions":{"EXT_texture_webp":{"source":5}}}],"images":[{"name":"T_Trim_Furniture_Normal","mimeType":"image/webp","uri":"../../../textures/3ebbdf3b0c251e17.webp"},{"name":"T_Trim_Furniture_BaseColor","mimeType":"image/webp","uri":"../../../textures/2b0af78966d58c77.webp"},{"name":"T_Trim_Furniture_ORM","mimeType":"image/webp","uri":"../../../textures/ecfbb27dbfcb547b.webp"},{"name":"T_Trim_Metal_Normal","mimeType":"image/webp","uri":"../../../textures/81ac30aa058a108e.webp"},{"name":"T_Trim_Metal_BaseColor","mimeType":"image/webp","uri":"../../../textures/05903e5ec4b6be65.webp"},{"name":"T_Trim_Metal_ORM","mimeType":"image/webp","uri":"../../../textures/638ce4ce0e4c9f8e.webp"}],"buffers":[{"uri":"Barrel.bin","byteLength":19204},{"byteLength":39168,"extensions":{"EXT_meshopt_compression":{"fallback":true}}}],"materials":[{"name":"MI_Trim_Furniture","doubleSided":true,"pbrMetallicRoughness":{"baseColorTexture":{"index":0},"metallicRoughnessTexture":{"index":2}},"normalTexture":{"index":1}},{"name":"MI_Trim_Metal","doubleSided":true,"pbrMetallicRoughness":{"baseColorTexture":{"index":3},"metallicRoughnessTexture":{"index":5}},"normalTexture":{"index":4}}],"meshes":[{"name":"Cylinder","primitives":[{"attributes":{"COLOR_0":3,"POSITION":4,"NORMAL":5,"TEXCOORD_0":6},"mode":4,"material":0,"indices":0},{"attributes":{"TEXCOORD_0":2,"COLOR_0":7,"POSITION":8,"NORMAL":9},"mode":4,"material":1,"indices":1}]}],"nodes":[{"name":"Barrel","translation":[-5.960464477539063e-8,0.45241591334342957,1.4901161193847656e-8],"scale":[0.4489791691303253,0.4489791691303253,0.4489791691303253],"mesh":0},{"name":"pack_root","children":[0]}],"scenes":[{"name":"Scene","nodes":[1]}],"scene":0,"extensionsUsed":["EXT_meshopt_compression","EXT_texture_webp","KHR_mesh_quantization"],"extensionsRequired":["EXT_meshopt_compression","EXT_texture_webp","KHR_mesh_quantization"]}