{"asset":{"generator":"glTF-Transform v4.5.1","version":"2.0"},"accessors":[{"type":"SCALAR","componentType":5123,"count":4032,"normalized":false,"byteOffset":0,"bufferView":0},{"type":"SCALAR","componentType":5123,"count":3996,"normalized":false,"byteOffset":8064,"bufferView":0},{"type":"VEC2","componentType":5126,"count":1854,"normalized":false,"byteOffset":0,"bufferView":1},{"type":"VEC4","componentType":5121,"count":1790,"normalized":true,"byteOffset":0,"bufferView":2},{"type":"VEC3","componentType":5122,"count":1790,"max":[32671,30275,16381],"min":[-32671,-30311,-17862],"normalized":true,"byteOffset":0,"bufferView":3},{"type":"VEC3","componentType":5122,"count":1790,"normalized":true,"byteOffset":0,"bufferView":4},{"type":"VEC2","componentType":5123,"count":1790,"normalized":true,"byteOffset":0,"bufferView":5},{"type":"VEC4","componentType":5121,"count":1854,"normalized":true,"byteOffset":0,"bufferView":6},{"type":"VEC3","componentType":5122,"count":1854,"max":[32767,30311,17862],"min":[-32767,4392,-12437],"normalized":true,"byteOffset":0,"bufferView":7},{"type":"VEC3","componentType":5122,"count":1854,"normalized":true,"byteOffset":0,"bufferView":8}],"bufferViews":[{"buffer":1,"byteOffset":0,"byteLength":16056,"target":34963,"extensions":{"EXT_meshopt_compression":{"buffer":0,"byteOffset":0,"byteLength":2788,"mode":"TRIANGLES","byteStride":2,"count":8028}}},{"buffer":1,"byteOffset":16056,"byteLength":14832,"target":34962,"byteStride":8,"extensions":{"EXT_meshopt_compression":{"buffer":0,"byteOffset":2788,"byteLength":10877,"mode":"ATTRIBUTES","byteStride":8,"count":1854}}},{"buffer":1,"byteOffset":30888,"byteLength":7160,"target":34962,"byteStride":4,"extensions":{"EXT_meshopt_compression":{"buffer":0,"byteOffset":13668,"byteLength":205,"mode":"ATTRIBUTES","byteStride":4,"count":1790}}},{"buffer":1,"byteOffset":38048,"byteLength":14320,"target":34962,"byteStride":8,"extensions":{"EXT_meshopt_compression":{"buffer":0,"byteOffset":13876,"byteLength":8309,"mode":"ATTRIBUTES","byteStride":8,"count":1790}}},{"buffer":1,"byteOffset":52368,"byteLength":14320,"target":34962,"byteStride":8,"extensions":{"EXT_meshopt_compression":{"buffer":0,"byteOffset":22188,"byteLength":5400,"mode":"ATTRIBUTES","byteStride":8,"count":1790}}},{"buffer":1,"byteOffset":66688,"byteLength":7160,"target":34962,"byteStride":4,"extensions":{"EXT_meshopt_compression":{"buffer":0,"byteOffset":27588,"byteLength":5757,"mode":"ATTRIBUTES","byteStride":4,"count":1790}}},{"buffer":1,"byteOffset":73848,"byteLength":7416,"target":34962,"byteStride":4,"extensions":{"EXT_meshopt_compression":{"buffer":0,"byteOffset":33348,"byteLength":149,"mode":"ATTRIBUTES","byteStride":4,"count":1854}}},{"buffer":1,"byteOffset":81264,"byteLength":14832,"target":34962,"byteStride":8,"extensions":{"EXT_meshopt_compression":{"buffer":0,"byteOffset":33500,"byteLength":9355,"mode":"ATTRIBUTES","byteStride":8,"count":1854}}},{"buffer":1,"byteOffset":96096,"byteLength":14832,"target":34962,"byteStride":8,"extensions":{"EXT_meshopt_compression":{"buffer":0,"byteOffset":42856,"byteLength":6055,"mode":"ATTRIBUTES","byteStride":8,"count":1854}}}],"samplers":[{"magFilter":9729,"minFilter":9987,"wrapS":10497,"wrapT":10497}],"textures":[{"sampler":0,"extensions":{"EXT_texture_webp":{"source":1}}},{"sampler":0,"extensions":{"EXT_texture_webp":{"source":0}}},{"sampler":0,"extensions":{"EXT_texture_webp":{"source":2}}},{"sampler":0,"extensions":{"EXT_texture_webp":{"source":4}}},{"sampler":0,"extensions":{"EXT_texture_webp":{"source":3}}},{"sampler":0,"extensions":{"EXT_texture_webp":{"source":5}}}],"images":[{"name":"T_Trim_Furniture_Normal","mimeType":"image/webp","uri":"../../../textures/3ebbdf3b0c251e17.webp"},{"name":"T_Trim_Furniture_BaseColor","mimeType":"image/webp","uri":"../../../textures/2b0af78966d58c77.webp"},{"name":"T_Trim_Furniture_ORM","mimeType":"image/webp","uri":"../../../textures/ecfbb27dbfcb547b.webp"},{"name":"T_Trim_Metal_Normal","mimeType":"image/webp","uri":"../../../textures/81ac30aa058a108e.webp"},{"name":"T_Trim_Metal_BaseColor","mimeType":"image/webp","uri":"../../../textures/05903e5ec4b6be65.webp"},{"name":"T_Trim_Metal_ORM","mimeType":"image/webp","uri":"../../../textures/638ce4ce0e4c9f8e.webp"}],"buffers":[{"uri":"Barrel_Holder.bin","byteLength":48912},{"byteLength":110928,"extensions":{"EXT_meshopt_compression":{"fallback":true}}}],"materials":[{"name":"MI_Trim_Furniture","doubleSided":true,"pbrMetallicRoughness":{"baseColorTexture":{"index":0},"metallicRoughnessTexture":{"index":2}},"normalTexture":{"index":1}},{"name":"MI_Trim_Metal","doubleSided":true,"pbrMetallicRoughness":{"baseColorTexture":{"index":3},"metallicRoughnessTexture":{"index":5}},"normalTexture":{"index":4}}],"meshes":[{"name":"Cube.045","primitives":[{"attributes":{"COLOR_0":3,"POSITION":4,"NORMAL":5,"TEXCOORD_0":6},"mode":4,"material":0,"indices":0},{"attributes":{"TEXCOORD_0":2,"COLOR_0":7,"POSITION":8,"NORMAL":9},"mode":4,"material":1,"indices":1}]}],"nodes":[{"name":"Barrel_Holder","translation":[0,0.6224110790062696,0.018484875559806824],"scale":[0.679623007774353,0.679623007774353,0.679623007774353],"mesh":0},{"name":"pack_root","children":[0]}],"scenes":[{"name":"Scene","nodes":[1]}],"scene":0,"extensionsUsed":["EXT_meshopt_compression","EXT_texture_webp","KHR_mesh_quantization"],"extensionsRequired":["EXT_meshopt_compression","EXT_texture_webp","KHR_mesh_quantization"]}