{"asset":{"generator":"glTF-Transform v4.5.1","version":"2.0"},"accessors":[{"type":"SCALAR","componentType":5123,"count":2988,"normalized":false,"byteOffset":0,"bufferView":0},{"type":"VEC2","componentType":5126,"count":1232,"normalized":false,"byteOffset":0,"bufferView":1},{"type":"SCALAR","componentType":5123,"count":528,"normalized":false,"byteOffset":5976,"bufferView":0},{"type":"SCALAR","componentType":5123,"count":1284,"normalized":false,"byteOffset":7032,"bufferView":0},{"type":"VEC4","componentType":5121,"count":1232,"normalized":true,"byteOffset":0,"bufferView":2},{"type":"VEC3","componentType":5122,"count":1232,"max":[25483,10937,32767],"min":[-25483,-10937,-32767],"normalized":true,"byteOffset":0,"bufferView":3},{"type":"VEC3","componentType":5122,"count":1232,"normalized":true,"byteOffset":0,"bufferView":4},{"type":"VEC4","componentType":5121,"count":160,"normalized":true,"byteOffset":0,"bufferView":5},{"type":"VEC3","componentType":5122,"count":160,"max":[19582,9701,30947],"min":[-19770,-6528,-31151],"normalized":true,"byteOffset":0,"bufferView":6},{"type":"VEC3","componentType":5122,"count":160,"normalized":true,"byteOffset":0,"bufferView":7},{"type":"VEC2","componentType":5123,"count":160,"normalized":true,"byteOffset":0,"bufferView":8},{"type":"VEC4","componentType":5121,"count":302,"normalized":true,"byteOffset":0,"bufferView":9},{"type":"VEC3","componentType":5122,"count":302,"max":[18226,7916,28499],"min":[-18226,-3596,-29647],"normalized":true,"byteOffset":0,"bufferView":10},{"type":"VEC3","componentType":5122,"count":302,"normalized":true,"byteOffset":0,"bufferView":11},{"type":"VEC2","componentType":5123,"count":302,"normalized":true,"byteOffset":0,"bufferView":12}],"bufferViews":[{"buffer":1,"byteOffset":0,"byteLength":9600,"target":34963,"extensions":{"EXT_meshopt_compression":{"buffer":0,"byteOffset":0,"byteLength":1688,"mode":"TRIANGLES","byteStride":2,"count":4800}}},{"buffer":1,"byteOffset":9600,"byteLength":9856,"target":34962,"byteStride":8,"extensions":{"EXT_meshopt_compression":{"buffer":0,"byteOffset":1688,"byteLength":7281,"mode":"ATTRIBUTES","byteStride":8,"count":1232}}},{"buffer":1,"byteOffset":19456,"byteLength":4928,"target":34962,"byteStride":4,"extensions":{"EXT_meshopt_compression":{"buffer":0,"byteOffset":8972,"byteLength":113,"mode":"ATTRIBUTES","byteStride":4,"count":1232}}},{"buffer":1,"byteOffset":24384,"byteLength":9856,"target":34962,"byteStride":8,"extensions":{"EXT_meshopt_compression":{"buffer":0,"byteOffset":9088,"byteLength":5416,"mode":"ATTRIBUTES","byteStride":8,"count":1232}}},{"buffer":1,"byteOffset":34240,"byteLength":9856,"target":34962,"byteStride":8,"extensions":{"EXT_meshopt_compression":{"buffer":0,"byteOffset":14504,"byteLength":3194,"mode":"ATTRIBUTES","byteStride":8,"count":1232}}},{"buffer":1,"byteOffset":44096,"byteLength":640,"target":34962,"byteStride":4,"extensions":{"EXT_meshopt_compression":{"buffer":0,"byteOffset":17700,"byteLength":45,"mode":"ATTRIBUTES","byteStride":4,"count":160}}},{"buffer":1,"byteOffset":44736,"byteLength":1280,"target":34962,"byteStride":8,"extensions":{"EXT_meshopt_compression":{"buffer":0,"byteOffset":17748,"byteLength":769,"mode":"ATTRIBUTES","byteStride":8,"count":160}}},{"buffer":1,"byteOffset":46016,"byteLength":1280,"target":34962,"byteStride":8,"extensions":{"EXT_meshopt_compression":{"buffer":0,"byteOffset":18520,"byteLength":773,"mode":"ATTRIBUTES","byteStride":8,"count":160}}},{"buffer":1,"byteOffset":47296,"byteLength":640,"target":34962,"byteStride":4,"extensions":{"EXT_meshopt_compression":{"buffer":0,"byteOffset":19296,"byteLength":528,"mode":"ATTRIBUTES","byteStride":4,"count":160}}},{"buffer":1,"byteOffset":47936,"byteLength":1208,"target":34962,"byteStride":4,"extensions":{"EXT_meshopt_compression":{"buffer":0,"byteOffset":19824,"byteLength":53,"mode":"ATTRIBUTES","byteStride":4,"count":302}}},{"buffer":1,"byteOffset":49144,"byteLength":2416,"target":34962,"byteStride":8,"extensions":{"EXT_meshopt_compression":{"buffer":0,"byteOffset":19880,"byteLength":1604,"mode":"ATTRIBUTES","byteStride":8,"count":302}}},{"buffer":1,"byteOffset":51560,"byteLength":2416,"target":34962,"byteStride":8,"extensions":{"EXT_meshopt_compression":{"buffer":0,"byteOffset":21484,"byteLength":1730,"mode":"ATTRIBUTES","byteStride":8,"count":302}}},{"buffer":1,"byteOffset":53976,"byteLength":1208,"target":34962,"byteStride":4,"extensions":{"EXT_meshopt_compression":{"buffer":0,"byteOffset":23216,"byteLength":1008,"mode":"ATTRIBUTES","byteStride":4,"count":302}}}],"samplers":[{"magFilter":9729,"minFilter":9987,"wrapS":10497,"wrapT":10497}],"textures":[{"sampler":0,"extensions":{"EXT_texture_webp":{"source":1}}},{"sampler":0,"extensions":{"EXT_texture_webp":{"source":0}}},{"sampler":0,"extensions":{"EXT_texture_webp":{"source":2}}},{"sampler":0,"extensions":{"EXT_texture_webp":{"source":4}}},{"sampler":0,"extensions":{"EXT_texture_webp":{"source":3}}},{"sampler":0,"extensions":{"EXT_texture_webp":{"source":5}}},{"sampler":0,"extensions":{"EXT_texture_webp":{"source":7}}},{"sampler":0,"extensions":{"EXT_texture_webp":{"source":6}}},{"sampler":0,"extensions":{"EXT_texture_webp":{"source":8}}}],"images":[{"name":"T_Trim_Furniture_Normal","mimeType":"image/webp","uri":"../../../textures/3ebbdf3b0c251e17.webp"},{"name":"T_Trim_Furniture_BaseColor","mimeType":"image/webp","uri":"../../../textures/2b0af78966d58c77.webp"},{"name":"T_Trim_Furniture_ORM","mimeType":"image/webp","uri":"../../../textures/ecfbb27dbfcb547b.webp"},{"name":"T_Trim_Metal_Normal","mimeType":"image/webp","uri":"../../../textures/81ac30aa058a108e.webp"},{"name":"T_Trim_Metal_BaseColor","mimeType":"image/webp","uri":"../../../textures/05903e5ec4b6be65.webp"},{"name":"T_Trim_Metal_ORM","mimeType":"image/webp","uri":"../../../textures/638ce4ce0e4c9f8e.webp"},{"name":"T_Trim_Cloth_Normal","mimeType":"image/webp","uri":"../../../textures/e944d4b7eaea8888.webp"},{"name":"T_Trim_Cloth_BaseColor","mimeType":"image/webp","uri":"../../../textures/b27bd8fc8be0f7b3.webp"},{"name":"T_Trim_Cloth_ORM","mimeType":"image/webp","uri":"../../../textures/b293f807d8d04537.webp"}],"buffers":[{"uri":"Bed_Twin1.bin","byteLength":24224},{"byteLength":55184,"extensions":{"EXT_meshopt_compression":{"fallback":true}}}],"materials":[{"name":"MI_Trim_Furniture","doubleSided":true,"pbrMetallicRoughness":{"baseColorTexture":{"index":0},"metallicRoughnessTexture":{"index":2}},"normalTexture":{"index":1}},{"name":"MI_Trim_Metal","doubleSided":true,"pbrMetallicRoughness":{"baseColorTexture":{"index":3},"metallicRoughnessTexture":{"index":5}},"normalTexture":{"index":4}},{"name":"MI_Trim_Cloth","doubleSided":true,"pbrMetallicRoughness":{"baseColorTexture":{"index":6},"metallicRoughnessTexture":{"index":8}},"normalTexture":{"index":7}}],"meshes":[{"name":"Cube.188","primitives":[{"attributes":{"TEXCOORD_0":1,"COLOR_0":4,"POSITION":5,"NORMAL":6},"mode":4,"material":0,"indices":0},{"attributes":{"COLOR_0":7,"POSITION":8,"NORMAL":9,"TEXCOORD_0":10},"mode":4,"material":1,"indices":2},{"attributes":{"COLOR_0":11,"POSITION":12,"NORMAL":13,"TEXCOORD_0":14},"mode":4,"material":2,"indices":3}]}],"nodes":[{"name":"Bed_Twin1","translation":[0,0.4030051083100261,0],"scale":[1.205949068069458,1.205949068069458,1.205949068069458],"mesh":0},{"name":"pack_root","children":[0]}],"scenes":[{"name":"Scene","nodes":[1]}],"scene":0,"extensionsUsed":["EXT_meshopt_compression","EXT_texture_webp","KHR_mesh_quantization"],"extensionsRequired":["EXT_meshopt_compression","EXT_texture_webp","KHR_mesh_quantization"]}