{"asset":{"generator":"glTF-Transform v4.5.1","version":"2.0"},"accessors":[{"type":"SCALAR","componentType":5123,"count":1404,"normalized":false,"byteOffset":0,"bufferView":0},{"type":"VEC2","componentType":5126,"count":648,"normalized":false,"byteOffset":0,"bufferView":1},{"type":"VEC4","componentType":5121,"count":648,"normalized":true,"byteOffset":0,"bufferView":2},{"type":"VEC3","componentType":5122,"count":648,"max":[32767,9273,7784],"min":[-32767,-9273,-7784],"normalized":true,"byteOffset":0,"bufferView":3},{"type":"VEC3","componentType":5122,"count":648,"normalized":true,"byteOffset":0,"bufferView":4}],"bufferViews":[{"buffer":1,"byteOffset":0,"byteLength":2808,"target":34963,"extensions":{"EXT_meshopt_compression":{"buffer":0,"byteOffset":0,"byteLength":485,"mode":"TRIANGLES","byteStride":2,"count":1404}}},{"buffer":1,"byteOffset":2808,"byteLength":5184,"target":34962,"byteStride":8,"extensions":{"EXT_meshopt_compression":{"buffer":0,"byteOffset":488,"byteLength":3981,"mode":"ATTRIBUTES","byteStride":8,"count":648}}},{"buffer":1,"byteOffset":7992,"byteLength":2592,"target":34962,"byteStride":4,"extensions":{"EXT_meshopt_compression":{"buffer":0,"byteOffset":4472,"byteLength":490,"mode":"ATTRIBUTES","byteStride":4,"count":648}}},{"buffer":1,"byteOffset":10584,"byteLength":5184,"target":34962,"byteStride":8,"extensions":{"EXT_meshopt_compression":{"buffer":0,"byteOffset":4964,"byteLength":3315,"mode":"ATTRIBUTES","byteStride":8,"count":648}}},{"buffer":1,"byteOffset":15768,"byteLength":5184,"target":34962,"byteStride":8,"extensions":{"EXT_meshopt_compression":{"buffer":0,"byteOffset":8280,"byteLength":2073,"mode":"ATTRIBUTES","byteStride":8,"count":648}}}],"samplers":[{"magFilter":9729,"minFilter":9987,"wrapS":10497,"wrapT":10497}],"textures":[{"sampler":0,"extensions":{"EXT_texture_webp":{"source":1}}},{"sampler":0,"extensions":{"EXT_texture_webp":{"source":0}}},{"sampler":0,"extensions":{"EXT_texture_webp":{"source":2}}}],"images":[{"name":"T_Trim_Props_Normal","mimeType":"image/webp","uri":"../../../textures/619430ed7226b53f.webp"},{"name":"T_Trim_Props_BaseColor","mimeType":"image/webp","uri":"../../../textures/3b116f820b5f9b7e.webp"},{"name":"T_Trim_Props_ORM","mimeType":"image/webp","uri":"../../../textures/3044d912bf0eca4a.webp"}],"buffers":[{"uri":"BookGroup_Medium_3.bin","byteLength":10356},{"byteLength":20952,"extensions":{"EXT_meshopt_compression":{"fallback":true}}}],"materials":[{"name":"MI_Trim_Props_Vertex","doubleSided":true,"pbrMetallicRoughness":{"baseColorTexture":{"index":0},"metallicRoughnessTexture":{"index":2}},"normalTexture":{"index":1}}],"meshes":[{"name":"Cube.135","primitives":[{"attributes":{"TEXCOORD_0":1,"COLOR_0":2,"POSITION":3,"NORMAL":4},"mode":4,"material":0,"indices":0}]}],"nodes":[{"name":"BookGroup_Medium_3","translation":[-0.007388055324554443,0.14694140444044024,-0.03484753519296646],"scale":[0.520950973033905,0.520950973033905,0.520950973033905],"mesh":0},{"name":"pack_root","children":[0]}],"scenes":[{"name":"Scene","nodes":[1]}],"scene":0,"extensionsUsed":["EXT_meshopt_compression","EXT_texture_webp","KHR_mesh_quantization"],"extensionsRequired":["EXT_meshopt_compression","EXT_texture_webp","KHR_mesh_quantization"]}