{"asset":{"generator":"glTF-Transform v4.5.1","version":"2.0"},"accessors":[{"type":"SCALAR","componentType":5123,"count":1014,"normalized":false,"byteOffset":0,"bufferView":0},{"type":"VEC2","componentType":5126,"count":404,"normalized":false,"byteOffset":0,"bufferView":1},{"type":"SCALAR","componentType":5123,"count":324,"normalized":false,"byteOffset":2028,"bufferView":0},{"type":"VEC2","componentType":5126,"count":128,"normalized":false,"byteOffset":0,"bufferView":2},{"type":"VEC4","componentType":5121,"count":404,"normalized":true,"byteOffset":0,"bufferView":3},{"type":"VEC3","componentType":5122,"count":404,"max":[32767,23686,27131],"min":[-32767,-23686,-27131],"normalized":true,"byteOffset":0,"bufferView":4},{"type":"VEC3","componentType":5122,"count":404,"normalized":true,"byteOffset":0,"bufferView":5},{"type":"VEC4","componentType":5121,"count":128,"normalized":true,"byteOffset":0,"bufferView":6},{"type":"VEC3","componentType":5122,"count":128,"max":[8329,6128,26591],"min":[-8080,-6084,21546],"normalized":true,"byteOffset":0,"bufferView":7},{"type":"VEC3","componentType":5122,"count":128,"normalized":true,"byteOffset":0,"bufferView":8}],"bufferViews":[{"buffer":1,"byteOffset":0,"byteLength":2676,"target":34963,"extensions":{"EXT_meshopt_compression":{"buffer":0,"byteOffset":0,"byteLength":472,"mode":"TRIANGLES","byteStride":2,"count":1338}}},{"buffer":1,"byteOffset":2676,"byteLength":3232,"target":34962,"byteStride":8,"extensions":{"EXT_meshopt_compression":{"buffer":0,"byteOffset":472,"byteLength":2477,"mode":"ATTRIBUTES","byteStride":8,"count":404}}},{"buffer":1,"byteOffset":5908,"byteLength":1024,"target":34962,"byteStride":8,"extensions":{"EXT_meshopt_compression":{"buffer":0,"byteOffset":2952,"byteLength":808,"mode":"ATTRIBUTES","byteStride":8,"count":128}}},{"buffer":1,"byteOffset":6932,"byteLength":1616,"target":34962,"byteStride":4,"extensions":{"EXT_meshopt_compression":{"buffer":0,"byteOffset":3760,"byteLength":268,"mode":"ATTRIBUTES","byteStride":4,"count":404}}},{"buffer":1,"byteOffset":8548,"byteLength":3232,"target":34962,"byteStride":8,"extensions":{"EXT_meshopt_compression":{"buffer":0,"byteOffset":4028,"byteLength":2076,"mode":"ATTRIBUTES","byteStride":8,"count":404}}},{"buffer":1,"byteOffset":11780,"byteLength":3232,"target":34962,"byteStride":8,"extensions":{"EXT_meshopt_compression":{"buffer":0,"byteOffset":6104,"byteLength":1416,"mode":"ATTRIBUTES","byteStride":8,"count":404}}},{"buffer":1,"byteOffset":15012,"byteLength":512,"target":34962,"byteStride":4,"extensions":{"EXT_meshopt_compression":{"buffer":0,"byteOffset":7520,"byteLength":41,"mode":"ATTRIBUTES","byteStride":4,"count":128}}},{"buffer":1,"byteOffset":15524,"byteLength":1024,"target":34962,"byteStride":8,"extensions":{"EXT_meshopt_compression":{"buffer":0,"byteOffset":7564,"byteLength":700,"mode":"ATTRIBUTES","byteStride":8,"count":128}}},{"buffer":1,"byteOffset":16548,"byteLength":1024,"target":34962,"byteStride":8,"extensions":{"EXT_meshopt_compression":{"buffer":0,"byteOffset":8264,"byteLength":504,"mode":"ATTRIBUTES","byteStride":8,"count":128}}}],"samplers":[{"magFilter":9729,"minFilter":9987,"wrapS":10497,"wrapT":10497}],"textures":[{"sampler":0,"extensions":{"EXT_texture_webp":{"source":1}}},{"sampler":0,"extensions":{"EXT_texture_webp":{"source":0}}},{"sampler":0,"extensions":{"EXT_texture_webp":{"source":2}}},{"sampler":0,"extensions":{"EXT_texture_webp":{"source":4}}},{"sampler":0,"extensions":{"EXT_texture_webp":{"source":3}}},{"sampler":0,"extensions":{"EXT_texture_webp":{"source":5}}}],"images":[{"name":"T_Trim_Props_Normal","mimeType":"image/webp","uri":"../../../textures/619430ed7226b53f.webp"},{"name":"T_Trim_Props_BaseColor","mimeType":"image/webp","uri":"../../../textures/3b116f820b5f9b7e.webp"},{"name":"T_Trim_Props_ORM","mimeType":"image/webp","uri":"../../../textures/3044d912bf0eca4a.webp"},{"name":"T_Trim_Metal_Normal","mimeType":"image/webp","uri":"../../../textures/81ac30aa058a108e.webp"},{"name":"T_Trim_Metal_BaseColor","mimeType":"image/webp","uri":"../../../textures/05903e5ec4b6be65.webp"},{"name":"T_Trim_Metal_ORM","mimeType":"image/webp","uri":"../../../textures/638ce4ce0e4c9f8e.webp"}],"buffers":[{"uri":"Book_Stack_2.bin","byteLength":8768},{"byteLength":17572,"extensions":{"EXT_meshopt_compression":{"fallback":true}}}],"materials":[{"name":"MI_Trim_Props_Vertex","doubleSided":true,"pbrMetallicRoughness":{"baseColorTexture":{"index":0},"metallicRoughnessTexture":{"index":2}},"normalTexture":{"index":1}},{"name":"MI_Trim_Metal","doubleSided":true,"pbrMetallicRoughness":{"baseColorTexture":{"index":3},"metallicRoughnessTexture":{"index":5}},"normalTexture":{"index":4}}],"meshes":[{"name":"Cube.151","primitives":[{"attributes":{"TEXCOORD_0":1,"COLOR_0":4,"POSITION":5,"NORMAL":6},"mode":4,"material":0,"indices":0},{"attributes":{"TEXCOORD_0":3,"COLOR_0":7,"POSITION":8,"NORMAL":9},"mode":4,"material":1,"indices":2}]}],"nodes":[{"name":"Book_Stack_2","translation":[-0.002957575023174286,0.09777494857553393,0.012406762689352036],"scale":[0.13724162429571152,0.13724162429571152,0.13724162429571152],"mesh":0},{"name":"pack_root","children":[0]}],"scenes":[{"name":"Scene","nodes":[1]}],"scene":0,"extensionsUsed":["EXT_meshopt_compression","EXT_texture_webp","KHR_mesh_quantization"],"extensionsRequired":["EXT_meshopt_compression","EXT_texture_webp","KHR_mesh_quantization"]}