{"asset":{"generator":"glTF-Transform v4.5.1","version":"2.0"},"accessors":[{"type":"SCALAR","componentType":5123,"count":11232,"normalized":false,"byteOffset":0,"bufferView":0},{"type":"VEC4","componentType":5121,"count":4280,"normalized":true,"byteOffset":0,"bufferView":1},{"type":"VEC3","componentType":5122,"count":4280,"max":[32767,2668,27791],"min":[-32767,-2668,-27791],"normalized":true,"byteOffset":0,"bufferView":2},{"type":"VEC3","componentType":5122,"count":4280,"normalized":true,"byteOffset":0,"bufferView":3},{"type":"VEC2","componentType":5123,"count":4280,"normalized":true,"byteOffset":0,"bufferView":4}],"bufferViews":[{"buffer":1,"byteOffset":0,"byteLength":22464,"target":34963,"extensions":{"EXT_meshopt_compression":{"buffer":0,"byteOffset":0,"byteLength":3761,"mode":"TRIANGLES","byteStride":2,"count":11232}}},{"buffer":1,"byteOffset":22464,"byteLength":17120,"target":34962,"byteStride":4,"extensions":{"EXT_meshopt_compression":{"buffer":0,"byteOffset":3764,"byteLength":301,"mode":"ATTRIBUTES","byteStride":4,"count":4280}}},{"buffer":1,"byteOffset":39584,"byteLength":34240,"target":34962,"byteStride":8,"extensions":{"EXT_meshopt_compression":{"buffer":0,"byteOffset":4068,"byteLength":21055,"mode":"ATTRIBUTES","byteStride":8,"count":4280}}},{"buffer":1,"byteOffset":73824,"byteLength":34240,"target":34962,"byteStride":8,"extensions":{"EXT_meshopt_compression":{"buffer":0,"byteOffset":25124,"byteLength":20763,"mode":"ATTRIBUTES","byteStride":8,"count":4280}}},{"buffer":1,"byteOffset":108064,"byteLength":17120,"target":34962,"byteStride":4,"extensions":{"EXT_meshopt_compression":{"buffer":0,"byteOffset":45888,"byteLength":15625,"mode":"ATTRIBUTES","byteStride":4,"count":4280}}}],"samplers":[{"magFilter":9729,"minFilter":9987,"wrapS":10497,"wrapT":10497}],"textures":[{"sampler":0,"extensions":{"EXT_texture_webp":{"source":1}}},{"sampler":0,"extensions":{"EXT_texture_webp":{"source":0}}},{"sampler":0,"extensions":{"EXT_texture_webp":{"source":2}}}],"images":[{"name":"T_Trim_Metal_Normal","mimeType":"image/webp","uri":"../../../textures/81ac30aa058a108e.webp"},{"name":"T_Trim_Metal_BaseColor","mimeType":"image/webp","uri":"../../../textures/05903e5ec4b6be65.webp"},{"name":"T_Trim_Metal_ORM","mimeType":"image/webp","uri":"../../../textures/638ce4ce0e4c9f8e.webp"}],"buffers":[{"uri":"Chain_Coil.bin","byteLength":61516},{"byteLength":125184,"extensions":{"EXT_meshopt_compression":{"fallback":true}}}],"materials":[{"name":"MI_Trim_Metal","doubleSided":true,"pbrMetallicRoughness":{"baseColorTexture":{"index":0},"metallicRoughnessTexture":{"index":2}},"normalTexture":{"index":1}}],"meshes":[{"name":"Cylinder.002","primitives":[{"attributes":{"COLOR_0":1,"POSITION":2,"NORMAL":3,"TEXCOORD_0":4},"mode":4,"material":0,"indices":0}]}],"nodes":[{"name":"Chain_Coil","translation":[-0.046635836362838745,0.04829688183963299,0.04747854173183441],"scale":[0.5351455509662628,0.5351455509662628,0.5351455509662628],"mesh":0},{"name":"pack_root","children":[0]}],"scenes":[{"name":"Scene","nodes":[1]}],"scene":0,"extensionsUsed":["EXT_meshopt_compression","EXT_texture_webp","KHR_mesh_quantization"],"extensionsRequired":["EXT_meshopt_compression","EXT_texture_webp","KHR_mesh_quantization"]}