{"asset":{"generator":"glTF-Transform v4.5.1","version":"2.0"},"accessors":[{"type":"SCALAR","componentType":5123,"count":10230,"normalized":false,"byteOffset":0,"bufferView":0},{"type":"SCALAR","componentType":5123,"count":720,"normalized":false,"byteOffset":20460,"bufferView":0},{"type":"SCALAR","componentType":5123,"count":6090,"normalized":false,"byteOffset":21900,"bufferView":0},{"type":"VEC4","componentType":5121,"count":3582,"normalized":true,"byteOffset":0,"bufferView":1},{"type":"VEC3","componentType":5122,"count":3582,"max":[29279,32767,29279],"min":[-29279,-25527,-29279],"normalized":true,"byteOffset":0,"bufferView":2},{"type":"VEC3","componentType":5122,"count":3582,"normalized":true,"byteOffset":0,"bufferView":3},{"type":"VEC2","componentType":5123,"count":3582,"normalized":true,"byteOffset":0,"bufferView":4},{"type":"VEC4","componentType":5121,"count":248,"normalized":true,"byteOffset":0,"bufferView":5},{"type":"VEC3","componentType":5122,"count":248,"max":[25055,-19354,24927],"min":[-25067,-25431,-24919],"normalized":true,"byteOffset":0,"bufferView":6},{"type":"VEC3","componentType":5122,"count":248,"normalized":true,"byteOffset":0,"bufferView":7},{"type":"VEC2","componentType":5123,"count":248,"normalized":true,"byteOffset":0,"bufferView":8},{"type":"VEC4","componentType":5121,"count":1985,"normalized":true,"byteOffset":0,"bufferView":9},{"type":"VEC3","componentType":5122,"count":1985,"max":[27799,-9685,27591],"min":[-27695,-32767,-27719],"normalized":true,"byteOffset":0,"bufferView":10},{"type":"VEC3","componentType":5122,"count":1985,"normalized":true,"byteOffset":0,"bufferView":11},{"type":"VEC2","componentType":5123,"count":1985,"normalized":true,"byteOffset":0,"bufferView":12}],"bufferViews":[{"buffer":1,"byteOffset":0,"byteLength":34080,"target":34963,"extensions":{"EXT_meshopt_compression":{"buffer":0,"byteOffset":0,"byteLength":5895,"mode":"TRIANGLES","byteStride":2,"count":17040}}},{"buffer":1,"byteOffset":34080,"byteLength":14328,"target":34962,"byteStride":4,"extensions":{"EXT_meshopt_compression":{"buffer":0,"byteOffset":5896,"byteLength":257,"mode":"ATTRIBUTES","byteStride":4,"count":3582}}},{"buffer":1,"byteOffset":48408,"byteLength":28656,"target":34962,"byteStride":8,"extensions":{"EXT_meshopt_compression":{"buffer":0,"byteOffset":6156,"byteLength":17525,"mode":"ATTRIBUTES","byteStride":8,"count":3582}}},{"buffer":1,"byteOffset":77064,"byteLength":28656,"target":34962,"byteStride":8,"extensions":{"EXT_meshopt_compression":{"buffer":0,"byteOffset":23684,"byteLength":16885,"mode":"ATTRIBUTES","byteStride":8,"count":3582}}},{"buffer":1,"byteOffset":105720,"byteLength":14328,"target":34962,"byteStride":4,"extensions":{"EXT_meshopt_compression":{"buffer":0,"byteOffset":40572,"byteLength":13111,"mode":"ATTRIBUTES","byteStride":4,"count":3582}}},{"buffer":1,"byteOffset":120048,"byteLength":992,"target":34962,"byteStride":4,"extensions":{"EXT_meshopt_compression":{"buffer":0,"byteOffset":53684,"byteLength":49,"mode":"ATTRIBUTES","byteStride":4,"count":248}}},{"buffer":1,"byteOffset":121040,"byteLength":1984,"target":34962,"byteStride":8,"extensions":{"EXT_meshopt_compression":{"buffer":0,"byteOffset":53736,"byteLength":1210,"mode":"ATTRIBUTES","byteStride":8,"count":248}}},{"buffer":1,"byteOffset":123024,"byteLength":1984,"target":34962,"byteStride":8,"extensions":{"EXT_meshopt_compression":{"buffer":0,"byteOffset":54948,"byteLength":470,"mode":"ATTRIBUTES","byteStride":8,"count":248}}},{"buffer":1,"byteOffset":125008,"byteLength":992,"target":34962,"byteStride":4,"extensions":{"EXT_meshopt_compression":{"buffer":0,"byteOffset":55420,"byteLength":935,"mode":"ATTRIBUTES","byteStride":4,"count":248}}},{"buffer":1,"byteOffset":126000,"byteLength":7940,"target":34962,"byteStride":4,"extensions":{"EXT_meshopt_compression":{"buffer":0,"byteOffset":56356,"byteLength":176,"mode":"ATTRIBUTES","byteStride":4,"count":1985}}},{"buffer":1,"byteOffset":133940,"byteLength":15880,"target":34962,"byteStride":8,"extensions":{"EXT_meshopt_compression":{"buffer":0,"byteOffset":56532,"byteLength":9416,"mode":"ATTRIBUTES","byteStride":8,"count":1985}}},{"buffer":1,"byteOffset":149820,"byteLength":15880,"target":34962,"byteStride":8,"extensions":{"EXT_meshopt_compression":{"buffer":0,"byteOffset":65948,"byteLength":10291,"mode":"ATTRIBUTES","byteStride":8,"count":1985}}},{"buffer":1,"byteOffset":165700,"byteLength":7940,"target":34962,"byteStride":4,"extensions":{"EXT_meshopt_compression":{"buffer":0,"byteOffset":76240,"byteLength":6448,"mode":"ATTRIBUTES","byteStride":4,"count":1985}}}],"samplers":[{"magFilter":9729,"minFilter":9987,"wrapS":10497,"wrapT":10497}],"textures":[{"sampler":0,"extensions":{"EXT_texture_webp":{"source":1}}},{"sampler":0,"extensions":{"EXT_texture_webp":{"source":0}}},{"sampler":0,"extensions":{"EXT_texture_webp":{"source":2}}},{"sampler":0,"extensions":{"EXT_texture_webp":{"source":4}}},{"sampler":0,"extensions":{"EXT_texture_webp":{"source":3}}},{"sampler":0,"extensions":{"EXT_texture_webp":{"source":5}}},{"sampler":0,"extensions":{"EXT_texture_webp":{"source":7}}},{"sampler":0,"extensions":{"EXT_texture_webp":{"source":6}}},{"sampler":0,"extensions":{"EXT_texture_webp":{"source":8}}}],"images":[{"name":"T_Trim_Metal_Normal","mimeType":"image/webp","uri":"../../../textures/81ac30aa058a108e.webp"},{"name":"T_Trim_Metal_BaseColor","mimeType":"image/webp","uri":"../../../textures/05903e5ec4b6be65.webp"},{"name":"T_Trim_Metal_ORM","mimeType":"image/webp","uri":"../../../textures/638ce4ce0e4c9f8e.webp"},{"name":"T_Trim_Furniture_Normal","mimeType":"image/webp","uri":"../../../textures/3ebbdf3b0c251e17.webp"},{"name":"T_Trim_Furniture_BaseColor","mimeType":"image/webp","uri":"../../../textures/2b0af78966d58c77.webp"},{"name":"T_Trim_Furniture_ORM","mimeType":"image/webp","uri":"../../../textures/ecfbb27dbfcb547b.webp"},{"name":"T_Trim_Props_Normal","mimeType":"image/webp","uri":"../../../textures/619430ed7226b53f.webp"},{"name":"T_Trim_Props_BaseColor","mimeType":"image/webp","uri":"../../../textures/3b116f820b5f9b7e.webp"},{"name":"T_Trim_Props_ORM","mimeType":"image/webp","uri":"../../../textures/3044d912bf0eca4a.webp"}],"buffers":[{"uri":"Chandelier.bin","byteLength":82688},{"byteLength":173640,"extensions":{"EXT_meshopt_compression":{"fallback":true}}}],"materials":[{"name":"MI_Trim_Metal","doubleSided":true,"pbrMetallicRoughness":{"baseColorTexture":{"index":0},"metallicRoughnessTexture":{"index":2}},"normalTexture":{"index":1}},{"name":"MI_Trim_Furniture","doubleSided":true,"pbrMetallicRoughness":{"baseColorTexture":{"index":3},"metallicRoughnessTexture":{"index":5}},"normalTexture":{"index":4}},{"name":"MI_Trim_Props_Vertex","doubleSided":true,"pbrMetallicRoughness":{"baseColorTexture":{"index":6},"metallicRoughnessTexture":{"index":8}},"normalTexture":{"index":7}}],"meshes":[{"name":"Cylinder.092","primitives":[{"attributes":{"COLOR_0":3,"POSITION":4,"NORMAL":5,"TEXCOORD_0":6},"mode":4,"material":0,"indices":0},{"attributes":{"COLOR_0":7,"POSITION":8,"NORMAL":9,"TEXCOORD_0":10},"mode":4,"material":1,"indices":1},{"attributes":{"COLOR_0":11,"POSITION":12,"NORMAL":13,"TEXCOORD_0":14},"mode":4,"material":2,"indices":2}]}],"nodes":[{"name":"Chandelier","translation":[-2.9802322387695312e-8,-0.6928990483283997,0],"scale":[0.7288160920143127,0.7288160920143127,0.7288160920143127],"mesh":0},{"name":"pack_root","children":[0]}],"scenes":[{"name":"Scene","nodes":[1]}],"scene":0,"extensionsUsed":["EXT_meshopt_compression","EXT_texture_webp","KHR_mesh_quantization"],"extensionsRequired":["EXT_meshopt_compression","EXT_texture_webp","KHR_mesh_quantization"]}