{"asset":{"generator":"glTF-Transform v4.5.1","version":"2.0"},"accessors":[{"type":"SCALAR","componentType":5126,"count":2,"max":[0.5],"min":[0.03333333507180214],"normalized":false,"byteOffset":0,"bufferView":0},{"type":"VEC3","componentType":5126,"count":2,"normalized":false,"byteOffset":0,"bufferView":1},{"type":"VEC4","componentType":5126,"count":2,"normalized":false,"byteOffset":0,"bufferView":2},{"type":"VEC3","componentType":5126,"count":2,"normalized":false,"byteOffset":24,"bufferView":1},{"type":"VEC3","componentType":5126,"count":2,"normalized":false,"byteOffset":48,"bufferView":1},{"type":"VEC3","componentType":5126,"count":2,"normalized":false,"byteOffset":72,"bufferView":1},{"type":"SCALAR","componentType":5126,"count":2,"max":[0.3333333432674408],"min":[0],"normalized":false,"byteOffset":8,"bufferView":0},{"type":"VEC4","componentType":5126,"count":2,"normalized":false,"byteOffset":32,"bufferView":2},{"type":"VEC4","componentType":5126,"count":2,"normalized":false,"byteOffset":64,"bufferView":2},{"type":"SCALAR","componentType":5126,"count":2,"max":[0.6333333253860474],"min":[0],"normalized":false,"byteOffset":16,"bufferView":0},{"type":"VEC3","componentType":5126,"count":2,"normalized":false,"byteOffset":96,"bufferView":1},{"type":"VEC4","componentType":5126,"count":2,"normalized":false,"byteOffset":96,"bufferView":2},{"type":"VEC3","componentType":5126,"count":2,"normalized":false,"byteOffset":120,"bufferView":1},{"type":"SCALAR","componentType":5126,"count":7,"max":[0.5],"min":[0.03333333507180214],"normalized":false,"byteOffset":24,"bufferView":0},{"type":"VEC3","componentType":5126,"count":7,"normalized":false,"byteOffset":144,"bufferView":1},{"type":"SCALAR","componentType":5126,"count":9,"max":[0.5],"min":[0.03333333507180214],"normalized":false,"byteOffset":52,"bufferView":0},{"type":"VEC4","componentType":5126,"count":9,"normalized":false,"byteOffset":128,"bufferView":2},{"type":"SCALAR","componentType":5126,"count":9,"max":[0.5],"min":[0.03333333507180214],"normalized":false,"byteOffset":88,"bufferView":0},{"type":"VEC4","componentType":5126,"count":9,"normalized":false,"byteOffset":272,"bufferView":2},{"type":"SCALAR","componentType":5126,"count":7,"max":[0.6333333253860474],"min":[0],"normalized":false,"byteOffset":124,"bufferView":0},{"type":"VEC3","componentType":5126,"count":7,"normalized":false,"byteOffset":228,"bufferView":1},{"type":"SCALAR","componentType":5126,"count":11,"max":[0.6333333253860474],"min":[0],"normalized":false,"byteOffset":152,"bufferView":0},{"type":"VEC4","componentType":5126,"count":11,"normalized":false,"byteOffset":416,"bufferView":2},{"type":"SCALAR","componentType":5126,"count":18,"max":[0.6333333253860474],"min":[0],"normalized":false,"byteOffset":196,"bufferView":0},{"type":"VEC4","componentType":5126,"count":18,"normalized":false,"byteOffset":592,"bufferView":2},{"type":"SCALAR","componentType":5123,"count":120,"normalized":false,"byteOffset":0,"bufferView":3},{"type":"VEC4","componentType":5121,"count":72,"normalized":false,"byteOffset":0,"bufferView":4},{"type":"SCALAR","componentType":5123,"count":4164,"normalized":false,"byteOffset":240,"bufferView":3},{"type":"VEC4","componentType":5121,"count":1696,"normalized":false,"byteOffset":0,"bufferView":5},{"type":"SCALAR","componentType":5123,"count":984,"normalized":false,"byteOffset":8568,"bufferView":3},{"type":"VEC4","componentType":5121,"count":381,"normalized":false,"byteOffset":0,"bufferView":6},{"type":"SCALAR","componentType":5123,"count":2370,"normalized":false,"byteOffset":10536,"bufferView":3},{"type":"VEC2","componentType":5126,"count":1051,"normalized":false,"byteOffset":0,"bufferView":7},{"type":"VEC4","componentType":5121,"count":1051,"normalized":false,"byteOffset":0,"bufferView":8},{"type":"MAT4","componentType":5126,"count":3,"normalized":false,"byteOffset":0,"bufferView":9},{"type":"VEC3","componentType":5122,"count":72,"max":[28875,4924,15645],"min":[-28831,-11729,-15645],"normalized":true,"byteOffset":0,"bufferView":10},{"type":"VEC3","componentType":5122,"count":72,"normalized":true,"byteOffset":0,"bufferView":11},{"type":"VEC2","componentType":5123,"count":72,"normalized":true,"byteOffset":0,"bufferView":12},{"type":"VEC4","componentType":5121,"count":72,"normalized":true,"byteOffset":0,"bufferView":13},{"type":"VEC3","componentType":5122,"count":1696,"max":[32767,11929,19398],"min":[-32767,-11929,-19398],"normalized":true,"byteOffset":0,"bufferView":14},{"type":"VEC3","componentType":5122,"count":1696,"normalized":true,"byteOffset":0,"bufferView":15},{"type":"VEC2","componentType":5123,"count":1696,"normalized":true,"byteOffset":0,"bufferView":16},{"type":"VEC4","componentType":5121,"count":1696,"normalized":true,"byteOffset":0,"bufferView":17},{"type":"MAT4","componentType":5126,"count":3,"normalized":false,"byteOffset":192,"bufferView":9},{"type":"VEC3","componentType":5122,"count":381,"max":[31267,9529,16974],"min":[-31267,-2404,-18454],"normalized":true,"byteOffset":0,"bufferView":18},{"type":"VEC3","componentType":5122,"count":381,"normalized":true,"byteOffset":0,"bufferView":19},{"type":"VEC2","componentType":5123,"count":381,"normalized":true,"byteOffset":0,"bufferView":20},{"type":"VEC4","componentType":5121,"count":381,"normalized":true,"byteOffset":0,"bufferView":21},{"type":"VEC3","componentType":5122,"count":1051,"max":[32767,10529,20338],"min":[-32767,-10529,-20338],"normalized":true,"byteOffset":0,"bufferView":22},{"type":"VEC3","componentType":5122,"count":1051,"normalized":true,"byteOffset":0,"bufferView":23},{"type":"VEC4","componentType":5121,"count":1051,"normalized":true,"byteOffset":0,"bufferView":24}],"bufferViews":[{"buffer":1,"byteOffset":0,"byteLength":268,"extensions":{"EXT_meshopt_compression":{"buffer":0,"byteOffset":0,"byteLength":284,"mode":"ATTRIBUTES","byteStride":4,"count":67}}},{"buffer":1,"byteOffset":268,"byteLength":312,"extensions":{"EXT_meshopt_compression":{"buffer":0,"byteOffset":284,"byteLength":264,"mode":"ATTRIBUTES","byteStride":12,"count":26}}},{"buffer":1,"byteOffset":580,"byteLength":880,"extensions":{"EXT_meshopt_compression":{"buffer":0,"byteOffset":548,"byteLength":784,"mode":"ATTRIBUTES","byteStride":16,"count":55}}},{"buffer":1,"byteOffset":1460,"byteLength":15276,"target":34963,"extensions":{"EXT_meshopt_compression":{"buffer":0,"byteOffset":1332,"byteLength":2705,"mode":"TRIANGLES","byteStride":2,"count":7638}}},{"buffer":1,"byteOffset":16736,"byteLength":288,"target":34962,"byteStride":4,"extensions":{"EXT_meshopt_compression":{"buffer":0,"byteOffset":4040,"byteLength":41,"mode":"ATTRIBUTES","byteStride":4,"count":72}}},{"buffer":1,"byteOffset":17024,"byteLength":6784,"target":34962,"byteStride":4,"extensions":{"EXT_meshopt_compression":{"buffer":0,"byteOffset":4084,"byteLength":141,"mode":"ATTRIBUTES","byteStride":4,"count":1696}}},{"buffer":1,"byteOffset":23808,"byteLength":1524,"target":34962,"byteStride":4,"extensions":{"EXT_meshopt_compression":{"buffer":0,"byteOffset":4228,"byteLength":57,"mode":"ATTRIBUTES","byteStride":4,"count":381}}},{"buffer":1,"byteOffset":25332,"byteLength":8408,"target":34962,"byteStride":8,"extensions":{"EXT_meshopt_compression":{"buffer":0,"byteOffset":4288,"byteLength":6297,"mode":"ATTRIBUTES","byteStride":8,"count":1051}}},{"buffer":1,"byteOffset":33740,"byteLength":4204,"target":34962,"byteStride":4,"extensions":{"EXT_meshopt_compression":{"buffer":0,"byteOffset":10588,"byteLength":101,"mode":"ATTRIBUTES","byteStride":4,"count":1051}}},{"buffer":1,"byteOffset":37944,"byteLength":384,"extensions":{"EXT_meshopt_compression":{"buffer":0,"byteOffset":10692,"byteLength":317,"mode":"ATTRIBUTES","byteStride":64,"count":6}}},{"buffer":1,"byteOffset":38328,"byteLength":576,"target":34962,"byteStride":8,"extensions":{"EXT_meshopt_compression":{"buffer":0,"byteOffset":11012,"byteLength":422,"mode":"ATTRIBUTES","byteStride":8,"count":72}}},{"buffer":1,"byteOffset":38904,"byteLength":576,"target":34962,"byteStride":8,"extensions":{"EXT_meshopt_compression":{"buffer":0,"byteOffset":11436,"byteLength":121,"mode":"ATTRIBUTES","byteStride":8,"count":72}}},{"buffer":1,"byteOffset":39480,"byteLength":288,"target":34962,"byteStride":4,"extensions":{"EXT_meshopt_compression":{"buffer":0,"byteOffset":11560,"byteLength":290,"mode":"ATTRIBUTES","byteStride":4,"count":72}}},{"buffer":1,"byteOffset":39768,"byteLength":288,"target":34962,"byteStride":4,"extensions":{"EXT_meshopt_compression":{"buffer":0,"byteOffset":11852,"byteLength":41,"mode":"ATTRIBUTES","byteStride":4,"count":72}}},{"buffer":1,"byteOffset":40056,"byteLength":13568,"target":34962,"byteStride":8,"extensions":{"EXT_meshopt_compression":{"buffer":0,"byteOffset":11896,"byteLength":8624,"mode":"ATTRIBUTES","byteStride":8,"count":1696}}},{"buffer":1,"byteOffset":53624,"byteLength":13568,"target":34962,"byteStride":8,"extensions":{"EXT_meshopt_compression":{"buffer":0,"byteOffset":20520,"byteLength":5454,"mode":"ATTRIBUTES","byteStride":8,"count":1696}}},{"buffer":1,"byteOffset":67192,"byteLength":6784,"target":34962,"byteStride":4,"extensions":{"EXT_meshopt_compression":{"buffer":0,"byteOffset":25976,"byteLength":5855,"mode":"ATTRIBUTES","byteStride":4,"count":1696}}},{"buffer":1,"byteOffset":73976,"byteLength":6784,"target":34962,"byteStride":4,"extensions":{"EXT_meshopt_compression":{"buffer":0,"byteOffset":31832,"byteLength":141,"mode":"ATTRIBUTES","byteStride":4,"count":1696}}},{"buffer":1,"byteOffset":80760,"byteLength":3048,"target":34962,"byteStride":8,"extensions":{"EXT_meshopt_compression":{"buffer":0,"byteOffset":31976,"byteLength":1950,"mode":"ATTRIBUTES","byteStride":8,"count":381}}},{"buffer":1,"byteOffset":83808,"byteLength":3048,"target":34962,"byteStride":8,"extensions":{"EXT_meshopt_compression":{"buffer":0,"byteOffset":33928,"byteLength":946,"mode":"ATTRIBUTES","byteStride":8,"count":381}}},{"buffer":1,"byteOffset":86856,"byteLength":1524,"target":34962,"byteStride":4,"extensions":{"EXT_meshopt_compression":{"buffer":0,"byteOffset":34876,"byteLength":1346,"mode":"ATTRIBUTES","byteStride":4,"count":381}}},{"buffer":1,"byteOffset":88380,"byteLength":1524,"target":34962,"byteStride":4,"extensions":{"EXT_meshopt_compression":{"buffer":0,"byteOffset":36224,"byteLength":57,"mode":"ATTRIBUTES","byteStride":4,"count":381}}},{"buffer":1,"byteOffset":89904,"byteLength":8408,"target":34962,"byteStride":8,"extensions":{"EXT_meshopt_compression":{"buffer":0,"byteOffset":36284,"byteLength":5396,"mode":"ATTRIBUTES","byteStride":8,"count":1051}}},{"buffer":1,"byteOffset":98312,"byteLength":8408,"target":34962,"byteStride":8,"extensions":{"EXT_meshopt_compression":{"buffer":0,"byteOffset":41680,"byteLength":3268,"mode":"ATTRIBUTES","byteStride":8,"count":1051}}},{"buffer":1,"byteOffset":106720,"byteLength":4204,"target":34962,"byteStride":4,"extensions":{"EXT_meshopt_compression":{"buffer":0,"byteOffset":44948,"byteLength":101,"mode":"ATTRIBUTES","byteStride":4,"count":1051}}}],"samplers":[{"magFilter":9729,"minFilter":9987,"wrapS":10497,"wrapT":10497}],"textures":[{"sampler":0,"extensions":{"EXT_texture_webp":{"source":1}}},{"sampler":0,"extensions":{"EXT_texture_webp":{"source":0}}},{"sampler":0,"extensions":{"EXT_texture_webp":{"source":2}}},{"sampler":0,"extensions":{"EXT_texture_webp":{"source":4}}},{"sampler":0,"extensions":{"EXT_texture_webp":{"source":3}}},{"sampler":0,"extensions":{"EXT_texture_webp":{"source":5}}}],"images":[{"name":"T_Trim_Furniture_Normal","mimeType":"image/webp","uri":"../../../textures/3ebbdf3b0c251e17.webp"},{"name":"T_Trim_Furniture_BaseColor","mimeType":"image/webp","uri":"../../../textures/2b0af78966d58c77.webp"},{"name":"T_Trim_Furniture_ORM","mimeType":"image/webp","uri":"../../../textures/ecfbb27dbfcb547b.webp"},{"name":"T_Trim_Metal_Normal","mimeType":"image/webp","uri":"../../../textures/81ac30aa058a108e.webp"},{"name":"T_Trim_Metal_BaseColor","mimeType":"image/webp","uri":"../../../textures/05903e5ec4b6be65.webp"},{"name":"T_Trim_Metal_ORM","mimeType":"image/webp","uri":"../../../textures/638ce4ce0e4c9f8e.webp"}],"buffers":[{"uri":"Chest_Wood.bin","byteLength":45052},{"byteLength":110924,"extensions":{"EXT_meshopt_compression":{"fallback":true}}}],"materials":[{"name":"MI_Trim_Furniture","doubleSided":true,"pbrMetallicRoughness":{"baseColorTexture":{"index":0},"metallicRoughnessTexture":{"index":2}},"normalTexture":{"index":1}},{"name":"MI_Trim_Metal","doubleSided":true,"pbrMetallicRoughness":{"baseColorTexture":{"index":3},"metallicRoughnessTexture":{"index":5}},"normalTexture":{"index":4}}],"meshes":[{"name":"Cube.010","primitives":[{"attributes":{"JOINTS_0":26,"POSITION":35,"NORMAL":36,"TEXCOORD_0":37,"WEIGHTS_0":38},"mode":4,"material":0,"indices":25},{"attributes":{"JOINTS_0":28,"POSITION":39,"NORMAL":40,"TEXCOORD_0":41,"WEIGHTS_0":42},"mode":4,"material":1,"indices":27}]},{"name":"Cube.024","primitives":[{"attributes":{"JOINTS_0":30,"POSITION":44,"NORMAL":45,"TEXCOORD_0":46,"WEIGHTS_0":47},"mode":4,"material":0,"indices":29},{"attributes":{"TEXCOORD_0":32,"JOINTS_0":33,"POSITION":48,"NORMAL":49,"WEIGHTS_0":50},"mode":4,"material":1,"indices":31}]}],"nodes":[{"name":"Chest_Top","translation":[1.8592691830576769e-9,0.42861831188201904,-0.314306378364563]},{"name":"Chest_Bottom","children":[0]},{"name":"Root","children":[1]},{"name":"Chest_Wood_Base","mesh":0,"skin":0},{"name":"Chest_Wood_Lid","mesh":1,"skin":1},{"name":"Chest_Armature","children":[3,4,2]},{"name":"pack_root","children":[5]}],"skins":[{"name":"Chest_Armature","inverseBindMatrices":34,"joints":[2,1,0]},{"name":"Chest_Armature","inverseBindMatrices":43,"joints":[2,1,0]}],"animations":[{"name":"Chest_Close","samplers":[{"input":0,"output":1,"interpolation":"STEP"},{"input":0,"output":2,"interpolation":"STEP"},{"input":0,"output":3,"interpolation":"STEP"},{"input":13,"output":14,"interpolation":"LINEAR"},{"input":15,"output":16,"interpolation":"LINEAR"},{"input":0,"output":3,"interpolation":"STEP"},{"input":0,"output":4,"interpolation":"STEP"},{"input":17,"output":18,"interpolation":"LINEAR"},{"input":0,"output":5,"interpolation":"STEP"}],"channels":[{"sampler":0,"target":{"node":2,"path":"translation"}},{"sampler":1,"target":{"node":2,"path":"rotation"}},{"sampler":2,"target":{"node":2,"path":"scale"}},{"sampler":3,"target":{"node":1,"path":"translation"}},{"sampler":4,"target":{"node":1,"path":"rotation"}},{"sampler":5,"target":{"node":1,"path":"scale"}},{"sampler":6,"target":{"node":0,"path":"translation"}},{"sampler":7,"target":{"node":0,"path":"rotation"}},{"sampler":8,"target":{"node":0,"path":"scale"}}]},{"name":"Chest_Closed","samplers":[{"input":6,"output":1,"interpolation":"STEP"},{"input":6,"output":2,"interpolation":"STEP"},{"input":6,"output":3,"interpolation":"STEP"},{"input":6,"output":1,"interpolation":"STEP"},{"input":6,"output":7,"interpolation":"STEP"},{"input":6,"output":3,"interpolation":"STEP"},{"input":6,"output":4,"interpolation":"STEP"},{"input":6,"output":8,"interpolation":"STEP"},{"input":6,"output":3,"interpolation":"STEP"}],"channels":[{"sampler":0,"target":{"node":2,"path":"translation"}},{"sampler":1,"target":{"node":2,"path":"rotation"}},{"sampler":2,"target":{"node":2,"path":"scale"}},{"sampler":3,"target":{"node":1,"path":"translation"}},{"sampler":4,"target":{"node":1,"path":"rotation"}},{"sampler":5,"target":{"node":1,"path":"scale"}},{"sampler":6,"target":{"node":0,"path":"translation"}},{"sampler":7,"target":{"node":0,"path":"rotation"}},{"sampler":8,"target":{"node":0,"path":"scale"}}]},{"name":"Chest_Open","samplers":[{"input":9,"output":1,"interpolation":"STEP"},{"input":9,"output":2,"interpolation":"STEP"},{"input":9,"output":3,"interpolation":"STEP"},{"input":19,"output":20,"interpolation":"LINEAR"},{"input":21,"output":22,"interpolation":"LINEAR"},{"input":9,"output":3,"interpolation":"STEP"},{"input":9,"output":4,"interpolation":"STEP"},{"input":23,"output":24,"interpolation":"LINEAR"},{"input":9,"output":10,"interpolation":"STEP"}],"channels":[{"sampler":0,"target":{"node":2,"path":"translation"}},{"sampler":1,"target":{"node":2,"path":"rotation"}},{"sampler":2,"target":{"node":2,"path":"scale"}},{"sampler":3,"target":{"node":1,"path":"translation"}},{"sampler":4,"target":{"node":1,"path":"rotation"}},{"sampler":5,"target":{"node":1,"path":"scale"}},{"sampler":6,"target":{"node":0,"path":"translation"}},{"sampler":7,"target":{"node":0,"path":"rotation"}},{"sampler":8,"target":{"node":0,"path":"scale"}}]},{"name":"Chest_Opened","samplers":[{"input":6,"output":1,"interpolation":"STEP"},{"input":6,"output":2,"interpolation":"STEP"},{"input":6,"output":3,"interpolation":"STEP"},{"input":6,"output":1,"interpolation":"STEP"},{"input":6,"output":7,"interpolation":"STEP"},{"input":6,"output":3,"interpolation":"STEP"},{"input":6,"output":4,"interpolation":"STEP"},{"input":6,"output":11,"interpolation":"STEP"},{"input":6,"output":12,"interpolation":"STEP"}],"channels":[{"sampler":0,"target":{"node":2,"path":"translation"}},{"sampler":1,"target":{"node":2,"path":"rotation"}},{"sampler":2,"target":{"node":2,"path":"scale"}},{"sampler":3,"target":{"node":1,"path":"translation"}},{"sampler":4,"target":{"node":1,"path":"rotation"}},{"sampler":5,"target":{"node":1,"path":"scale"}},{"sampler":6,"target":{"node":0,"path":"translation"}},{"sampler":7,"target":{"node":0,"path":"rotation"}},{"sampler":8,"target":{"node":0,"path":"scale"}}]}],"scenes":[{"name":"Scene","nodes":[6]}],"scene":0,"extensionsUsed":["EXT_meshopt_compression","EXT_texture_webp","KHR_mesh_quantization"],"extensionsRequired":["EXT_meshopt_compression","EXT_texture_webp","KHR_mesh_quantization"]}