{"asset":{"generator":"glTF-Transform v4.5.1","version":"2.0"},"accessors":[{"type":"SCALAR","componentType":5123,"count":2880,"normalized":false,"byteOffset":0,"bufferView":0},{"type":"VEC2","componentType":5126,"count":1044,"normalized":false,"byteOffset":0,"bufferView":1},{"type":"VEC4","componentType":5121,"count":1044,"normalized":true,"byteOffset":0,"bufferView":2},{"type":"VEC3","componentType":5122,"count":1044,"max":[32767,12193,25595],"min":[-32767,-12193,-25595],"normalized":true,"byteOffset":0,"bufferView":3},{"type":"VEC3","componentType":5122,"count":1044,"normalized":true,"byteOffset":0,"bufferView":4}],"bufferViews":[{"buffer":1,"byteOffset":0,"byteLength":5760,"target":34963,"extensions":{"EXT_meshopt_compression":{"buffer":0,"byteOffset":0,"byteLength":1018,"mode":"TRIANGLES","byteStride":2,"count":2880}}},{"buffer":1,"byteOffset":5760,"byteLength":8352,"target":34962,"byteStride":8,"extensions":{"EXT_meshopt_compression":{"buffer":0,"byteOffset":1020,"byteLength":6273,"mode":"ATTRIBUTES","byteStride":8,"count":1044}}},{"buffer":1,"byteOffset":14112,"byteLength":4176,"target":34962,"byteStride":4,"extensions":{"EXT_meshopt_compression":{"buffer":0,"byteOffset":7296,"byteLength":221,"mode":"ATTRIBUTES","byteStride":4,"count":1044}}},{"buffer":1,"byteOffset":18288,"byteLength":8352,"target":34962,"byteStride":8,"extensions":{"EXT_meshopt_compression":{"buffer":0,"byteOffset":7520,"byteLength":5518,"mode":"ATTRIBUTES","byteStride":8,"count":1044}}},{"buffer":1,"byteOffset":26640,"byteLength":8352,"target":34962,"byteStride":8,"extensions":{"EXT_meshopt_compression":{"buffer":0,"byteOffset":13040,"byteLength":3860,"mode":"ATTRIBUTES","byteStride":8,"count":1044}}}],"samplers":[{"magFilter":9729,"minFilter":9987,"wrapS":10497,"wrapT":10497}],"textures":[{"sampler":0,"extensions":{"EXT_texture_webp":{"source":1}}},{"sampler":0,"extensions":{"EXT_texture_webp":{"source":0}}},{"sampler":0,"extensions":{"EXT_texture_webp":{"source":2}}}],"images":[{"name":"T_Trim_Metal_Normal","mimeType":"image/webp","uri":"../../../textures/81ac30aa058a108e.webp"},{"name":"T_Trim_Metal_BaseColor","mimeType":"image/webp","uri":"../../../textures/05903e5ec4b6be65.webp"},{"name":"T_Trim_Metal_ORM","mimeType":"image/webp","uri":"../../../textures/638ce4ce0e4c9f8e.webp"}],"buffers":[{"uri":"Coin_Pile.bin","byteLength":16900},{"byteLength":34992,"extensions":{"EXT_meshopt_compression":{"fallback":true}}}],"materials":[{"name":"MI_Trim_Metal_Vertex","doubleSided":true,"pbrMetallicRoughness":{"baseColorTexture":{"index":0},"metallicRoughnessTexture":{"index":2}},"normalTexture":{"index":1}}],"meshes":[{"name":"Cylinder.079","primitives":[{"attributes":{"TEXCOORD_0":1,"COLOR_0":2,"POSITION":3,"NORMAL":4},"mode":4,"material":0,"indices":0}]}],"nodes":[{"name":"Coin_Pile","translation":[0.00033459439873695374,0.03326526132877916,0.00132858008146286],"scale":[0.09872790053486824,0.09872790053486824,0.09872790053486824],"mesh":0},{"name":"pack_root","children":[0]}],"scenes":[{"name":"Scene","nodes":[1]}],"scene":0,"extensionsUsed":["EXT_meshopt_compression","EXT_texture_webp","KHR_mesh_quantization"],"extensionsRequired":["EXT_meshopt_compression","EXT_texture_webp","KHR_mesh_quantization"]}