{"asset":{"generator":"glTF-Transform v4.5.1","version":"2.0"},"accessors":[{"type":"SCALAR","componentType":5123,"count":3702,"normalized":false,"byteOffset":0,"bufferView":0},{"type":"SCALAR","componentType":5123,"count":528,"normalized":false,"byteOffset":7404,"bufferView":0},{"type":"SCALAR","componentType":5123,"count":4344,"normalized":false,"byteOffset":8460,"bufferView":0},{"type":"VEC3","componentType":5122,"count":924,"max":[10285,24222,10285],"min":[-10285,-32767,-10285],"normalized":true,"byteOffset":0,"bufferView":1},{"type":"VEC3","componentType":5122,"count":924,"normalized":true,"byteOffset":0,"bufferView":2},{"type":"VEC2","componentType":5123,"count":924,"normalized":true,"byteOffset":0,"bufferView":3},{"type":"VEC3","componentType":5122,"count":128,"max":[7876,-23914,7876],"min":[-7888,-30499,-7888],"normalized":true,"byteOffset":0,"bufferView":4},{"type":"VEC3","componentType":5122,"count":128,"normalized":true,"byteOffset":0,"bufferView":5},{"type":"VEC2","componentType":5123,"count":128,"normalized":true,"byteOffset":0,"bufferView":6},{"type":"VEC3","componentType":5122,"count":943,"max":[14221,32767,6288],"min":[-14221,-4236,-6260],"normalized":true,"byteOffset":0,"bufferView":7},{"type":"VEC3","componentType":5122,"count":943,"normalized":true,"byteOffset":0,"bufferView":8},{"type":"VEC2","componentType":5123,"count":943,"normalized":true,"byteOffset":0,"bufferView":9}],"bufferViews":[{"buffer":1,"byteOffset":0,"byteLength":17148,"target":34963,"extensions":{"EXT_meshopt_compression":{"buffer":0,"byteOffset":0,"byteLength":3098,"mode":"TRIANGLES","byteStride":2,"count":8574}}},{"buffer":1,"byteOffset":17148,"byteLength":7392,"target":34962,"byteStride":8,"extensions":{"EXT_meshopt_compression":{"buffer":0,"byteOffset":3100,"byteLength":4457,"mode":"ATTRIBUTES","byteStride":8,"count":924}}},{"buffer":1,"byteOffset":24540,"byteLength":7392,"target":34962,"byteStride":8,"extensions":{"EXT_meshopt_compression":{"buffer":0,"byteOffset":7560,"byteLength":5165,"mode":"ATTRIBUTES","byteStride":8,"count":924}}},{"buffer":1,"byteOffset":31932,"byteLength":3696,"target":34962,"byteStride":4,"extensions":{"EXT_meshopt_compression":{"buffer":0,"byteOffset":12728,"byteLength":3246,"mode":"ATTRIBUTES","byteStride":4,"count":924}}},{"buffer":1,"byteOffset":35628,"byteLength":1024,"target":34962,"byteStride":8,"extensions":{"EXT_meshopt_compression":{"buffer":0,"byteOffset":15976,"byteLength":623,"mode":"ATTRIBUTES","byteStride":8,"count":128}}},{"buffer":1,"byteOffset":36652,"byteLength":1024,"target":34962,"byteStride":8,"extensions":{"EXT_meshopt_compression":{"buffer":0,"byteOffset":16600,"byteLength":816,"mode":"ATTRIBUTES","byteStride":8,"count":128}}},{"buffer":1,"byteOffset":37676,"byteLength":512,"target":34962,"byteStride":4,"extensions":{"EXT_meshopt_compression":{"buffer":0,"byteOffset":17416,"byteLength":425,"mode":"ATTRIBUTES","byteStride":4,"count":128}}},{"buffer":1,"byteOffset":38188,"byteLength":7544,"target":34962,"byteStride":8,"extensions":{"EXT_meshopt_compression":{"buffer":0,"byteOffset":17844,"byteLength":4652,"mode":"ATTRIBUTES","byteStride":8,"count":943}}},{"buffer":1,"byteOffset":45732,"byteLength":7544,"target":34962,"byteStride":8,"extensions":{"EXT_meshopt_compression":{"buffer":0,"byteOffset":22496,"byteLength":5805,"mode":"ATTRIBUTES","byteStride":8,"count":943}}},{"buffer":1,"byteOffset":53276,"byteLength":3772,"target":34962,"byteStride":4,"extensions":{"EXT_meshopt_compression":{"buffer":0,"byteOffset":28304,"byteLength":2977,"mode":"ATTRIBUTES","byteStride":4,"count":943}}}],"samplers":[{"magFilter":9729,"minFilter":9987,"wrapS":10497,"wrapT":10497}],"textures":[{"sampler":0,"extensions":{"EXT_texture_webp":{"source":1}}},{"sampler":0,"extensions":{"EXT_texture_webp":{"source":0}}},{"sampler":0,"extensions":{"EXT_texture_webp":{"source":2}}},{"sampler":0,"extensions":{"EXT_texture_webp":{"source":4}}},{"sampler":0,"extensions":{"EXT_texture_webp":{"source":3}}},{"sampler":0,"extensions":{"EXT_texture_webp":{"source":5}}},{"sampler":0,"extensions":{"EXT_texture_webp":{"source":7}}},{"sampler":0,"extensions":{"EXT_texture_webp":{"source":6}}},{"sampler":0,"extensions":{"EXT_texture_webp":{"source":8}}}],"images":[{"name":"T_Trim_Furniture_Normal","mimeType":"image/webp","uri":"../../../textures/3ebbdf3b0c251e17.webp"},{"name":"T_Trim_Furniture_BaseColor","mimeType":"image/webp","uri":"../../../textures/2b0af78966d58c77.webp"},{"name":"T_Trim_Furniture_ORM","mimeType":"image/webp","uri":"../../../textures/ecfbb27dbfcb547b.webp"},{"name":"T_Trim_Metal_Normal","mimeType":"image/webp","uri":"../../../textures/81ac30aa058a108e.webp"},{"name":"T_Trim_Metal_BaseColor","mimeType":"image/webp","uri":"../../../textures/05903e5ec4b6be65.webp"},{"name":"T_Trim_Metal_ORM","mimeType":"image/webp","uri":"../../../textures/638ce4ce0e4c9f8e.webp"},{"name":"T_Trim_Cloth_Normal","mimeType":"image/webp","uri":"../../../textures/e944d4b7eaea8888.webp"},{"name":"T_Trim_Cloth_BaseColor","mimeType":"image/webp","uri":"../../../textures/b27bd8fc8be0f7b3.webp"},{"name":"T_Trim_Cloth_ORM","mimeType":"image/webp","uri":"../../../textures/b293f807d8d04537.webp"}],"buffers":[{"uri":"Dummy.bin","byteLength":31284},{"byteLength":57048,"extensions":{"EXT_meshopt_compression":{"fallback":true}}}],"materials":[{"name":"MI_Trim_Furniture","doubleSided":true,"pbrMetallicRoughness":{"baseColorTexture":{"index":0},"metallicRoughnessTexture":{"index":2}},"normalTexture":{"index":1}},{"name":"MI_Trim_Metal","doubleSided":true,"pbrMetallicRoughness":{"baseColorTexture":{"index":3},"metallicRoughnessTexture":{"index":5}},"normalTexture":{"index":4}},{"name":"MI_Trim_Cloth","doubleSided":true,"pbrMetallicRoughness":{"baseColorTexture":{"index":6},"metallicRoughnessTexture":{"index":8}},"normalTexture":{"index":7}}],"meshes":[{"name":"Cube.223","primitives":[{"attributes":{"POSITION":3,"NORMAL":4,"TEXCOORD_0":5},"mode":4,"material":0,"indices":0},{"attributes":{"POSITION":6,"NORMAL":7,"TEXCOORD_0":8},"mode":4,"material":1,"indices":1},{"attributes":{"POSITION":9,"NORMAL":10,"TEXCOORD_0":11},"mode":4,"material":2,"indices":2}]}],"nodes":[{"name":"Dummy","translation":[0.00020378828048706055,0.9284517224878073,0.00022149085998535156],"scale":[0.9313396755605936,0.9313396755605936,0.9313396755605936],"mesh":0},{"name":"pack_root","children":[0]}],"scenes":[{"name":"Scene","nodes":[1]}],"scene":0,"extensionsUsed":["EXT_meshopt_compression","EXT_texture_webp","KHR_mesh_quantization"],"extensionsRequired":["EXT_meshopt_compression","EXT_texture_webp","KHR_mesh_quantization"]}