{"asset":{"generator":"glTF-Transform v4.5.1","version":"2.0"},"accessors":[{"type":"SCALAR","componentType":5123,"count":12810,"normalized":false,"byteOffset":0,"bufferView":0},{"type":"SCALAR","componentType":5123,"count":1608,"normalized":false,"byteOffset":25620,"bufferView":0},{"type":"VEC2","componentType":5126,"count":556,"normalized":false,"byteOffset":0,"bufferView":1},{"type":"SCALAR","componentType":5123,"count":1368,"normalized":false,"byteOffset":28836,"bufferView":0},{"type":"VEC4","componentType":5121,"count":3474,"normalized":true,"byteOffset":0,"bufferView":2},{"type":"VEC3","componentType":5122,"count":3474,"max":[29411,18882,24607],"min":[-31695,-2728,-26027],"normalized":true,"byteOffset":0,"bufferView":3},{"type":"VEC3","componentType":5122,"count":3474,"normalized":true,"byteOffset":0,"bufferView":4},{"type":"VEC2","componentType":5123,"count":3474,"normalized":true,"byteOffset":0,"bufferView":5},{"type":"VEC4","componentType":5121,"count":556,"normalized":true,"byteOffset":0,"bufferView":6},{"type":"VEC3","componentType":5122,"count":556,"max":[32767,3500,25239],"min":[-32767,-18882,-11205],"normalized":true,"byteOffset":0,"bufferView":7},{"type":"VEC3","componentType":5122,"count":556,"normalized":true,"byteOffset":0,"bufferView":8},{"type":"VEC4","componentType":5121,"count":288,"normalized":true,"byteOffset":0,"bufferView":9},{"type":"VEC3","componentType":5122,"count":288,"max":[26511,1488,26027],"min":[-26739,-15829,-11997],"normalized":true,"byteOffset":0,"bufferView":10},{"type":"VEC3","componentType":5122,"count":288,"normalized":true,"byteOffset":0,"bufferView":11},{"type":"VEC2","componentType":5123,"count":288,"normalized":true,"byteOffset":0,"bufferView":12}],"bufferViews":[{"buffer":1,"byteOffset":0,"byteLength":31572,"target":34963,"extensions":{"EXT_meshopt_compression":{"buffer":0,"byteOffset":0,"byteLength":5610,"mode":"TRIANGLES","byteStride":2,"count":15786}}},{"buffer":1,"byteOffset":31572,"byteLength":4448,"target":34962,"byteStride":8,"extensions":{"EXT_meshopt_compression":{"buffer":0,"byteOffset":5612,"byteLength":2958,"mode":"ATTRIBUTES","byteStride":8,"count":556}}},{"buffer":1,"byteOffset":36020,"byteLength":13896,"target":34962,"byteStride":4,"extensions":{"EXT_meshopt_compression":{"buffer":0,"byteOffset":8572,"byteLength":8420,"mode":"ATTRIBUTES","byteStride":4,"count":3474}}},{"buffer":1,"byteOffset":49916,"byteLength":27792,"target":34962,"byteStride":8,"extensions":{"EXT_meshopt_compression":{"buffer":0,"byteOffset":16992,"byteLength":18411,"mode":"ATTRIBUTES","byteStride":8,"count":3474}}},{"buffer":1,"byteOffset":77708,"byteLength":27792,"target":34962,"byteStride":8,"extensions":{"EXT_meshopt_compression":{"buffer":0,"byteOffset":35404,"byteLength":21340,"mode":"ATTRIBUTES","byteStride":8,"count":3474}}},{"buffer":1,"byteOffset":105500,"byteLength":13896,"target":34962,"byteStride":4,"extensions":{"EXT_meshopt_compression":{"buffer":0,"byteOffset":56744,"byteLength":12677,"mode":"ATTRIBUTES","byteStride":4,"count":3474}}},{"buffer":1,"byteOffset":119396,"byteLength":2224,"target":34962,"byteStride":4,"extensions":{"EXT_meshopt_compression":{"buffer":0,"byteOffset":69424,"byteLength":69,"mode":"ATTRIBUTES","byteStride":4,"count":556}}},{"buffer":1,"byteOffset":121620,"byteLength":4448,"target":34962,"byteStride":8,"extensions":{"EXT_meshopt_compression":{"buffer":0,"byteOffset":69496,"byteLength":2451,"mode":"ATTRIBUTES","byteStride":8,"count":556}}},{"buffer":1,"byteOffset":126068,"byteLength":4448,"target":34962,"byteStride":8,"extensions":{"EXT_meshopt_compression":{"buffer":0,"byteOffset":71948,"byteLength":2023,"mode":"ATTRIBUTES","byteStride":8,"count":556}}},{"buffer":1,"byteOffset":130516,"byteLength":1152,"target":34962,"byteStride":4,"extensions":{"EXT_meshopt_compression":{"buffer":0,"byteOffset":73972,"byteLength":53,"mode":"ATTRIBUTES","byteStride":4,"count":288}}},{"buffer":1,"byteOffset":131668,"byteLength":2304,"target":34962,"byteStride":8,"extensions":{"EXT_meshopt_compression":{"buffer":0,"byteOffset":74028,"byteLength":1381,"mode":"ATTRIBUTES","byteStride":8,"count":288}}},{"buffer":1,"byteOffset":133972,"byteLength":2304,"target":34962,"byteStride":8,"extensions":{"EXT_meshopt_compression":{"buffer":0,"byteOffset":75412,"byteLength":1753,"mode":"ATTRIBUTES","byteStride":8,"count":288}}},{"buffer":1,"byteOffset":136276,"byteLength":1152,"target":34962,"byteStride":4,"extensions":{"EXT_meshopt_compression":{"buffer":0,"byteOffset":77168,"byteLength":929,"mode":"ATTRIBUTES","byteStride":4,"count":288}}}],"samplers":[{"magFilter":9729,"minFilter":9987,"wrapS":10497,"wrapT":10497}],"textures":[{"sampler":0,"extensions":{"EXT_texture_webp":{"source":1}}},{"sampler":0,"extensions":{"EXT_texture_webp":{"source":0}}},{"sampler":0,"extensions":{"EXT_texture_webp":{"source":2}}},{"sampler":0,"extensions":{"EXT_texture_webp":{"source":4}}},{"sampler":0,"extensions":{"EXT_texture_webp":{"source":3}}},{"sampler":0,"extensions":{"EXT_texture_webp":{"source":5}}},{"sampler":0,"extensions":{"EXT_texture_webp":{"source":7}}},{"sampler":0,"extensions":{"EXT_texture_webp":{"source":6}}},{"sampler":0,"extensions":{"EXT_texture_webp":{"source":8}}}],"images":[{"name":"T_Trim_Props_Normal","mimeType":"image/webp","uri":"../../../textures/619430ed7226b53f.webp"},{"name":"T_Trim_Props_BaseColor","mimeType":"image/webp","uri":"../../../textures/3b116f820b5f9b7e.webp"},{"name":"T_Trim_Props_ORM","mimeType":"image/webp","uri":"../../../textures/3044d912bf0eca4a.webp"},{"name":"T_Trim_Furniture_Normal","mimeType":"image/webp","uri":"../../../textures/3ebbdf3b0c251e17.webp"},{"name":"T_Trim_Furniture_BaseColor","mimeType":"image/webp","uri":"../../../textures/2b0af78966d58c77.webp"},{"name":"T_Trim_Furniture_ORM","mimeType":"image/webp","uri":"../../../textures/ecfbb27dbfcb547b.webp"},{"name":"T_Trim_Metal_Normal","mimeType":"image/webp","uri":"../../../textures/81ac30aa058a108e.webp"},{"name":"T_Trim_Metal_BaseColor","mimeType":"image/webp","uri":"../../../textures/05903e5ec4b6be65.webp"},{"name":"T_Trim_Metal_ORM","mimeType":"image/webp","uri":"../../../textures/638ce4ce0e4c9f8e.webp"}],"buffers":[{"uri":"FarmCrate_Carrot.bin","byteLength":78100},{"byteLength":137428,"extensions":{"EXT_meshopt_compression":{"fallback":true}}}],"materials":[{"name":"MI_Trim_Props_Vertex","doubleSided":true,"pbrMetallicRoughness":{"baseColorTexture":{"index":0},"metallicRoughnessTexture":{"index":2}},"normalTexture":{"index":1}},{"name":"MI_Trim_Furniture","doubleSided":true,"pbrMetallicRoughness":{"baseColorTexture":{"index":3},"metallicRoughnessTexture":{"index":5}},"normalTexture":{"index":4}},{"name":"MI_Trim_Metal","doubleSided":true,"pbrMetallicRoughness":{"baseColorTexture":{"index":6},"metallicRoughnessTexture":{"index":8}},"normalTexture":{"index":7}}],"meshes":[{"name":"Cylinder.018","primitives":[{"attributes":{"COLOR_0":4,"POSITION":5,"NORMAL":6,"TEXCOORD_0":7},"mode":4,"material":0,"indices":0},{"attributes":{"TEXCOORD_0":2,"COLOR_0":8,"POSITION":9,"NORMAL":10},"mode":4,"material":1,"indices":1},{"attributes":{"COLOR_0":11,"POSITION":12,"NORMAL":13,"TEXCOORD_0":14},"mode":4,"material":2,"indices":3}]}],"nodes":[{"name":"FarmCrate_Carrot","translation":[0,0.18967599421739578,-0.07641801238059998],"scale":[0.35689881443977356,0.35689881443977356,0.35689881443977356],"mesh":0},{"name":"pack_root","children":[0]}],"scenes":[{"name":"Scene","nodes":[1]}],"scene":0,"extensionsUsed":["EXT_meshopt_compression","EXT_texture_webp","KHR_mesh_quantization"],"extensionsRequired":["EXT_meshopt_compression","EXT_texture_webp","KHR_mesh_quantization"]}