{"asset":{"generator":"glTF-Transform v4.5.1","version":"2.0"},"accessors":[{"type":"SCALAR","componentType":5123,"count":4380,"normalized":false,"byteOffset":0,"bufferView":0},{"type":"VEC2","componentType":5126,"count":817,"normalized":false,"byteOffset":0,"bufferView":1},{"type":"VEC3","componentType":5122,"count":817,"max":[31327,4792,32767],"min":[-31327,-4792,-32767],"normalized":true,"byteOffset":0,"bufferView":2},{"type":"VEC3","componentType":5122,"count":817,"normalized":true,"byteOffset":0,"bufferView":3}],"bufferViews":[{"buffer":1,"byteOffset":0,"byteLength":8760,"target":34963,"extensions":{"EXT_meshopt_compression":{"buffer":0,"byteOffset":0,"byteLength":1577,"mode":"TRIANGLES","byteStride":2,"count":4380}}},{"buffer":1,"byteOffset":8760,"byteLength":6536,"target":34962,"byteStride":8,"extensions":{"EXT_meshopt_compression":{"buffer":0,"byteOffset":1580,"byteLength":3236,"mode":"ATTRIBUTES","byteStride":8,"count":817}}},{"buffer":1,"byteOffset":15296,"byteLength":6536,"target":34962,"byteStride":8,"extensions":{"EXT_meshopt_compression":{"buffer":0,"byteOffset":4816,"byteLength":4547,"mode":"ATTRIBUTES","byteStride":8,"count":817}}},{"buffer":1,"byteOffset":21832,"byteLength":6536,"target":34962,"byteStride":8,"extensions":{"EXT_meshopt_compression":{"buffer":0,"byteOffset":9364,"byteLength":4490,"mode":"ATTRIBUTES","byteStride":8,"count":817}}}],"samplers":[{"magFilter":9729,"minFilter":9987,"wrapS":10497,"wrapT":10497}],"textures":[{"sampler":0,"extensions":{"EXT_texture_webp":{"source":1}}},{"sampler":0,"extensions":{"EXT_texture_webp":{"source":0}}},{"sampler":0,"extensions":{"EXT_texture_webp":{"source":2}}}],"images":[{"name":"T_Trim_Furniture_Normal","mimeType":"image/webp","uri":"../../../textures/3ebbdf3b0c251e17.webp"},{"name":"T_Trim_Furniture_BaseColor","mimeType":"image/webp","uri":"../../../textures/2b0af78966d58c77.webp"},{"name":"T_Trim_Furniture_ORM","mimeType":"image/webp","uri":"../../../textures/ecfbb27dbfcb547b.webp"}],"buffers":[{"uri":"Rope_2.bin","byteLength":13856},{"byteLength":28368,"extensions":{"EXT_meshopt_compression":{"fallback":true}}}],"materials":[{"name":"MI_Trim_Furniture","doubleSided":true,"pbrMetallicRoughness":{"baseColorTexture":{"index":0},"metallicRoughnessTexture":{"index":2}},"normalTexture":{"index":1}}],"meshes":[{"name":"BezierCurve.003","primitives":[{"attributes":{"TEXCOORD_0":1,"POSITION":2,"NORMAL":3},"mode":4,"material":0,"indices":0}]}],"nodes":[{"name":"Rope_2","translation":[0.020588800311088562,0.058508580550551414,-0.023022428154945374],"scale":[0.4225001782178879,0.4225001782178879,0.4225001782178879],"mesh":0},{"name":"pack_root","children":[0]}],"scenes":[{"name":"Scene","nodes":[1]}],"scene":0,"extensionsUsed":["EXT_meshopt_compression","EXT_texture_webp","KHR_mesh_quantization"],"extensionsRequired":["EXT_meshopt_compression","EXT_texture_webp","KHR_mesh_quantization"]}