{"asset":{"generator":"glTF-Transform v4.5.1","version":"2.0"},"accessors":[{"type":"SCALAR","componentType":5123,"count":1308,"normalized":false,"byteOffset":0,"bufferView":0},{"type":"SCALAR","componentType":5123,"count":708,"normalized":false,"byteOffset":2616,"bufferView":0},{"type":"VEC4","componentType":5121,"count":341,"normalized":true,"byteOffset":0,"bufferView":1},{"type":"VEC3","componentType":5122,"count":341,"max":[32767,8257,8957],"min":[-32767,-8136,-8957],"normalized":true,"byteOffset":0,"bufferView":2},{"type":"VEC3","componentType":5122,"count":341,"normalized":true,"byteOffset":0,"bufferView":3},{"type":"VEC2","componentType":5123,"count":341,"normalized":true,"byteOffset":0,"bufferView":4},{"type":"VEC4","componentType":5121,"count":268,"normalized":true,"byteOffset":0,"bufferView":5},{"type":"VEC3","componentType":5122,"count":268,"max":[3812,6188,6304],"min":[-5920,-8257,-8144],"normalized":true,"byteOffset":0,"bufferView":6},{"type":"VEC3","componentType":5122,"count":268,"normalized":true,"byteOffset":0,"bufferView":7},{"type":"VEC2","componentType":5123,"count":268,"normalized":true,"byteOffset":0,"bufferView":8}],"bufferViews":[{"buffer":1,"byteOffset":0,"byteLength":4032,"target":34963,"extensions":{"EXT_meshopt_compression":{"buffer":0,"byteOffset":0,"byteLength":733,"mode":"TRIANGLES","byteStride":2,"count":2016}}},{"buffer":1,"byteOffset":4032,"byteLength":1364,"target":34962,"byteStride":4,"extensions":{"EXT_meshopt_compression":{"buffer":0,"byteOffset":736,"byteLength":57,"mode":"ATTRIBUTES","byteStride":4,"count":341}}},{"buffer":1,"byteOffset":5396,"byteLength":2728,"target":34962,"byteStride":8,"extensions":{"EXT_meshopt_compression":{"buffer":0,"byteOffset":796,"byteLength":1967,"mode":"ATTRIBUTES","byteStride":8,"count":341}}},{"buffer":1,"byteOffset":8124,"byteLength":2728,"target":34962,"byteStride":8,"extensions":{"EXT_meshopt_compression":{"buffer":0,"byteOffset":2764,"byteLength":1874,"mode":"ATTRIBUTES","byteStride":8,"count":341}}},{"buffer":1,"byteOffset":10852,"byteLength":1364,"target":34962,"byteStride":4,"extensions":{"EXT_meshopt_compression":{"buffer":0,"byteOffset":4640,"byteLength":1081,"mode":"ATTRIBUTES","byteStride":4,"count":341}}},{"buffer":1,"byteOffset":12216,"byteLength":1072,"target":34962,"byteStride":4,"extensions":{"EXT_meshopt_compression":{"buffer":0,"byteOffset":5724,"byteLength":53,"mode":"ATTRIBUTES","byteStride":4,"count":268}}},{"buffer":1,"byteOffset":13288,"byteLength":2144,"target":34962,"byteStride":8,"extensions":{"EXT_meshopt_compression":{"buffer":0,"byteOffset":5780,"byteLength":1385,"mode":"ATTRIBUTES","byteStride":8,"count":268}}},{"buffer":1,"byteOffset":15432,"byteLength":2144,"target":34962,"byteStride":8,"extensions":{"EXT_meshopt_compression":{"buffer":0,"byteOffset":7168,"byteLength":919,"mode":"ATTRIBUTES","byteStride":8,"count":268}}},{"buffer":1,"byteOffset":17576,"byteLength":1072,"target":34962,"byteStride":4,"extensions":{"EXT_meshopt_compression":{"buffer":0,"byteOffset":8088,"byteLength":734,"mode":"ATTRIBUTES","byteStride":4,"count":268}}}],"samplers":[{"magFilter":9729,"minFilter":9987,"wrapS":10497,"wrapT":10497}],"textures":[{"sampler":0,"extensions":{"EXT_texture_webp":{"source":0}}},{"sampler":0,"extensions":{"EXT_texture_webp":{"source":2}}},{"sampler":0,"extensions":{"EXT_texture_webp":{"source":1}}},{"sampler":0,"extensions":{"EXT_texture_webp":{"source":3}}}],"images":[{"name":"T_Page_Noise","mimeType":"image/webp","uri":"../../../textures/4f33b7a5dac5f7b8.webp"},{"name":"T_Trim_Props_Normal","mimeType":"image/webp","uri":"../../../textures/619430ed7226b53f.webp"},{"name":"T_Trim_Props_BaseColor","mimeType":"image/webp","uri":"../../../textures/3b116f820b5f9b7e.webp"},{"name":"T_Trim_Props_ORM","mimeType":"image/webp","uri":"../../../textures/3044d912bf0eca4a.webp"}],"buffers":[{"uri":"Scroll_2.bin","byteLength":8824},{"byteLength":18648,"extensions":{"EXT_meshopt_compression":{"fallback":true}}}],"materials":[{"name":"MI_Page_Empty","doubleSided":true,"pbrMetallicRoughness":{"roughnessFactor":0.8,"metallicFactor":0,"baseColorTexture":{"index":0}}},{"name":"MI_Trim_Props_Vertex","doubleSided":true,"pbrMetallicRoughness":{"baseColorTexture":{"index":1},"metallicRoughnessTexture":{"index":3}},"normalTexture":{"index":2}}],"meshes":[{"name":"Cube.156","primitives":[{"attributes":{"COLOR_0":2,"POSITION":3,"NORMAL":4,"TEXCOORD_0":5},"mode":4,"material":0,"indices":0},{"attributes":{"COLOR_0":6,"POSITION":7,"NORMAL":8,"TEXCOORD_0":9},"mode":4,"material":1,"indices":1}]}],"nodes":[{"name":"Scroll_2","translation":[0.0037502869963645935,0.0297683198004961,0.006399011239409447],"scale":[0.11647098511457443,0.11647098511457443,0.11647098511457443],"mesh":0},{"name":"pack_root","children":[0]}],"scenes":[{"name":"Scene","nodes":[1]}],"scene":0,"extensionsUsed":["EXT_meshopt_compression","EXT_texture_webp","KHR_mesh_quantization"],"extensionsRequired":["EXT_meshopt_compression","EXT_texture_webp","KHR_mesh_quantization"]}