{"asset":{"generator":"glTF-Transform v4.5.1","version":"2.0"},"accessors":[{"type":"SCALAR","componentType":5123,"count":1308,"normalized":false,"byteOffset":0,"bufferView":0},{"type":"SCALAR","componentType":5123,"count":228,"normalized":false,"byteOffset":2616,"bufferView":0},{"type":"VEC4","componentType":5121,"count":344,"normalized":true,"byteOffset":0,"bufferView":1},{"type":"VEC3","componentType":5122,"count":344,"max":[32767,7896,8481],"min":[-32767,-7828,-8481],"normalized":true,"byteOffset":0,"bufferView":2},{"type":"VEC3","componentType":5122,"count":344,"normalized":true,"byteOffset":0,"bufferView":3},{"type":"VEC2","componentType":5123,"count":344,"normalized":true,"byteOffset":0,"bufferView":4},{"type":"VEC4","componentType":5121,"count":82,"normalized":true,"byteOffset":0,"bufferView":5},{"type":"VEC3","componentType":5122,"count":82,"max":[4152,5428,5860],"min":[-4824,-7896,-7468],"normalized":true,"byteOffset":0,"bufferView":6},{"type":"VEC3","componentType":5122,"count":82,"normalized":true,"byteOffset":0,"bufferView":7},{"type":"VEC2","componentType":5123,"count":82,"normalized":true,"byteOffset":0,"bufferView":8}],"bufferViews":[{"buffer":1,"byteOffset":0,"byteLength":3072,"target":34963,"extensions":{"EXT_meshopt_compression":{"buffer":0,"byteOffset":0,"byteLength":569,"mode":"TRIANGLES","byteStride":2,"count":1536}}},{"buffer":1,"byteOffset":3072,"byteLength":1376,"target":34962,"byteStride":4,"extensions":{"EXT_meshopt_compression":{"buffer":0,"byteOffset":572,"byteLength":57,"mode":"ATTRIBUTES","byteStride":4,"count":344}}},{"buffer":1,"byteOffset":4448,"byteLength":2752,"target":34962,"byteStride":8,"extensions":{"EXT_meshopt_compression":{"buffer":0,"byteOffset":632,"byteLength":1985,"mode":"ATTRIBUTES","byteStride":8,"count":344}}},{"buffer":1,"byteOffset":7200,"byteLength":2752,"target":34962,"byteStride":8,"extensions":{"EXT_meshopt_compression":{"buffer":0,"byteOffset":2620,"byteLength":1833,"mode":"ATTRIBUTES","byteStride":8,"count":344}}},{"buffer":1,"byteOffset":9952,"byteLength":1376,"target":34962,"byteStride":4,"extensions":{"EXT_meshopt_compression":{"buffer":0,"byteOffset":4456,"byteLength":1092,"mode":"ATTRIBUTES","byteStride":4,"count":344}}},{"buffer":1,"byteOffset":11328,"byteLength":328,"target":34962,"byteStride":4,"extensions":{"EXT_meshopt_compression":{"buffer":0,"byteOffset":5548,"byteLength":41,"mode":"ATTRIBUTES","byteStride":4,"count":82}}},{"buffer":1,"byteOffset":11656,"byteLength":656,"target":34962,"byteStride":8,"extensions":{"EXT_meshopt_compression":{"buffer":0,"byteOffset":5592,"byteLength":450,"mode":"ATTRIBUTES","byteStride":8,"count":82}}},{"buffer":1,"byteOffset":12312,"byteLength":656,"target":34962,"byteStride":8,"extensions":{"EXT_meshopt_compression":{"buffer":0,"byteOffset":6044,"byteLength":198,"mode":"ATTRIBUTES","byteStride":8,"count":82}}},{"buffer":1,"byteOffset":12968,"byteLength":328,"target":34962,"byteStride":4,"extensions":{"EXT_meshopt_compression":{"buffer":0,"byteOffset":6244,"byteLength":336,"mode":"ATTRIBUTES","byteStride":4,"count":82}}}],"samplers":[{"magFilter":9729,"minFilter":9987,"wrapS":10497,"wrapT":10497}],"textures":[{"sampler":0,"extensions":{"EXT_texture_webp":{"source":0}}},{"sampler":0,"extensions":{"EXT_texture_webp":{"source":2}}},{"sampler":0,"extensions":{"EXT_texture_webp":{"source":1}}},{"sampler":0,"extensions":{"EXT_texture_webp":{"source":3}}}],"images":[{"name":"T_Page_Noise","mimeType":"image/webp","uri":"../../../textures/4f33b7a5dac5f7b8.webp"},{"name":"T_Trim_Props_Normal","mimeType":"image/webp","uri":"../../../textures/619430ed7226b53f.webp"},{"name":"T_Trim_Props_BaseColor","mimeType":"image/webp","uri":"../../../textures/3b116f820b5f9b7e.webp"},{"name":"T_Trim_Props_ORM","mimeType":"image/webp","uri":"../../../textures/3044d912bf0eca4a.webp"}],"buffers":[{"uri":"Scroll_1.bin","byteLength":6580},{"byteLength":13296,"extensions":{"EXT_meshopt_compression":{"fallback":true}}}],"materials":[{"name":"MI_Page_Empty","doubleSided":true,"pbrMetallicRoughness":{"roughnessFactor":0.8,"metallicFactor":0,"baseColorTexture":{"index":0}}},{"name":"MI_Trim_Props_Vertex","doubleSided":true,"pbrMetallicRoughness":{"baseColorTexture":{"index":1},"metallicRoughnessTexture":{"index":3}},"normalTexture":{"index":2}}],"meshes":[{"name":"Cube.152","primitives":[{"attributes":{"COLOR_0":2,"POSITION":3,"NORMAL":4,"TEXCOORD_0":5},"mode":4,"material":0,"indices":0},{"attributes":{"COLOR_0":6,"POSITION":7,"NORMAL":8,"TEXCOORD_0":9},"mode":4,"material":1,"indices":1}]}],"nodes":[{"name":"Scroll_1","translation":[0.0012515708804130554,0.03038912918418646,0.0061180125921964645],"scale":[0.1219460666179657,0.1219460666179657,0.1219460666179657],"mesh":0},{"name":"pack_root","children":[0]}],"scenes":[{"name":"Scene","nodes":[1]}],"scene":0,"extensionsUsed":["EXT_meshopt_compression","EXT_texture_webp","KHR_mesh_quantization"],"extensionsRequired":["EXT_meshopt_compression","EXT_texture_webp","KHR_mesh_quantization"]}