{"asset":{"generator":"glTF-Transform v4.5.1","version":"2.0"},"accessors":[{"type":"SCALAR","componentType":5123,"count":12924,"normalized":false,"byteOffset":0,"bufferView":0},{"type":"SCALAR","componentType":5123,"count":2160,"normalized":false,"byteOffset":25848,"bufferView":0},{"type":"SCALAR","componentType":5123,"count":618,"normalized":false,"byteOffset":30168,"bufferView":0},{"type":"VEC2","componentType":5126,"count":300,"normalized":false,"byteOffset":0,"bufferView":1},{"type":"VEC4","componentType":5121,"count":3964,"normalized":true,"byteOffset":0,"bufferView":2},{"type":"VEC3","componentType":5122,"count":3964,"max":[28175,15193,5788],"min":[-27327,-10401,432],"normalized":true,"byteOffset":0,"bufferView":3},{"type":"VEC3","componentType":5122,"count":3964,"normalized":true,"byteOffset":0,"bufferView":4},{"type":"VEC2","componentType":5123,"count":3964,"normalized":true,"byteOffset":0,"bufferView":5},{"type":"VEC4","componentType":5121,"count":688,"normalized":true,"byteOffset":0,"bufferView":6},{"type":"VEC3","componentType":5122,"count":688,"max":[32767,9705,7484],"min":[-32767,-15249,-7444],"normalized":true,"byteOffset":0,"bufferView":7},{"type":"VEC3","componentType":5122,"count":688,"normalized":true,"byteOffset":0,"bufferView":8},{"type":"VEC2","componentType":5123,"count":688,"normalized":true,"byteOffset":0,"bufferView":9},{"type":"VEC4","componentType":5121,"count":300,"normalized":true,"byteOffset":0,"bufferView":10},{"type":"VEC3","componentType":5122,"count":300,"max":[31299,18654,8201],"min":[-31299,-18654,-8201],"normalized":true,"byteOffset":0,"bufferView":11},{"type":"VEC3","componentType":5122,"count":300,"normalized":true,"byteOffset":0,"bufferView":12}],"bufferViews":[{"buffer":1,"byteOffset":0,"byteLength":31404,"target":34963,"extensions":{"EXT_meshopt_compression":{"buffer":0,"byteOffset":0,"byteLength":5507,"mode":"TRIANGLES","byteStride":2,"count":15702}}},{"buffer":1,"byteOffset":31404,"byteLength":2400,"target":34962,"byteStride":8,"extensions":{"EXT_meshopt_compression":{"buffer":0,"byteOffset":5508,"byteLength":1727,"mode":"ATTRIBUTES","byteStride":8,"count":300}}},{"buffer":1,"byteOffset":33804,"byteLength":15856,"target":34962,"byteStride":4,"extensions":{"EXT_meshopt_compression":{"buffer":0,"byteOffset":7236,"byteLength":2022,"mode":"ATTRIBUTES","byteStride":4,"count":3964}}},{"buffer":1,"byteOffset":49660,"byteLength":31712,"target":34962,"byteStride":8,"extensions":{"EXT_meshopt_compression":{"buffer":0,"byteOffset":9260,"byteLength":18056,"mode":"ATTRIBUTES","byteStride":8,"count":3964}}},{"buffer":1,"byteOffset":81372,"byteLength":31712,"target":34962,"byteStride":8,"extensions":{"EXT_meshopt_compression":{"buffer":0,"byteOffset":27316,"byteLength":21623,"mode":"ATTRIBUTES","byteStride":8,"count":3964}}},{"buffer":1,"byteOffset":113084,"byteLength":15856,"target":34962,"byteStride":4,"extensions":{"EXT_meshopt_compression":{"buffer":0,"byteOffset":48940,"byteLength":13242,"mode":"ATTRIBUTES","byteStride":4,"count":3964}}},{"buffer":1,"byteOffset":128940,"byteLength":2752,"target":34962,"byteStride":4,"extensions":{"EXT_meshopt_compression":{"buffer":0,"byteOffset":62184,"byteLength":77,"mode":"ATTRIBUTES","byteStride":4,"count":688}}},{"buffer":1,"byteOffset":131692,"byteLength":5504,"target":34962,"byteStride":8,"extensions":{"EXT_meshopt_compression":{"buffer":0,"byteOffset":62264,"byteLength":2975,"mode":"ATTRIBUTES","byteStride":8,"count":688}}},{"buffer":1,"byteOffset":137196,"byteLength":5504,"target":34962,"byteStride":8,"extensions":{"EXT_meshopt_compression":{"buffer":0,"byteOffset":65240,"byteLength":2584,"mode":"ATTRIBUTES","byteStride":8,"count":688}}},{"buffer":1,"byteOffset":142700,"byteLength":2752,"target":34962,"byteStride":4,"extensions":{"EXT_meshopt_compression":{"buffer":0,"byteOffset":67824,"byteLength":2165,"mode":"ATTRIBUTES","byteStride":4,"count":688}}},{"buffer":1,"byteOffset":145452,"byteLength":1200,"target":34962,"byteStride":4,"extensions":{"EXT_meshopt_compression":{"buffer":0,"byteOffset":69992,"byteLength":53,"mode":"ATTRIBUTES","byteStride":4,"count":300}}},{"buffer":1,"byteOffset":146652,"byteLength":2400,"target":34962,"byteStride":8,"extensions":{"EXT_meshopt_compression":{"buffer":0,"byteOffset":70048,"byteLength":1250,"mode":"ATTRIBUTES","byteStride":8,"count":300}}},{"buffer":1,"byteOffset":149052,"byteLength":2400,"target":34962,"byteStride":8,"extensions":{"EXT_meshopt_compression":{"buffer":0,"byteOffset":71300,"byteLength":657,"mode":"ATTRIBUTES","byteStride":8,"count":300}}}],"samplers":[{"magFilter":9729,"minFilter":9987,"wrapS":10497,"wrapT":10497}],"textures":[{"sampler":0,"extensions":{"EXT_texture_webp":{"source":1}}},{"sampler":0,"extensions":{"EXT_texture_webp":{"source":0}}},{"sampler":0,"extensions":{"EXT_texture_webp":{"source":2}}},{"sampler":0,"extensions":{"EXT_texture_webp":{"source":4}}},{"sampler":0,"extensions":{"EXT_texture_webp":{"source":3}}},{"sampler":0,"extensions":{"EXT_texture_webp":{"source":5}}},{"sampler":0,"extensions":{"EXT_texture_webp":{"source":7}}},{"sampler":0,"extensions":{"EXT_texture_webp":{"source":6}}},{"sampler":0,"extensions":{"EXT_texture_webp":{"source":8}}}],"images":[{"name":"T_Trim_Props_Normal","mimeType":"image/webp","uri":"../../../textures/619430ed7226b53f.webp"},{"name":"T_Trim_Props_BaseColor","mimeType":"image/webp","uri":"../../../textures/3b116f820b5f9b7e.webp"},{"name":"T_Trim_Props_ORM","mimeType":"image/webp","uri":"../../../textures/3044d912bf0eca4a.webp"},{"name":"T_Trim_Metal_Normal","mimeType":"image/webp","uri":"../../../textures/81ac30aa058a108e.webp"},{"name":"T_Trim_Metal_BaseColor","mimeType":"image/webp","uri":"../../../textures/05903e5ec4b6be65.webp"},{"name":"T_Trim_Metal_ORM","mimeType":"image/webp","uri":"../../../textures/638ce4ce0e4c9f8e.webp"},{"name":"T_Trim_Furniture_Normal","mimeType":"image/webp","uri":"../../../textures/3ebbdf3b0c251e17.webp"},{"name":"T_Trim_Furniture_BaseColor","mimeType":"image/webp","uri":"../../../textures/2b0af78966d58c77.webp"},{"name":"T_Trim_Furniture_ORM","mimeType":"image/webp","uri":"../../../textures/ecfbb27dbfcb547b.webp"}],"buffers":[{"uri":"Shelf_Small_Bottles.bin","byteLength":71960},{"byteLength":151452,"extensions":{"EXT_meshopt_compression":{"fallback":true}}}],"materials":[{"name":"MI_Trim_Props_Vertex","doubleSided":true,"pbrMetallicRoughness":{"baseColorTexture":{"index":0},"metallicRoughnessTexture":{"index":2}},"normalTexture":{"index":1}},{"name":"MI_Trim_Metal","doubleSided":true,"pbrMetallicRoughness":{"baseColorTexture":{"index":3},"metallicRoughnessTexture":{"index":5}},"normalTexture":{"index":4}},{"name":"MI_Trim_Furniture","doubleSided":true,"pbrMetallicRoughness":{"baseColorTexture":{"index":6},"metallicRoughnessTexture":{"index":8}},"normalTexture":{"index":7}}],"meshes":[{"name":"Cube.166","primitives":[{"attributes":{"COLOR_0":4,"POSITION":5,"NORMAL":6,"TEXCOORD_0":7},"mode":4,"material":0,"indices":0},{"attributes":{"COLOR_0":8,"POSITION":9,"NORMAL":10,"TEXCOORD_0":11},"mode":4,"material":1,"indices":1},{"attributes":{"TEXCOORD_0":3,"COLOR_0":12,"POSITION":13,"NORMAL":14},"mode":4,"material":2,"indices":2}]}],"nodes":[{"name":"Shelf_Small_Bottles","translation":[-0.00008276104927062988,0.3045744448900223,0.15238668769598007],"scale":[0.5685671269893646,0.5685671269893646,0.5685671269893646],"mesh":0},{"name":"pack_root","children":[0]}],"scenes":[{"name":"Scene","nodes":[1]}],"scene":0,"extensionsUsed":["EXT_meshopt_compression","EXT_texture_webp","KHR_mesh_quantization"],"extensionsRequired":["EXT_meshopt_compression","EXT_texture_webp","KHR_mesh_quantization"]}