{"asset":{"generator":"glTF-Transform v4.5.1","version":"2.0"},"accessors":[{"type":"SCALAR","componentType":5123,"count":3240,"normalized":false,"byteOffset":0,"bufferView":0},{"type":"SCALAR","componentType":5123,"count":618,"normalized":false,"byteOffset":6480,"bufferView":0},{"type":"VEC2","componentType":5126,"count":300,"normalized":false,"byteOffset":0,"bufferView":1},{"type":"VEC4","componentType":5121,"count":1128,"normalized":true,"byteOffset":0,"bufferView":2},{"type":"VEC3","componentType":5122,"count":1128,"max":[25675,20306,5864],"min":[-25675,-27963,-5832],"normalized":true,"byteOffset":0,"bufferView":3},{"type":"VEC3","componentType":5122,"count":1128,"normalized":true,"byteOffset":0,"bufferView":4},{"type":"VEC2","componentType":5123,"count":1128,"normalized":true,"byteOffset":0,"bufferView":5},{"type":"VEC4","componentType":5121,"count":300,"normalized":true,"byteOffset":0,"bufferView":6},{"type":"VEC3","componentType":5122,"count":300,"max":[24522,32767,6424],"min":[-24522,-32767,-6424],"normalized":true,"byteOffset":0,"bufferView":7},{"type":"VEC3","componentType":5122,"count":300,"normalized":true,"byteOffset":0,"bufferView":8}],"bufferViews":[{"buffer":1,"byteOffset":0,"byteLength":7716,"target":34963,"extensions":{"EXT_meshopt_compression":{"buffer":0,"byteOffset":0,"byteLength":1381,"mode":"TRIANGLES","byteStride":2,"count":3858}}},{"buffer":1,"byteOffset":7716,"byteLength":2400,"target":34962,"byteStride":8,"extensions":{"EXT_meshopt_compression":{"buffer":0,"byteOffset":1384,"byteLength":1729,"mode":"ATTRIBUTES","byteStride":8,"count":300}}},{"buffer":1,"byteOffset":10116,"byteLength":4512,"target":34962,"byteStride":4,"extensions":{"EXT_meshopt_compression":{"buffer":0,"byteOffset":3116,"byteLength":105,"mode":"ATTRIBUTES","byteStride":4,"count":1128}}},{"buffer":1,"byteOffset":14628,"byteLength":9024,"target":34962,"byteStride":8,"extensions":{"EXT_meshopt_compression":{"buffer":0,"byteOffset":3224,"byteLength":4790,"mode":"ATTRIBUTES","byteStride":8,"count":1128}}},{"buffer":1,"byteOffset":23652,"byteLength":9024,"target":34962,"byteStride":8,"extensions":{"EXT_meshopt_compression":{"buffer":0,"byteOffset":8016,"byteLength":3602,"mode":"ATTRIBUTES","byteStride":8,"count":1128}}},{"buffer":1,"byteOffset":32676,"byteLength":4512,"target":34962,"byteStride":4,"extensions":{"EXT_meshopt_compression":{"buffer":0,"byteOffset":11620,"byteLength":3531,"mode":"ATTRIBUTES","byteStride":4,"count":1128}}},{"buffer":1,"byteOffset":37188,"byteLength":1200,"target":34962,"byteStride":4,"extensions":{"EXT_meshopt_compression":{"buffer":0,"byteOffset":15152,"byteLength":98,"mode":"ATTRIBUTES","byteStride":4,"count":300}}},{"buffer":1,"byteOffset":38388,"byteLength":2400,"target":34962,"byteStride":8,"extensions":{"EXT_meshopt_compression":{"buffer":0,"byteOffset":15252,"byteLength":1381,"mode":"ATTRIBUTES","byteStride":8,"count":300}}},{"buffer":1,"byteOffset":40788,"byteLength":2400,"target":34962,"byteStride":8,"extensions":{"EXT_meshopt_compression":{"buffer":0,"byteOffset":16636,"byteLength":750,"mode":"ATTRIBUTES","byteStride":8,"count":300}}}],"samplers":[{"magFilter":9729,"minFilter":9987,"wrapS":10497,"wrapT":10497}],"textures":[{"sampler":0,"extensions":{"EXT_texture_webp":{"source":1}}},{"sampler":0,"extensions":{"EXT_texture_webp":{"source":0}}},{"sampler":0,"extensions":{"EXT_texture_webp":{"source":2}}},{"sampler":0,"extensions":{"EXT_texture_webp":{"source":4}}},{"sampler":0,"extensions":{"EXT_texture_webp":{"source":3}}},{"sampler":0,"extensions":{"EXT_texture_webp":{"source":5}}}],"images":[{"name":"T_Trim_Metal_Normal","mimeType":"image/webp","uri":"../../../textures/81ac30aa058a108e.webp"},{"name":"T_Trim_Metal_BaseColor","mimeType":"image/webp","uri":"../../../textures/05903e5ec4b6be65.webp"},{"name":"T_Trim_Metal_ORM","mimeType":"image/webp","uri":"../../../textures/638ce4ce0e4c9f8e.webp"},{"name":"T_Trim_Furniture_Normal","mimeType":"image/webp","uri":"../../../textures/3ebbdf3b0c251e17.webp"},{"name":"T_Trim_Furniture_BaseColor","mimeType":"image/webp","uri":"../../../textures/2b0af78966d58c77.webp"},{"name":"T_Trim_Furniture_ORM","mimeType":"image/webp","uri":"../../../textures/ecfbb27dbfcb547b.webp"}],"buffers":[{"uri":"Shelf_Arch.bin","byteLength":17388},{"byteLength":43188,"extensions":{"EXT_meshopt_compression":{"fallback":true}}}],"materials":[{"name":"MI_Trim_Metal","doubleSided":true,"pbrMetallicRoughness":{"baseColorTexture":{"index":0},"metallicRoughnessTexture":{"index":2}},"normalTexture":{"index":1}},{"name":"MI_Trim_Furniture","doubleSided":true,"pbrMetallicRoughness":{"baseColorTexture":{"index":3},"metallicRoughnessTexture":{"index":5}},"normalTexture":{"index":4}}],"meshes":[{"name":"Cylinder.032","primitives":[{"attributes":{"COLOR_0":3,"POSITION":4,"NORMAL":5,"TEXCOORD_0":6},"mode":4,"material":0,"indices":0},{"attributes":{"TEXCOORD_0":2,"COLOR_0":7,"POSITION":8,"NORMAL":9},"mode":4,"material":1,"indices":1}]}],"nodes":[{"name":"Shelf_Arch","translation":[5.960464477539063e-8,0.18011009693145752,0.1509560588747263],"scale":[0.7945848703384399,0.7945848703384399,0.7945848703384399],"mesh":0},{"name":"pack_root","children":[0]}],"scenes":[{"name":"Scene","nodes":[1]}],"scene":0,"extensionsUsed":["EXT_meshopt_compression","EXT_texture_webp","KHR_mesh_quantization"],"extensionsRequired":["EXT_meshopt_compression","EXT_texture_webp","KHR_mesh_quantization"]}