{"asset":{"generator":"glTF-Transform v4.5.1","version":"2.0"},"accessors":[{"type":"SCALAR","componentType":5123,"count":1440,"normalized":false,"byteOffset":0,"bufferView":0},{"type":"SCALAR","componentType":5123,"count":2352,"normalized":false,"byteOffset":2880,"bufferView":0},{"type":"VEC2","componentType":5126,"count":851,"normalized":false,"byteOffset":0,"bufferView":1},{"type":"SCALAR","componentType":5123,"count":420,"normalized":false,"byteOffset":7584,"bufferView":0},{"type":"VEC4","componentType":5121,"count":395,"normalized":true,"byteOffset":0,"bufferView":2},{"type":"VEC3","componentType":5122,"count":395,"max":[29663,29899,5336],"min":[-29831,-29739,-6452],"normalized":true,"byteOffset":0,"bufferView":3},{"type":"VEC3","componentType":5122,"count":395,"normalized":true,"byteOffset":0,"bufferView":4},{"type":"VEC2","componentType":5123,"count":395,"normalized":true,"byteOffset":0,"bufferView":5},{"type":"VEC4","componentType":5121,"count":851,"normalized":true,"byteOffset":0,"bufferView":6},{"type":"VEC3","componentType":5122,"count":851,"max":[32435,32767,9437],"min":[-32435,-32767,-7416],"normalized":true,"byteOffset":0,"bufferView":7},{"type":"VEC3","componentType":5122,"count":851,"normalized":true,"byteOffset":0,"bufferView":8},{"type":"VEC4","componentType":5121,"count":148,"normalized":true,"byteOffset":0,"bufferView":9},{"type":"VEC3","componentType":5122,"count":148,"max":[1936,16514,-4696],"min":[-1936,-16514,-9437],"normalized":true,"byteOffset":0,"bufferView":10},{"type":"VEC3","componentType":5122,"count":148,"normalized":true,"byteOffset":0,"bufferView":11},{"type":"VEC2","componentType":5123,"count":148,"normalized":true,"byteOffset":0,"bufferView":12}],"bufferViews":[{"buffer":1,"byteOffset":0,"byteLength":8424,"target":34963,"extensions":{"EXT_meshopt_compression":{"buffer":0,"byteOffset":0,"byteLength":1504,"mode":"TRIANGLES","byteStride":2,"count":4212}}},{"buffer":1,"byteOffset":8424,"byteLength":6808,"target":34962,"byteStride":8,"extensions":{"EXT_meshopt_compression":{"buffer":0,"byteOffset":1504,"byteLength":4800,"mode":"ATTRIBUTES","byteStride":8,"count":851}}},{"buffer":1,"byteOffset":15232,"byteLength":1580,"target":34962,"byteStride":4,"extensions":{"EXT_meshopt_compression":{"buffer":0,"byteOffset":6304,"byteLength":61,"mode":"ATTRIBUTES","byteStride":4,"count":395}}},{"buffer":1,"byteOffset":16812,"byteLength":3160,"target":34962,"byteStride":8,"extensions":{"EXT_meshopt_compression":{"buffer":0,"byteOffset":6368,"byteLength":2238,"mode":"ATTRIBUTES","byteStride":8,"count":395}}},{"buffer":1,"byteOffset":19972,"byteLength":3160,"target":34962,"byteStride":8,"extensions":{"EXT_meshopt_compression":{"buffer":0,"byteOffset":8608,"byteLength":2201,"mode":"ATTRIBUTES","byteStride":8,"count":395}}},{"buffer":1,"byteOffset":23132,"byteLength":1580,"target":34962,"byteStride":4,"extensions":{"EXT_meshopt_compression":{"buffer":0,"byteOffset":10812,"byteLength":1408,"mode":"ATTRIBUTES","byteStride":4,"count":395}}},{"buffer":1,"byteOffset":24712,"byteLength":3404,"target":34962,"byteStride":4,"extensions":{"EXT_meshopt_compression":{"buffer":0,"byteOffset":12220,"byteLength":134,"mode":"ATTRIBUTES","byteStride":4,"count":851}}},{"buffer":1,"byteOffset":28116,"byteLength":6808,"target":34962,"byteStride":8,"extensions":{"EXT_meshopt_compression":{"buffer":0,"byteOffset":12356,"byteLength":4341,"mode":"ATTRIBUTES","byteStride":8,"count":851}}},{"buffer":1,"byteOffset":34924,"byteLength":6808,"target":34962,"byteStride":8,"extensions":{"EXT_meshopt_compression":{"buffer":0,"byteOffset":16700,"byteLength":3288,"mode":"ATTRIBUTES","byteStride":8,"count":851}}},{"buffer":1,"byteOffset":41732,"byteLength":592,"target":34962,"byteStride":4,"extensions":{"EXT_meshopt_compression":{"buffer":0,"byteOffset":19988,"byteLength":45,"mode":"ATTRIBUTES","byteStride":4,"count":148}}},{"buffer":1,"byteOffset":42324,"byteLength":1184,"target":34962,"byteStride":8,"extensions":{"EXT_meshopt_compression":{"buffer":0,"byteOffset":20036,"byteLength":761,"mode":"ATTRIBUTES","byteStride":8,"count":148}}},{"buffer":1,"byteOffset":43508,"byteLength":1184,"target":34962,"byteStride":8,"extensions":{"EXT_meshopt_compression":{"buffer":0,"byteOffset":20800,"byteLength":575,"mode":"ATTRIBUTES","byteStride":8,"count":148}}},{"buffer":1,"byteOffset":44692,"byteLength":592,"target":34962,"byteStride":4,"extensions":{"EXT_meshopt_compression":{"buffer":0,"byteOffset":21376,"byteLength":521,"mode":"ATTRIBUTES","byteStride":4,"count":148}}}],"samplers":[{"magFilter":9729,"minFilter":9987,"wrapS":10497,"wrapT":10497}],"textures":[{"sampler":0,"extensions":{"EXT_texture_webp":{"source":1}}},{"sampler":0,"extensions":{"EXT_texture_webp":{"source":0}}},{"sampler":0,"extensions":{"EXT_texture_webp":{"source":2}}},{"sampler":0,"extensions":{"EXT_texture_webp":{"source":4}}},{"sampler":0,"extensions":{"EXT_texture_webp":{"source":3}}},{"sampler":0,"extensions":{"EXT_texture_webp":{"source":5}}},{"sampler":0,"extensions":{"EXT_texture_webp":{"source":7}}},{"sampler":0,"extensions":{"EXT_texture_webp":{"source":6}}},{"sampler":0,"extensions":{"EXT_texture_webp":{"source":8}}}],"images":[{"name":"T_Trim_Furniture_Normal","mimeType":"image/webp","uri":"../../../textures/3ebbdf3b0c251e17.webp"},{"name":"T_Trim_Furniture_BaseColor","mimeType":"image/webp","uri":"../../../textures/2b0af78966d58c77.webp"},{"name":"T_Trim_Furniture_ORM","mimeType":"image/webp","uri":"../../../textures/ecfbb27dbfcb547b.webp"},{"name":"T_Trim_Metal_Normal","mimeType":"image/webp","uri":"../../../textures/81ac30aa058a108e.webp"},{"name":"T_Trim_Metal_BaseColor","mimeType":"image/webp","uri":"../../../textures/05903e5ec4b6be65.webp"},{"name":"T_Trim_Metal_ORM","mimeType":"image/webp","uri":"../../../textures/638ce4ce0e4c9f8e.webp"},{"name":"T_Trim_Props_Normal","mimeType":"image/webp","uri":"../../../textures/619430ed7226b53f.webp"},{"name":"T_Trim_Props_BaseColor","mimeType":"image/webp","uri":"../../../textures/3b116f820b5f9b7e.webp"},{"name":"T_Trim_Props_ORM","mimeType":"image/webp","uri":"../../../textures/3044d912bf0eca4a.webp"}],"buffers":[{"uri":"Shield_Wooden.bin","byteLength":21900},{"byteLength":45284,"extensions":{"EXT_meshopt_compression":{"fallback":true}}}],"materials":[{"name":"MI_Trim_Furniture","doubleSided":true,"pbrMetallicRoughness":{"baseColorTexture":{"index":0},"metallicRoughnessTexture":{"index":2}},"normalTexture":{"index":1}},{"name":"MI_Trim_Metal_Vertex","doubleSided":true,"pbrMetallicRoughness":{"baseColorTexture":{"index":3},"metallicRoughnessTexture":{"index":5}},"normalTexture":{"index":4}},{"name":"MI_Trim_Props","doubleSided":true,"pbrMetallicRoughness":{"baseColorTexture":{"index":6},"metallicRoughnessTexture":{"index":8}},"normalTexture":{"index":7}}],"meshes":[{"name":"Cube.193","primitives":[{"attributes":{"COLOR_0":4,"POSITION":5,"NORMAL":6,"TEXCOORD_0":7},"mode":4,"material":0,"indices":0},{"attributes":{"TEXCOORD_0":2,"COLOR_0":8,"POSITION":9,"NORMAL":10},"mode":4,"material":1,"indices":1},{"attributes":{"COLOR_0":11,"POSITION":12,"NORMAL":13,"TEXCOORD_0":14},"mode":4,"material":2,"indices":3}]}],"nodes":[{"name":"Shield_Wooden","translation":[0,0,0.08863860421115533],"scale":[0.3104481101036072,0.3104481101036072,0.3104481101036072],"mesh":0},{"name":"pack_root","children":[0]}],"scenes":[{"name":"Scene","nodes":[1]}],"scene":0,"extensionsUsed":["EXT_meshopt_compression","EXT_texture_webp","KHR_mesh_quantization"],"extensionsRequired":["EXT_meshopt_compression","EXT_texture_webp","KHR_mesh_quantization"]}