{"asset":{"generator":"glTF-Transform v4.5.1","version":"2.0"},"accessors":[{"type":"SCALAR","componentType":5123,"count":390,"normalized":false,"byteOffset":0,"bufferView":0},{"type":"VEC4","componentType":5121,"count":123,"normalized":true,"byteOffset":0,"bufferView":1},{"type":"VEC3","componentType":5122,"count":123,"max":[16574,32767,13501],"min":[-16574,-32767,-13501],"normalized":true,"byteOffset":0,"bufferView":2},{"type":"VEC3","componentType":5122,"count":123,"normalized":true,"byteOffset":0,"bufferView":3},{"type":"VEC2","componentType":5123,"count":123,"normalized":true,"byteOffset":0,"bufferView":4}],"bufferViews":[{"buffer":1,"byteOffset":0,"byteLength":780,"target":34963,"extensions":{"EXT_meshopt_compression":{"buffer":0,"byteOffset":0,"byteLength":149,"mode":"TRIANGLES","byteStride":2,"count":390}}},{"buffer":1,"byteOffset":780,"byteLength":492,"target":34962,"byteStride":4,"extensions":{"EXT_meshopt_compression":{"buffer":0,"byteOffset":152,"byteLength":55,"mode":"ATTRIBUTES","byteStride":4,"count":123}}},{"buffer":1,"byteOffset":1272,"byteLength":984,"target":34962,"byteStride":8,"extensions":{"EXT_meshopt_compression":{"buffer":0,"byteOffset":208,"byteLength":757,"mode":"ATTRIBUTES","byteStride":8,"count":123}}},{"buffer":1,"byteOffset":2256,"byteLength":984,"target":34962,"byteStride":8,"extensions":{"EXT_meshopt_compression":{"buffer":0,"byteOffset":968,"byteLength":684,"mode":"ATTRIBUTES","byteStride":8,"count":123}}},{"buffer":1,"byteOffset":3240,"byteLength":492,"target":34962,"byteStride":4,"extensions":{"EXT_meshopt_compression":{"buffer":0,"byteOffset":1652,"byteLength":457,"mode":"ATTRIBUTES","byteStride":4,"count":123}}}],"samplers":[{"magFilter":9729,"minFilter":9987,"wrapS":10497,"wrapT":10497}],"textures":[{"sampler":0,"extensions":{"EXT_texture_webp":{"source":1}}},{"sampler":0,"extensions":{"EXT_texture_webp":{"source":0}}},{"sampler":0,"extensions":{"EXT_texture_webp":{"source":2}}}],"images":[{"name":"T_Trim_Props_Normal","mimeType":"image/webp","uri":"../../../textures/619430ed7226b53f.webp"},{"name":"T_Trim_Props_BaseColor","mimeType":"image/webp","uri":"../../../textures/3b116f820b5f9b7e.webp"},{"name":"T_Trim_Props_ORM","mimeType":"image/webp","uri":"../../../textures/3044d912bf0eca4a.webp"}],"buffers":[{"uri":"SmallBottle.bin","byteLength":2112},{"byteLength":3732,"extensions":{"EXT_meshopt_compression":{"fallback":true}}}],"materials":[{"name":"MI_Trim_Props_Vertex","doubleSided":true,"pbrMetallicRoughness":{"baseColorTexture":{"index":0},"metallicRoughnessTexture":{"index":2}},"normalTexture":{"index":1}}],"meshes":[{"name":"Cube.001","primitives":[{"attributes":{"COLOR_0":1,"POSITION":2,"NORMAL":3,"TEXCOORD_0":4},"mode":4,"material":0,"indices":0}]}],"nodes":[{"name":"SmallBottle","translation":[-3.380700945854187e-7,0.05972979590296745,-1.555308699607849e-7],"scale":[0.05972979590296745,0.05972979590296745,0.05972979590296745],"mesh":0},{"name":"pack_root","children":[0]}],"scenes":[{"name":"Scene","nodes":[1]}],"scene":0,"extensionsUsed":["EXT_meshopt_compression","EXT_texture_webp","KHR_mesh_quantization"],"extensionsRequired":["EXT_meshopt_compression","EXT_texture_webp","KHR_mesh_quantization"]}