{"asset":{"generator":"glTF-Transform v4.5.1","version":"2.0"},"accessors":[{"type":"SCALAR","componentType":5123,"count":1632,"normalized":false,"byteOffset":0,"bufferView":0},{"type":"SCALAR","componentType":5123,"count":924,"normalized":false,"byteOffset":3264,"bufferView":0},{"type":"VEC2","componentType":5126,"count":576,"normalized":false,"byteOffset":0,"bufferView":1},{"type":"SCALAR","componentType":5123,"count":1932,"normalized":false,"byteOffset":5112,"bufferView":0},{"type":"VEC4","componentType":5121,"count":536,"normalized":true,"byteOffset":0,"bufferView":2},{"type":"VEC3","componentType":5122,"count":536,"max":[23010,-11297,9993],"min":[-23010,-26567,-10445],"normalized":true,"byteOffset":0,"bufferView":3},{"type":"VEC3","componentType":5122,"count":536,"normalized":true,"byteOffset":0,"bufferView":4},{"type":"VEC2","componentType":5123,"count":536,"normalized":true,"byteOffset":0,"bufferView":5},{"type":"VEC4","componentType":5121,"count":576,"normalized":true,"byteOffset":0,"bufferView":6},{"type":"VEC3","componentType":5122,"count":576,"max":[22794,31515,10761],"min":[-22794,-32767,-11009],"normalized":true,"byteOffset":0,"bufferView":7},{"type":"VEC3","componentType":5122,"count":576,"normalized":true,"byteOffset":0,"bufferView":8},{"type":"VEC4","componentType":5121,"count":432,"normalized":true,"byteOffset":0,"bufferView":9},{"type":"VEC3","componentType":5122,"count":432,"max":[22754,32767,11629],"min":[-22754,-8317,-11629],"normalized":true,"byteOffset":0,"bufferView":10},{"type":"VEC3","componentType":5122,"count":432,"normalized":true,"byteOffset":0,"bufferView":11},{"type":"VEC2","componentType":5123,"count":432,"normalized":true,"byteOffset":0,"bufferView":12}],"bufferViews":[{"buffer":1,"byteOffset":0,"byteLength":8976,"target":34963,"extensions":{"EXT_meshopt_compression":{"buffer":0,"byteOffset":0,"byteLength":1595,"mode":"TRIANGLES","byteStride":2,"count":4488}}},{"buffer":1,"byteOffset":8976,"byteLength":4608,"target":34962,"byteStride":8,"extensions":{"EXT_meshopt_compression":{"buffer":0,"byteOffset":1596,"byteLength":3468,"mode":"ATTRIBUTES","byteStride":8,"count":576}}},{"buffer":1,"byteOffset":13584,"byteLength":2144,"target":34962,"byteStride":4,"extensions":{"EXT_meshopt_compression":{"buffer":0,"byteOffset":5064,"byteLength":84,"mode":"ATTRIBUTES","byteStride":4,"count":536}}},{"buffer":1,"byteOffset":15728,"byteLength":4288,"target":34962,"byteStride":8,"extensions":{"EXT_meshopt_compression":{"buffer":0,"byteOffset":5148,"byteLength":2708,"mode":"ATTRIBUTES","byteStride":8,"count":536}}},{"buffer":1,"byteOffset":20016,"byteLength":4288,"target":34962,"byteStride":8,"extensions":{"EXT_meshopt_compression":{"buffer":0,"byteOffset":7856,"byteLength":2373,"mode":"ATTRIBUTES","byteStride":8,"count":536}}},{"buffer":1,"byteOffset":24304,"byteLength":2144,"target":34962,"byteStride":4,"extensions":{"EXT_meshopt_compression":{"buffer":0,"byteOffset":10232,"byteLength":2091,"mode":"ATTRIBUTES","byteStride":4,"count":536}}},{"buffer":1,"byteOffset":26448,"byteLength":2304,"target":34962,"byteStride":4,"extensions":{"EXT_meshopt_compression":{"buffer":0,"byteOffset":12324,"byteLength":219,"mode":"ATTRIBUTES","byteStride":4,"count":576}}},{"buffer":1,"byteOffset":28752,"byteLength":4608,"target":34962,"byteStride":8,"extensions":{"EXT_meshopt_compression":{"buffer":0,"byteOffset":12544,"byteLength":2755,"mode":"ATTRIBUTES","byteStride":8,"count":576}}},{"buffer":1,"byteOffset":33360,"byteLength":4608,"target":34962,"byteStride":8,"extensions":{"EXT_meshopt_compression":{"buffer":0,"byteOffset":15300,"byteLength":1607,"mode":"ATTRIBUTES","byteStride":8,"count":576}}},{"buffer":1,"byteOffset":37968,"byteLength":1728,"target":34962,"byteStride":4,"extensions":{"EXT_meshopt_compression":{"buffer":0,"byteOffset":16908,"byteLength":76,"mode":"ATTRIBUTES","byteStride":4,"count":432}}},{"buffer":1,"byteOffset":39696,"byteLength":3456,"target":34962,"byteStride":8,"extensions":{"EXT_meshopt_compression":{"buffer":0,"byteOffset":16984,"byteLength":2046,"mode":"ATTRIBUTES","byteStride":8,"count":432}}},{"buffer":1,"byteOffset":43152,"byteLength":3456,"target":34962,"byteStride":8,"extensions":{"EXT_meshopt_compression":{"buffer":0,"byteOffset":19032,"byteLength":1718,"mode":"ATTRIBUTES","byteStride":8,"count":432}}},{"buffer":1,"byteOffset":46608,"byteLength":1728,"target":34962,"byteStride":4,"extensions":{"EXT_meshopt_compression":{"buffer":0,"byteOffset":20752,"byteLength":1489,"mode":"ATTRIBUTES","byteStride":4,"count":432}}}],"samplers":[{"magFilter":9729,"minFilter":9987,"wrapS":10497,"wrapT":10497}],"textures":[{"sampler":0,"extensions":{"EXT_texture_webp":{"source":1}}},{"sampler":0,"extensions":{"EXT_texture_webp":{"source":0}}},{"sampler":0,"extensions":{"EXT_texture_webp":{"source":2}}},{"sampler":0,"extensions":{"EXT_texture_webp":{"source":4}}},{"sampler":0,"extensions":{"EXT_texture_webp":{"source":3}}},{"sampler":0,"extensions":{"EXT_texture_webp":{"source":5}}},{"sampler":0,"extensions":{"EXT_texture_webp":{"source":7}}},{"sampler":0,"extensions":{"EXT_texture_webp":{"source":6}}},{"sampler":0,"extensions":{"EXT_texture_webp":{"source":8}}}],"images":[{"name":"T_Trim_Metal_Normal","mimeType":"image/webp","uri":"../../../textures/81ac30aa058a108e.webp"},{"name":"T_Trim_Metal_BaseColor","mimeType":"image/webp","uri":"../../../textures/05903e5ec4b6be65.webp"},{"name":"T_Trim_Metal_ORM","mimeType":"image/webp","uri":"../../../textures/638ce4ce0e4c9f8e.webp"},{"name":"T_Trim_Furniture_Normal","mimeType":"image/webp","uri":"../../../textures/3ebbdf3b0c251e17.webp"},{"name":"T_Trim_Furniture_BaseColor","mimeType":"image/webp","uri":"../../../textures/2b0af78966d58c77.webp"},{"name":"T_Trim_Furniture_ORM","mimeType":"image/webp","uri":"../../../textures/ecfbb27dbfcb547b.webp"},{"name":"T_Trim_Cloth_Normal","mimeType":"image/webp","uri":"../../../textures/e944d4b7eaea8888.webp"},{"name":"T_Trim_Cloth_BaseColor","mimeType":"image/webp","uri":"../../../textures/b27bd8fc8be0f7b3.webp"},{"name":"T_Trim_Cloth_ORM","mimeType":"image/webp","uri":"../../../textures/b293f807d8d04537.webp"}],"buffers":[{"uri":"Stall_Empty.bin","byteLength":22244},{"byteLength":48336,"extensions":{"EXT_meshopt_compression":{"fallback":true}}}],"materials":[{"name":"MI_Trim_Metal","doubleSided":true,"pbrMetallicRoughness":{"baseColorTexture":{"index":0},"metallicRoughnessTexture":{"index":2}},"normalTexture":{"index":1}},{"name":"MI_Trim_Furniture","doubleSided":true,"pbrMetallicRoughness":{"baseColorTexture":{"index":3},"metallicRoughnessTexture":{"index":5}},"normalTexture":{"index":4}},{"name":"MI_Banner","doubleSided":true,"pbrMetallicRoughness":{"baseColorTexture":{"index":6},"metallicRoughnessTexture":{"index":8}},"normalTexture":{"index":7}}],"meshes":[{"name":"Cube.212","primitives":[{"attributes":{"COLOR_0":4,"POSITION":5,"NORMAL":6,"TEXCOORD_0":7},"mode":4,"material":0,"indices":0},{"attributes":{"TEXCOORD_0":2,"COLOR_0":8,"POSITION":9,"NORMAL":10},"mode":4,"material":1,"indices":1},{"attributes":{"COLOR_0":11,"POSITION":12,"NORMAL":13,"TEXCOORD_0":14},"mode":4,"material":2,"indices":3}]}],"nodes":[{"name":"Stall_Empty","translation":[0,1.3087734328582883,0.00541609525680542],"scale":[1.3135913265869021,1.3135913265869021,1.3135913265869021],"mesh":0},{"name":"pack_root","children":[0]}],"scenes":[{"name":"Scene","nodes":[1]}],"scene":0,"extensionsUsed":["EXT_meshopt_compression","EXT_texture_webp","KHR_mesh_quantization"],"extensionsRequired":["EXT_meshopt_compression","EXT_texture_webp","KHR_mesh_quantization"]}