{"asset":{"generator":"glTF-Transform v4.5.1","version":"2.0"},"accessors":[{"type":"SCALAR","componentType":5123,"count":6654,"normalized":false,"byteOffset":0,"bufferView":0},{"type":"VEC2","componentType":5126,"count":2130,"normalized":false,"byteOffset":0,"bufferView":1},{"type":"SCALAR","componentType":5123,"count":3882,"normalized":false,"byteOffset":13308,"bufferView":0},{"type":"VEC2","componentType":5126,"count":1968,"normalized":false,"byteOffset":0,"bufferView":2},{"type":"SCALAR","componentType":5123,"count":1272,"normalized":false,"byteOffset":21072,"bufferView":0},{"type":"VEC4","componentType":5121,"count":2130,"normalized":true,"byteOffset":0,"bufferView":3},{"type":"VEC3","componentType":5122,"count":2130,"max":[32767,14125,11497],"min":[-6884,-28551,-11497],"normalized":true,"byteOffset":0,"bufferView":4},{"type":"VEC3","componentType":5122,"count":2130,"normalized":true,"byteOffset":0,"bufferView":5},{"type":"VEC4","componentType":5121,"count":1968,"normalized":true,"byteOffset":0,"bufferView":6},{"type":"VEC3","componentType":5122,"count":1968,"max":[32663,27343,11057],"min":[-32767,-28511,-11057],"normalized":true,"byteOffset":0,"bufferView":7},{"type":"VEC3","componentType":5122,"count":1968,"normalized":true,"byteOffset":0,"bufferView":8},{"type":"VEC4","componentType":5121,"count":353,"normalized":true,"byteOffset":0,"bufferView":9},{"type":"VEC3","componentType":5122,"count":353,"max":[32651,28551,10377],"min":[-6764,10521,-9997],"normalized":true,"byteOffset":0,"bufferView":10},{"type":"VEC3","componentType":5122,"count":353,"normalized":true,"byteOffset":0,"bufferView":11},{"type":"VEC2","componentType":5123,"count":353,"normalized":true,"byteOffset":0,"bufferView":12}],"bufferViews":[{"buffer":1,"byteOffset":0,"byteLength":23616,"target":34963,"extensions":{"EXT_meshopt_compression":{"buffer":0,"byteOffset":0,"byteLength":4173,"mode":"TRIANGLES","byteStride":2,"count":11808}}},{"buffer":1,"byteOffset":23616,"byteLength":17040,"target":34962,"byteStride":8,"extensions":{"EXT_meshopt_compression":{"buffer":0,"byteOffset":4176,"byteLength":12424,"mode":"ATTRIBUTES","byteStride":8,"count":2130}}},{"buffer":1,"byteOffset":40656,"byteLength":15744,"target":34962,"byteStride":8,"extensions":{"EXT_meshopt_compression":{"buffer":0,"byteOffset":16600,"byteLength":11479,"mode":"ATTRIBUTES","byteStride":8,"count":1968}}},{"buffer":1,"byteOffset":56400,"byteLength":8520,"target":34962,"byteStride":4,"extensions":{"EXT_meshopt_compression":{"buffer":0,"byteOffset":28080,"byteLength":169,"mode":"ATTRIBUTES","byteStride":4,"count":2130}}},{"buffer":1,"byteOffset":64920,"byteLength":17040,"target":34962,"byteStride":8,"extensions":{"EXT_meshopt_compression":{"buffer":0,"byteOffset":28252,"byteLength":8236,"mode":"ATTRIBUTES","byteStride":8,"count":2130}}},{"buffer":1,"byteOffset":81960,"byteLength":17040,"target":34962,"byteStride":8,"extensions":{"EXT_meshopt_compression":{"buffer":0,"byteOffset":36488,"byteLength":6740,"mode":"ATTRIBUTES","byteStride":8,"count":2130}}},{"buffer":1,"byteOffset":99000,"byteLength":7872,"target":34962,"byteStride":4,"extensions":{"EXT_meshopt_compression":{"buffer":0,"byteOffset":43228,"byteLength":322,"mode":"ATTRIBUTES","byteStride":4,"count":1968}}},{"buffer":1,"byteOffset":106872,"byteLength":15744,"target":34962,"byteStride":8,"extensions":{"EXT_meshopt_compression":{"buffer":0,"byteOffset":43552,"byteLength":8858,"mode":"ATTRIBUTES","byteStride":8,"count":1968}}},{"buffer":1,"byteOffset":122616,"byteLength":15744,"target":34962,"byteStride":8,"extensions":{"EXT_meshopt_compression":{"buffer":0,"byteOffset":52412,"byteLength":4179,"mode":"ATTRIBUTES","byteStride":8,"count":1968}}},{"buffer":1,"byteOffset":138360,"byteLength":1412,"target":34962,"byteStride":4,"extensions":{"EXT_meshopt_compression":{"buffer":0,"byteOffset":56592,"byteLength":57,"mode":"ATTRIBUTES","byteStride":4,"count":353}}},{"buffer":1,"byteOffset":139772,"byteLength":2824,"target":34962,"byteStride":8,"extensions":{"EXT_meshopt_compression":{"buffer":0,"byteOffset":56652,"byteLength":1871,"mode":"ATTRIBUTES","byteStride":8,"count":353}}},{"buffer":1,"byteOffset":142596,"byteLength":2824,"target":34962,"byteStride":8,"extensions":{"EXT_meshopt_compression":{"buffer":0,"byteOffset":58524,"byteLength":2028,"mode":"ATTRIBUTES","byteStride":8,"count":353}}},{"buffer":1,"byteOffset":145420,"byteLength":1412,"target":34962,"byteStride":4,"extensions":{"EXT_meshopt_compression":{"buffer":0,"byteOffset":60552,"byteLength":1216,"mode":"ATTRIBUTES","byteStride":4,"count":353}}}],"samplers":[{"magFilter":9729,"minFilter":9987,"wrapS":10497,"wrapT":10497}],"textures":[{"sampler":0,"extensions":{"EXT_texture_webp":{"source":1}}},{"sampler":0,"extensions":{"EXT_texture_webp":{"source":0}}},{"sampler":0,"extensions":{"EXT_texture_webp":{"source":2}}},{"sampler":0,"extensions":{"EXT_texture_webp":{"source":4}}},{"sampler":0,"extensions":{"EXT_texture_webp":{"source":3}}},{"sampler":0,"extensions":{"EXT_texture_webp":{"source":5}}},{"sampler":0,"extensions":{"EXT_texture_webp":{"source":7}}},{"sampler":0,"extensions":{"EXT_texture_webp":{"source":6}}},{"sampler":0,"extensions":{"EXT_texture_webp":{"source":8}}}],"images":[{"name":"T_Trim_Metal_Normal","mimeType":"image/webp","uri":"../../../textures/81ac30aa058a108e.webp"},{"name":"T_Trim_Metal_BaseColor","mimeType":"image/webp","uri":"../../../textures/05903e5ec4b6be65.webp"},{"name":"T_Trim_Metal_ORM","mimeType":"image/webp","uri":"../../../textures/638ce4ce0e4c9f8e.webp"},{"name":"T_Trim_Furniture_Normal","mimeType":"image/webp","uri":"../../../textures/3ebbdf3b0c251e17.webp"},{"name":"T_Trim_Furniture_BaseColor","mimeType":"image/webp","uri":"../../../textures/2b0af78966d58c77.webp"},{"name":"T_Trim_Furniture_ORM","mimeType":"image/webp","uri":"../../../textures/ecfbb27dbfcb547b.webp"},{"name":"T_Trim_Cloth_Normal","mimeType":"image/webp","uri":"../../../textures/e944d4b7eaea8888.webp"},{"name":"T_Trim_Cloth_BaseColor","mimeType":"image/webp","uri":"../../../textures/b27bd8fc8be0f7b3.webp"},{"name":"T_Trim_Cloth_ORM","mimeType":"image/webp","uri":"../../../textures/b293f807d8d04537.webp"}],"buffers":[{"uri":"Stall_Cart_Empty.bin","byteLength":61768},{"byteLength":146832,"extensions":{"EXT_meshopt_compression":{"fallback":true}}}],"materials":[{"name":"MI_Trim_Metal","doubleSided":true,"pbrMetallicRoughness":{"baseColorTexture":{"index":0},"metallicRoughnessTexture":{"index":2}},"normalTexture":{"index":1}},{"name":"MI_Trim_Furniture","doubleSided":true,"pbrMetallicRoughness":{"baseColorTexture":{"index":3},"metallicRoughnessTexture":{"index":5}},"normalTexture":{"index":4}},{"name":"MI_Banner","doubleSided":true,"pbrMetallicRoughness":{"baseColorTexture":{"index":6},"metallicRoughnessTexture":{"index":8}},"normalTexture":{"index":7}}],"meshes":[{"name":"Cylinder.094","primitives":[{"attributes":{"TEXCOORD_0":1,"COLOR_0":5,"POSITION":6,"NORMAL":7},"mode":4,"material":0,"indices":0},{"attributes":{"TEXCOORD_0":3,"COLOR_0":8,"POSITION":9,"NORMAL":10},"mode":4,"material":1,"indices":2},{"attributes":{"COLOR_0":11,"POSITION":12,"NORMAL":13,"TEXCOORD_0":14},"mode":4,"material":2,"indices":4}]}],"nodes":[{"name":"Stall_Cart_Empty","translation":[-0.5965170562267303,1.3120139662642032,0],"scale":[1.5102722942829132,1.5102722942829132,1.5102722942829132],"mesh":0},{"name":"pack_root","children":[0]}],"scenes":[{"name":"Scene","nodes":[1]}],"scene":0,"extensionsUsed":["EXT_meshopt_compression","EXT_texture_webp","KHR_mesh_quantization"],"extensionsRequired":["EXT_meshopt_compression","EXT_texture_webp","KHR_mesh_quantization"]}