{"asset":{"generator":"glTF-Transform v4.5.1","version":"2.0"},"accessors":[{"type":"SCALAR","componentType":5123,"count":324,"normalized":false,"byteOffset":0,"bufferView":0},{"type":"VEC2","componentType":5126,"count":134,"normalized":false,"byteOffset":0,"bufferView":1},{"type":"VEC3","componentType":5122,"count":134,"max":[6296,768,32767],"min":[-6296,-768,-32767],"normalized":true,"byteOffset":0,"bufferView":2},{"type":"VEC3","componentType":5122,"count":134,"normalized":true,"byteOffset":0,"bufferView":3}],"bufferViews":[{"buffer":1,"byteOffset":0,"byteLength":648,"target":34963,"extensions":{"EXT_meshopt_compression":{"buffer":0,"byteOffset":0,"byteLength":125,"mode":"TRIANGLES","byteStride":2,"count":324}}},{"buffer":1,"byteOffset":648,"byteLength":1072,"target":34962,"byteStride":8,"extensions":{"EXT_meshopt_compression":{"buffer":0,"byteOffset":128,"byteLength":837,"mode":"ATTRIBUTES","byteStride":8,"count":134}}},{"buffer":1,"byteOffset":1720,"byteLength":1072,"target":34962,"byteStride":8,"extensions":{"EXT_meshopt_compression":{"buffer":0,"byteOffset":968,"byteLength":571,"mode":"ATTRIBUTES","byteStride":8,"count":134}}},{"buffer":1,"byteOffset":2792,"byteLength":1072,"target":34962,"byteStride":8,"extensions":{"EXT_meshopt_compression":{"buffer":0,"byteOffset":1540,"byteLength":328,"mode":"ATTRIBUTES","byteStride":8,"count":134}}}],"samplers":[{"magFilter":9729,"minFilter":9987,"wrapS":10497,"wrapT":10497}],"textures":[{"sampler":0,"extensions":{"EXT_texture_webp":{"source":1}}},{"sampler":0,"extensions":{"EXT_texture_webp":{"source":0}}},{"sampler":0,"extensions":{"EXT_texture_webp":{"source":2}}}],"images":[{"name":"T_Trim_Metal_Normal","mimeType":"image/webp","uri":"../../../textures/81ac30aa058a108e.webp"},{"name":"T_Trim_Metal_BaseColor","mimeType":"image/webp","uri":"../../../textures/05903e5ec4b6be65.webp"},{"name":"T_Trim_Metal_ORM","mimeType":"image/webp","uri":"../../../textures/638ce4ce0e4c9f8e.webp"}],"buffers":[{"uri":"Table_Fork.bin","byteLength":1868},{"byteLength":3864,"extensions":{"EXT_meshopt_compression":{"fallback":true}}}],"materials":[{"name":"MI_Trim_Metal","doubleSided":true,"pbrMetallicRoughness":{"baseColorTexture":{"index":0},"metallicRoughnessTexture":{"index":2}},"normalTexture":{"index":1}}],"meshes":[{"name":"Cube.161","primitives":[{"attributes":{"TEXCOORD_0":1,"POSITION":2,"NORMAL":3},"mode":4,"material":0,"indices":0}]}],"nodes":[{"name":"Table_Fork","translation":[-0.00040578562766313553,0,-0.04880823194980621],"scale":[0.1312752664089203,0.1312752664089203,0.1312752664089203],"mesh":0},{"name":"pack_root","children":[0]}],"scenes":[{"name":"Scene","nodes":[1]}],"scene":0,"extensionsUsed":["EXT_meshopt_compression","EXT_texture_webp","KHR_mesh_quantization"],"extensionsRequired":["EXT_meshopt_compression","EXT_texture_webp","KHR_mesh_quantization"]}