{"asset":{"generator":"glTF-Transform v4.5.1","version":"2.0"},"accessors":[{"type":"SCALAR","componentType":5123,"count":2838,"normalized":false,"byteOffset":0,"bufferView":0},{"type":"VEC2","componentType":5126,"count":1190,"normalized":false,"byteOffset":0,"bufferView":1},{"type":"SCALAR","componentType":5123,"count":120,"normalized":false,"byteOffset":5676,"bufferView":0},{"type":"VEC2","componentType":5126,"count":72,"normalized":false,"byteOffset":0,"bufferView":2},{"type":"VEC4","componentType":5121,"count":1190,"normalized":true,"byteOffset":0,"bufferView":3},{"type":"VEC3","componentType":5122,"count":1190,"max":[32767,9313,12421],"min":[-32767,-9357,-12617],"normalized":true,"byteOffset":0,"bufferView":4},{"type":"VEC3","componentType":5122,"count":1190,"normalized":true,"byteOffset":0,"bufferView":5},{"type":"VEC4","componentType":5121,"count":72,"normalized":true,"byteOffset":0,"bufferView":6},{"type":"VEC3","componentType":5122,"count":72,"max":[25039,9357,12617],"min":[-25039,7528,-12557],"normalized":true,"byteOffset":0,"bufferView":7},{"type":"VEC3","componentType":5122,"count":72,"normalized":true,"byteOffset":0,"bufferView":8}],"bufferViews":[{"buffer":1,"byteOffset":0,"byteLength":5916,"target":34963,"extensions":{"EXT_meshopt_compression":{"buffer":0,"byteOffset":0,"byteLength":1038,"mode":"TRIANGLES","byteStride":2,"count":2958}}},{"buffer":1,"byteOffset":5916,"byteLength":9520,"target":34962,"byteStride":8,"extensions":{"EXT_meshopt_compression":{"buffer":0,"byteOffset":1040,"byteLength":7204,"mode":"ATTRIBUTES","byteStride":8,"count":1190}}},{"buffer":1,"byteOffset":15436,"byteLength":576,"target":34962,"byteStride":8,"extensions":{"EXT_meshopt_compression":{"buffer":0,"byteOffset":8244,"byteLength":490,"mode":"ATTRIBUTES","byteStride":8,"count":72}}},{"buffer":1,"byteOffset":16012,"byteLength":4760,"target":34962,"byteStride":4,"extensions":{"EXT_meshopt_compression":{"buffer":0,"byteOffset":8736,"byteLength":325,"mode":"ATTRIBUTES","byteStride":4,"count":1190}}},{"buffer":1,"byteOffset":20772,"byteLength":9520,"target":34962,"byteStride":8,"extensions":{"EXT_meshopt_compression":{"buffer":0,"byteOffset":9064,"byteLength":4832,"mode":"ATTRIBUTES","byteStride":8,"count":1190}}},{"buffer":1,"byteOffset":30292,"byteLength":9520,"target":34962,"byteStride":8,"extensions":{"EXT_meshopt_compression":{"buffer":0,"byteOffset":13896,"byteLength":3357,"mode":"ATTRIBUTES","byteStride":8,"count":1190}}},{"buffer":1,"byteOffset":39812,"byteLength":288,"target":34962,"byteStride":4,"extensions":{"EXT_meshopt_compression":{"buffer":0,"byteOffset":17256,"byteLength":41,"mode":"ATTRIBUTES","byteStride":4,"count":72}}},{"buffer":1,"byteOffset":40100,"byteLength":576,"target":34962,"byteStride":8,"extensions":{"EXT_meshopt_compression":{"buffer":0,"byteOffset":17300,"byteLength":355,"mode":"ATTRIBUTES","byteStride":8,"count":72}}},{"buffer":1,"byteOffset":40676,"byteLength":576,"target":34962,"byteStride":8,"extensions":{"EXT_meshopt_compression":{"buffer":0,"byteOffset":17656,"byteLength":196,"mode":"ATTRIBUTES","byteStride":8,"count":72}}}],"samplers":[{"magFilter":9729,"minFilter":9987,"wrapS":10497,"wrapT":10497}],"textures":[{"sampler":0,"extensions":{"EXT_texture_webp":{"source":1}}},{"sampler":0,"extensions":{"EXT_texture_webp":{"source":0}}},{"sampler":0,"extensions":{"EXT_texture_webp":{"source":2}}},{"sampler":0,"extensions":{"EXT_texture_webp":{"source":4}}},{"sampler":0,"extensions":{"EXT_texture_webp":{"source":3}}},{"sampler":0,"extensions":{"EXT_texture_webp":{"source":5}}}],"images":[{"name":"T_Trim_Furniture_Normal","mimeType":"image/webp","uri":"../../../textures/3ebbdf3b0c251e17.webp"},{"name":"T_Trim_Furniture_BaseColor","mimeType":"image/webp","uri":"../../../textures/2b0af78966d58c77.webp"},{"name":"T_Trim_Furniture_ORM","mimeType":"image/webp","uri":"../../../textures/ecfbb27dbfcb547b.webp"},{"name":"T_Trim_Metal_Normal","mimeType":"image/webp","uri":"../../../textures/81ac30aa058a108e.webp"},{"name":"T_Trim_Metal_BaseColor","mimeType":"image/webp","uri":"../../../textures/05903e5ec4b6be65.webp"},{"name":"T_Trim_Metal_ORM","mimeType":"image/webp","uri":"../../../textures/638ce4ce0e4c9f8e.webp"}],"buffers":[{"uri":"Table_Large.bin","byteLength":17852},{"byteLength":41252,"extensions":{"EXT_meshopt_compression":{"fallback":true}}}],"materials":[{"name":"MI_Trim_Furniture","doubleSided":true,"pbrMetallicRoughness":{"baseColorTexture":{"index":0},"metallicRoughnessTexture":{"index":2}},"normalTexture":{"index":1}},{"name":"MI_Trim_Metal","doubleSided":true,"pbrMetallicRoughness":{"baseColorTexture":{"index":3},"metallicRoughnessTexture":{"index":5}},"normalTexture":{"index":4}}],"meshes":[{"name":"Cube.084","primitives":[{"attributes":{"TEXCOORD_0":1,"COLOR_0":4,"POSITION":5,"NORMAL":6},"mode":4,"material":0,"indices":0},{"attributes":{"TEXCOORD_0":3,"COLOR_0":7,"POSITION":8,"NORMAL":9},"mode":4,"material":1,"indices":2}]}],"nodes":[{"name":"Table_Large","translation":[0,0.4079861454665661,0.006345599889755249],"scale":[1.4242464303970337,1.4242464303970337,1.4242464303970337],"mesh":0},{"name":"pack_root","children":[0]}],"scenes":[{"name":"Scene","nodes":[1]}],"scene":0,"extensionsUsed":["EXT_meshopt_compression","EXT_texture_webp","KHR_mesh_quantization"],"extensionsRequired":["EXT_meshopt_compression","EXT_texture_webp","KHR_mesh_quantization"]}