{"asset":{"generator":"glTF-Transform v4.5.1","version":"2.0"},"accessors":[{"type":"SCALAR","componentType":5123,"count":432,"normalized":false,"byteOffset":0,"bufferView":0},{"type":"VEC2","componentType":5126,"count":272,"normalized":false,"byteOffset":0,"bufferView":1},{"type":"SCALAR","componentType":5123,"count":2616,"normalized":false,"byteOffset":864,"bufferView":0},{"type":"SCALAR","componentType":5123,"count":252,"normalized":false,"byteOffset":6096,"bufferView":0},{"type":"VEC4","componentType":5121,"count":272,"normalized":true,"byteOffset":0,"bufferView":2},{"type":"VEC3","componentType":5122,"count":272,"max":[31955,11737,16738],"min":[-31955,-32767,-25259],"normalized":true,"byteOffset":0,"bufferView":3},{"type":"VEC3","componentType":5122,"count":272,"normalized":true,"byteOffset":0,"bufferView":4},{"type":"VEC4","componentType":5121,"count":955,"normalized":true,"byteOffset":0,"bufferView":5},{"type":"VEC3","componentType":5122,"count":955,"max":[24562,18178,25259],"min":[-25427,-23262,-23394],"normalized":true,"byteOffset":0,"bufferView":6},{"type":"VEC3","componentType":5122,"count":955,"normalized":true,"byteOffset":0,"bufferView":7},{"type":"VEC2","componentType":5123,"count":955,"normalized":true,"byteOffset":0,"bufferView":8},{"type":"VEC4","componentType":5121,"count":90,"normalized":true,"byteOffset":0,"bufferView":9},{"type":"VEC3","componentType":5122,"count":90,"max":[18878,32767,520],"min":[-19742,-6256,-9037],"normalized":true,"byteOffset":0,"bufferView":10},{"type":"VEC3","componentType":5122,"count":90,"normalized":true,"byteOffset":0,"bufferView":11},{"type":"VEC2","componentType":5123,"count":90,"normalized":true,"byteOffset":0,"bufferView":12}],"bufferViews":[{"buffer":1,"byteOffset":0,"byteLength":6600,"target":34963,"extensions":{"EXT_meshopt_compression":{"buffer":0,"byteOffset":0,"byteLength":1181,"mode":"TRIANGLES","byteStride":2,"count":3300}}},{"buffer":1,"byteOffset":6600,"byteLength":2176,"target":34962,"byteStride":8,"extensions":{"EXT_meshopt_compression":{"buffer":0,"byteOffset":1184,"byteLength":1627,"mode":"ATTRIBUTES","byteStride":8,"count":272}}},{"buffer":1,"byteOffset":8776,"byteLength":1088,"target":34962,"byteStride":4,"extensions":{"EXT_meshopt_compression":{"buffer":0,"byteOffset":2812,"byteLength":98,"mode":"ATTRIBUTES","byteStride":4,"count":272}}},{"buffer":1,"byteOffset":9864,"byteLength":2176,"target":34962,"byteStride":8,"extensions":{"EXT_meshopt_compression":{"buffer":0,"byteOffset":2912,"byteLength":1484,"mode":"ATTRIBUTES","byteStride":8,"count":272}}},{"buffer":1,"byteOffset":12040,"byteLength":2176,"target":34962,"byteStride":8,"extensions":{"EXT_meshopt_compression":{"buffer":0,"byteOffset":4396,"byteLength":792,"mode":"ATTRIBUTES","byteStride":8,"count":272}}},{"buffer":1,"byteOffset":14216,"byteLength":3820,"target":34962,"byteStride":4,"extensions":{"EXT_meshopt_compression":{"buffer":0,"byteOffset":5188,"byteLength":93,"mode":"ATTRIBUTES","byteStride":4,"count":955}}},{"buffer":1,"byteOffset":18036,"byteLength":7640,"target":34962,"byteStride":8,"extensions":{"EXT_meshopt_compression":{"buffer":0,"byteOffset":5284,"byteLength":4882,"mode":"ATTRIBUTES","byteStride":8,"count":955}}},{"buffer":1,"byteOffset":25676,"byteLength":7640,"target":34962,"byteStride":8,"extensions":{"EXT_meshopt_compression":{"buffer":0,"byteOffset":10168,"byteLength":3575,"mode":"ATTRIBUTES","byteStride":8,"count":955}}},{"buffer":1,"byteOffset":33316,"byteLength":3820,"target":34962,"byteStride":4,"extensions":{"EXT_meshopt_compression":{"buffer":0,"byteOffset":13744,"byteLength":3481,"mode":"ATTRIBUTES","byteStride":4,"count":955}}},{"buffer":1,"byteOffset":37136,"byteLength":360,"target":34962,"byteStride":4,"extensions":{"EXT_meshopt_compression":{"buffer":0,"byteOffset":17228,"byteLength":41,"mode":"ATTRIBUTES","byteStride":4,"count":90}}},{"buffer":1,"byteOffset":37496,"byteLength":720,"target":34962,"byteStride":8,"extensions":{"EXT_meshopt_compression":{"buffer":0,"byteOffset":17272,"byteLength":478,"mode":"ATTRIBUTES","byteStride":8,"count":90}}},{"buffer":1,"byteOffset":38216,"byteLength":720,"target":34962,"byteStride":8,"extensions":{"EXT_meshopt_compression":{"buffer":0,"byteOffset":17752,"byteLength":202,"mode":"ATTRIBUTES","byteStride":8,"count":90}}},{"buffer":1,"byteOffset":38936,"byteLength":360,"target":34962,"byteStride":4,"extensions":{"EXT_meshopt_compression":{"buffer":0,"byteOffset":17956,"byteLength":353,"mode":"ATTRIBUTES","byteStride":4,"count":90}}}],"samplers":[{"magFilter":9729,"minFilter":9987,"wrapS":10497,"wrapT":10497}],"textures":[{"sampler":0,"extensions":{"EXT_texture_webp":{"source":1}}},{"sampler":0,"extensions":{"EXT_texture_webp":{"source":0}}},{"sampler":0,"extensions":{"EXT_texture_webp":{"source":2}}},{"sampler":0,"extensions":{"EXT_texture_webp":{"source":4}}},{"sampler":0,"extensions":{"EXT_texture_webp":{"source":3}}},{"sampler":0,"extensions":{"EXT_texture_webp":{"source":5}}},{"sampler":0,"extensions":{"EXT_texture_webp":{"source":7}}},{"sampler":0,"extensions":{"EXT_texture_webp":{"source":6}}},{"sampler":0,"extensions":{"EXT_texture_webp":{"source":8}}}],"images":[{"name":"T_Trim_Furniture_Normal","mimeType":"image/webp","uri":"../../../textures/3ebbdf3b0c251e17.webp"},{"name":"T_Trim_Furniture_BaseColor","mimeType":"image/webp","uri":"../../../textures/2b0af78966d58c77.webp"},{"name":"T_Trim_Furniture_ORM","mimeType":"image/webp","uri":"../../../textures/ecfbb27dbfcb547b.webp"},{"name":"T_Trim_Metal_Normal","mimeType":"image/webp","uri":"../../../textures/81ac30aa058a108e.webp"},{"name":"T_Trim_Metal_BaseColor","mimeType":"image/webp","uri":"../../../textures/05903e5ec4b6be65.webp"},{"name":"T_Trim_Metal_ORM","mimeType":"image/webp","uri":"../../../textures/638ce4ce0e4c9f8e.webp"},{"name":"T_Trim_Props_Normal","mimeType":"image/webp","uri":"../../../textures/619430ed7226b53f.webp"},{"name":"T_Trim_Props_BaseColor","mimeType":"image/webp","uri":"../../../textures/3b116f820b5f9b7e.webp"},{"name":"T_Trim_Props_ORM","mimeType":"image/webp","uri":"../../../textures/3044d912bf0eca4a.webp"}],"buffers":[{"uri":"Whetstone.bin","byteLength":18312},{"byteLength":39296,"extensions":{"EXT_meshopt_compression":{"fallback":true}}}],"materials":[{"name":"MI_Trim_Furniture","doubleSided":true,"pbrMetallicRoughness":{"baseColorTexture":{"index":0},"metallicRoughnessTexture":{"index":2}},"normalTexture":{"index":1}},{"name":"MI_Trim_Metal","doubleSided":true,"pbrMetallicRoughness":{"baseColorTexture":{"index":3},"metallicRoughnessTexture":{"index":5}},"normalTexture":{"index":4}},{"name":"MI_Trim_Props_Vertex","doubleSided":true,"pbrMetallicRoughness":{"baseColorTexture":{"index":6},"metallicRoughnessTexture":{"index":8}},"normalTexture":{"index":7}}],"meshes":[{"name":"Cube.125","primitives":[{"attributes":{"TEXCOORD_0":1,"COLOR_0":4,"POSITION":5,"NORMAL":6},"mode":4,"material":0,"indices":0},{"attributes":{"COLOR_0":7,"POSITION":8,"NORMAL":9,"TEXCOORD_0":10},"mode":4,"material":1,"indices":2},{"attributes":{"COLOR_0":11,"POSITION":12,"NORMAL":13,"TEXCOORD_0":14},"mode":4,"material":2,"indices":3}]}],"nodes":[{"name":"Whetstone","translation":[0.007694989442825317,0.5878525925800204,0.07603833079338074],"scale":[0.5849416302517056,0.5849416302517056,0.5849416302517056],"mesh":0},{"name":"pack_root","children":[0]}],"scenes":[{"name":"Scene","nodes":[1]}],"scene":0,"extensionsUsed":["EXT_meshopt_compression","EXT_texture_webp","KHR_mesh_quantization"],"extensionsRequired":["EXT_meshopt_compression","EXT_texture_webp","KHR_mesh_quantization"]}