{"asset":{"generator":"glTF-Transform v4.5.1","version":"2.0"},"accessors":[{"type":"SCALAR","componentType":5123,"count":492,"normalized":false,"byteOffset":0,"bufferView":0},{"type":"VEC2","componentType":5126,"count":328,"normalized":false,"byteOffset":0,"bufferView":1},{"type":"SCALAR","componentType":5123,"count":3612,"normalized":false,"byteOffset":984,"bufferView":0},{"type":"VEC2","componentType":5126,"count":1052,"normalized":false,"byteOffset":0,"bufferView":2},{"type":"VEC4","componentType":5121,"count":328,"normalized":true,"byteOffset":0,"bufferView":3},{"type":"VEC3","componentType":5122,"count":328,"max":[32459,14173,16313],"min":[-32459,-14517,-16622],"normalized":true,"byteOffset":0,"bufferView":4},{"type":"VEC3","componentType":5122,"count":328,"normalized":true,"byteOffset":0,"bufferView":5},{"type":"VEC4","componentType":5121,"count":1052,"normalized":true,"byteOffset":0,"bufferView":6},{"type":"VEC3","componentType":5122,"count":1052,"max":[32767,14517,16622],"min":[-32767,10393,-16462],"normalized":true,"byteOffset":0,"bufferView":7},{"type":"VEC3","componentType":5122,"count":1052,"normalized":true,"byteOffset":0,"bufferView":8}],"bufferViews":[{"buffer":1,"byteOffset":0,"byteLength":8208,"target":34963,"extensions":{"EXT_meshopt_compression":{"buffer":0,"byteOffset":0,"byteLength":1444,"mode":"TRIANGLES","byteStride":2,"count":4104}}},{"buffer":1,"byteOffset":8208,"byteLength":2624,"target":34962,"byteStride":8,"extensions":{"EXT_meshopt_compression":{"buffer":0,"byteOffset":1444,"byteLength":1889,"mode":"ATTRIBUTES","byteStride":8,"count":328}}},{"buffer":1,"byteOffset":10832,"byteLength":8416,"target":34962,"byteStride":8,"extensions":{"EXT_meshopt_compression":{"buffer":0,"byteOffset":3336,"byteLength":6418,"mode":"ATTRIBUTES","byteStride":8,"count":1052}}},{"buffer":1,"byteOffset":19248,"byteLength":1312,"target":34962,"byteStride":4,"extensions":{"EXT_meshopt_compression":{"buffer":0,"byteOffset":9756,"byteLength":323,"mode":"ATTRIBUTES","byteStride":4,"count":328}}},{"buffer":1,"byteOffset":20560,"byteLength":2624,"target":34962,"byteStride":8,"extensions":{"EXT_meshopt_compression":{"buffer":0,"byteOffset":10080,"byteLength":1522,"mode":"ATTRIBUTES","byteStride":8,"count":328}}},{"buffer":1,"byteOffset":23184,"byteLength":2624,"target":34962,"byteStride":8,"extensions":{"EXT_meshopt_compression":{"buffer":0,"byteOffset":11604,"byteLength":732,"mode":"ATTRIBUTES","byteStride":8,"count":328}}},{"buffer":1,"byteOffset":25808,"byteLength":4208,"target":34962,"byteStride":4,"extensions":{"EXT_meshopt_compression":{"buffer":0,"byteOffset":12336,"byteLength":101,"mode":"ATTRIBUTES","byteStride":4,"count":1052}}},{"buffer":1,"byteOffset":30016,"byteLength":8416,"target":34962,"byteStride":8,"extensions":{"EXT_meshopt_compression":{"buffer":0,"byteOffset":12440,"byteLength":4423,"mode":"ATTRIBUTES","byteStride":8,"count":1052}}},{"buffer":1,"byteOffset":38432,"byteLength":8416,"target":34962,"byteStride":8,"extensions":{"EXT_meshopt_compression":{"buffer":0,"byteOffset":16864,"byteLength":5389,"mode":"ATTRIBUTES","byteStride":8,"count":1052}}}],"samplers":[{"magFilter":9729,"minFilter":9987,"wrapS":10497,"wrapT":10497}],"textures":[{"sampler":0,"extensions":{"EXT_texture_webp":{"source":1}}},{"sampler":0,"extensions":{"EXT_texture_webp":{"source":0}}},{"sampler":0,"extensions":{"EXT_texture_webp":{"source":2}}},{"sampler":0,"extensions":{"EXT_texture_webp":{"source":4}}},{"sampler":0,"extensions":{"EXT_texture_webp":{"source":3}}},{"sampler":0,"extensions":{"EXT_texture_webp":{"source":5}}}],"images":[{"name":"T_Trim_Furniture_Normal","mimeType":"image/webp","uri":"../../../textures/3ebbdf3b0c251e17.webp"},{"name":"T_Trim_Furniture_BaseColor","mimeType":"image/webp","uri":"../../../textures/2b0af78966d58c77.webp"},{"name":"T_Trim_Furniture_ORM","mimeType":"image/webp","uri":"../../../textures/ecfbb27dbfcb547b.webp"},{"name":"T_Trim_Metal_Normal","mimeType":"image/webp","uri":"../../../textures/81ac30aa058a108e.webp"},{"name":"T_Trim_Metal_BaseColor","mimeType":"image/webp","uri":"../../../textures/05903e5ec4b6be65.webp"},{"name":"T_Trim_Metal_ORM","mimeType":"image/webp","uri":"../../../textures/638ce4ce0e4c9f8e.webp"}],"buffers":[{"uri":"Workbench.bin","byteLength":22256},{"byteLength":46848,"extensions":{"EXT_meshopt_compression":{"fallback":true}}}],"materials":[{"name":"MI_Trim_Furniture","doubleSided":true,"pbrMetallicRoughness":{"baseColorTexture":{"index":0},"metallicRoughnessTexture":{"index":2}},"normalTexture":{"index":1}},{"name":"MI_Trim_Metal","doubleSided":true,"pbrMetallicRoughness":{"baseColorTexture":{"index":3},"metallicRoughnessTexture":{"index":5}},"normalTexture":{"index":4}}],"meshes":[{"name":"Cube.163","primitives":[{"attributes":{"TEXCOORD_0":1,"COLOR_0":4,"POSITION":5,"NORMAL":6},"mode":4,"material":0,"indices":0},{"attributes":{"TEXCOORD_0":3,"COLOR_0":7,"POSITION":8,"NORMAL":9},"mode":4,"material":1,"indices":2}]}],"nodes":[{"name":"Workbench","translation":[1.1920928955078125e-7,0.4474972282332601,-0.002673208713531494],"scale":[1.0095484256744385,1.0095484256744385,1.0095484256744385],"mesh":0},{"name":"pack_root","children":[0]}],"scenes":[{"name":"Scene","nodes":[1]}],"scene":0,"extensionsUsed":["EXT_meshopt_compression","EXT_texture_webp","KHR_mesh_quantization"],"extensionsRequired":["EXT_meshopt_compression","EXT_texture_webp","KHR_mesh_quantization"]}