{"asset":{"generator":"glTF-Transform v4.5.1","version":"2.0"},"accessors":[{"type":"SCALAR","componentType":5123,"count":31071,"normalized":false,"byteOffset":0,"bufferView":0},{"type":"VEC4","componentType":5121,"count":6564,"normalized":true,"byteOffset":0,"bufferView":1},{"type":"VEC4","componentType":5121,"count":6564,"normalized":false,"byteOffset":0,"bufferView":2},{"type":"SCALAR","componentType":5123,"count":6912,"normalized":false,"byteOffset":62142,"bufferView":0},{"type":"VEC4","componentType":5121,"count":2816,"normalized":false,"byteOffset":0,"bufferView":3},{"type":"SCALAR","componentType":5123,"count":3711,"normalized":false,"byteOffset":75966,"bufferView":0},{"type":"VEC4","componentType":5121,"count":971,"normalized":false,"byteOffset":0,"bufferView":4},{"type":"SCALAR","componentType":5123,"count":2388,"normalized":false,"byteOffset":83388,"bufferView":0},{"type":"VEC4","componentType":5121,"count":472,"normalized":true,"byteOffset":0,"bufferView":5},{"type":"VEC4","componentType":5121,"count":472,"normalized":false,"byteOffset":0,"bufferView":6},{"type":"SCALAR","componentType":5123,"count":1614,"normalized":false,"byteOffset":88164,"bufferView":0},{"type":"VEC4","componentType":5121,"count":389,"normalized":true,"byteOffset":0,"bufferView":7},{"type":"VEC4","componentType":5121,"count":389,"normalized":false,"byteOffset":0,"bufferView":8},{"type":"MAT4","componentType":5126,"count":55,"normalized":false,"byteOffset":0,"bufferView":9},{"type":"VEC3","componentType":5122,"count":6564,"max":[32767,31347,6856],"min":[-32767,-31347,-6856],"normalized":true,"byteOffset":0,"bufferView":10},{"type":"VEC3","componentType":5122,"count":6564,"normalized":true,"byteOffset":0,"bufferView":11},{"type":"VEC2","componentType":5123,"count":6564,"normalized":true,"byteOffset":0,"bufferView":12},{"type":"VEC4","componentType":5121,"count":6564,"normalized":true,"byteOffset":0,"bufferView":13},{"type":"MAT4","componentType":5126,"count":55,"normalized":false,"byteOffset":3520,"bufferView":9},{"type":"VEC3","componentType":5122,"count":2816,"max":[32767,30943,4852],"min":[-32767,-30943,-4852],"normalized":true,"byteOffset":0,"bufferView":14},{"type":"VEC3","componentType":5122,"count":2816,"normalized":true,"byteOffset":0,"bufferView":15},{"type":"VEC2","componentType":5123,"count":2816,"normalized":true,"byteOffset":0,"bufferView":16},{"type":"VEC4","componentType":5121,"count":2816,"normalized":true,"byteOffset":0,"bufferView":17},{"type":"MAT4","componentType":5126,"count":55,"normalized":false,"byteOffset":7040,"bufferView":9},{"type":"VEC3","componentType":5122,"count":971,"max":[12741,12769,32767],"min":[-12741,-12769,-32767],"normalized":true,"byteOffset":0,"bufferView":18},{"type":"VEC3","componentType":5122,"count":971,"normalized":true,"byteOffset":0,"bufferView":19},{"type":"VEC2","componentType":5123,"count":971,"normalized":true,"byteOffset":0,"bufferView":20},{"type":"VEC4","componentType":5121,"count":971,"normalized":true,"byteOffset":0,"bufferView":21},{"type":"MAT4","componentType":5126,"count":55,"normalized":false,"byteOffset":10560,"bufferView":9},{"type":"VEC3","componentType":5122,"count":472,"max":[32767,29879,18902],"min":[-32767,-29879,-18902],"normalized":true,"byteOffset":0,"bufferView":22},{"type":"VEC3","componentType":5122,"count":472,"normalized":true,"byteOffset":0,"bufferView":23},{"type":"VEC2","componentType":5123,"count":472,"normalized":true,"byteOffset":0,"bufferView":24},{"type":"VEC4","componentType":5121,"count":472,"normalized":true,"byteOffset":0,"bufferView":25},{"type":"MAT4","componentType":5126,"count":55,"normalized":false,"byteOffset":14080,"bufferView":9},{"type":"VEC3","componentType":5122,"count":389,"max":[32767,18858,27855],"min":[-32767,-18858,-27855],"normalized":true,"byteOffset":0,"bufferView":26},{"type":"VEC3","componentType":5122,"count":389,"normalized":true,"byteOffset":0,"bufferView":27},{"type":"VEC2","componentType":5123,"count":389,"normalized":true,"byteOffset":0,"bufferView":28},{"type":"VEC4","componentType":5121,"count":389,"normalized":true,"byteOffset":0,"bufferView":29}],"bufferViews":[{"buffer":1,"byteOffset":0,"byteLength":91392,"target":34963,"extensions":{"EXT_meshopt_compression":{"buffer":0,"byteOffset":0,"byteLength":16841,"mode":"TRIANGLES","byteStride":2,"count":45696}}},{"buffer":1,"byteOffset":91392,"byteLength":26256,"target":34962,"byteStride":4,"extensions":{"EXT_meshopt_compression":{"buffer":0,"byteOffset":16844,"byteLength":445,"mode":"ATTRIBUTES","byteStride":4,"count":6564}}},{"buffer":1,"byteOffset":117648,"byteLength":26256,"target":34962,"byteStride":4,"extensions":{"EXT_meshopt_compression":{"buffer":0,"byteOffset":17292,"byteLength":5350,"mode":"ATTRIBUTES","byteStride":4,"count":6564}}},{"buffer":1,"byteOffset":143904,"byteLength":11264,"target":34962,"byteStride":4,"extensions":{"EXT_meshopt_compression":{"buffer":0,"byteOffset":22644,"byteLength":224,"mode":"ATTRIBUTES","byteStride":4,"count":2816}}},{"buffer":1,"byteOffset":155168,"byteLength":3884,"target":34962,"byteStride":4,"extensions":{"EXT_meshopt_compression":{"buffer":0,"byteOffset":22868,"byteLength":97,"mode":"ATTRIBUTES","byteStride":4,"count":971}}},{"buffer":1,"byteOffset":159052,"byteLength":1888,"target":34962,"byteStride":4,"extensions":{"EXT_meshopt_compression":{"buffer":0,"byteOffset":22968,"byteLength":65,"mode":"ATTRIBUTES","byteStride":4,"count":472}}},{"buffer":1,"byteOffset":160940,"byteLength":1888,"target":34962,"byteStride":4,"extensions":{"EXT_meshopt_compression":{"buffer":0,"byteOffset":23036,"byteLength":525,"mode":"ATTRIBUTES","byteStride":4,"count":472}}},{"buffer":1,"byteOffset":162828,"byteLength":1556,"target":34962,"byteStride":4,"extensions":{"EXT_meshopt_compression":{"buffer":0,"byteOffset":23564,"byteLength":61,"mode":"ATTRIBUTES","byteStride":4,"count":389}}},{"buffer":1,"byteOffset":164384,"byteLength":1556,"target":34962,"byteStride":4,"extensions":{"EXT_meshopt_compression":{"buffer":0,"byteOffset":23628,"byteLength":61,"mode":"ATTRIBUTES","byteStride":4,"count":389}}},{"buffer":1,"byteOffset":165940,"byteLength":17600,"extensions":{"EXT_meshopt_compression":{"buffer":0,"byteOffset":23692,"byteLength":12030,"mode":"ATTRIBUTES","byteStride":64,"count":275}}},{"buffer":1,"byteOffset":183540,"byteLength":52512,"target":34962,"byteStride":8,"extensions":{"EXT_meshopt_compression":{"buffer":0,"byteOffset":35724,"byteLength":29626,"mode":"ATTRIBUTES","byteStride":8,"count":6564}}},{"buffer":1,"byteOffset":236052,"byteLength":52512,"target":34962,"byteStride":8,"extensions":{"EXT_meshopt_compression":{"buffer":0,"byteOffset":65352,"byteLength":39964,"mode":"ATTRIBUTES","byteStride":8,"count":6564}}},{"buffer":1,"byteOffset":288564,"byteLength":26256,"target":34962,"byteStride":4,"extensions":{"EXT_meshopt_compression":{"buffer":0,"byteOffset":105316,"byteLength":20099,"mode":"ATTRIBUTES","byteStride":4,"count":6564}}},{"buffer":1,"byteOffset":314820,"byteLength":26256,"target":34962,"byteStride":4,"extensions":{"EXT_meshopt_compression":{"buffer":0,"byteOffset":125416,"byteLength":10784,"mode":"ATTRIBUTES","byteStride":4,"count":6564}}},{"buffer":1,"byteOffset":341076,"byteLength":22528,"target":34962,"byteStride":8,"extensions":{"EXT_meshopt_compression":{"buffer":0,"byteOffset":136200,"byteLength":12884,"mode":"ATTRIBUTES","byteStride":8,"count":2816}}},{"buffer":1,"byteOffset":363604,"byteLength":22528,"target":34962,"byteStride":8,"extensions":{"EXT_meshopt_compression":{"buffer":0,"byteOffset":149084,"byteLength":14083,"mode":"ATTRIBUTES","byteStride":8,"count":2816}}},{"buffer":1,"byteOffset":386132,"byteLength":11264,"target":34962,"byteStride":4,"extensions":{"EXT_meshopt_compression":{"buffer":0,"byteOffset":163168,"byteLength":8952,"mode":"ATTRIBUTES","byteStride":4,"count":2816}}},{"buffer":1,"byteOffset":397396,"byteLength":11264,"target":34962,"byteStride":4,"extensions":{"EXT_meshopt_compression":{"buffer":0,"byteOffset":172120,"byteLength":209,"mode":"ATTRIBUTES","byteStride":4,"count":2816}}},{"buffer":1,"byteOffset":408660,"byteLength":7768,"target":34962,"byteStride":8,"extensions":{"EXT_meshopt_compression":{"buffer":0,"byteOffset":172332,"byteLength":4966,"mode":"ATTRIBUTES","byteStride":8,"count":971}}},{"buffer":1,"byteOffset":416428,"byteLength":7768,"target":34962,"byteStride":8,"extensions":{"EXT_meshopt_compression":{"buffer":0,"byteOffset":177300,"byteLength":5878,"mode":"ATTRIBUTES","byteStride":8,"count":971}}},{"buffer":1,"byteOffset":424196,"byteLength":3884,"target":34962,"byteStride":4,"extensions":{"EXT_meshopt_compression":{"buffer":0,"byteOffset":183180,"byteLength":2995,"mode":"ATTRIBUTES","byteStride":4,"count":971}}},{"buffer":1,"byteOffset":428080,"byteLength":3884,"target":34962,"byteStride":4,"extensions":{"EXT_meshopt_compression":{"buffer":0,"byteOffset":186176,"byteLength":97,"mode":"ATTRIBUTES","byteStride":4,"count":971}}},{"buffer":1,"byteOffset":431964,"byteLength":3776,"target":34962,"byteStride":8,"extensions":{"EXT_meshopt_compression":{"buffer":0,"byteOffset":186276,"byteLength":2832,"mode":"ATTRIBUTES","byteStride":8,"count":472}}},{"buffer":1,"byteOffset":435740,"byteLength":3776,"target":34962,"byteStride":8,"extensions":{"EXT_meshopt_compression":{"buffer":0,"byteOffset":189108,"byteLength":2944,"mode":"ATTRIBUTES","byteStride":8,"count":472}}},{"buffer":1,"byteOffset":439516,"byteLength":1888,"target":34962,"byteStride":4,"extensions":{"EXT_meshopt_compression":{"buffer":0,"byteOffset":192052,"byteLength":1575,"mode":"ATTRIBUTES","byteStride":4,"count":472}}},{"buffer":1,"byteOffset":441404,"byteLength":1888,"target":34962,"byteStride":4,"extensions":{"EXT_meshopt_compression":{"buffer":0,"byteOffset":193628,"byteLength":968,"mode":"ATTRIBUTES","byteStride":4,"count":472}}},{"buffer":1,"byteOffset":443292,"byteLength":3112,"target":34962,"byteStride":8,"extensions":{"EXT_meshopt_compression":{"buffer":0,"byteOffset":194596,"byteLength":2305,"mode":"ATTRIBUTES","byteStride":8,"count":389}}},{"buffer":1,"byteOffset":446404,"byteLength":3112,"target":34962,"byteStride":8,"extensions":{"EXT_meshopt_compression":{"buffer":0,"byteOffset":196904,"byteLength":2441,"mode":"ATTRIBUTES","byteStride":8,"count":389}}},{"buffer":1,"byteOffset":449516,"byteLength":1556,"target":34962,"byteStride":4,"extensions":{"EXT_meshopt_compression":{"buffer":0,"byteOffset":199348,"byteLength":1253,"mode":"ATTRIBUTES","byteStride":4,"count":389}}},{"buffer":1,"byteOffset":451072,"byteLength":1556,"target":34962,"byteStride":4,"extensions":{"EXT_meshopt_compression":{"buffer":0,"byteOffset":200604,"byteLength":61,"mode":"ATTRIBUTES","byteStride":4,"count":389}}}],"samplers":[{"magFilter":9729,"minFilter":9987,"wrapS":10497,"wrapT":10497}],"textures":[{"sampler":0,"extensions":{"EXT_texture_webp":{"source":2}}},{"sampler":0,"extensions":{"EXT_texture_webp":{"source":0}}},{"sampler":0,"extensions":{"EXT_texture_webp":{"source":1}}},{"sampler":0,"extensions":{"EXT_texture_webp":{"source":3}}}],"images":[{"name":"T_Imp_Emissive","mimeType":"image/webp","uri":"../../../textures/b1c6d62b4d9d43a3.webp"},{"name":"T_Imp_Normal","mimeType":"image/webp","uri":"../../../textures/3e015fc027bf6297.webp"},{"name":"T_Imp_BaseColor_1","mimeType":"image/webp","uri":"../../../textures/5625666e44500e67.webp"},{"name":"T_Imp_ORM","mimeType":"image/webp","uri":"../../../textures/517a2c52813eba70.webp"}],"buffers":[{"uri":"Imp.bin","byteLength":200668},{"byteLength":452628,"extensions":{"EXT_meshopt_compression":{"fallback":true}}}],"materials":[{"name":"MI_Imp","doubleSided":true,"pbrMetallicRoughness":{"baseColorTexture":{"index":0},"metallicRoughnessTexture":{"index":3}},"emissiveFactor":[1,1,1],"emissiveTexture":{"index":1},"normalTexture":{"index":2},"extensions":{"KHR_materials_emissive_strength":{"emissiveStrength":2}}}],"meshes":[{"name":"Imp_Body","primitives":[{"attributes":{"COLOR_0":1,"JOINTS_0":2,"POSITION":14,"NORMAL":15,"TEXCOORD_0":16,"WEIGHTS_0":17},"mode":4,"material":0,"indices":0}]},{"name":"Imp_Chains","primitives":[{"attributes":{"JOINTS_0":4,"POSITION":19,"NORMAL":20,"TEXCOORD_0":21,"WEIGHTS_0":22},"mode":4,"material":0,"indices":3}]},{"name":"Imp_Mace","primitives":[{"attributes":{"JOINTS_0":6,"POSITION":24,"NORMAL":25,"TEXCOORD_0":26,"WEIGHTS_0":27},"mode":4,"material":0,"indices":5}]},{"name":"Teen_Male.004","primitives":[{"attributes":{"COLOR_0":8,"JOINTS_0":9,"POSITION":29,"NORMAL":30,"TEXCOORD_0":31,"WEIGHTS_0":32},"mode":4,"material":0,"indices":7}]},{"name":"Imp_SpikedCollar","primitives":[{"attributes":{"COLOR_0":11,"JOINTS_0":12,"POSITION":34,"NORMAL":35,"TEXCOORD_0":36,"WEIGHTS_0":37},"mode":4,"material":0,"indices":10}]}],"nodes":[{"name":"Head","translation":[-1.7763568394002505e-14,0.06823385506868362,-2.2351738238057806e-8],"rotation":[-0.2984844148159027,-1.4431583394980407e-7,-5.9094141136029066e-8,0.9544144868850708]},{"name":"neck_01","translation":[-3.9968028886505635e-15,0.21709221601486206,1.6763806343078613e-8],"rotation":[0.16377706825733185,1.4126479186415963e-7,7.1569226101075856e-9,0.9864974021911621],"children":[0]},{"name":"index_04_leaf_l","translation":[-1.9208528101444244e-9,0.03234827518463135,2.2565654944628477e-7],"rotation":[1.6184301676602786e-9,0.9999394416809082,-2.0428669245120545e-7,0.011005494743585587]},{"name":"index_03_l","translation":[1.0113581083714962e-9,0.03760731592774391,3.816239768639207e-8],"rotation":[-0.00001332874035142595,-0.00012567959493026137,0.00005048757157055661,1],"children":[2]},{"name":"index_02_l","translation":[-3.2105162972584367e-9,0.029533397406339645,6.20711944065988e-8],"rotation":[0.00007679270493099466,-0.000005389894340623869,-0.000273942481726408,1],"children":[3]},{"name":"index_01_l","translation":[0.016769153997302055,0.13932418823242188,0.043242283165454865],"rotation":[0.02758585661649704,0.7975870966911316,0.007132017984986305,0.6025304794311523],"children":[4]},{"name":"middle_04_leaf_l","translation":[-7.839844329282641e-10,0.035029180347919464,-1.1146767064929008e-8],"rotation":[2.885937355756596e-8,0.9999566674232483,4.79109814932599e-7,0.009309829212725163]},{"name":"middle_03_l","translation":[1.8444552551954985e-9,0.038042936474084854,-9.462382877245545e-9],"rotation":[0.0005841838428750634,-0.000041675055399537086,-0.002068659756332636,0.9999976754188538],"children":[6]},{"name":"middle_02_l","translation":[-1.127773430198431e-9,0.032276853919029236,6.114714778959751e-8],"rotation":[-0.0003272975154686719,0.00002316342761332635,0.001161018037237227,0.9999992847442627],"children":[7]},{"name":"middle_01_l","translation":[-0.0010533106978982687,0.14138339459896088,0.007657974027097225],"rotation":[-0.022616207599639893,0.7969868183135986,-0.029898760840296745,0.6028321981430054],"children":[8]},{"name":"ring_04_leaf_l","translation":[7.712515071034431e-9,0.03704778477549553,7.497146725654602e-8],"rotation":[9.937308753649177e-9,0.9997998476028442,5.690937427971221e-7,0.02000754326581955]},{"name":"ring_03_l","translation":[9.604264050722122e-10,0.030030805617570877,2.270098775625229e-8],"rotation":[0.0006015036487951875,-0.00011930071195820346,-0.0021557167638093233,0.9999974966049194],"children":[10]},{"name":"ring_02_l","translation":[-3.827153705060482e-9,0.036177948117256165,2.0780134946107864e-8],"rotation":[-0.00083288608584553,0.00006487101927632466,0.002976661780849099,0.999995231628418],"children":[11]},{"name":"ring_01_l","translation":[-0.00841994397342205,0.13239477574825287,-0.02928939461708069],"rotation":[-0.05482403188943863,0.7931684255599976,-0.07220933586359024,0.6022158861160278],"children":[12]},{"name":"thumb_04_leaf_l","translation":[2.7008354663848877e-8,0.027478255331516266,9.313225746154785e-9],"rotation":[-9.2883134072963e-8,0.47057464718818665,-8.628633452190115e-8,0.8823602199554443]},{"name":"thumb_03_l","translation":[2.9802322387695312e-8,0.031686995178461075,2.2351741790771484e-8],"rotation":[-0.0005965289892628789,-0.000051158025598851964,0.00003516069409670308,0.9999998211860657],"children":[14]},{"name":"thumb_02_l","translation":[9.627547115087509e-8,0.0479423888027668,7.450580596923828e-9],"rotation":[-0.00013349765504244715,0.000010368880793976132,0.00016298402624670416,1],"children":[15]},{"name":"thumb_01_l","translation":[0.039743416011333466,0.05635620653629303,0.036033350974321365],"rotation":[-0.29589107632637024,-0.9367260336875916,-0.16833403706550598,0.08158739656209946],"children":[16]},{"name":"hand_l","translation":[7.968006343617162e-8,0.21976880729198456,-2.9802322387695312e-8],"rotation":[-0.013976003043353558,-6.55998974252725e-7,-7.238703005896241e-7,0.9999023675918579],"children":[5,9,13,17]},{"name":"lowerarm_l","translation":[-2.7573722860552152e-8,0.23964636027812958,-2.7008354663848877e-8],"rotation":[0.0308931153267622,4.0694473568692047e-8,2.602278925678547e-7,0.9995226860046387],"children":[18]},{"name":"upperarm_l","translation":[-0.029815729707479477,0.15035311877727509,-0.0026829540729522705],"rotation":[0.18376579880714417,0.5994763970375061,-0.14334861934185028,0.7657084465026855],"children":[19]},{"name":"clavicle_l","translation":[0.026699988171458244,0.19709274172782898,0.043056145310401917],"rotation":[-0.7159591317176819,-0.39127999544143677,-0.33755114674568176,0.46942704916000366],"children":[20]},{"name":"index_04_leaf_r","translation":[-3.026798367500305e-9,0.03234831616282463,3.661625669337809e-9],"rotation":[5.33701127736208e-9,-0.9999394416809082,2.0339535922175855e-7,0.011005613952875137]},{"name":"index_03_r","translation":[-4.610228643286973e-9,0.03760729357600212,1.6459307516925037e-7],"rotation":[-0.000013330440197023563,0.00012556015281006694,-0.00005048396633355878,1],"children":[22]},{"name":"index_02_r","translation":[4.220055416226387e-10,0.02953341044485569,1.7183992895297706e-7],"rotation":[0.00007678339898120612,0.000005343523298506625,0.0002739304327405989,1],"children":[23]},{"name":"index_01_r","translation":[-0.01676928624510765,0.1393240988254547,0.04324221611022949],"rotation":[0.02758588269352913,-0.7975870966911316,-0.007132026366889477,0.6025305986404419],"children":[24]},{"name":"middle_04_leaf_r","translation":[-8.11269273981452e-10,0.03502911329269409,-9.538780432194471e-9],"rotation":[2.9187846806166817e-8,-0.9999566674232483,-4.782094151778438e-7,0.009309828281402588]},{"name":"middle_03_r","translation":[5.871697794646025e-9,0.03804292902350426,1.1292286217212677e-7],"rotation":[0.000584184133913368,0.00004167516090092249,0.002068660454824567,0.9999976754188538],"children":[26]},{"name":"middle_02_r","translation":[-6.05359673500061e-9,0.03227695822715759,-6.277332431636751e-8],"rotation":[-0.0003273005713708699,-0.000023146320017986,-0.0011610026704147458,0.9999992847442627],"children":[27]},{"name":"middle_01_r","translation":[0.0010530523722991347,0.14138329029083252,0.007657927460968494],"rotation":[-0.02261616662144661,-0.7969868779182434,0.029898734763264656,0.6028321385383606],"children":[28]},{"name":"ring_04_leaf_r","translation":[5.209585651755333e-9,0.03704768791794777,-1.885928213596344e-8],"rotation":[2.408460098024534e-8,-0.9997998476028442,-5.653095627167204e-7,0.02000742219388485]},{"name":"ring_03_r","translation":[-1.2281816452741623e-8,0.030030835419893265,-1.0407529771327972e-7],"rotation":[0.0006015062099322677,0.00011953948705922812,0.0021557083819061518,0.9999974966049194],"children":[30]},{"name":"ring_02_r","translation":[3.128661774098873e-9,0.036177925765514374,3.096647560596466e-8],"rotation":[-0.000832884106785059,-0.00006501080497400835,-0.0029766608495265245,0.999995231628418],"children":[31]},{"name":"ring_01_r","translation":[0.008419797755777836,0.13239465653896332,-0.029289420694112778],"rotation":[-0.05482404679059982,-0.7931684255599976,0.07220934331417084,0.6022158861160278],"children":[32]},{"name":"thumb_04_leaf_r","translation":[-8.777715265750885e-8,0.027478227391839027,-4.842877388000488e-8],"rotation":[-5.699649463508649e-8,-0.47057461738586426,1.5251839613483753e-7,0.8823602199554443]},{"name":"thumb_03_r","translation":[6.158370524644852e-8,0.031687039881944656,2.7939677238464355e-8],"rotation":[-0.0005965289892628789,0.000051156624977011234,-0.00003521936741890386,0.9999998211860657],"children":[34]},{"name":"thumb_02_r","translation":[5.7334545999765396e-8,0.04794236272573471,4.470348358154297e-8],"rotation":[-0.00013350136578083038,-0.00001045549288392067,-0.00016293535009026527,1],"children":[35]},{"name":"thumb_01_r","translation":[-0.03974354639649391,0.056356169283390045,0.036033302545547485],"rotation":[-0.2958911955356598,0.9367260336875916,0.1683340072631836,0.08158726245164871],"children":[36]},{"name":"hand_r","translation":[1.5485400695069984e-7,0.2197687327861786,4.0978193283081055e-8],"rotation":[-0.013976058922708035,6.567115065081452e-7,7.102486847543332e-7,0.9999023675918579],"children":[25,29,33,37]},{"name":"lowerarm_r","translation":[-7.07644716158029e-8,0.239646315574646,-6.239861249923706e-8],"rotation":[0.030893145129084587,-7.194959295020453e-8,-2.912554180056759e-7,0.9995226860046387],"children":[38]},{"name":"upperarm_r","translation":[0.029815673828125,0.15035313367843628,-0.0026825889945030212],"rotation":[0.18376579880714417,-0.5994762778282166,0.14334861934185028,0.7657085061073303],"children":[39]},{"name":"clavicle_r","translation":[-0.026700006797909737,0.19709274172782898,0.04305613040924072],"rotation":[-0.7159591913223267,0.3912799060344696,0.3375510275363922,0.46942710876464844],"children":[40]},{"name":"spine_03","translation":[0,0.10722463577985764,-1.4901161193847656e-8],"rotation":[0.05623240768909454,1.1902068308700109e-7,6.703428478971318e-9,0.9984176754951477],"children":[1,21,41]},{"name":"spine_02","translation":[-2.6645352591003757e-15,0.08915086090564728,1.1175870895385742e-8],"rotation":[0.12876826524734497,-1.1821688161717248e-7,1.5350376969536228e-8,0.9916747212409973],"children":[42]},{"name":"spine_01","translation":[0,0.10952472686767578,-9.313225746154785e-10],"rotation":[-0.021810825914144516,3.5563349140566025e-14,-5.2001061234818735e-9,0.9997621774673462],"children":[43]},{"name":"ball_l","translation":[2.731068704520112e-10,0.13546109199523926,4.036873946233754e-9],"rotation":[3.7473188996273166e-8,0.9731351137161255,-0.2302347868680954,7.346967123567083e-8]},{"name":"foot_l","translation":[-3.6482106224866584e-9,0.4108577370643616,-2.002707333303988e-9],"rotation":[-0.5885144472122192,0.00012346163566689938,0.00008973004878498614,0.8084867596626282],"children":[45]},{"name":"calf_l","translation":[-1.0382336768088862e-8,0.34758561849594116,-9.858922567218542e-10],"rotation":[0.10247679054737091,0.0000792882201494649,-0.00003944126729038544,0.9947354197502136],"children":[46]},{"name":"thigh_l","translation":[0.09900558739900589,0.019667234271764755,0.0025309717748314142],"rotation":[0.9999988079071045,-3.5426771205493424e-7,-0.00023217622947413474,0.0015258565545082092],"children":[47]},{"name":"ball_r","translation":[-2.8472801893997257e-10,0.13546109199523926,4.061353919837529e-9],"rotation":[3.757360289569078e-8,-0.9731351137161255,0.230234757065773,7.346966413024347e-8]},{"name":"foot_r","translation":[-3.6475285014603287e-9,0.4108577370643616,3.865352482534945e-9],"rotation":[-0.5885144472122192,0.00012326883734203875,0.00008987034379970282,0.8084867596626282],"children":[49]},{"name":"calf_r","translation":[5.645688361255452e-9,0.34758561849594116,-1.1641532182693481e-9],"rotation":[0.10247679054737091,0.00007952539453981444,-0.000039465703594032675,0.9947354197502136],"children":[50]},{"name":"thigh_r","translation":[-0.09900558739900589,0.019667234271764755,0.002530922880396247],"rotation":[0.9999988079071045,-3.5463060044094163e-7,-0.0002324146480532363,0.0015258528292179108],"children":[51]},{"name":"pelvis","translation":[0,0.03214520215988159,0.8070307970046997],"rotation":[0.689217209815979,8.637368154040814e-8,8.216107971747988e-8,0.7245548963546753],"children":[44,48,52]},{"name":"root","rotation":[-0.7071067690849304,0,0,0.7071067690849304],"children":[53]},{"name":"Imp_Body","mesh":0,"skin":0},{"name":"Imp_Chains","mesh":1,"skin":1},{"name":"Imp_Mace","mesh":2,"skin":2},{"name":"Imp_Shorts","mesh":3,"skin":3},{"name":"Imp_SpikedCollar","mesh":4,"skin":4},{"name":"Armature","children":[55,56,57,58,59,54]},{"name":"pack_root","children":[60]}],"skins":[{"name":"Armature","inverseBindMatrices":13,"joints":[54,53,44,43,42,1,0,21,20,19,18,5,4,3,2,9,8,7,6,13,12,11,10,17,16,15,14,41,40,39,38,25,24,23,22,29,28,27,26,33,32,31,30,37,36,35,34,48,47,46,45,52,51,50,49]},{"name":"Armature","inverseBindMatrices":18,"joints":[54,53,44,43,42,1,0,21,20,19,18,5,4,3,2,9,8,7,6,13,12,11,10,17,16,15,14,41,40,39,38,25,24,23,22,29,28,27,26,33,32,31,30,37,36,35,34,48,47,46,45,52,51,50,49]},{"name":"Armature","inverseBindMatrices":23,"joints":[54,53,44,43,42,1,0,21,20,19,18,5,4,3,2,9,8,7,6,13,12,11,10,17,16,15,14,41,40,39,38,25,24,23,22,29,28,27,26,33,32,31,30,37,36,35,34,48,47,46,45,52,51,50,49]},{"name":"Armature","inverseBindMatrices":28,"joints":[54,53,44,43,42,1,0,21,20,19,18,5,4,3,2,9,8,7,6,13,12,11,10,17,16,15,14,41,40,39,38,25,24,23,22,29,28,27,26,33,32,31,30,37,36,35,34,48,47,46,45,52,51,50,49]},{"name":"Armature","inverseBindMatrices":33,"joints":[54,53,44,43,42,1,0,21,20,19,18,5,4,3,2,9,8,7,6,13,12,11,10,17,16,15,14,41,40,39,38,25,24,23,22,29,28,27,26,33,32,31,30,37,36,35,34,48,47,46,45,52,51,50,49]}],"scenes":[{"name":"Scene","nodes":[61]}],"scene":0,"extensionsUsed":["EXT_meshopt_compression","EXT_texture_webp","KHR_materials_emissive_strength","KHR_mesh_quantization"],"extensionsRequired":["EXT_meshopt_compression","EXT_texture_webp","KHR_mesh_quantization"]}