{"asset":{"generator":"glTF-Transform v4.5.1","version":"2.0"},"accessors":[{"type":"SCALAR","componentType":5123,"count":20178,"normalized":false,"byteOffset":0,"bufferView":0},{"type":"VEC4","componentType":5121,"count":3926,"normalized":true,"byteOffset":0,"bufferView":1},{"type":"VEC4","componentType":5121,"count":3926,"normalized":false,"byteOffset":0,"bufferView":2},{"type":"SCALAR","componentType":5123,"count":1800,"normalized":false,"byteOffset":40356,"bufferView":0},{"type":"VEC4","componentType":5121,"count":431,"normalized":true,"byteOffset":0,"bufferView":3},{"type":"VEC4","componentType":5121,"count":431,"normalized":false,"byteOffset":0,"bufferView":4},{"type":"SCALAR","componentType":5123,"count":606,"normalized":false,"byteOffset":43956,"bufferView":0},{"type":"VEC4","componentType":5121,"count":142,"normalized":true,"byteOffset":0,"bufferView":5},{"type":"VEC4","componentType":5121,"count":142,"normalized":false,"byteOffset":0,"bufferView":6},{"type":"MAT4","componentType":5126,"count":55,"normalized":false,"byteOffset":0,"bufferView":7},{"type":"VEC3","componentType":5122,"count":3926,"max":[32767,20782,13629],"min":[-32767,-20782,-13629],"normalized":true,"byteOffset":0,"bufferView":8},{"type":"VEC3","componentType":5122,"count":3926,"normalized":true,"byteOffset":0,"bufferView":9},{"type":"VEC2","componentType":5123,"count":3926,"normalized":true,"byteOffset":0,"bufferView":10},{"type":"VEC4","componentType":5121,"count":3926,"normalized":true,"byteOffset":0,"bufferView":11},{"type":"MAT4","componentType":5126,"count":55,"normalized":false,"byteOffset":3520,"bufferView":7},{"type":"VEC3","componentType":5122,"count":431,"max":[11161,4748,32767],"min":[-11161,-4748,-32767],"normalized":true,"byteOffset":0,"bufferView":12},{"type":"VEC3","componentType":5122,"count":431,"normalized":true,"byteOffset":0,"bufferView":13},{"type":"VEC2","componentType":5123,"count":431,"normalized":true,"byteOffset":0,"bufferView":14},{"type":"VEC4","componentType":5121,"count":431,"normalized":true,"byteOffset":0,"bufferView":15},{"type":"MAT4","componentType":5126,"count":55,"normalized":false,"byteOffset":7040,"bufferView":7},{"type":"VEC3","componentType":5122,"count":142,"max":[32767,6576,4592],"min":[-32767,-6576,-4592],"normalized":true,"byteOffset":0,"bufferView":16},{"type":"VEC3","componentType":5122,"count":142,"normalized":true,"byteOffset":0,"bufferView":17},{"type":"VEC2","componentType":5123,"count":142,"normalized":true,"byteOffset":0,"bufferView":18},{"type":"VEC4","componentType":5121,"count":142,"normalized":true,"byteOffset":0,"bufferView":19}],"bufferViews":[{"buffer":1,"byteOffset":0,"byteLength":45168,"target":34963,"extensions":{"EXT_meshopt_compression":{"buffer":0,"byteOffset":0,"byteLength":8555,"mode":"TRIANGLES","byteStride":2,"count":22584}}},{"buffer":1,"byteOffset":45168,"byteLength":15704,"target":34962,"byteStride":4,"extensions":{"EXT_meshopt_compression":{"buffer":0,"byteOffset":8556,"byteLength":281,"mode":"ATTRIBUTES","byteStride":4,"count":3926}}},{"buffer":1,"byteOffset":60872,"byteLength":15704,"target":34962,"byteStride":4,"extensions":{"EXT_meshopt_compression":{"buffer":0,"byteOffset":8840,"byteLength":5042,"mode":"ATTRIBUTES","byteStride":4,"count":3926}}},{"buffer":1,"byteOffset":76576,"byteLength":1724,"target":34962,"byteStride":4,"extensions":{"EXT_meshopt_compression":{"buffer":0,"byteOffset":13884,"byteLength":61,"mode":"ATTRIBUTES","byteStride":4,"count":431}}},{"buffer":1,"byteOffset":78300,"byteLength":1724,"target":34962,"byteStride":4,"extensions":{"EXT_meshopt_compression":{"buffer":0,"byteOffset":13948,"byteLength":61,"mode":"ATTRIBUTES","byteStride":4,"count":431}}},{"buffer":1,"byteOffset":80024,"byteLength":568,"target":34962,"byteStride":4,"extensions":{"EXT_meshopt_compression":{"buffer":0,"byteOffset":14012,"byteLength":45,"mode":"ATTRIBUTES","byteStride":4,"count":142}}},{"buffer":1,"byteOffset":80592,"byteLength":568,"target":34962,"byteStride":4,"extensions":{"EXT_meshopt_compression":{"buffer":0,"byteOffset":14060,"byteLength":45,"mode":"ATTRIBUTES","byteStride":4,"count":142}}},{"buffer":1,"byteOffset":81160,"byteLength":10560,"extensions":{"EXT_meshopt_compression":{"buffer":0,"byteOffset":14108,"byteLength":7186,"mode":"ATTRIBUTES","byteStride":64,"count":165}}},{"buffer":1,"byteOffset":91720,"byteLength":31408,"target":34962,"byteStride":8,"extensions":{"EXT_meshopt_compression":{"buffer":0,"byteOffset":21296,"byteLength":18447,"mode":"ATTRIBUTES","byteStride":8,"count":3926}}},{"buffer":1,"byteOffset":123128,"byteLength":31408,"target":34962,"byteStride":8,"extensions":{"EXT_meshopt_compression":{"buffer":0,"byteOffset":39744,"byteLength":23923,"mode":"ATTRIBUTES","byteStride":8,"count":3926}}},{"buffer":1,"byteOffset":154536,"byteLength":15704,"target":34962,"byteStride":4,"extensions":{"EXT_meshopt_compression":{"buffer":0,"byteOffset":63668,"byteLength":12359,"mode":"ATTRIBUTES","byteStride":4,"count":3926}}},{"buffer":1,"byteOffset":170240,"byteLength":15704,"target":34962,"byteStride":4,"extensions":{"EXT_meshopt_compression":{"buffer":0,"byteOffset":76028,"byteLength":8709,"mode":"ATTRIBUTES","byteStride":4,"count":3926}}},{"buffer":1,"byteOffset":185944,"byteLength":3448,"target":34962,"byteStride":8,"extensions":{"EXT_meshopt_compression":{"buffer":0,"byteOffset":84740,"byteLength":2242,"mode":"ATTRIBUTES","byteStride":8,"count":431}}},{"buffer":1,"byteOffset":189392,"byteLength":3448,"target":34962,"byteStride":8,"extensions":{"EXT_meshopt_compression":{"buffer":0,"byteOffset":86984,"byteLength":2664,"mode":"ATTRIBUTES","byteStride":8,"count":431}}},{"buffer":1,"byteOffset":192840,"byteLength":1724,"target":34962,"byteStride":4,"extensions":{"EXT_meshopt_compression":{"buffer":0,"byteOffset":89648,"byteLength":1391,"mode":"ATTRIBUTES","byteStride":4,"count":431}}},{"buffer":1,"byteOffset":194564,"byteLength":1724,"target":34962,"byteStride":4,"extensions":{"EXT_meshopt_compression":{"buffer":0,"byteOffset":91040,"byteLength":61,"mode":"ATTRIBUTES","byteStride":4,"count":431}}},{"buffer":1,"byteOffset":196288,"byteLength":1136,"target":34962,"byteStride":8,"extensions":{"EXT_meshopt_compression":{"buffer":0,"byteOffset":91104,"byteLength":839,"mode":"ATTRIBUTES","byteStride":8,"count":142}}},{"buffer":1,"byteOffset":197424,"byteLength":1136,"target":34962,"byteStride":8,"extensions":{"EXT_meshopt_compression":{"buffer":0,"byteOffset":91944,"byteLength":921,"mode":"ATTRIBUTES","byteStride":8,"count":142}}},{"buffer":1,"byteOffset":198560,"byteLength":568,"target":34962,"byteStride":4,"extensions":{"EXT_meshopt_compression":{"buffer":0,"byteOffset":92868,"byteLength":486,"mode":"ATTRIBUTES","byteStride":4,"count":142}}},{"buffer":1,"byteOffset":199128,"byteLength":568,"target":34962,"byteStride":4,"extensions":{"EXT_meshopt_compression":{"buffer":0,"byteOffset":93356,"byteLength":45,"mode":"ATTRIBUTES","byteStride":4,"count":142}}}],"samplers":[{"magFilter":9729,"minFilter":9987,"wrapS":10497,"wrapT":10497}],"textures":[{"sampler":0,"extensions":{"EXT_texture_webp":{"source":2}}},{"sampler":0,"extensions":{"EXT_texture_webp":{"source":0}}},{"sampler":0,"extensions":{"EXT_texture_webp":{"source":1}}},{"sampler":0,"extensions":{"EXT_texture_webp":{"source":3}}}],"images":[{"name":"T_Puglin_Emissive","mimeType":"image/webp","uri":"../../../textures/2341d460a48c853f.webp"},{"name":"T_Puglin_Normal","mimeType":"image/webp","uri":"../../../textures/a60fa1ac8651d4a6.webp"},{"name":"T_Puglin_BaseColor_1.png","mimeType":"image/webp","uri":"../../../textures/f73862dde3510bdf.webp"},{"name":"T_Puglin_ORM","mimeType":"image/webp","uri":"../../../textures/8fd2fbe7f77e3d1f.webp"}],"buffers":[{"uri":"Puglin.bin","byteLength":93404},{"byteLength":199696,"extensions":{"EXT_meshopt_compression":{"fallback":true}}}],"materials":[{"name":"MI_Puglin","doubleSided":true,"pbrMetallicRoughness":{"baseColorTexture":{"index":0},"metallicRoughnessTexture":{"index":3}},"emissiveFactor":[1,1,1],"emissiveTexture":{"index":1},"normalTexture":{"index":2},"extensions":{"KHR_materials_emissive_strength":{"emissiveStrength":2}}}],"meshes":[{"name":"Puglin_Body","primitives":[{"attributes":{"COLOR_0":1,"JOINTS_0":2,"POSITION":10,"NORMAL":11,"TEXCOORD_0":12,"WEIGHTS_0":13},"mode":4,"material":0,"indices":0}]},{"name":"Puglin_Stick","primitives":[{"attributes":{"COLOR_0":4,"JOINTS_0":5,"POSITION":15,"NORMAL":16,"TEXCOORD_0":17,"WEIGHTS_0":18},"mode":4,"material":0,"indices":3}]},{"name":"Puglin_Tusks","primitives":[{"attributes":{"COLOR_0":7,"JOINTS_0":8,"POSITION":20,"NORMAL":21,"TEXCOORD_0":22,"WEIGHTS_0":23},"mode":4,"material":0,"indices":6}]}],"nodes":[{"name":"Head","translation":[-1.2297159276107583e-13,0.07351255416870117,7.450580596923828e-9],"rotation":[-0.4049701690673828,-9.809696166485082e-7,-0.000001013800329019432,0.9143298864364624]},{"name":"neck_01","translation":[-5.568141162991952e-14,0.08195793628692627,2.2351741790771484e-8],"rotation":[-0.0728134959936142,7.133569397410611e-7,-2.0832104041801358e-7,0.9973455667495728],"children":[0]},{"name":"index_04_leaf_l","translation":[9.663381206337363e-10,0.03464445099234581,-2.641417040649685e-8],"rotation":[-3.72529100900465e-8,1,-2.8704778354607385e-13,0.0000037709860407630913]},{"name":"index_03_l","translation":[-6.483787728939205e-9,0.027011197060346603,3.321326857985696e-8],"children":[2]},{"name":"index_02_l","translation":[-4.0372469811700284e-9,0.0313495397567749,2.298875756423513e-8],"rotation":[-3.1897326446816976e-10,7.430730875057634e-8,-0.00022991003061179072,1],"children":[3]},{"name":"index_01_l","translation":[0.010980750434100628,0.13488073647022247,0.04981159791350365],"rotation":[0.0699235200881958,0.703643798828125,0.0699240192770958,0.7036381959915161],"children":[4]},{"name":"middle_04_leaf_l","translation":[7.385096978396177e-10,0.037782929837703705,-4.6890924920717225e-8],"rotation":[-1.0244548320770264e-8,1,-9.781424666543623e-15,0.0000037709855860157404]},{"name":"middle_03_l","translation":[7.385096978396177e-10,0.03675525635480881,2.376188490416098e-8],"rotation":[7.990763606358087e-9,5.055515034380065e-12,-0.0010301718721166253,0.9999995231628418],"children":[6]},{"name":"middle_02_l","translation":[-1.889929990284145e-9,0.029914379119873047,-5.044712736435031e-8],"rotation":[-1.552171013941006e-8,7.941196855654198e-8,0.0009513772674836218,0.9999995231628418],"children":[7]},{"name":"middle_01_l","translation":[0.008170908316969872,0.13862653076648712,0.005346142221242189],"rotation":[-0.01341826468706131,0.7069823145866394,-0.01341837178915739,0.706976592540741],"children":[8]},{"name":"ring_04_leaf_l","translation":[-1.4086708688409999e-8,0.03173208236694336,1.5318391888285987e-8],"rotation":[7.450583261459087e-9,1,8.910884860937121e-14,0.0000036517765238386346]},{"name":"ring_03_l","translation":[-2.1537289285333827e-8,0.027841417118906975,7.937887858133763e-8],"rotation":[3.33747962599773e-9,-2.473399957070299e-11,-0.00044456508476287127,0.9999999403953552],"children":[10]},{"name":"ring_02_l","translation":[-3.928107616957277e-9,0.025592954829335213,-7.23248376743868e-8],"rotation":[-1.8656267641858904e-8,-4.595253599859461e-8,0.0015226771356537938,0.9999988079071045],"children":[11]},{"name":"ring_01_l","translation":[0.010154113173484802,0.13399088382720947,-0.040968649089336395],"rotation":[-0.0728868618607521,0.7033430337905884,-0.07288741320371628,0.7033373713493347],"children":[12]},{"name":"thumb_04_leaf_l","translation":[-5.3551048040390015e-9,0.04561480134725571,2.2817403078079224e-8],"rotation":[-2.1433001151649478e-8,0.49471575021743774,5.947656944726987e-8,0.8690548539161682]},{"name":"thumb_03_l","translation":[-6.647314876317978e-8,0.030498262494802475,7.916241884231567e-9],"rotation":[-0.00047719303984194994,0.000232728139963001,0.00013537131599150598,0.9999998211860657],"children":[14]},{"name":"thumb_02_l","translation":[-1.9703293219208717e-8,0.0468846820294857,1.5599653124809265e-8],"rotation":[-0.00003258698416175321,-0.00009454880637349561,0.0002096119278576225,1],"children":[15]},{"name":"thumb_01_l","translation":[0.02761247381567955,0.024455798789858818,0.053478095680475235],"rotation":[0.2546059191226959,0.9432574510574341,0.20649801194667816,0.052913084626197815],"children":[16]},{"name":"hand_l","translation":[-1.1682566025683627e-8,0.12972286343574524,7.210019248304889e-10],"rotation":[-0.01638203114271164,4.767645123138209e-7,1.4906907708223116e-8,0.9998658299446106],"children":[5,9,13,17]},{"name":"lowerarm_l","translation":[3.6014753845847736e-8,0.19306345283985138,1.0622898116707802e-9],"rotation":[0.031371068209409714,-0.000020458981452975422,6.080072694203409e-7,0.9995078444480896],"children":[18]},{"name":"upperarm_l","translation":[-0.026739519089460373,0.17252248525619507,0.04408356174826622],"rotation":[0.16520093381404877,0.6877081394195557,-0.16465704143047333,0.6874985694885254],"children":[19]},{"name":"clavicle_l","translation":[0.02574043534696102,0.0968308076262474,0.005435216706246138],"rotation":[-0.8230727314949036,-0.4876750111579895,-0.14867444336414337,0.25024062395095825],"children":[20]},{"name":"index_04_leaf_r","translation":[-9.663381206337363e-10,0.03464455157518387,-2.4869109438441228e-8],"rotation":[-4.470348358154297e-8,-1,2.0231600140856176e-13,0.0000037709860407630913]},{"name":"index_03_r","translation":[-8.416918717557564e-9,0.027011236175894737,-8.445107368970639e-8],"children":[22]},{"name":"index_02_r","translation":[1.0019448382081464e-8,0.03134959563612938,3.8445591599156614e-8],"rotation":[1.1414650558094763e-8,-8.487606351081922e-8,0.0002299249463248998,1],"children":[23]},{"name":"index_01_r","translation":[-0.01098075695335865,0.1348806470632553,0.04981159418821335],"rotation":[0.069923534989357,-0.7036438584327698,-0.06992404162883759,0.7036381363868713],"children":[24]},{"name":"middle_04_leaf_r","translation":[2.9881448426749557e-9,0.03778284788131714,7.158695325415465e-8],"rotation":[-7.4505797087454084e-9,-1,2.4227463161748466e-14,0.0000037709860407630913]},{"name":"middle_03_r","translation":[1.1245901987422258e-9,0.03675523400306702,8.266088258324089e-8],"rotation":[8.01125210614373e-9,3.0507835840909436e-11,0.0010301718721166253,0.999999463558197],"children":[26]},{"name":"middle_02_r","translation":[9.399627742823213e-10,0.0299143735319376,2.572109991660909e-8],"rotation":[-2.891573425145566e-9,-8.963332476241703e-8,-0.0009513819240964949,0.9999995231628418],"children":[27]},{"name":"middle_01_r","translation":[-0.00817091017961502,0.13862650096416473,0.005346143152564764],"rotation":[-0.013418244197964668,-0.7069823145866394,0.013418333604931831,0.7069766521453857],"children":[28]},{"name":"ring_04_leaf_r","translation":[1.0362327884649858e-8,0.031732186675071716,-4.583250756695634e-8],"rotation":[-3.7252858575698156e-9,-1,-2.0261576975672685e-14,0.000003651776296464959]},{"name":"ring_03_r","translation":[1.4087163435760885e-8,0.027841459959745407,-4.136882125749253e-8],"rotation":[3.344940768812421e-9,3.6060047309272036e-11,0.0004445725353434682,0.9999999403953552],"children":[30]},{"name":"ring_02_r","translation":[-1.4569650375051424e-8,0.025592945516109467,5.043088435741083e-8],"rotation":[-1.598947285685881e-8,3.703390660803052e-8,-0.001522717997431755,0.9999988079071045],"children":[31]},{"name":"ring_01_r","translation":[-0.010154109448194504,0.1339908093214035,-0.0409686453640461],"rotation":[-0.07288683950901031,-0.7033430933952332,0.0728873685002327,0.7033373117446899],"children":[32]},{"name":"thumb_04_leaf_r","translation":[-2.287561073899269e-8,0.045614879578351974,0],"rotation":[-1.928969339815012e-8,-0.49471572041511536,-4.072269632615644e-8,0.8690548539161682]},{"name":"thumb_03_r","translation":[6.367918103933334e-8,0.0304982028901577,-2.2351741790771484e-8],"rotation":[-0.0004771873645950109,-0.00023272963881026953,-0.00013530738942790776,0.9999998807907104],"children":[34]},{"name":"thumb_02_r","translation":[-1.525040715932846e-8,0.04688467085361481,7.916241884231567e-9],"rotation":[-0.00003263541293563321,0.00038091521128080785,-0.0002095668896799907,0.9999999403953552],"children":[35]},{"name":"thumb_01_r","translation":[-0.027612540870904922,0.024455714970827103,0.05347808077931404],"rotation":[0.25454679131507874,-0.943272590637207,-0.20657087862491608,0.05264286324381828],"children":[36]},{"name":"hand_r","translation":[7.12872036956469e-8,0.12972287833690643,3.021796146640554e-10],"rotation":[-0.01638207957148552,-4.1716600662766723e-7,-1.5883369286484594e-8,0.9998658299446106],"children":[25,29,33,37]},{"name":"lowerarm_r","translation":[1.525351933651109e-8,0.19306352734565735,3.9108272176235914e-10],"rotation":[0.03137102350592613,0.00002049716204055585,-5.960434918961255e-7,0.9995077848434448],"children":[38]},{"name":"upperarm_r","translation":[0.026739537715911865,0.17252248525619507,0.044083498418331146],"rotation":[0.16520093381404877,-0.6877081394195557,0.16465702652931213,0.6874986290931702],"children":[39]},{"name":"clavicle_r","translation":[-0.025740453973412514,0.0968308076262474,0.005435105878859758],"rotation":[-0.8230729699134827,0.4876745045185089,0.1486726850271225,0.250241756439209],"children":[40]},{"name":"spine_03","translation":[-3.999489677159254e-15,0.05448117107152939,1.30385160446167e-8],"rotation":[0.1353844851255417,9.448942250855907e-7,1.6139088643285504e-7,0.9907931685447693],"children":[1,21,41]},{"name":"spine_02","translation":[-3.0002889549966133e-15,0.045336414128541946,1.257285475730896e-8],"rotation":[0.1793852001428604,7.222585566733428e-15,4.2768771635337544e-8,0.9837788939476013],"children":[42]},{"name":"spine_01","translation":[1.3295808410414972e-15,0.07532700896263123,-5.587935447692871e-9],"rotation":[0.13730353116989136,3.138347702102539e-15,3.2735712807152595e-8,0.9905290603637695],"children":[43]},{"name":"ball_l","translation":[-3.4365257306490093e-9,0.0707472562789917,2.764863893389702e-10],"rotation":[0.0001224498701049015,-0.9731341004371643,0.23023855686187744,0.0005178111023269594]},{"name":"foot_l","translation":[-7.450773331640903e-9,0.19333302974700928,-3.2587865739230892e-9],"rotation":[-0.5849131941795349,-0.00043148096301592886,0.0003111580153927207,0.8110957741737366],"children":[45]},{"name":"calf_l","translation":[-2.4048665281384274e-9,0.17246434092521667,5.591243024127834e-10],"rotation":[0.10025855898857117,-1.1923313536499336e-7,5.754712706362852e-9,0.9949614405632019],"children":[46]},{"name":"thigh_l","translation":[0.10683377087116241,0.00839831680059433,0.0025373634416610003],"rotation":[0.9979107975959778,-6.215649328566997e-9,2.3832596696138353e-7,0.06460706889629364],"scale":[1,1,1.00001859664917],"children":[47]},{"name":"ball_r","translation":[3.402874426683411e-9,0.07074728608131409,-2.029992174357176e-9],"rotation":[0.00012244968093000352,0.9731341600418091,-0.23023830354213715,0.0005178112187422812]},{"name":"foot_r","translation":[1.8623991238087e-13,0.19333302974700928,-1.8643890875580382e-9],"rotation":[-0.584913432598114,0.00043148084660060704,-0.0003111580736003816,0.8110955357551575],"children":[49]},{"name":"calf_r","translation":[1.1574057268148863e-8,0.17246435582637787,-2.5836577322024823e-10],"rotation":[0.10025861859321594,1.1798424992548462e-7,-1.8149664882116667e-8,0.9949614405632019],"children":[50]},{"name":"thigh_r","translation":[-0.10683377087116241,0.008398257195949554,0.0025373201351612806],"rotation":[0.9979107975959778,-2.161932322053417e-8,4.054174218559581e-10,0.06460708379745483],"scale":[1,1,1.0000181198120117],"children":[51]},{"name":"pelvis","translation":[-2.6868017435804415e-18,0.024319084361195564,0.3937735855579376],"rotation":[0.7320461869239807,8.121192962562418e-8,8.72666987561388e-8,0.681255042552948],"children":[44,48,52]},{"name":"root","rotation":[-0.7071067690849304,0,0,0.7071067690849304],"children":[53]},{"name":"Puglin_Body","mesh":0,"skin":0},{"name":"Puglin_Stick","mesh":1,"skin":1},{"name":"Puglin_Tusks","mesh":2,"skin":2},{"name":"Armature","children":[55,56,57,54]},{"name":"pack_root","children":[58]}],"skins":[{"name":"Armature","inverseBindMatrices":9,"joints":[54,53,44,43,42,1,0,21,20,19,18,5,4,3,2,9,8,7,6,13,12,11,10,17,16,15,14,41,40,39,38,25,24,23,22,29,28,27,26,33,32,31,30,37,36,35,34,48,47,46,45,52,51,50,49]},{"name":"Armature","inverseBindMatrices":14,"joints":[54,53,44,43,42,1,0,21,20,19,18,5,4,3,2,9,8,7,6,13,12,11,10,17,16,15,14,41,40,39,38,25,24,23,22,29,28,27,26,33,32,31,30,37,36,35,34,48,47,46,45,52,51,50,49]},{"name":"Armature","inverseBindMatrices":19,"joints":[54,53,44,43,42,1,0,21,20,19,18,5,4,3,2,9,8,7,6,13,12,11,10,17,16,15,14,41,40,39,38,25,24,23,22,29,28,27,26,33,32,31,30,37,36,35,34,48,47,46,45,52,51,50,49]}],"scenes":[{"name":"Scene","nodes":[59]}],"scene":0,"extensionsUsed":["EXT_meshopt_compression","EXT_texture_webp","KHR_materials_emissive_strength","KHR_mesh_quantization"],"extensionsRequired":["EXT_meshopt_compression","EXT_texture_webp","KHR_mesh_quantization"]}