{"asset":{"generator":"glTF-Transform v4.5.1","version":"2.0"},"accessors":[{"type":"SCALAR","componentType":5123,"count":4440,"normalized":false,"byteOffset":0,"bufferView":0},{"type":"VEC4","componentType":5121,"count":912,"normalized":true,"byteOffset":0,"bufferView":1},{"type":"VEC4","componentType":5121,"count":912,"normalized":false,"byteOffset":0,"bufferView":2},{"type":"SCALAR","componentType":5123,"count":2304,"normalized":false,"byteOffset":8880,"bufferView":0},{"type":"VEC4","componentType":5121,"count":420,"normalized":true,"byteOffset":0,"bufferView":3},{"type":"VEC4","componentType":5121,"count":420,"normalized":false,"byteOffset":0,"bufferView":4},{"type":"SCALAR","componentType":5123,"count":38436,"normalized":false,"byteOffset":13488,"bufferView":0},{"type":"VEC4","componentType":5121,"count":7244,"normalized":true,"byteOffset":0,"bufferView":5},{"type":"VEC4","componentType":5121,"count":7244,"normalized":false,"byteOffset":0,"bufferView":6},{"type":"MAT4","componentType":5126,"count":65,"normalized":false,"byteOffset":0,"bufferView":7},{"type":"VEC3","componentType":5122,"count":912,"max":[32767,9781,10477],"min":[-32767,-9781,-10477],"normalized":true,"byteOffset":0,"bufferView":8},{"type":"VEC3","componentType":5122,"count":912,"normalized":true,"byteOffset":0,"bufferView":9},{"type":"VEC2","componentType":5123,"count":912,"normalized":true,"byteOffset":0,"bufferView":10},{"type":"VEC4","componentType":5121,"count":912,"normalized":true,"byteOffset":0,"bufferView":11},{"type":"MAT4","componentType":5126,"count":65,"normalized":false,"byteOffset":4160,"bufferView":7},{"type":"VEC3","componentType":5122,"count":420,"max":[32767,10593,10405],"min":[-32767,-10593,-10405],"normalized":true,"byteOffset":0,"bufferView":12},{"type":"VEC3","componentType":5122,"count":420,"normalized":true,"byteOffset":0,"bufferView":13},{"type":"VEC2","componentType":5123,"count":420,"normalized":true,"byteOffset":0,"bufferView":14},{"type":"VEC4","componentType":5121,"count":420,"normalized":true,"byteOffset":0,"bufferView":15},{"type":"MAT4","componentType":5126,"count":65,"normalized":false,"byteOffset":8320,"bufferView":7},{"type":"VEC3","componentType":5122,"count":7244,"max":[30807,32767,5588],"min":[-30807,-32767,-5588],"normalized":true,"byteOffset":0,"bufferView":16},{"type":"VEC3","componentType":5122,"count":7244,"normalized":true,"byteOffset":0,"bufferView":17},{"type":"VEC2","componentType":5123,"count":7244,"normalized":true,"byteOffset":0,"bufferView":18},{"type":"VEC4","componentType":5121,"count":7244,"normalized":true,"byteOffset":0,"bufferView":19}],"bufferViews":[{"buffer":1,"byteOffset":0,"byteLength":90360,"target":34963,"extensions":{"EXT_meshopt_compression":{"buffer":0,"byteOffset":0,"byteLength":17426,"mode":"TRIANGLES","byteStride":2,"count":45180}}},{"buffer":1,"byteOffset":90360,"byteLength":3648,"target":34962,"byteStride":4,"extensions":{"EXT_meshopt_compression":{"buffer":0,"byteOffset":17428,"byteLength":93,"mode":"ATTRIBUTES","byteStride":4,"count":912}}},{"buffer":1,"byteOffset":94008,"byteLength":3648,"target":34962,"byteStride":4,"extensions":{"EXT_meshopt_compression":{"buffer":0,"byteOffset":17524,"byteLength":93,"mode":"ATTRIBUTES","byteStride":4,"count":912}}},{"buffer":1,"byteOffset":97656,"byteLength":1680,"target":34962,"byteStride":4,"extensions":{"EXT_meshopt_compression":{"buffer":0,"byteOffset":17620,"byteLength":61,"mode":"ATTRIBUTES","byteStride":4,"count":420}}},{"buffer":1,"byteOffset":99336,"byteLength":1680,"target":34962,"byteStride":4,"extensions":{"EXT_meshopt_compression":{"buffer":0,"byteOffset":17684,"byteLength":61,"mode":"ATTRIBUTES","byteStride":4,"count":420}}},{"buffer":1,"byteOffset":101016,"byteLength":28976,"target":34962,"byteStride":4,"extensions":{"EXT_meshopt_compression":{"buffer":0,"byteOffset":17748,"byteLength":489,"mode":"ATTRIBUTES","byteStride":4,"count":7244}}},{"buffer":1,"byteOffset":129992,"byteLength":28976,"target":34962,"byteStride":4,"extensions":{"EXT_meshopt_compression":{"buffer":0,"byteOffset":18240,"byteLength":7406,"mode":"ATTRIBUTES","byteStride":4,"count":7244}}},{"buffer":1,"byteOffset":158968,"byteLength":12480,"extensions":{"EXT_meshopt_compression":{"buffer":0,"byteOffset":25648,"byteLength":8260,"mode":"ATTRIBUTES","byteStride":64,"count":195}}},{"buffer":1,"byteOffset":171448,"byteLength":7296,"target":34962,"byteStride":8,"extensions":{"EXT_meshopt_compression":{"buffer":0,"byteOffset":33908,"byteLength":4521,"mode":"ATTRIBUTES","byteStride":8,"count":912}}},{"buffer":1,"byteOffset":178744,"byteLength":7296,"target":34962,"byteStride":8,"extensions":{"EXT_meshopt_compression":{"buffer":0,"byteOffset":38432,"byteLength":5624,"mode":"ATTRIBUTES","byteStride":8,"count":912}}},{"buffer":1,"byteOffset":186040,"byteLength":3648,"target":34962,"byteStride":4,"extensions":{"EXT_meshopt_compression":{"buffer":0,"byteOffset":44056,"byteLength":2636,"mode":"ATTRIBUTES","byteStride":4,"count":912}}},{"buffer":1,"byteOffset":189688,"byteLength":3648,"target":34962,"byteStride":4,"extensions":{"EXT_meshopt_compression":{"buffer":0,"byteOffset":46692,"byteLength":93,"mode":"ATTRIBUTES","byteStride":4,"count":912}}},{"buffer":1,"byteOffset":193336,"byteLength":3360,"target":34962,"byteStride":8,"extensions":{"EXT_meshopt_compression":{"buffer":0,"byteOffset":46788,"byteLength":2280,"mode":"ATTRIBUTES","byteStride":8,"count":420}}},{"buffer":1,"byteOffset":196696,"byteLength":3360,"target":34962,"byteStride":8,"extensions":{"EXT_meshopt_compression":{"buffer":0,"byteOffset":49068,"byteLength":2413,"mode":"ATTRIBUTES","byteStride":8,"count":420}}},{"buffer":1,"byteOffset":200056,"byteLength":1680,"target":34962,"byteStride":4,"extensions":{"EXT_meshopt_compression":{"buffer":0,"byteOffset":51484,"byteLength":1599,"mode":"ATTRIBUTES","byteStride":4,"count":420}}},{"buffer":1,"byteOffset":201736,"byteLength":1680,"target":34962,"byteStride":4,"extensions":{"EXT_meshopt_compression":{"buffer":0,"byteOffset":53084,"byteLength":61,"mode":"ATTRIBUTES","byteStride":4,"count":420}}},{"buffer":1,"byteOffset":203416,"byteLength":57952,"target":34962,"byteStride":8,"extensions":{"EXT_meshopt_compression":{"buffer":0,"byteOffset":53148,"byteLength":31599,"mode":"ATTRIBUTES","byteStride":8,"count":7244}}},{"buffer":1,"byteOffset":261368,"byteLength":57952,"target":34962,"byteStride":8,"extensions":{"EXT_meshopt_compression":{"buffer":0,"byteOffset":84748,"byteLength":43536,"mode":"ATTRIBUTES","byteStride":8,"count":7244}}},{"buffer":1,"byteOffset":319320,"byteLength":28976,"target":34962,"byteStride":4,"extensions":{"EXT_meshopt_compression":{"buffer":0,"byteOffset":128284,"byteLength":21809,"mode":"ATTRIBUTES","byteStride":4,"count":7244}}},{"buffer":1,"byteOffset":348296,"byteLength":28976,"target":34962,"byteStride":4,"extensions":{"EXT_meshopt_compression":{"buffer":0,"byteOffset":150096,"byteLength":15634,"mode":"ATTRIBUTES","byteStride":4,"count":7244}}}],"samplers":[{"magFilter":9729,"minFilter":9987,"wrapS":10497,"wrapT":10497}],"textures":[{"sampler":0,"extensions":{"EXT_texture_webp":{"source":1}}},{"sampler":0,"extensions":{"EXT_texture_webp":{"source":0}}},{"sampler":0,"extensions":{"EXT_texture_webp":{"source":3}}},{"sampler":0,"extensions":{"EXT_texture_webp":{"source":2}}},{"sampler":0,"extensions":{"EXT_texture_webp":{"source":5}}},{"sampler":0,"extensions":{"EXT_texture_webp":{"source":4}}},{"sampler":0,"extensions":{"EXT_texture_webp":{"source":6}}}],"images":[{"name":"T_Hair_2_Normal","mimeType":"image/webp","uri":"../../../textures/0c9fb34b9e9945f8.webp"},{"name":"T_Hair_2_BaseColor","mimeType":"image/webp","uri":"../../../textures/4adf65499a741df9.webp"},{"name":"T_Eye_Normal.png","mimeType":"image/webp","uri":"../../../textures/b34560571e6363ac.webp"},{"name":"T_Eye_Brown","mimeType":"image/webp","uri":"../../../textures/a4dc6bc4b1f7ca50.webp"},{"name":"T_Superhero_Female_Normal","mimeType":"image/webp","uri":"../../../textures/3f52247194dd896c.webp"},{"name":"T_Superhero_Female_Dark_BaseColor","mimeType":"image/webp","uri":"../../../textures/324c203f62028940.webp"},{"name":"T_Superhero_Female_Roughness","mimeType":"image/webp","uri":"../../../textures/50889900bcb34557.webp"}],"buffers":[{"uri":"Superhero_Female_FullBody.bin","byteLength":165732},{"byteLength":377272,"extensions":{"EXT_meshopt_compression":{"fallback":true}}}],"materials":[{"name":"MI_Hair_2","doubleSided":true,"pbrMetallicRoughness":{"roughnessFactor":0.8227272629737854,"metallicFactor":0,"baseColorTexture":{"index":0}},"normalTexture":{"index":1}},{"name":"MI_Eyes","doubleSided":true,"pbrMetallicRoughness":{"roughnessFactor":0.8,"metallicFactor":0,"baseColorTexture":{"index":2}},"normalTexture":{"index":3}},{"name":"MI_Superhero_Female","doubleSided":true,"pbrMetallicRoughness":{"metallicFactor":0,"baseColorTexture":{"index":4},"metallicRoughnessTexture":{"index":6}},"normalTexture":{"index":5}}],"meshes":[{"name":"Eyebrows","primitives":[{"attributes":{"COLOR_0":1,"JOINTS_0":2,"POSITION":10,"NORMAL":11,"TEXCOORD_0":12,"WEIGHTS_0":13},"mode":4,"material":0,"indices":0}]},{"name":"Eyes","primitives":[{"attributes":{"COLOR_0":4,"JOINTS_0":5,"POSITION":15,"NORMAL":16,"TEXCOORD_0":17,"WEIGHTS_0":18},"mode":4,"material":1,"indices":3}]},{"name":"Superhero_Female","primitives":[{"attributes":{"COLOR_0":7,"JOINTS_0":8,"POSITION":20,"NORMAL":21,"TEXCOORD_0":22,"WEIGHTS_0":23},"mode":4,"material":2,"indices":6}]}],"nodes":[{"name":"Head","translation":[-1.5903435849255598e-27,0.0711912140250206,2.0489096641540527e-8],"rotation":[-0.20467473566532135,-4.759437705400649e-21,1.2439442348830942e-21,0.9788300395011902]},{"name":"neck_01","translation":[-1.0141478263557337e-20,0.19815585017204285,2.60770320892334e-8],"rotation":[0.3088374435901642,8.337463586651673e-21,-5.849849968646638e-21,0.95111483335495],"children":[0]},{"name":"index_04_leaf_l","translation":[9.076757123693824e-10,0.023510519415140152,-3.8285477899080433e-8],"rotation":[-8.381903171539307e-9,1,-1.5432005174599583e-14,0.0000036517765238386346]},{"name":"index_03_l","translation":[4.420144250616431e-10,0.027111778035759926,-3.670398029953503e-8],"rotation":[1.0023382124302316e-9,7.603918037758783e-13,-0.00013328436762094498,1],"children":[2]},{"name":"index_02_l","translation":[8.094502845779061e-11,0.03171013668179512,-6.863018597869086e-9],"rotation":[1.8987577732332284e-8,1.4024364247688936e-7,-0.002140256343409419,0.9999977350234985],"children":[3]},{"name":"index_01_l","translation":[0.004199977032840252,0.08823654055595398,0.03620496019721031],"rotation":[-0.0033091865479946136,0.7071018815040588,-0.003309202380478382,0.7070961594581604],"children":[4]},{"name":"middle_04_leaf_l","translation":[2.193701220676303e-9,0.029620492830872536,1.1362611473941797e-7],"rotation":[2.0489096641540527e-8,1,6.335320587363621e-14,0.0000036517765238386346]},{"name":"middle_03_l","translation":[-4.32646629633382e-9,0.02931377850472927,3.287611605173879e-8],"rotation":[2.420814304571195e-8,1.4173854798182894e-11,-0.0032189602497965097,0.9999948143959045],"children":[6]},{"name":"middle_02_l","translation":[1.6816557035781443e-9,0.03642695024609566,1.0210540324351314e-7],"rotation":[-2.949975197452659e-8,1.402399334438087e-7,0.0038676888216286898,0.9999924898147583],"children":[7]},{"name":"middle_01_l","translation":[0.001899929717183113,0.08634158223867416,0.010671664960682392],"rotation":[-0.007979890331625938,0.7070646286010742,-0.007979941554367542,0.7070589065551758],"children":[8]},{"name":"pinky_04_leaf_l","translation":[-1.317857822868973e-9,0.020919334143400192,-1.727942162688123e-7],"rotation":[8.381903171539307e-9,1,5.647658583201112e-14,0.00000365177675121231]},{"name":"pinky_03_l","translation":[-1.318767317570746e-9,0.026631725952029228,-8.721048061488545e-8],"rotation":[-2.1800540039862426e-8,5.25581791629981e-12,0.0028988486155867577,0.9999958276748657],"children":[10]},{"name":"pinky_02_l","translation":[-2.967681211885065e-9,0.03083186410367489,-8.672896001371555e-8],"rotation":[1.03155857189563e-8,1.4017835781032773e-7,-0.001705002854578197,0.9999985694885254],"children":[11]},{"name":"pinky_01_l","translation":[0.003799965837970376,0.06994835287332535,-0.03399413824081421],"rotation":[-0.01044775452464819,0.7070325016975403,-0.010447824373841286,0.7070267200469971],"children":[12]},{"name":"ring_04_leaf_l","translation":[9.5042196335271e-10,0.028301579877734184,-3.474425369631717e-8],"rotation":[2.7474015951156616e-8,1,1.0721373739979931e-13,0.00000365177675121231]},{"name":"ring_03_l","translation":[7.703420124016702e-9,0.027600184082984924,-1.1280478418029816e-7],"rotation":[2.6234243222234e-8,4.3393351412124304e-11,-0.0034884933847934008,0.9999939203262329],"children":[14]},{"name":"ring_02_l","translation":[-9.877112461254e-10,0.035001225769519806,-1.5782489981575054e-7],"rotation":[-1.8197205520209536e-8,1.4009778226409253e-7,0.002474082401022315,0.9999969601631165],"children":[15]},{"name":"ring_01_l","translation":[0.0021999571472406387,0.08042963594198227,-0.013825255446135998],"rotation":[0.0025809321086853743,0.7071049213409424,0.0025809479411691427,0.707099199295044],"children":[16]},{"name":"thumb_04_leaf_l","translation":[-1.2670352589339018e-7,0.03127264976501465,3.073364496231079e-8],"rotation":[-1.2782692238033633e-8,0.48539119958877563,2.0375746601075662e-7,0.8742970824241638]},{"name":"thumb_03_l","translation":[2.2436142899096012e-7,0.035620346665382385,5.122274160385132e-9],"rotation":[-0.0012816648231819272,0.00005811178561998531,0.0002541383437346667,0.9999991655349731],"children":[18]},{"name":"thumb_02_l","translation":[1.453081495128572e-7,0.03582108020782471,-1.30385160446167e-8],"rotation":[0.0019128327257931232,0.00019216042710468173,-0.0004484721284825355,0.9999980330467224],"children":[19]},{"name":"thumb_01_l","translation":[0.009999980218708515,-0.0028757674153894186,0.029958141967654228],"rotation":[0.263997346162796,0.9450139999389648,0.1882738322019577,0.04250776767730713],"children":[20]},{"name":"hand_l","translation":[1.532122695380167e-8,0.24930401146411896,5.277343007037416e-9],"rotation":[-0.02237604185938835,-0.000002264418526465306,-3.032003448311116e-8,0.9997496008872986],"children":[5,9,13,17,21]},{"name":"lowerarm_l","translation":[-4.793889729626244e-8,0.2403421401977539,-4.220055416226387e-9],"rotation":[0.023802155628800392,0.00008208974031731486,-0.0000018556972918304382,0.9997166991233826],"children":[22]},{"name":"upperarm_l","translation":[-0.0016045584343373775,0.1410660296678543,-0.01228591613471508],"rotation":[0.17232586443424225,0.6858593225479126,-0.1717943400144577,0.68584805727005],"children":[23]},{"name":"clavicle_l","translation":[0.02930000051856041,0.13370320200920105,0.0448194220662117],"rotation":[-0.5471324324607849,-0.3204275965690613,-0.39127784967422485,0.666988730430603],"children":[24]},{"name":"index_04_leaf_r","translation":[-9.076757123693824e-10,0.023510519415140152,-3.8285477899080433e-8],"rotation":[-8.381903171539307e-9,-1,1.5432005174599583e-14,0.0000036517765238386346]},{"name":"index_03_r","translation":[-4.420144250616431e-10,0.027111778035759926,-3.670398029953503e-8],"rotation":[1.0023382124302316e-9,-7.603918037758783e-13,0.00013328436762094498,1],"children":[26]},{"name":"index_02_r","translation":[-8.094502845779061e-11,0.03171013668179512,-6.863018597869086e-9],"rotation":[1.8987577732332284e-8,-1.4024364247688936e-7,0.002140256343409419,0.9999977350234985],"children":[27]},{"name":"index_01_r","translation":[-0.004199977032840252,0.08823654055595398,0.03620496019721031],"rotation":[-0.0033091865479946136,-0.7071018815040588,0.003309202380478382,0.7070961594581604],"children":[28]},{"name":"middle_04_leaf_r","translation":[-2.193701220676303e-9,0.029620492830872536,1.1362611473941797e-7],"rotation":[2.0489096641540527e-8,-1,-6.335320587363621e-14,0.0000036517765238386346]},{"name":"middle_03_r","translation":[4.32646629633382e-9,0.02931377850472927,3.287611605173879e-8],"rotation":[2.420814304571195e-8,-1.4173854798182894e-11,0.0032189602497965097,0.9999948143959045],"children":[30]},{"name":"middle_02_r","translation":[-1.6816557035781443e-9,0.03642695024609566,1.0210540324351314e-7],"rotation":[-2.949975197452659e-8,-1.402399334438087e-7,-0.0038676888216286898,0.9999924898147583],"children":[31]},{"name":"middle_01_r","translation":[-0.001899929717183113,0.08634158223867416,0.010671664960682392],"rotation":[-0.007979890331625938,-0.7070646286010742,0.007979941554367542,0.7070589065551758],"children":[32]},{"name":"pinky_04_leaf_r","translation":[1.317857822868973e-9,0.020919334143400192,-1.727942162688123e-7],"rotation":[8.381903171539307e-9,-1,-5.647658583201112e-14,0.00000365177675121231]},{"name":"pinky_03_r","translation":[1.318767317570746e-9,0.026631725952029228,-8.721048061488545e-8],"rotation":[-2.1800540039862426e-8,-5.25581791629981e-12,-0.0028988486155867577,0.9999958276748657],"children":[34]},{"name":"pinky_02_r","translation":[2.967681211885065e-9,0.03083186410367489,-8.672896001371555e-8],"rotation":[1.03155857189563e-8,-1.4017835781032773e-7,0.001705002854578197,0.9999985694885254],"children":[35]},{"name":"pinky_01_r","translation":[-0.003799965837970376,0.06994835287332535,-0.03399413824081421],"rotation":[-0.01044775452464819,-0.7070325016975403,0.010447824373841286,0.7070267200469971],"children":[36]},{"name":"ring_04_leaf_r","translation":[-9.5042196335271e-10,0.028301579877734184,-3.474425369631717e-8],"rotation":[2.7474015951156616e-8,-1,-1.0721373739979931e-13,0.00000365177675121231]},{"name":"ring_03_r","translation":[-7.703420124016702e-9,0.027600184082984924,-1.1280478418029816e-7],"rotation":[2.6234243222234e-8,-4.3393351412124304e-11,0.0034884933847934008,0.9999939203262329],"children":[38]},{"name":"ring_02_r","translation":[9.877112461254e-10,0.035001225769519806,-1.5782489981575054e-7],"rotation":[-1.8197205520209536e-8,-1.4009778226409253e-7,-0.002474082401022315,0.9999969601631165],"children":[39]},{"name":"ring_01_r","translation":[-0.0021999571472406387,0.08042963594198227,-0.013825255446135998],"rotation":[0.0025809321086853743,-0.7071049213409424,-0.0025809479411691427,0.707099199295044],"children":[40]},{"name":"thumb_04_leaf_r","translation":[1.2622331269085407e-7,0.031272709369659424,3.073364496231079e-8],"rotation":[-2.5565388028780944e-8,-0.48539119958877563,-1.9393742434203887e-7,0.8742970824241638]},{"name":"thumb_03_r","translation":[-1.0542134987190366e-7,0.03562036156654358,-8.847564458847046e-9],"rotation":[-0.0012816853122785687,-0.00005809385038446635,-0.00025414914125576615,0.9999991655349731],"children":[42]},{"name":"thumb_02_r","translation":[-1.453081495128572e-7,0.03582108020782471,-1.30385160446167e-8],"rotation":[0.001912830863147974,-0.00019218510715290904,0.0004484682867769152,0.9999980330467224],"children":[43]},{"name":"thumb_01_r","translation":[-0.009999980218708515,-0.0028757674153894186,0.029958141967654228],"rotation":[0.263997346162796,-0.9450139999389648,-0.1882738322019577,0.04250776767730713],"children":[44]},{"name":"hand_r","translation":[-1.532122695380167e-8,0.24930401146411896,5.277343007037416e-9],"rotation":[-0.02237604185938835,0.000002264418526465306,3.032003448311116e-8,0.9997496008872986],"children":[29,33,37,41,45]},{"name":"lowerarm_r","translation":[4.793889729626244e-8,0.2403421401977539,-4.220055416226387e-9],"rotation":[0.023802155628800392,-0.00008208974031731486,0.0000018556972918304382,0.9997166991233826],"children":[46]},{"name":"upperarm_r","translation":[0.0016045584343373775,0.1410660296678543,-0.01228591613471508],"rotation":[0.17232586443424225,-0.6858593225479126,0.1717943400144577,0.68584805727005],"children":[47]},{"name":"clavicle_r","translation":[-0.02930000051856041,0.13370320200920105,0.0448194220662117],"rotation":[-0.5471324324607849,0.3204275965690613,0.39127784967422485,0.666988730430603],"children":[48]},{"name":"spine_03","translation":[4.6735704609246064e-20,0.12640145421028137,3.4924596548080444e-10],"rotation":[-0.10099761933088303,4.5928396448426806e-14,-4.5242200827702583e-13,0.9948866963386536],"children":[1,25,49]},{"name":"spine_02","translation":[-4.263256414560601e-13,0.11034487932920456,8.381903171539307e-9],"rotation":[-0.055728573352098465,-0.00004992229150957428,-0.0000027864282401424134,0.998445987701416],"children":[50]},{"name":"spine_01","translation":[0,0.12655510008335114,-9.313225746154785e-10],"rotation":[-0.06393160670995712,0.00004989771332475357,-0.00000319658010994317,0.9979543089866638],"children":[51]},{"name":"ball_leaf_l","translation":[5.525180313270539e-10,0.06809987872838974,-1.204170985147357e-9],"rotation":[0,0.00017269056115765125,5.421010862427522e-20,1]},{"name":"ball_l","translation":[1.4901161193847656e-8,0.14916980266571045,-6.51925802230835e-9],"rotation":[-0.00003296312570455484,0.9816133975982666,-0.1908797174692154,0.00016951537691056728],"children":[53]},{"name":"foot_l","translation":[-7.450580596923828e-9,0.4661003053188324,2.7939677238464355e-9],"rotation":[-0.5978578329086304,0,0,0.8016021847724915],"children":[54]},{"name":"calf_l","translation":[-7.450580596923828e-9,0.4098641872406006,1.3969838619232178e-9],"rotation":[0.0712229460477829,0,0,0.9974604249000549],"children":[55]},{"name":"thigh_l","translation":[0.11140000075101852,0.010460092686116695,-0.008893024176359177],"rotation":[0.9893749952316284,0,0,0.1453862488269806],"children":[56]},{"name":"ball_leaf_r","translation":[5.525180313270539e-10,0.06809987872838974,-1.5897967386990786e-9],"rotation":[0,0.00017269056115765125,5.421010862427522e-20,1]},{"name":"ball_r","translation":[-1.4901161193847656e-8,0.14916980266571045,-6.51925802230835e-9],"rotation":[-0.00003296312570455484,0.9816133975982666,-0.1908797174692154,0.00016951537691056728],"children":[58]},{"name":"foot_r","translation":[7.450580596923828e-9,0.4661003053188324,2.7939677238464355e-9],"rotation":[-0.5978578329086304,0,0,0.8016021847724915],"children":[59]},{"name":"calf_r","translation":[7.450580596923828e-9,0.4098641872406006,1.3969838619232178e-9],"rotation":[0.0712229460477829,0,0,0.9974604249000549],"children":[60]},{"name":"thigh_r","translation":[-0.11140000075101852,0.010460092686116695,-0.008893024176359177],"rotation":[0.9893749952316284,0,0,0.1453862488269806],"children":[61]},{"name":"pelvis","translation":[0,0.045700013637542725,0.9318000078201294],"rotation":[0.7879695892333984,0,0,0.6157141923904419],"children":[52,57,62]},{"name":"root","rotation":[-0.7071067690849304,0,0,0.7071067690849304],"children":[63]},{"name":"Eyebrows","mesh":0,"skin":0},{"name":"Eyes","mesh":1,"skin":1},{"name":"Superhero_Female","mesh":2,"skin":2},{"name":"Armature","children":[65,66,67,64]},{"name":"pack_root","children":[68]}],"skins":[{"name":"Armature","inverseBindMatrices":9,"joints":[64,63,52,51,50,1,0,25,24,23,22,5,4,3,2,9,8,7,6,13,12,11,10,17,16,15,14,21,20,19,18,49,48,47,46,29,28,27,26,33,32,31,30,37,36,35,34,41,40,39,38,45,44,43,42,57,56,55,54,53,62,61,60,59,58]},{"name":"Armature","inverseBindMatrices":14,"joints":[64,63,52,51,50,1,0,25,24,23,22,5,4,3,2,9,8,7,6,13,12,11,10,17,16,15,14,21,20,19,18,49,48,47,46,29,28,27,26,33,32,31,30,37,36,35,34,41,40,39,38,45,44,43,42,57,56,55,54,53,62,61,60,59,58]},{"name":"Armature","inverseBindMatrices":19,"joints":[64,63,52,51,50,1,0,25,24,23,22,5,4,3,2,9,8,7,6,13,12,11,10,17,16,15,14,21,20,19,18,49,48,47,46,29,28,27,26,33,32,31,30,37,36,35,34,41,40,39,38,45,44,43,42,57,56,55,54,53,62,61,60,59,58]}],"scenes":[{"name":"Scene","nodes":[69]}],"scene":0,"extensionsUsed":["EXT_meshopt_compression","EXT_texture_webp","KHR_mesh_quantization"],"extensionsRequired":["EXT_meshopt_compression","EXT_texture_webp","KHR_mesh_quantization"]}