{"asset":{"generator":"glTF-Transform v4.5.1","version":"2.0"},"accessors":[{"type":"SCALAR","componentType":5123,"count":4128,"normalized":false,"byteOffset":0,"bufferView":0},{"type":"VEC4","componentType":5121,"count":1092,"normalized":true,"byteOffset":0,"bufferView":1},{"type":"VEC4","componentType":5121,"count":1092,"normalized":false,"byteOffset":0,"bufferView":2},{"type":"SCALAR","componentType":5123,"count":9000,"normalized":false,"byteOffset":8256,"bufferView":0},{"type":"VEC4","componentType":5121,"count":1774,"normalized":true,"byteOffset":0,"bufferView":3},{"type":"VEC4","componentType":5121,"count":1774,"normalized":false,"byteOffset":0,"bufferView":4},{"type":"SCALAR","componentType":5123,"count":5616,"normalized":false,"byteOffset":26256,"bufferView":0},{"type":"VEC4","componentType":5121,"count":1202,"normalized":true,"byteOffset":0,"bufferView":5},{"type":"VEC4","componentType":5121,"count":1202,"normalized":false,"byteOffset":0,"bufferView":6},{"type":"SCALAR","componentType":5123,"count":10908,"normalized":false,"byteOffset":37488,"bufferView":0},{"type":"VEC4","componentType":5121,"count":4000,"normalized":true,"byteOffset":0,"bufferView":7},{"type":"VEC4","componentType":5121,"count":4000,"normalized":false,"byteOffset":0,"bufferView":8},{"type":"SCALAR","componentType":5123,"count":8886,"normalized":false,"byteOffset":59304,"bufferView":0},{"type":"VEC4","componentType":5121,"count":2785,"normalized":true,"byteOffset":0,"bufferView":9},{"type":"VEC4","componentType":5121,"count":2785,"normalized":false,"byteOffset":0,"bufferView":10},{"type":"SCALAR","componentType":5123,"count":2412,"normalized":false,"byteOffset":77076,"bufferView":0},{"type":"VEC4","componentType":5121,"count":928,"normalized":true,"byteOffset":0,"bufferView":11},{"type":"VEC4","componentType":5121,"count":928,"normalized":false,"byteOffset":0,"bufferView":12},{"type":"SCALAR","componentType":5123,"count":27516,"normalized":false,"byteOffset":81900,"bufferView":0},{"type":"VEC4","componentType":5121,"count":10174,"normalized":true,"byteOffset":0,"bufferView":13},{"type":"VEC4","componentType":5121,"count":10174,"normalized":false,"byteOffset":0,"bufferView":14},{"type":"SCALAR","componentType":5123,"count":6408,"normalized":false,"byteOffset":136932,"bufferView":0},{"type":"VEC4","componentType":5121,"count":1240,"normalized":true,"byteOffset":0,"bufferView":15},{"type":"VEC4","componentType":5121,"count":1240,"normalized":false,"byteOffset":0,"bufferView":16},{"type":"SCALAR","componentType":5123,"count":3612,"normalized":false,"byteOffset":149748,"bufferView":0},{"type":"VEC4","componentType":5121,"count":685,"normalized":true,"byteOffset":0,"bufferView":17},{"type":"VEC4","componentType":5121,"count":685,"normalized":false,"byteOffset":0,"bufferView":18},{"type":"MAT4","componentType":5126,"count":65,"normalized":false,"byteOffset":0,"bufferView":19},{"type":"VEC3","componentType":5122,"count":1092,"max":[32767,19266,29451],"min":[-32767,-19266,-29451],"normalized":true,"byteOffset":0,"bufferView":20},{"type":"VEC3","componentType":5122,"count":1092,"normalized":true,"byteOffset":0,"bufferView":21},{"type":"VEC2","componentType":5123,"count":1092,"normalized":true,"byteOffset":0,"bufferView":22},{"type":"VEC4","componentType":5121,"count":1092,"normalized":true,"byteOffset":0,"bufferView":23},{"type":"MAT4","componentType":5126,"count":65,"normalized":false,"byteOffset":4160,"bufferView":19},{"type":"VEC3","componentType":5122,"count":1774,"max":[29463,2664,2140],"min":[-29463,-2664,-2548],"normalized":true,"byteOffset":0,"bufferView":24},{"type":"VEC3","componentType":5122,"count":1774,"normalized":true,"byteOffset":0,"bufferView":25},{"type":"VEC2","componentType":5123,"count":1774,"normalized":true,"byteOffset":0,"bufferView":26},{"type":"VEC4","componentType":5121,"count":1774,"normalized":true,"byteOffset":0,"bufferView":27},{"type":"VEC3","componentType":5122,"count":1202,"max":[32767,600,2548],"min":[-32767,-2416,-2268],"normalized":true,"byteOffset":0,"bufferView":28},{"type":"VEC3","componentType":5122,"count":1202,"normalized":true,"byteOffset":0,"bufferView":29},{"type":"VEC2","componentType":5123,"count":1202,"normalized":true,"byteOffset":0,"bufferView":30},{"type":"VEC4","componentType":5121,"count":1202,"normalized":true,"byteOffset":0,"bufferView":31},{"type":"MAT4","componentType":5126,"count":65,"normalized":false,"byteOffset":8320,"bufferView":19},{"type":"VEC3","componentType":5122,"count":4000,"max":[32767,2848,3160],"min":[-32767,-2848,-3160],"normalized":true,"byteOffset":0,"bufferView":32},{"type":"VEC3","componentType":5122,"count":4000,"normalized":true,"byteOffset":0,"bufferView":33},{"type":"VEC2","componentType":5123,"count":4000,"normalized":true,"byteOffset":0,"bufferView":34},{"type":"VEC4","componentType":5121,"count":4000,"normalized":true,"byteOffset":0,"bufferView":35},{"type":"MAT4","componentType":5126,"count":65,"normalized":false,"byteOffset":12480,"bufferView":19},{"type":"VEC3","componentType":5122,"count":2785,"max":[20010,32767,18166],"min":[-20010,-32767,-18166],"normalized":true,"byteOffset":0,"bufferView":36},{"type":"VEC3","componentType":5122,"count":2785,"normalized":true,"byteOffset":0,"bufferView":37},{"type":"VEC2","componentType":5123,"count":2785,"normalized":true,"byteOffset":0,"bufferView":38},{"type":"VEC4","componentType":5121,"count":2785,"normalized":true,"byteOffset":0,"bufferView":39},{"type":"MAT4","componentType":5126,"count":65,"normalized":false,"byteOffset":16640,"bufferView":19},{"type":"VEC3","componentType":5122,"count":928,"max":[32767,6036,30207],"min":[-32767,-6036,-30207],"normalized":true,"byteOffset":0,"bufferView":40},{"type":"VEC3","componentType":5122,"count":928,"normalized":true,"byteOffset":0,"bufferView":41},{"type":"VEC2","componentType":5123,"count":928,"normalized":true,"byteOffset":0,"bufferView":42},{"type":"VEC4","componentType":5121,"count":928,"normalized":true,"byteOffset":0,"bufferView":43},{"type":"MAT4","componentType":5126,"count":65,"normalized":false,"byteOffset":20800,"bufferView":19},{"type":"VEC3","componentType":5122,"count":928,"max":[32767,7808,28779],"min":[-32767,-7808,-28779],"normalized":true,"byteOffset":0,"bufferView":44},{"type":"VEC3","componentType":5122,"count":928,"normalized":true,"byteOffset":0,"bufferView":45},{"type":"MAT4","componentType":5126,"count":65,"normalized":false,"byteOffset":24960,"bufferView":19},{"type":"VEC3","componentType":5122,"count":10174,"max":[23514,32767,19710],"min":[-23514,-32767,-19710],"normalized":true,"byteOffset":0,"bufferView":46},{"type":"VEC3","componentType":5122,"count":10174,"normalized":true,"byteOffset":0,"bufferView":47},{"type":"VEC2","componentType":5123,"count":10174,"normalized":true,"byteOffset":0,"bufferView":48},{"type":"VEC4","componentType":5121,"count":10174,"normalized":true,"byteOffset":0,"bufferView":49},{"type":"MAT4","componentType":5126,"count":65,"normalized":false,"byteOffset":29120,"bufferView":19},{"type":"VEC3","componentType":5122,"count":1240,"max":[31311,30719,32767],"min":[-31311,-30719,-32767],"normalized":true,"byteOffset":0,"bufferView":50},{"type":"VEC3","componentType":5122,"count":1240,"normalized":true,"byteOffset":0,"bufferView":51},{"type":"VEC2","componentType":5123,"count":1240,"normalized":true,"byteOffset":0,"bufferView":52},{"type":"VEC4","componentType":5121,"count":1240,"normalized":true,"byteOffset":0,"bufferView":53},{"type":"MAT4","componentType":5126,"count":65,"normalized":false,"byteOffset":33280,"bufferView":19},{"type":"VEC3","componentType":5122,"count":685,"max":[20718,32767,12101],"min":[-20718,-32767,-12101],"normalized":true,"byteOffset":0,"bufferView":54},{"type":"VEC3","componentType":5122,"count":685,"normalized":true,"byteOffset":0,"bufferView":55},{"type":"VEC2","componentType":5123,"count":685,"normalized":true,"byteOffset":0,"bufferView":56},{"type":"VEC4","componentType":5121,"count":685,"normalized":true,"byteOffset":0,"bufferView":57}],"bufferViews":[{"buffer":1,"byteOffset":0,"byteLength":156972,"target":34963,"extensions":{"EXT_meshopt_compression":{"buffer":0,"byteOffset":0,"byteLength":28578,"mode":"TRIANGLES","byteStride":2,"count":78486}}},{"buffer":1,"byteOffset":156972,"byteLength":4368,"target":34962,"byteStride":4,"extensions":{"EXT_meshopt_compression":{"buffer":0,"byteOffset":28580,"byteLength":105,"mode":"ATTRIBUTES","byteStride":4,"count":1092}}},{"buffer":1,"byteOffset":161340,"byteLength":4368,"target":34962,"byteStride":4,"extensions":{"EXT_meshopt_compression":{"buffer":0,"byteOffset":28688,"byteLength":105,"mode":"ATTRIBUTES","byteStride":4,"count":1092}}},{"buffer":1,"byteOffset":165708,"byteLength":7096,"target":34962,"byteStride":4,"extensions":{"EXT_meshopt_compression":{"buffer":0,"byteOffset":28796,"byteLength":145,"mode":"ATTRIBUTES","byteStride":4,"count":1774}}},{"buffer":1,"byteOffset":172804,"byteLength":7096,"target":34962,"byteStride":4,"extensions":{"EXT_meshopt_compression":{"buffer":0,"byteOffset":28944,"byteLength":2497,"mode":"ATTRIBUTES","byteStride":4,"count":1774}}},{"buffer":1,"byteOffset":179900,"byteLength":4808,"target":34962,"byteStride":4,"extensions":{"EXT_meshopt_compression":{"buffer":0,"byteOffset":31444,"byteLength":109,"mode":"ATTRIBUTES","byteStride":4,"count":1202}}},{"buffer":1,"byteOffset":184708,"byteLength":4808,"target":34962,"byteStride":4,"extensions":{"EXT_meshopt_compression":{"buffer":0,"byteOffset":31556,"byteLength":1212,"mode":"ATTRIBUTES","byteStride":4,"count":1202}}},{"buffer":1,"byteOffset":189516,"byteLength":16000,"target":34962,"byteStride":4,"extensions":{"EXT_meshopt_compression":{"buffer":0,"byteOffset":32768,"byteLength":285,"mode":"ATTRIBUTES","byteStride":4,"count":4000}}},{"buffer":1,"byteOffset":205516,"byteLength":16000,"target":34962,"byteStride":4,"extensions":{"EXT_meshopt_compression":{"buffer":0,"byteOffset":33056,"byteLength":774,"mode":"ATTRIBUTES","byteStride":4,"count":4000}}},{"buffer":1,"byteOffset":221516,"byteLength":11140,"target":34962,"byteStride":4,"extensions":{"EXT_meshopt_compression":{"buffer":0,"byteOffset":33832,"byteLength":209,"mode":"ATTRIBUTES","byteStride":4,"count":2785}}},{"buffer":1,"byteOffset":232656,"byteLength":11140,"target":34962,"byteStride":4,"extensions":{"EXT_meshopt_compression":{"buffer":0,"byteOffset":34044,"byteLength":4081,"mode":"ATTRIBUTES","byteStride":4,"count":2785}}},{"buffer":1,"byteOffset":243796,"byteLength":3712,"target":34962,"byteStride":4,"extensions":{"EXT_meshopt_compression":{"buffer":0,"byteOffset":38128,"byteLength":93,"mode":"ATTRIBUTES","byteStride":4,"count":928}}},{"buffer":1,"byteOffset":247508,"byteLength":3712,"target":34962,"byteStride":4,"extensions":{"EXT_meshopt_compression":{"buffer":0,"byteOffset":38224,"byteLength":93,"mode":"ATTRIBUTES","byteStride":4,"count":928}}},{"buffer":1,"byteOffset":251220,"byteLength":40696,"target":34962,"byteStride":4,"extensions":{"EXT_meshopt_compression":{"buffer":0,"byteOffset":38320,"byteLength":669,"mode":"ATTRIBUTES","byteStride":4,"count":10174}}},{"buffer":1,"byteOffset":291916,"byteLength":40696,"target":34962,"byteStride":4,"extensions":{"EXT_meshopt_compression":{"buffer":0,"byteOffset":38992,"byteLength":2256,"mode":"ATTRIBUTES","byteStride":4,"count":10174}}},{"buffer":1,"byteOffset":332612,"byteLength":4960,"target":34962,"byteStride":4,"extensions":{"EXT_meshopt_compression":{"buffer":0,"byteOffset":41248,"byteLength":113,"mode":"ATTRIBUTES","byteStride":4,"count":1240}}},{"buffer":1,"byteOffset":337572,"byteLength":4960,"target":34962,"byteStride":4,"extensions":{"EXT_meshopt_compression":{"buffer":0,"byteOffset":41364,"byteLength":1842,"mode":"ATTRIBUTES","byteStride":4,"count":1240}}},{"buffer":1,"byteOffset":342532,"byteLength":2740,"target":34962,"byteStride":4,"extensions":{"EXT_meshopt_compression":{"buffer":0,"byteOffset":43208,"byteLength":77,"mode":"ATTRIBUTES","byteStride":4,"count":685}}},{"buffer":1,"byteOffset":345272,"byteLength":2740,"target":34962,"byteStride":4,"extensions":{"EXT_meshopt_compression":{"buffer":0,"byteOffset":43288,"byteLength":770,"mode":"ATTRIBUTES","byteStride":4,"count":685}}},{"buffer":1,"byteOffset":348012,"byteLength":37440,"extensions":{"EXT_meshopt_compression":{"buffer":0,"byteOffset":44060,"byteLength":24160,"mode":"ATTRIBUTES","byteStride":64,"count":585}}},{"buffer":1,"byteOffset":385452,"byteLength":8736,"target":34962,"byteStride":8,"extensions":{"EXT_meshopt_compression":{"buffer":0,"byteOffset":68220,"byteLength":6578,"mode":"ATTRIBUTES","byteStride":8,"count":1092}}},{"buffer":1,"byteOffset":394188,"byteLength":8736,"target":34962,"byteStride":8,"extensions":{"EXT_meshopt_compression":{"buffer":0,"byteOffset":74800,"byteLength":6036,"mode":"ATTRIBUTES","byteStride":8,"count":1092}}},{"buffer":1,"byteOffset":402924,"byteLength":4368,"target":34962,"byteStride":4,"extensions":{"EXT_meshopt_compression":{"buffer":0,"byteOffset":80836,"byteLength":3347,"mode":"ATTRIBUTES","byteStride":4,"count":1092}}},{"buffer":1,"byteOffset":407292,"byteLength":4368,"target":34962,"byteStride":4,"extensions":{"EXT_meshopt_compression":{"buffer":0,"byteOffset":84184,"byteLength":105,"mode":"ATTRIBUTES","byteStride":4,"count":1092}}},{"buffer":1,"byteOffset":411660,"byteLength":14192,"target":34962,"byteStride":8,"extensions":{"EXT_meshopt_compression":{"buffer":0,"byteOffset":84292,"byteLength":7697,"mode":"ATTRIBUTES","byteStride":8,"count":1774}}},{"buffer":1,"byteOffset":425852,"byteLength":14192,"target":34962,"byteStride":8,"extensions":{"EXT_meshopt_compression":{"buffer":0,"byteOffset":91992,"byteLength":10654,"mode":"ATTRIBUTES","byteStride":8,"count":1774}}},{"buffer":1,"byteOffset":440044,"byteLength":7096,"target":34962,"byteStride":4,"extensions":{"EXT_meshopt_compression":{"buffer":0,"byteOffset":102648,"byteLength":5095,"mode":"ATTRIBUTES","byteStride":4,"count":1774}}},{"buffer":1,"byteOffset":447140,"byteLength":7096,"target":34962,"byteStride":4,"extensions":{"EXT_meshopt_compression":{"buffer":0,"byteOffset":107744,"byteLength":4626,"mode":"ATTRIBUTES","byteStride":4,"count":1774}}},{"buffer":1,"byteOffset":454236,"byteLength":9616,"target":34962,"byteStride":8,"extensions":{"EXT_meshopt_compression":{"buffer":0,"byteOffset":112372,"byteLength":4955,"mode":"ATTRIBUTES","byteStride":8,"count":1202}}},{"buffer":1,"byteOffset":463852,"byteLength":9616,"target":34962,"byteStride":8,"extensions":{"EXT_meshopt_compression":{"buffer":0,"byteOffset":117328,"byteLength":7279,"mode":"ATTRIBUTES","byteStride":8,"count":1202}}},{"buffer":1,"byteOffset":473468,"byteLength":4808,"target":34962,"byteStride":4,"extensions":{"EXT_meshopt_compression":{"buffer":0,"byteOffset":124608,"byteLength":3423,"mode":"ATTRIBUTES","byteStride":4,"count":1202}}},{"buffer":1,"byteOffset":478276,"byteLength":4808,"target":34962,"byteStride":4,"extensions":{"EXT_meshopt_compression":{"buffer":0,"byteOffset":128032,"byteLength":2715,"mode":"ATTRIBUTES","byteStride":4,"count":1202}}},{"buffer":1,"byteOffset":483084,"byteLength":32000,"target":34962,"byteStride":8,"extensions":{"EXT_meshopt_compression":{"buffer":0,"byteOffset":130748,"byteLength":17637,"mode":"ATTRIBUTES","byteStride":8,"count":4000}}},{"buffer":1,"byteOffset":515084,"byteLength":32000,"target":34962,"byteStride":8,"extensions":{"EXT_meshopt_compression":{"buffer":0,"byteOffset":148388,"byteLength":16401,"mode":"ATTRIBUTES","byteStride":8,"count":4000}}},{"buffer":1,"byteOffset":547084,"byteLength":16000,"target":34962,"byteStride":4,"extensions":{"EXT_meshopt_compression":{"buffer":0,"byteOffset":164792,"byteLength":11499,"mode":"ATTRIBUTES","byteStride":4,"count":4000}}},{"buffer":1,"byteOffset":563084,"byteLength":16000,"target":34962,"byteStride":4,"extensions":{"EXT_meshopt_compression":{"buffer":0,"byteOffset":176292,"byteLength":1569,"mode":"ATTRIBUTES","byteStride":4,"count":4000}}},{"buffer":1,"byteOffset":579084,"byteLength":22280,"target":34962,"byteStride":8,"extensions":{"EXT_meshopt_compression":{"buffer":0,"byteOffset":177864,"byteLength":14358,"mode":"ATTRIBUTES","byteStride":8,"count":2785}}},{"buffer":1,"byteOffset":601364,"byteLength":22280,"target":34962,"byteStride":8,"extensions":{"EXT_meshopt_compression":{"buffer":0,"byteOffset":192224,"byteLength":13848,"mode":"ATTRIBUTES","byteStride":8,"count":2785}}},{"buffer":1,"byteOffset":623644,"byteLength":11140,"target":34962,"byteStride":4,"extensions":{"EXT_meshopt_compression":{"buffer":0,"byteOffset":206072,"byteLength":8148,"mode":"ATTRIBUTES","byteStride":4,"count":2785}}},{"buffer":1,"byteOffset":634784,"byteLength":11140,"target":34962,"byteStride":4,"extensions":{"EXT_meshopt_compression":{"buffer":0,"byteOffset":214220,"byteLength":8021,"mode":"ATTRIBUTES","byteStride":4,"count":2785}}},{"buffer":1,"byteOffset":645924,"byteLength":7424,"target":34962,"byteStride":8,"extensions":{"EXT_meshopt_compression":{"buffer":0,"byteOffset":222244,"byteLength":4884,"mode":"ATTRIBUTES","byteStride":8,"count":928}}},{"buffer":1,"byteOffset":653348,"byteLength":7424,"target":34962,"byteStride":8,"extensions":{"EXT_meshopt_compression":{"buffer":0,"byteOffset":227128,"byteLength":2846,"mode":"ATTRIBUTES","byteStride":8,"count":928}}},{"buffer":1,"byteOffset":660772,"byteLength":3712,"target":34962,"byteStride":4,"extensions":{"EXT_meshopt_compression":{"buffer":0,"byteOffset":229976,"byteLength":2447,"mode":"ATTRIBUTES","byteStride":4,"count":928}}},{"buffer":1,"byteOffset":664484,"byteLength":3712,"target":34962,"byteStride":4,"extensions":{"EXT_meshopt_compression":{"buffer":0,"byteOffset":232424,"byteLength":93,"mode":"ATTRIBUTES","byteStride":4,"count":928}}},{"buffer":1,"byteOffset":668196,"byteLength":7424,"target":34962,"byteStride":8,"extensions":{"EXT_meshopt_compression":{"buffer":0,"byteOffset":232520,"byteLength":4983,"mode":"ATTRIBUTES","byteStride":8,"count":928}}},{"buffer":1,"byteOffset":675620,"byteLength":7424,"target":34962,"byteStride":8,"extensions":{"EXT_meshopt_compression":{"buffer":0,"byteOffset":237504,"byteLength":3192,"mode":"ATTRIBUTES","byteStride":8,"count":928}}},{"buffer":1,"byteOffset":683044,"byteLength":81392,"target":34962,"byteStride":8,"extensions":{"EXT_meshopt_compression":{"buffer":0,"byteOffset":240696,"byteLength":50317,"mode":"ATTRIBUTES","byteStride":8,"count":10174}}},{"buffer":1,"byteOffset":764436,"byteLength":81392,"target":34962,"byteStride":8,"extensions":{"EXT_meshopt_compression":{"buffer":0,"byteOffset":291016,"byteLength":42034,"mode":"ATTRIBUTES","byteStride":8,"count":10174}}},{"buffer":1,"byteOffset":845828,"byteLength":40696,"target":34962,"byteStride":4,"extensions":{"EXT_meshopt_compression":{"buffer":0,"byteOffset":333052,"byteLength":30320,"mode":"ATTRIBUTES","byteStride":4,"count":10174}}},{"buffer":1,"byteOffset":886524,"byteLength":40696,"target":34962,"byteStride":4,"extensions":{"EXT_meshopt_compression":{"buffer":0,"byteOffset":363372,"byteLength":6256,"mode":"ATTRIBUTES","byteStride":4,"count":10174}}},{"buffer":1,"byteOffset":927220,"byteLength":9920,"target":34962,"byteStride":8,"extensions":{"EXT_meshopt_compression":{"buffer":0,"byteOffset":369628,"byteLength":7108,"mode":"ATTRIBUTES","byteStride":8,"count":1240}}},{"buffer":1,"byteOffset":937140,"byteLength":9920,"target":34962,"byteStride":8,"extensions":{"EXT_meshopt_compression":{"buffer":0,"byteOffset":376736,"byteLength":7164,"mode":"ATTRIBUTES","byteStride":8,"count":1240}}},{"buffer":1,"byteOffset":947060,"byteLength":4960,"target":34962,"byteStride":4,"extensions":{"EXT_meshopt_compression":{"buffer":0,"byteOffset":383900,"byteLength":3764,"mode":"ATTRIBUTES","byteStride":4,"count":1240}}},{"buffer":1,"byteOffset":952020,"byteLength":4960,"target":34962,"byteStride":4,"extensions":{"EXT_meshopt_compression":{"buffer":0,"byteOffset":387664,"byteLength":3496,"mode":"ATTRIBUTES","byteStride":4,"count":1240}}},{"buffer":1,"byteOffset":956980,"byteLength":5480,"target":34962,"byteStride":8,"extensions":{"EXT_meshopt_compression":{"buffer":0,"byteOffset":391160,"byteLength":4044,"mode":"ATTRIBUTES","byteStride":8,"count":685}}},{"buffer":1,"byteOffset":962460,"byteLength":5480,"target":34962,"byteStride":8,"extensions":{"EXT_meshopt_compression":{"buffer":0,"byteOffset":395204,"byteLength":4218,"mode":"ATTRIBUTES","byteStride":8,"count":685}}},{"buffer":1,"byteOffset":967940,"byteLength":2740,"target":34962,"byteStride":4,"extensions":{"EXT_meshopt_compression":{"buffer":0,"byteOffset":399424,"byteLength":2169,"mode":"ATTRIBUTES","byteStride":4,"count":685}}},{"buffer":1,"byteOffset":970680,"byteLength":2740,"target":34962,"byteStride":4,"extensions":{"EXT_meshopt_compression":{"buffer":0,"byteOffset":401596,"byteLength":1657,"mode":"ATTRIBUTES","byteStride":4,"count":685}}}],"samplers":[{"magFilter":9729,"minFilter":9987,"wrapS":10497,"wrapT":10497}],"textures":[{"sampler":0,"extensions":{"EXT_texture_webp":{"source":1}}},{"sampler":0,"extensions":{"EXT_texture_webp":{"source":0}}},{"sampler":0,"extensions":{"EXT_texture_webp":{"source":2}}},{"sampler":0,"extensions":{"EXT_texture_webp":{"source":4}}},{"sampler":0,"extensions":{"EXT_texture_webp":{"source":3}}},{"sampler":0,"extensions":{"EXT_texture_webp":{"source":5}}}],"images":[{"name":"T_Ranger_Normal","mimeType":"image/webp","uri":"../../../../textures/6ca81b065b8c757c.webp"},{"name":"T_Ranger_BaseColor","mimeType":"image/webp","uri":"../../../../textures/96642ddc9a7744bc.webp"},{"name":"T_Ranger_ORM","mimeType":"image/webp","uri":"../../../../textures/cb05c603a78604d5.webp"},{"name":"T_Regular_Female_Normal","mimeType":"image/webp","uri":"../../../../textures/30386058f379bba7.webp"},{"name":"T_Regular_Female_Dark_BaseColor","mimeType":"image/webp","uri":"../../../../textures/d9407c6c2bb45ea0.webp"},{"name":"T_Regular_Female_Roughness","mimeType":"image/webp","uri":"../../../../textures/7adeea333f7e8adc.webp"}],"buffers":[{"uri":"Female_Ranger.bin","byteLength":403256},{"byteLength":973420,"extensions":{"EXT_meshopt_compression":{"fallback":true}}}],"materials":[{"name":"MI_Ranger","doubleSided":true,"pbrMetallicRoughness":{"baseColorTexture":{"index":0},"metallicRoughnessTexture":{"index":2}},"normalTexture":{"index":1}},{"name":"MI_Regular_Female","doubleSided":true,"pbrMetallicRoughness":{"metallicFactor":0,"baseColorTexture":{"index":3},"metallicRoughnessTexture":{"index":5}},"normalTexture":{"index":4}}],"meshes":[{"name":"Female_Ranger_Acc_Pauldrons","primitives":[{"attributes":{"COLOR_0":1,"JOINTS_0":2,"POSITION":28,"NORMAL":29,"TEXCOORD_0":30,"WEIGHTS_0":31},"mode":4,"material":0,"indices":0}]},{"name":"Female_Ranger_Arms","primitives":[{"attributes":{"COLOR_0":4,"JOINTS_0":5,"POSITION":33,"NORMAL":34,"TEXCOORD_0":35,"WEIGHTS_0":36},"mode":4,"material":0,"indices":3},{"attributes":{"COLOR_0":7,"JOINTS_0":8,"POSITION":37,"NORMAL":38,"TEXCOORD_0":39,"WEIGHTS_0":40},"mode":4,"material":1,"indices":6}]},{"name":"Female_Ranger_Arms_Bracer","primitives":[{"attributes":{"COLOR_0":10,"JOINTS_0":11,"POSITION":42,"NORMAL":43,"TEXCOORD_0":44,"WEIGHTS_0":45},"mode":4,"material":0,"indices":9}]},{"name":"Female_Ranger_Body","primitives":[{"attributes":{"COLOR_0":13,"JOINTS_0":14,"POSITION":47,"NORMAL":48,"TEXCOORD_0":49,"WEIGHTS_0":50},"mode":4,"material":0,"indices":12}]},{"name":"Female_Ranger_Body_Belt_1","primitives":[{"attributes":{"COLOR_0":16,"JOINTS_0":17,"POSITION":52,"NORMAL":53,"TEXCOORD_0":54,"WEIGHTS_0":55},"mode":4,"material":0,"indices":15}]},{"name":"Female_Ranger_Body_Belt_2","primitives":[{"attributes":{"POSITION":57,"NORMAL":58,"COLOR_0":16,"JOINTS_0":17,"TEXCOORD_0":54,"WEIGHTS_0":55},"mode":4,"material":0,"indices":15}]},{"name":"Female_Ranger_Feet","primitives":[{"attributes":{"COLOR_0":19,"JOINTS_0":20,"POSITION":60,"NORMAL":61,"TEXCOORD_0":62,"WEIGHTS_0":63},"mode":4,"material":0,"indices":18}]},{"name":"Female_Ranger_Head_Hood","primitives":[{"attributes":{"COLOR_0":22,"JOINTS_0":23,"POSITION":65,"NORMAL":66,"TEXCOORD_0":67,"WEIGHTS_0":68},"mode":4,"material":0,"indices":21}]},{"name":"Female_Ranger_Legs","primitives":[{"attributes":{"COLOR_0":25,"JOINTS_0":26,"POSITION":70,"NORMAL":71,"TEXCOORD_0":72,"WEIGHTS_0":73},"mode":4,"material":0,"indices":24}]}],"nodes":[{"name":"Head","translation":[-1.5903435849255598e-27,0.0711912140250206,2.0489096641540527e-8],"rotation":[-0.20467473566532135,-4.759437705400649e-21,1.2439442348830942e-21,0.9788300395011902]},{"name":"neck_01","translation":[-1.0141478263557337e-20,0.19815585017204285,2.60770320892334e-8],"rotation":[0.3088374435901642,8.337463586651673e-21,-5.849849968646638e-21,0.95111483335495],"children":[0]},{"name":"index_04_leaf_l","translation":[9.076757123693824e-10,0.023510519415140152,-3.8285477899080433e-8],"rotation":[-8.381903171539307e-9,1,-1.5432005174599583e-14,0.0000036517765238386346]},{"name":"index_03_l","translation":[4.420144250616431e-10,0.027111778035759926,-3.670398029953503e-8],"rotation":[1.0023382124302316e-9,7.603918037758783e-13,-0.00013328436762094498,1],"children":[2]},{"name":"index_02_l","translation":[8.094502845779061e-11,0.03171013668179512,-6.863018597869086e-9],"rotation":[1.8987577732332284e-8,1.4024364247688936e-7,-0.002140256343409419,0.9999977350234985],"children":[3]},{"name":"index_01_l","translation":[0.004199977032840252,0.08823654055595398,0.03620496019721031],"rotation":[-0.0033091865479946136,0.7071018815040588,-0.003309202380478382,0.7070961594581604],"children":[4]},{"name":"middle_04_leaf_l","translation":[2.193701220676303e-9,0.029620492830872536,1.1362611473941797e-7],"rotation":[2.0489096641540527e-8,1,6.335320587363621e-14,0.0000036517765238386346]},{"name":"middle_03_l","translation":[-4.32646629633382e-9,0.02931377850472927,3.287611605173879e-8],"rotation":[2.420814304571195e-8,1.4173854798182894e-11,-0.0032189602497965097,0.9999948143959045],"children":[6]},{"name":"middle_02_l","translation":[1.6816557035781443e-9,0.03642695024609566,1.0210540324351314e-7],"rotation":[-2.949975197452659e-8,1.402399334438087e-7,0.0038676888216286898,0.9999924898147583],"children":[7]},{"name":"middle_01_l","translation":[0.001899929717183113,0.08634158223867416,0.010671664960682392],"rotation":[-0.007979890331625938,0.7070646286010742,-0.007979941554367542,0.7070589065551758],"children":[8]},{"name":"pinky_04_leaf_l","translation":[-1.317857822868973e-9,0.020919334143400192,-1.727942162688123e-7],"rotation":[8.381903171539307e-9,1,5.647658583201112e-14,0.00000365177675121231]},{"name":"pinky_03_l","translation":[-1.318767317570746e-9,0.026631725952029228,-8.721048061488545e-8],"rotation":[-2.1800540039862426e-8,5.25581791629981e-12,0.0028988486155867577,0.9999958276748657],"children":[10]},{"name":"pinky_02_l","translation":[-2.967681211885065e-9,0.03083186410367489,-8.672896001371555e-8],"rotation":[1.03155857189563e-8,1.4017835781032773e-7,-0.001705002854578197,0.9999985694885254],"children":[11]},{"name":"pinky_01_l","translation":[0.003799965837970376,0.06994835287332535,-0.03399413824081421],"rotation":[-0.01044775452464819,0.7070325016975403,-0.010447824373841286,0.7070267200469971],"children":[12]},{"name":"ring_04_leaf_l","translation":[9.5042196335271e-10,0.028301579877734184,-3.474425369631717e-8],"rotation":[2.7474015951156616e-8,1,1.0721373739979931e-13,0.00000365177675121231]},{"name":"ring_03_l","translation":[7.703420124016702e-9,0.027600184082984924,-1.1280478418029816e-7],"rotation":[2.6234243222234e-8,4.3393351412124304e-11,-0.0034884933847934008,0.9999939203262329],"children":[14]},{"name":"ring_02_l","translation":[-9.877112461254e-10,0.035001225769519806,-1.5782489981575054e-7],"rotation":[-1.8197205520209536e-8,1.4009778226409253e-7,0.002474082401022315,0.9999969601631165],"children":[15]},{"name":"ring_01_l","translation":[0.0021999571472406387,0.08042963594198227,-0.013825255446135998],"rotation":[0.0025809321086853743,0.7071049213409424,0.0025809479411691427,0.707099199295044],"children":[16]},{"name":"thumb_04_leaf_l","translation":[-1.2670352589339018e-7,0.03127264976501465,3.073364496231079e-8],"rotation":[-1.2782692238033633e-8,0.48539119958877563,2.0375746601075662e-7,0.8742970824241638]},{"name":"thumb_03_l","translation":[2.2436142899096012e-7,0.035620346665382385,5.122274160385132e-9],"rotation":[-0.0012816648231819272,0.00005811178561998531,0.0002541383437346667,0.9999991655349731],"children":[18]},{"name":"thumb_02_l","translation":[1.453081495128572e-7,0.03582108020782471,-1.30385160446167e-8],"rotation":[0.0019128327257931232,0.00019216042710468173,-0.0004484721284825355,0.9999980330467224],"children":[19]},{"name":"thumb_01_l","translation":[0.009999980218708515,-0.0028757674153894186,0.029958141967654228],"rotation":[0.263997346162796,0.9450139999389648,0.1882738322019577,0.04250776767730713],"children":[20]},{"name":"hand_l","translation":[1.532122695380167e-8,0.24930401146411896,5.277343007037416e-9],"rotation":[-0.02237604185938835,-0.000002264418526465306,-3.032003448311116e-8,0.9997496008872986],"children":[5,9,13,17,21]},{"name":"lowerarm_l","translation":[-4.793889729626244e-8,0.2403421401977539,-4.220055416226387e-9],"rotation":[0.023802155628800392,0.00008208974031731486,-0.0000018556972918304382,0.9997166991233826],"children":[22]},{"name":"upperarm_l","translation":[-0.0016045584343373775,0.1410660296678543,-0.01228591613471508],"rotation":[0.17232586443424225,0.6858593225479126,-0.1717943400144577,0.68584805727005],"children":[23]},{"name":"clavicle_l","translation":[0.02930000051856041,0.13370320200920105,0.0448194220662117],"rotation":[-0.5471324324607849,-0.3204275965690613,-0.39127784967422485,0.666988730430603],"children":[24]},{"name":"index_04_leaf_r","translation":[-9.076757123693824e-10,0.023510519415140152,-3.8285477899080433e-8],"rotation":[-8.381903171539307e-9,-1,1.5432005174599583e-14,0.0000036517765238386346]},{"name":"index_03_r","translation":[-4.420144250616431e-10,0.027111778035759926,-3.670398029953503e-8],"rotation":[1.0023382124302316e-9,-7.603918037758783e-13,0.00013328436762094498,1],"children":[26]},{"name":"index_02_r","translation":[-8.094502845779061e-11,0.03171013668179512,-6.863018597869086e-9],"rotation":[1.8987577732332284e-8,-1.4024364247688936e-7,0.002140256343409419,0.9999977350234985],"children":[27]},{"name":"index_01_r","translation":[-0.004199977032840252,0.08823654055595398,0.03620496019721031],"rotation":[-0.0033091865479946136,-0.7071018815040588,0.003309202380478382,0.7070961594581604],"children":[28]},{"name":"middle_04_leaf_r","translation":[-2.193701220676303e-9,0.029620492830872536,1.1362611473941797e-7],"rotation":[2.0489096641540527e-8,-1,-6.335320587363621e-14,0.0000036517765238386346]},{"name":"middle_03_r","translation":[4.32646629633382e-9,0.02931377850472927,3.287611605173879e-8],"rotation":[2.420814304571195e-8,-1.4173854798182894e-11,0.0032189602497965097,0.9999948143959045],"children":[30]},{"name":"middle_02_r","translation":[-1.6816557035781443e-9,0.03642695024609566,1.0210540324351314e-7],"rotation":[-2.949975197452659e-8,-1.402399334438087e-7,-0.0038676888216286898,0.9999924898147583],"children":[31]},{"name":"middle_01_r","translation":[-0.001899929717183113,0.08634158223867416,0.010671664960682392],"rotation":[-0.007979890331625938,-0.7070646286010742,0.007979941554367542,0.7070589065551758],"children":[32]},{"name":"pinky_04_leaf_r","translation":[1.317857822868973e-9,0.020919334143400192,-1.727942162688123e-7],"rotation":[8.381903171539307e-9,-1,-5.647658583201112e-14,0.00000365177675121231]},{"name":"pinky_03_r","translation":[1.318767317570746e-9,0.026631725952029228,-8.721048061488545e-8],"rotation":[-2.1800540039862426e-8,-5.25581791629981e-12,-0.0028988486155867577,0.9999958276748657],"children":[34]},{"name":"pinky_02_r","translation":[2.967681211885065e-9,0.03083186410367489,-8.672896001371555e-8],"rotation":[1.03155857189563e-8,-1.4017835781032773e-7,0.001705002854578197,0.9999985694885254],"children":[35]},{"name":"pinky_01_r","translation":[-0.003799965837970376,0.06994835287332535,-0.03399413824081421],"rotation":[-0.01044775452464819,-0.7070325016975403,0.010447824373841286,0.7070267200469971],"children":[36]},{"name":"ring_04_leaf_r","translation":[-9.5042196335271e-10,0.028301579877734184,-3.474425369631717e-8],"rotation":[2.7474015951156616e-8,-1,-1.0721373739979931e-13,0.00000365177675121231]},{"name":"ring_03_r","translation":[-7.703420124016702e-9,0.027600184082984924,-1.1280478418029816e-7],"rotation":[2.6234243222234e-8,-4.3393351412124304e-11,0.0034884933847934008,0.9999939203262329],"children":[38]},{"name":"ring_02_r","translation":[9.877112461254e-10,0.035001225769519806,-1.5782489981575054e-7],"rotation":[-1.8197205520209536e-8,-1.4009778226409253e-7,-0.002474082401022315,0.9999969601631165],"children":[39]},{"name":"ring_01_r","translation":[-0.0021999571472406387,0.08042963594198227,-0.013825255446135998],"rotation":[0.0025809321086853743,-0.7071049213409424,-0.0025809479411691427,0.707099199295044],"children":[40]},{"name":"thumb_04_leaf_r","translation":[1.2622331269085407e-7,0.031272709369659424,3.073364496231079e-8],"rotation":[-2.5565388028780944e-8,-0.48539119958877563,-1.9393742434203887e-7,0.8742970824241638]},{"name":"thumb_03_r","translation":[-1.0542134987190366e-7,0.03562036156654358,-8.847564458847046e-9],"rotation":[-0.0012816853122785687,-0.00005809385038446635,-0.00025414914125576615,0.9999991655349731],"children":[42]},{"name":"thumb_02_r","translation":[-1.453081495128572e-7,0.03582108020782471,-1.30385160446167e-8],"rotation":[0.001912830863147974,-0.00019218510715290904,0.0004484682867769152,0.9999980330467224],"children":[43]},{"name":"thumb_01_r","translation":[-0.009999980218708515,-0.0028757674153894186,0.029958141967654228],"rotation":[0.263997346162796,-0.9450139999389648,-0.1882738322019577,0.04250776767730713],"children":[44]},{"name":"hand_r","translation":[-1.532122695380167e-8,0.24930401146411896,5.277343007037416e-9],"rotation":[-0.02237604185938835,0.000002264418526465306,3.032003448311116e-8,0.9997496008872986],"children":[29,33,37,41,45]},{"name":"lowerarm_r","translation":[4.793889729626244e-8,0.2403421401977539,-4.220055416226387e-9],"rotation":[0.023802155628800392,-0.00008208974031731486,0.0000018556972918304382,0.9997166991233826],"children":[46]},{"name":"upperarm_r","translation":[0.0016045584343373775,0.1410660296678543,-0.01228591613471508],"rotation":[0.17232586443424225,-0.6858593225479126,0.1717943400144577,0.68584805727005],"children":[47]},{"name":"clavicle_r","translation":[-0.02930000051856041,0.13370320200920105,0.0448194220662117],"rotation":[-0.5471324324607849,0.3204275965690613,0.39127784967422485,0.666988730430603],"children":[48]},{"name":"spine_03","translation":[4.6735704609246064e-20,0.12640145421028137,3.4924596548080444e-10],"rotation":[-0.10099761933088303,4.5928396448426806e-14,-4.5242200827702583e-13,0.9948866963386536],"children":[1,25,49]},{"name":"spine_02","translation":[-4.263256414560601e-13,0.11034487932920456,8.381903171539307e-9],"rotation":[-0.055728573352098465,-0.00004992229150957428,-0.0000027864282401424134,0.998445987701416],"children":[50]},{"name":"spine_01","translation":[0,0.12655510008335114,-9.313225746154785e-10],"rotation":[-0.06393160670995712,0.00004989771332475357,-0.00000319658010994317,0.9979543089866638],"children":[51]},{"name":"ball_leaf_l","translation":[5.525180313270539e-10,0.06809987872838974,-1.204170985147357e-9],"rotation":[0,0.00017269056115765125,5.421010862427522e-20,1]},{"name":"ball_l","translation":[1.4901161193847656e-8,0.14916980266571045,-6.51925802230835e-9],"rotation":[-0.00003296312570455484,0.9816133975982666,-0.1908797174692154,0.00016951537691056728],"children":[53]},{"name":"foot_l","translation":[-7.450580596923828e-9,0.4661003053188324,2.7939677238464355e-9],"rotation":[-0.5978578329086304,0,0,0.8016021847724915],"children":[54]},{"name":"calf_l","translation":[-7.450580596923828e-9,0.4098641872406006,1.3969838619232178e-9],"rotation":[0.0712229460477829,0,0,0.9974604249000549],"children":[55]},{"name":"thigh_l","translation":[0.11140000075101852,0.010460092686116695,-0.008893024176359177],"rotation":[0.9893749952316284,0,0,0.1453862488269806],"children":[56]},{"name":"ball_leaf_r","translation":[5.525180313270539e-10,0.06809987872838974,-1.5897967386990786e-9],"rotation":[0,0.00017269056115765125,5.421010862427522e-20,1]},{"name":"ball_r","translation":[-1.4901161193847656e-8,0.14916980266571045,-6.51925802230835e-9],"rotation":[-0.00003296312570455484,0.9816133975982666,-0.1908797174692154,0.00016951537691056728],"children":[58]},{"name":"foot_r","translation":[7.450580596923828e-9,0.4661003053188324,2.7939677238464355e-9],"rotation":[-0.5978578329086304,0,0,0.8016021847724915],"children":[59]},{"name":"calf_r","translation":[7.450580596923828e-9,0.4098641872406006,1.3969838619232178e-9],"rotation":[0.0712229460477829,0,0,0.9974604249000549],"children":[60]},{"name":"thigh_r","translation":[-0.11140000075101852,0.010460092686116695,-0.008893024176359177],"rotation":[0.9893749952316284,0,0,0.1453862488269806],"children":[61]},{"name":"pelvis","translation":[0,0.045700013637542725,0.9318000078201294],"rotation":[0.7879695892333984,0,0,0.6157141923904419],"children":[52,57,62]},{"name":"root","rotation":[-0.7071067690849304,0,0,0.7071067690849304],"children":[63]},{"name":"Female_Ranger_Acc_Pauldrons","mesh":0,"skin":0},{"name":"Female_Ranger_Arms","mesh":1,"skin":1},{"name":"Female_Ranger_Arms_Bracer","mesh":2,"skin":2},{"name":"Female_Ranger_Body","mesh":3,"skin":3},{"name":"Female_Ranger_Body_Belt_1","mesh":4,"skin":4},{"name":"Female_Ranger_Body_Belt_2","mesh":5,"skin":5},{"name":"Female_Ranger_Feet","mesh":6,"skin":6},{"name":"Female_Ranger_Head_Hood","mesh":7,"skin":7},{"name":"Female_Ranger_Legs","mesh":8,"skin":8},{"name":"Armature","children":[65,66,67,68,69,70,71,72,73,64]},{"name":"pack_root","children":[74]}],"skins":[{"name":"Armature","inverseBindMatrices":27,"joints":[64,63,52,51,50,1,0,25,24,23,22,5,4,3,2,9,8,7,6,13,12,11,10,17,16,15,14,21,20,19,18,49,48,47,46,29,28,27,26,33,32,31,30,37,36,35,34,41,40,39,38,45,44,43,42,57,56,55,54,53,62,61,60,59,58]},{"name":"Armature","inverseBindMatrices":32,"joints":[64,63,52,51,50,1,0,25,24,23,22,5,4,3,2,9,8,7,6,13,12,11,10,17,16,15,14,21,20,19,18,49,48,47,46,29,28,27,26,33,32,31,30,37,36,35,34,41,40,39,38,45,44,43,42,57,56,55,54,53,62,61,60,59,58]},{"name":"Armature","inverseBindMatrices":41,"joints":[64,63,52,51,50,1,0,25,24,23,22,5,4,3,2,9,8,7,6,13,12,11,10,17,16,15,14,21,20,19,18,49,48,47,46,29,28,27,26,33,32,31,30,37,36,35,34,41,40,39,38,45,44,43,42,57,56,55,54,53,62,61,60,59,58]},{"name":"Armature","inverseBindMatrices":46,"joints":[64,63,52,51,50,1,0,25,24,23,22,5,4,3,2,9,8,7,6,13,12,11,10,17,16,15,14,21,20,19,18,49,48,47,46,29,28,27,26,33,32,31,30,37,36,35,34,41,40,39,38,45,44,43,42,57,56,55,54,53,62,61,60,59,58]},{"name":"Armature","inverseBindMatrices":51,"joints":[64,63,52,51,50,1,0,25,24,23,22,5,4,3,2,9,8,7,6,13,12,11,10,17,16,15,14,21,20,19,18,49,48,47,46,29,28,27,26,33,32,31,30,37,36,35,34,41,40,39,38,45,44,43,42,57,56,55,54,53,62,61,60,59,58]},{"name":"Armature","inverseBindMatrices":56,"joints":[64,63,52,51,50,1,0,25,24,23,22,5,4,3,2,9,8,7,6,13,12,11,10,17,16,15,14,21,20,19,18,49,48,47,46,29,28,27,26,33,32,31,30,37,36,35,34,41,40,39,38,45,44,43,42,57,56,55,54,53,62,61,60,59,58]},{"name":"Armature","inverseBindMatrices":59,"joints":[64,63,52,51,50,1,0,25,24,23,22,5,4,3,2,9,8,7,6,13,12,11,10,17,16,15,14,21,20,19,18,49,48,47,46,29,28,27,26,33,32,31,30,37,36,35,34,41,40,39,38,45,44,43,42,57,56,55,54,53,62,61,60,59,58]},{"name":"Armature","inverseBindMatrices":64,"joints":[64,63,52,51,50,1,0,25,24,23,22,5,4,3,2,9,8,7,6,13,12,11,10,17,16,15,14,21,20,19,18,49,48,47,46,29,28,27,26,33,32,31,30,37,36,35,34,41,40,39,38,45,44,43,42,57,56,55,54,53,62,61,60,59,58]},{"name":"Armature","inverseBindMatrices":69,"joints":[64,63,52,51,50,1,0,25,24,23,22,5,4,3,2,9,8,7,6,13,12,11,10,17,16,15,14,21,20,19,18,49,48,47,46,29,28,27,26,33,32,31,30,37,36,35,34,41,40,39,38,45,44,43,42,57,56,55,54,53,62,61,60,59,58]}],"scenes":[{"name":"Scene","nodes":[75]}],"scene":0,"extensionsUsed":["EXT_meshopt_compression","EXT_texture_webp","KHR_mesh_quantization"],"extensionsRequired":["EXT_meshopt_compression","EXT_texture_webp","KHR_mesh_quantization"]}