{"asset":{"generator":"glTF-Transform v4.5.1","version":"2.0"},"accessors":[{"type":"SCALAR","componentType":5123,"count":4128,"normalized":false,"byteOffset":0,"bufferView":0},{"type":"VEC4","componentType":5121,"count":1092,"normalized":false,"byteOffset":0,"bufferView":1},{"type":"SCALAR","componentType":5123,"count":9144,"normalized":false,"byteOffset":8256,"bufferView":0},{"type":"VEC4","componentType":5121,"count":1836,"normalized":true,"byteOffset":0,"bufferView":2},{"type":"VEC4","componentType":5121,"count":1836,"normalized":false,"byteOffset":0,"bufferView":3},{"type":"SCALAR","componentType":5123,"count":5640,"normalized":false,"byteOffset":26544,"bufferView":0},{"type":"VEC4","componentType":5121,"count":1206,"normalized":true,"byteOffset":0,"bufferView":4},{"type":"VEC4","componentType":5121,"count":1206,"normalized":false,"byteOffset":0,"bufferView":5},{"type":"SCALAR","componentType":5123,"count":10908,"normalized":false,"byteOffset":37824,"bufferView":0},{"type":"VEC4","componentType":5121,"count":4000,"normalized":true,"byteOffset":0,"bufferView":6},{"type":"VEC4","componentType":5121,"count":4000,"normalized":false,"byteOffset":0,"bufferView":7},{"type":"SCALAR","componentType":5123,"count":8994,"normalized":false,"byteOffset":59640,"bufferView":0},{"type":"VEC4","componentType":5121,"count":2825,"normalized":true,"byteOffset":0,"bufferView":8},{"type":"VEC4","componentType":5121,"count":2825,"normalized":false,"byteOffset":0,"bufferView":9},{"type":"SCALAR","componentType":5123,"count":2412,"normalized":false,"byteOffset":77628,"bufferView":0},{"type":"VEC4","componentType":5121,"count":928,"normalized":false,"byteOffset":0,"bufferView":10},{"type":"SCALAR","componentType":5123,"count":27516,"normalized":false,"byteOffset":82452,"bufferView":0},{"type":"VEC4","componentType":5121,"count":10174,"normalized":true,"byteOffset":0,"bufferView":11},{"type":"VEC4","componentType":5121,"count":10174,"normalized":false,"byteOffset":0,"bufferView":12},{"type":"SCALAR","componentType":5123,"count":6408,"normalized":false,"byteOffset":137484,"bufferView":0},{"type":"VEC4","componentType":5121,"count":1240,"normalized":true,"byteOffset":0,"bufferView":13},{"type":"VEC4","componentType":5121,"count":1240,"normalized":false,"byteOffset":0,"bufferView":14},{"type":"SCALAR","componentType":5123,"count":3384,"normalized":false,"byteOffset":150300,"bufferView":0},{"type":"VEC4","componentType":5121,"count":644,"normalized":true,"byteOffset":0,"bufferView":15},{"type":"VEC4","componentType":5121,"count":644,"normalized":false,"byteOffset":0,"bufferView":16},{"type":"MAT4","componentType":5126,"count":65,"normalized":false,"byteOffset":0,"bufferView":17},{"type":"VEC3","componentType":5122,"count":1092,"max":[32767,19266,29451],"min":[-32767,-19266,-29451],"normalized":true,"byteOffset":0,"bufferView":18},{"type":"VEC3","componentType":5122,"count":1092,"normalized":true,"byteOffset":0,"bufferView":19},{"type":"VEC2","componentType":5123,"count":1092,"normalized":true,"byteOffset":0,"bufferView":20},{"type":"VEC4","componentType":5121,"count":1092,"normalized":true,"byteOffset":0,"bufferView":21},{"type":"MAT4","componentType":5126,"count":65,"normalized":false,"byteOffset":4160,"bufferView":17},{"type":"VEC3","componentType":5122,"count":1836,"max":[30191,2984,2916],"min":[-30191,-2496,-2916],"normalized":true,"byteOffset":0,"bufferView":22},{"type":"VEC3","componentType":5122,"count":1836,"normalized":true,"byteOffset":0,"bufferView":23},{"type":"VEC2","componentType":5123,"count":1836,"normalized":true,"byteOffset":0,"bufferView":24},{"type":"VEC4","componentType":5121,"count":1836,"normalized":true,"byteOffset":0,"bufferView":25},{"type":"VEC3","componentType":5122,"count":1206,"max":[32767,580,2436],"min":[-32767,-2984,-2520],"normalized":true,"byteOffset":0,"bufferView":26},{"type":"VEC3","componentType":5122,"count":1206,"normalized":true,"byteOffset":0,"bufferView":27},{"type":"VEC2","componentType":5123,"count":1206,"normalized":true,"byteOffset":0,"bufferView":28},{"type":"VEC4","componentType":5121,"count":1206,"normalized":true,"byteOffset":0,"bufferView":29},{"type":"MAT4","componentType":5126,"count":65,"normalized":false,"byteOffset":8320,"bufferView":17},{"type":"VEC3","componentType":5122,"count":4000,"max":[32767,2896,3204],"min":[-32767,-2896,-3204],"normalized":true,"byteOffset":0,"bufferView":30},{"type":"VEC3","componentType":5122,"count":4000,"normalized":true,"byteOffset":0,"bufferView":31},{"type":"VEC2","componentType":5123,"count":4000,"normalized":true,"byteOffset":0,"bufferView":32},{"type":"VEC4","componentType":5121,"count":4000,"normalized":true,"byteOffset":0,"bufferView":33},{"type":"MAT4","componentType":5126,"count":65,"normalized":false,"byteOffset":12480,"bufferView":17},{"type":"VEC3","componentType":5122,"count":2825,"max":[20354,32767,15973],"min":[-20354,-32767,-15973],"normalized":true,"byteOffset":0,"bufferView":34},{"type":"VEC3","componentType":5122,"count":2825,"normalized":true,"byteOffset":0,"bufferView":35},{"type":"VEC2","componentType":5123,"count":2825,"normalized":true,"byteOffset":0,"bufferView":36},{"type":"VEC4","componentType":5121,"count":2825,"normalized":true,"byteOffset":0,"bufferView":37},{"type":"MAT4","componentType":5126,"count":65,"normalized":false,"byteOffset":16640,"bufferView":17},{"type":"VEC3","componentType":5122,"count":928,"max":[32767,5828,27919],"min":[-32767,-5828,-27919],"normalized":true,"byteOffset":0,"bufferView":38},{"type":"VEC3","componentType":5122,"count":928,"normalized":true,"byteOffset":0,"bufferView":39},{"type":"VEC2","componentType":5123,"count":928,"normalized":true,"byteOffset":0,"bufferView":40},{"type":"VEC4","componentType":5121,"count":928,"normalized":true,"byteOffset":0,"bufferView":41},{"type":"MAT4","componentType":5126,"count":65,"normalized":false,"byteOffset":20800,"bufferView":17},{"type":"VEC3","componentType":5122,"count":928,"normalized":true,"byteOffset":0,"bufferView":42},{"type":"MAT4","componentType":5126,"count":65,"normalized":false,"byteOffset":24960,"bufferView":17},{"type":"VEC3","componentType":5122,"count":10174,"max":[20834,32767,19710],"min":[-20834,-32767,-19710],"normalized":true,"byteOffset":0,"bufferView":43},{"type":"VEC3","componentType":5122,"count":10174,"normalized":true,"byteOffset":0,"bufferView":44},{"type":"VEC2","componentType":5123,"count":10174,"normalized":true,"byteOffset":0,"bufferView":45},{"type":"VEC4","componentType":5121,"count":10174,"normalized":true,"byteOffset":0,"bufferView":46},{"type":"MAT4","componentType":5126,"count":65,"normalized":false,"byteOffset":29120,"bufferView":17},{"type":"VEC3","componentType":5122,"count":1240,"max":[29251,32767,32263],"min":[-29251,-32767,-32263],"normalized":true,"byteOffset":0,"bufferView":47},{"type":"VEC3","componentType":5122,"count":1240,"normalized":true,"byteOffset":0,"bufferView":48},{"type":"VEC2","componentType":5123,"count":1240,"normalized":true,"byteOffset":0,"bufferView":49},{"type":"VEC4","componentType":5121,"count":1240,"normalized":true,"byteOffset":0,"bufferView":50},{"type":"MAT4","componentType":5126,"count":65,"normalized":false,"byteOffset":33280,"bufferView":17},{"type":"VEC3","componentType":5122,"count":644,"max":[19070,32767,11849],"min":[-19070,-32767,-11849],"normalized":true,"byteOffset":0,"bufferView":51},{"type":"VEC3","componentType":5122,"count":644,"normalized":true,"byteOffset":0,"bufferView":52},{"type":"VEC2","componentType":5123,"count":644,"normalized":true,"byteOffset":0,"bufferView":53},{"type":"VEC4","componentType":5121,"count":644,"normalized":true,"byteOffset":0,"bufferView":54}],"bufferViews":[{"buffer":1,"byteOffset":0,"byteLength":157068,"target":34963,"extensions":{"EXT_meshopt_compression":{"buffer":0,"byteOffset":0,"byteLength":28504,"mode":"TRIANGLES","byteStride":2,"count":78534}}},{"buffer":1,"byteOffset":157068,"byteLength":4368,"target":34962,"byteStride":4,"extensions":{"EXT_meshopt_compression":{"buffer":0,"byteOffset":28504,"byteLength":105,"mode":"ATTRIBUTES","byteStride":4,"count":1092}}},{"buffer":1,"byteOffset":161436,"byteLength":7344,"target":34962,"byteStride":4,"extensions":{"EXT_meshopt_compression":{"buffer":0,"byteOffset":28612,"byteLength":149,"mode":"ATTRIBUTES","byteStride":4,"count":1836}}},{"buffer":1,"byteOffset":168780,"byteLength":7344,"target":34962,"byteStride":4,"extensions":{"EXT_meshopt_compression":{"buffer":0,"byteOffset":28764,"byteLength":2815,"mode":"ATTRIBUTES","byteStride":4,"count":1836}}},{"buffer":1,"byteOffset":176124,"byteLength":4824,"target":34962,"byteStride":4,"extensions":{"EXT_meshopt_compression":{"buffer":0,"byteOffset":31580,"byteLength":109,"mode":"ATTRIBUTES","byteStride":4,"count":1206}}},{"buffer":1,"byteOffset":180948,"byteLength":4824,"target":34962,"byteStride":4,"extensions":{"EXT_meshopt_compression":{"buffer":0,"byteOffset":31692,"byteLength":996,"mode":"ATTRIBUTES","byteStride":4,"count":1206}}},{"buffer":1,"byteOffset":185772,"byteLength":16000,"target":34962,"byteStride":4,"extensions":{"EXT_meshopt_compression":{"buffer":0,"byteOffset":32688,"byteLength":285,"mode":"ATTRIBUTES","byteStride":4,"count":4000}}},{"buffer":1,"byteOffset":201772,"byteLength":16000,"target":34962,"byteStride":4,"extensions":{"EXT_meshopt_compression":{"buffer":0,"byteOffset":32976,"byteLength":676,"mode":"ATTRIBUTES","byteStride":4,"count":4000}}},{"buffer":1,"byteOffset":217772,"byteLength":11300,"target":34962,"byteStride":4,"extensions":{"EXT_meshopt_compression":{"buffer":0,"byteOffset":33652,"byteLength":213,"mode":"ATTRIBUTES","byteStride":4,"count":2825}}},{"buffer":1,"byteOffset":229072,"byteLength":11300,"target":34962,"byteStride":4,"extensions":{"EXT_meshopt_compression":{"buffer":0,"byteOffset":33868,"byteLength":3945,"mode":"ATTRIBUTES","byteStride":4,"count":2825}}},{"buffer":1,"byteOffset":240372,"byteLength":3712,"target":34962,"byteStride":4,"extensions":{"EXT_meshopt_compression":{"buffer":0,"byteOffset":37816,"byteLength":543,"mode":"ATTRIBUTES","byteStride":4,"count":928}}},{"buffer":1,"byteOffset":244084,"byteLength":40696,"target":34962,"byteStride":4,"extensions":{"EXT_meshopt_compression":{"buffer":0,"byteOffset":38360,"byteLength":669,"mode":"ATTRIBUTES","byteStride":4,"count":10174}}},{"buffer":1,"byteOffset":284780,"byteLength":40696,"target":34962,"byteStride":4,"extensions":{"EXT_meshopt_compression":{"buffer":0,"byteOffset":39032,"byteLength":2186,"mode":"ATTRIBUTES","byteStride":4,"count":10174}}},{"buffer":1,"byteOffset":325476,"byteLength":4960,"target":34962,"byteStride":4,"extensions":{"EXT_meshopt_compression":{"buffer":0,"byteOffset":41220,"byteLength":113,"mode":"ATTRIBUTES","byteStride":4,"count":1240}}},{"buffer":1,"byteOffset":330436,"byteLength":4960,"target":34962,"byteStride":4,"extensions":{"EXT_meshopt_compression":{"buffer":0,"byteOffset":41336,"byteLength":1714,"mode":"ATTRIBUTES","byteStride":4,"count":1240}}},{"buffer":1,"byteOffset":335396,"byteLength":2576,"target":34962,"byteStride":4,"extensions":{"EXT_meshopt_compression":{"buffer":0,"byteOffset":43052,"byteLength":77,"mode":"ATTRIBUTES","byteStride":4,"count":644}}},{"buffer":1,"byteOffset":337972,"byteLength":2576,"target":34962,"byteStride":4,"extensions":{"EXT_meshopt_compression":{"buffer":0,"byteOffset":43132,"byteLength":641,"mode":"ATTRIBUTES","byteStride":4,"count":644}}},{"buffer":1,"byteOffset":340548,"byteLength":37440,"extensions":{"EXT_meshopt_compression":{"buffer":0,"byteOffset":43776,"byteLength":23475,"mode":"ATTRIBUTES","byteStride":64,"count":585}}},{"buffer":1,"byteOffset":377988,"byteLength":8736,"target":34962,"byteStride":8,"extensions":{"EXT_meshopt_compression":{"buffer":0,"byteOffset":67252,"byteLength":6578,"mode":"ATTRIBUTES","byteStride":8,"count":1092}}},{"buffer":1,"byteOffset":386724,"byteLength":8736,"target":34962,"byteStride":8,"extensions":{"EXT_meshopt_compression":{"buffer":0,"byteOffset":73832,"byteLength":6036,"mode":"ATTRIBUTES","byteStride":8,"count":1092}}},{"buffer":1,"byteOffset":395460,"byteLength":4368,"target":34962,"byteStride":4,"extensions":{"EXT_meshopt_compression":{"buffer":0,"byteOffset":79868,"byteLength":3347,"mode":"ATTRIBUTES","byteStride":4,"count":1092}}},{"buffer":1,"byteOffset":399828,"byteLength":4368,"target":34962,"byteStride":4,"extensions":{"EXT_meshopt_compression":{"buffer":0,"byteOffset":83216,"byteLength":105,"mode":"ATTRIBUTES","byteStride":4,"count":1092}}},{"buffer":1,"byteOffset":404196,"byteLength":14688,"target":34962,"byteStride":8,"extensions":{"EXT_meshopt_compression":{"buffer":0,"byteOffset":83324,"byteLength":8120,"mode":"ATTRIBUTES","byteStride":8,"count":1836}}},{"buffer":1,"byteOffset":418884,"byteLength":14688,"target":34962,"byteStride":8,"extensions":{"EXT_meshopt_compression":{"buffer":0,"byteOffset":91444,"byteLength":11114,"mode":"ATTRIBUTES","byteStride":8,"count":1836}}},{"buffer":1,"byteOffset":433572,"byteLength":7344,"target":34962,"byteStride":4,"extensions":{"EXT_meshopt_compression":{"buffer":0,"byteOffset":102560,"byteLength":5344,"mode":"ATTRIBUTES","byteStride":4,"count":1836}}},{"buffer":1,"byteOffset":440916,"byteLength":7344,"target":34962,"byteStride":4,"extensions":{"EXT_meshopt_compression":{"buffer":0,"byteOffset":107904,"byteLength":4932,"mode":"ATTRIBUTES","byteStride":4,"count":1836}}},{"buffer":1,"byteOffset":448260,"byteLength":9648,"target":34962,"byteStride":8,"extensions":{"EXT_meshopt_compression":{"buffer":0,"byteOffset":112836,"byteLength":4919,"mode":"ATTRIBUTES","byteStride":8,"count":1206}}},{"buffer":1,"byteOffset":457908,"byteLength":9648,"target":34962,"byteStride":8,"extensions":{"EXT_meshopt_compression":{"buffer":0,"byteOffset":117756,"byteLength":7368,"mode":"ATTRIBUTES","byteStride":8,"count":1206}}},{"buffer":1,"byteOffset":467556,"byteLength":4824,"target":34962,"byteStride":4,"extensions":{"EXT_meshopt_compression":{"buffer":0,"byteOffset":125124,"byteLength":3428,"mode":"ATTRIBUTES","byteStride":4,"count":1206}}},{"buffer":1,"byteOffset":472380,"byteLength":4824,"target":34962,"byteStride":4,"extensions":{"EXT_meshopt_compression":{"buffer":0,"byteOffset":128552,"byteLength":2360,"mode":"ATTRIBUTES","byteStride":4,"count":1206}}},{"buffer":1,"byteOffset":477204,"byteLength":32000,"target":34962,"byteStride":8,"extensions":{"EXT_meshopt_compression":{"buffer":0,"byteOffset":130912,"byteLength":17608,"mode":"ATTRIBUTES","byteStride":8,"count":4000}}},{"buffer":1,"byteOffset":509204,"byteLength":32000,"target":34962,"byteStride":8,"extensions":{"EXT_meshopt_compression":{"buffer":0,"byteOffset":148520,"byteLength":15886,"mode":"ATTRIBUTES","byteStride":8,"count":4000}}},{"buffer":1,"byteOffset":541204,"byteLength":16000,"target":34962,"byteStride":4,"extensions":{"EXT_meshopt_compression":{"buffer":0,"byteOffset":164408,"byteLength":11500,"mode":"ATTRIBUTES","byteStride":4,"count":4000}}},{"buffer":1,"byteOffset":557204,"byteLength":16000,"target":34962,"byteStride":4,"extensions":{"EXT_meshopt_compression":{"buffer":0,"byteOffset":175908,"byteLength":1518,"mode":"ATTRIBUTES","byteStride":4,"count":4000}}},{"buffer":1,"byteOffset":573204,"byteLength":22600,"target":34962,"byteStride":8,"extensions":{"EXT_meshopt_compression":{"buffer":0,"byteOffset":177428,"byteLength":14382,"mode":"ATTRIBUTES","byteStride":8,"count":2825}}},{"buffer":1,"byteOffset":595804,"byteLength":22600,"target":34962,"byteStride":8,"extensions":{"EXT_meshopt_compression":{"buffer":0,"byteOffset":191812,"byteLength":13667,"mode":"ATTRIBUTES","byteStride":8,"count":2825}}},{"buffer":1,"byteOffset":618404,"byteLength":11300,"target":34962,"byteStride":4,"extensions":{"EXT_meshopt_compression":{"buffer":0,"byteOffset":205480,"byteLength":8296,"mode":"ATTRIBUTES","byteStride":4,"count":2825}}},{"buffer":1,"byteOffset":629704,"byteLength":11300,"target":34962,"byteStride":4,"extensions":{"EXT_meshopt_compression":{"buffer":0,"byteOffset":213776,"byteLength":7516,"mode":"ATTRIBUTES","byteStride":4,"count":2825}}},{"buffer":1,"byteOffset":641004,"byteLength":7424,"target":34962,"byteStride":8,"extensions":{"EXT_meshopt_compression":{"buffer":0,"byteOffset":221292,"byteLength":4638,"mode":"ATTRIBUTES","byteStride":8,"count":928}}},{"buffer":1,"byteOffset":648428,"byteLength":7424,"target":34962,"byteStride":8,"extensions":{"EXT_meshopt_compression":{"buffer":0,"byteOffset":225932,"byteLength":2671,"mode":"ATTRIBUTES","byteStride":8,"count":928}}},{"buffer":1,"byteOffset":655852,"byteLength":3712,"target":34962,"byteStride":4,"extensions":{"EXT_meshopt_compression":{"buffer":0,"byteOffset":228604,"byteLength":2447,"mode":"ATTRIBUTES","byteStride":4,"count":928}}},{"buffer":1,"byteOffset":659564,"byteLength":3712,"target":34962,"byteStride":4,"extensions":{"EXT_meshopt_compression":{"buffer":0,"byteOffset":231052,"byteLength":2435,"mode":"ATTRIBUTES","byteStride":4,"count":928}}},{"buffer":1,"byteOffset":663276,"byteLength":7424,"target":34962,"byteStride":8,"extensions":{"EXT_meshopt_compression":{"buffer":0,"byteOffset":233488,"byteLength":2674,"mode":"ATTRIBUTES","byteStride":8,"count":928}}},{"buffer":1,"byteOffset":670700,"byteLength":81392,"target":34962,"byteStride":8,"extensions":{"EXT_meshopt_compression":{"buffer":0,"byteOffset":236164,"byteLength":50329,"mode":"ATTRIBUTES","byteStride":8,"count":10174}}},{"buffer":1,"byteOffset":752092,"byteLength":81392,"target":34962,"byteStride":8,"extensions":{"EXT_meshopt_compression":{"buffer":0,"byteOffset":286496,"byteLength":41409,"mode":"ATTRIBUTES","byteStride":8,"count":10174}}},{"buffer":1,"byteOffset":833484,"byteLength":40696,"target":34962,"byteStride":4,"extensions":{"EXT_meshopt_compression":{"buffer":0,"byteOffset":327908,"byteLength":30297,"mode":"ATTRIBUTES","byteStride":4,"count":10174}}},{"buffer":1,"byteOffset":874180,"byteLength":40696,"target":34962,"byteStride":4,"extensions":{"EXT_meshopt_compression":{"buffer":0,"byteOffset":358208,"byteLength":4670,"mode":"ATTRIBUTES","byteStride":4,"count":10174}}},{"buffer":1,"byteOffset":914876,"byteLength":9920,"target":34962,"byteStride":8,"extensions":{"EXT_meshopt_compression":{"buffer":0,"byteOffset":362880,"byteLength":7058,"mode":"ATTRIBUTES","byteStride":8,"count":1240}}},{"buffer":1,"byteOffset":924796,"byteLength":9920,"target":34962,"byteStride":8,"extensions":{"EXT_meshopt_compression":{"buffer":0,"byteOffset":369940,"byteLength":7229,"mode":"ATTRIBUTES","byteStride":8,"count":1240}}},{"buffer":1,"byteOffset":934716,"byteLength":4960,"target":34962,"byteStride":4,"extensions":{"EXT_meshopt_compression":{"buffer":0,"byteOffset":377172,"byteLength":3767,"mode":"ATTRIBUTES","byteStride":4,"count":1240}}},{"buffer":1,"byteOffset":939676,"byteLength":4960,"target":34962,"byteStride":4,"extensions":{"EXT_meshopt_compression":{"buffer":0,"byteOffset":380940,"byteLength":2769,"mode":"ATTRIBUTES","byteStride":4,"count":1240}}},{"buffer":1,"byteOffset":944636,"byteLength":5152,"target":34962,"byteStride":8,"extensions":{"EXT_meshopt_compression":{"buffer":0,"byteOffset":383712,"byteLength":3731,"mode":"ATTRIBUTES","byteStride":8,"count":644}}},{"buffer":1,"byteOffset":949788,"byteLength":5152,"target":34962,"byteStride":8,"extensions":{"EXT_meshopt_compression":{"buffer":0,"byteOffset":387444,"byteLength":3954,"mode":"ATTRIBUTES","byteStride":8,"count":644}}},{"buffer":1,"byteOffset":954940,"byteLength":2576,"target":34962,"byteStride":4,"extensions":{"EXT_meshopt_compression":{"buffer":0,"byteOffset":391400,"byteLength":2062,"mode":"ATTRIBUTES","byteStride":4,"count":644}}},{"buffer":1,"byteOffset":957516,"byteLength":2576,"target":34962,"byteStride":4,"extensions":{"EXT_meshopt_compression":{"buffer":0,"byteOffset":393464,"byteLength":1385,"mode":"ATTRIBUTES","byteStride":4,"count":644}}}],"samplers":[{"magFilter":9729,"minFilter":9987,"wrapS":10497,"wrapT":10497}],"textures":[{"sampler":0,"extensions":{"EXT_texture_webp":{"source":1}}},{"sampler":0,"extensions":{"EXT_texture_webp":{"source":0}}},{"sampler":0,"extensions":{"EXT_texture_webp":{"source":2}}},{"sampler":0,"extensions":{"EXT_texture_webp":{"source":4}}},{"sampler":0,"extensions":{"EXT_texture_webp":{"source":3}}},{"sampler":0,"extensions":{"EXT_texture_webp":{"source":5}}}],"images":[{"name":"T_Ranger_Normal","mimeType":"image/webp","uri":"../../../../textures/6ca81b065b8c757c.webp"},{"name":"T_Ranger_BaseColor","mimeType":"image/webp","uri":"../../../../textures/96642ddc9a7744bc.webp"},{"name":"T_Ranger_ORM","mimeType":"image/webp","uri":"../../../../textures/cb05c603a78604d5.webp"},{"name":"T_Regular_Male_Normal","mimeType":"image/webp","uri":"../../../../textures/81cc120d230e9961.webp"},{"name":"T_Regular_Male_Dark_BaseColor","mimeType":"image/webp","uri":"../../../../textures/de0c1867f17f4c8d.webp"},{"name":"T_Regular_Male_Roughness","mimeType":"image/webp","uri":"../../../../textures/190a20fe97e17ee4.webp"}],"buffers":[{"uri":"Male_Ranger.bin","byteLength":394852},{"byteLength":960092,"extensions":{"EXT_meshopt_compression":{"fallback":true}}}],"materials":[{"name":"MI_Ranger","doubleSided":true,"pbrMetallicRoughness":{"baseColorTexture":{"index":0},"metallicRoughnessTexture":{"index":2}},"normalTexture":{"index":1}},{"name":"MI_Regular_Male","doubleSided":true,"pbrMetallicRoughness":{"metallicFactor":0,"baseColorTexture":{"index":3},"metallicRoughnessTexture":{"index":5}},"normalTexture":{"index":4}}],"meshes":[{"name":"Male_Ranger_Acc_Pauldron","primitives":[{"attributes":{"JOINTS_0":1,"POSITION":26,"NORMAL":27,"TEXCOORD_0":28,"WEIGHTS_0":29},"mode":4,"material":0,"indices":0}]},{"name":"Male_Ranger_Arms","primitives":[{"attributes":{"COLOR_0":3,"JOINTS_0":4,"POSITION":31,"NORMAL":32,"TEXCOORD_0":33,"WEIGHTS_0":34},"mode":4,"material":0,"indices":2},{"attributes":{"COLOR_0":6,"JOINTS_0":7,"POSITION":35,"NORMAL":36,"TEXCOORD_0":37,"WEIGHTS_0":38},"mode":4,"material":1,"indices":5}]},{"name":"Male_Ranger_Arms_Bracer","primitives":[{"attributes":{"COLOR_0":9,"JOINTS_0":10,"POSITION":40,"NORMAL":41,"TEXCOORD_0":42,"WEIGHTS_0":43},"mode":4,"material":0,"indices":8}]},{"name":"Male_Ranger_Body","primitives":[{"attributes":{"COLOR_0":12,"JOINTS_0":13,"POSITION":45,"NORMAL":46,"TEXCOORD_0":47,"WEIGHTS_0":48},"mode":4,"material":0,"indices":11}]},{"name":"Male_Ranger_Body_Belt_1","primitives":[{"attributes":{"JOINTS_0":15,"POSITION":50,"NORMAL":51,"TEXCOORD_0":52,"WEIGHTS_0":53},"mode":4,"material":0,"indices":14}]},{"name":"Male_Ranger_Body_Belt_1.001","primitives":[{"attributes":{"NORMAL":55,"JOINTS_0":15,"POSITION":50,"TEXCOORD_0":52,"WEIGHTS_0":53},"mode":4,"material":0,"indices":14}]},{"name":"Male_Ranger_Feet_Boots","primitives":[{"attributes":{"COLOR_0":17,"JOINTS_0":18,"POSITION":57,"NORMAL":58,"TEXCOORD_0":59,"WEIGHTS_0":60},"mode":4,"material":0,"indices":16}]},{"name":"Male_Ranger_Head_Hood","primitives":[{"attributes":{"COLOR_0":20,"JOINTS_0":21,"POSITION":62,"NORMAL":63,"TEXCOORD_0":64,"WEIGHTS_0":65},"mode":4,"material":0,"indices":19}]},{"name":"Male_Ranger_Legs","primitives":[{"attributes":{"COLOR_0":23,"JOINTS_0":24,"POSITION":67,"NORMAL":68,"TEXCOORD_0":69,"WEIGHTS_0":70},"mode":4,"material":0,"indices":22}]}],"nodes":[{"name":"Head","translation":[0,0.08285234868526459,9.313225746154785e-9],"rotation":[-0.13207007944583893,0,0,0.991240382194519]},{"name":"neck_01","translation":[0,0.21509313583374023,1.862645149230957e-8],"rotation":[0.25725916028022766,0,0,0.9663424491882324],"children":[0]},{"name":"index_04_leaf_l","translation":[1.9281287677586079e-10,0.02411014772951603,1.6830044557991641e-7],"rotation":[-4.656613761255812e-9,-1,-1.8664633572962157e-15,0.000003651776296464959]},{"name":"index_03_l","translation":[-1.6689227777533233e-9,0.027911463752388954,1.6598225727193494e-7],"rotation":[-1.348770428677426e-9,3.689715200039245e-12,-0.00018570991232991219,1],"children":[2]},{"name":"index_02_l","translation":[-3.374225343577564e-10,0.0326123908162117,1.3817563626616902e-7],"rotation":[-1.721623910100334e-8,-3.9419649766614384e-8,-0.0005329284467734396,0.9999998807907104],"children":[3]},{"name":"index_01_l","translation":[0.009400011971592903,0.11500009149312973,0.03249999135732651],"rotation":[-0.009757923893630505,0.7070369124412537,-0.0097578726708889,0.7070420384407043],"children":[4]},{"name":"middle_04_leaf_l","translation":[5.168658390175551e-9,0.030519818887114525,2.3142732175074343e-8],"rotation":[2.421438694000244e-8,-1,-9.97962698806934e-14,0.00000365177675121231]},{"name":"middle_03_l","translation":[3.3051037462428212e-9,0.03011666052043438,1.2451241104827204e-7],"rotation":[-1.0311108411542591e-8,2.617175920427428e-11,-0.001419748761691153,0.9999989867210388],"children":[6]},{"name":"middle_02_l","translation":[1.090484147425741e-9,0.03752619028091431,1.5301162648029276e-7],"rotation":[1.5643285777855453e-8,-3.913748614081669e-8,0.0020527271553874016,0.9999979138374329],"children":[7]},{"name":"middle_01_l","translation":[0.0069999718107283115,0.11260004341602325,0.0069999960251152515],"rotation":[-0.013192507438361645,0.7069811820983887,-0.013192412443459034,0.7069862484931946],"children":[8]},{"name":"pinky_04_leaf_l","translation":[1.033640728564933e-8,0.021523205563426018,-2.814113031490706e-7],"rotation":[-2.2351745343485163e-8,-1,1.2562023090582214e-13,0.000003651776296464959]},{"name":"pinky_03_l","translation":[2.8849171940237284e-9,0.02743077464401722,-3.729670083885139e-8],"rotation":[3.383408886392658e-9,-9.627411715062983e-12,0.0004658793332055211,0.9999998807907104],"children":[10]},{"name":"pinky_02_l","translation":[-1.0922121873591095e-8,0.031630996614694595,7.067205842758995e-8],"rotation":[-1.035459185061427e-8,-3.897551081877282e-8,-0.0015674028545618057,0.9999988079071045],"children":[11]},{"name":"pinky_01_l","translation":[0.009000067599117756,0.0951000526547432,-0.042500000447034836],"rotation":[-0.015652360394597054,0.706930935382843,-0.01565224677324295,0.7069361209869385],"children":[12]},{"name":"ring_04_leaf_l","translation":[-3.835339157376438e-9,0.029101530089974403,3.391749459069615e-8],"rotation":[1.1641533959050321e-8,-1,-4.1919619902033856e-14,0.000003651776296464959]},{"name":"ring_03_l","translation":[-8.026290743146092e-9,0.028300149366259575,1.1107826480838412e-7],"rotation":[-2.4604773329883756e-8,6.235185284753086e-11,-0.003387601813301444,0.9999942779541016],"children":[14]},{"name":"ring_02_l","translation":[-5.185938789509237e-9,0.0360012948513031,1.464196230926973e-7],"rotation":[1.7517091777108362e-8,-3.9449915334444086e-8,0.0023997032549232244,0.9999971389770508],"children":[15]},{"name":"ring_01_l","translation":[0.00730002298951149,0.10620005428791046,-0.020400000736117363],"rotation":[-0.0029462252277880907,0.7070980072021484,-0.0029462038073688745,0.7071032524108887],"children":[16]},{"name":"thumb_04_leaf_l","translation":[-1.0710209608078003e-7,0.03459959849715233,6.51925802230835e-9],"rotation":[2.2672955068969713e-8,0.4282083213329315,-1.3036950008427084e-7,0.9036800265312195]},{"name":"thumb_03_l","translation":[3.5608536563813686e-8,0.03922773152589798,-5.168840289115906e-8],"rotation":[-0.0003726967261172831,0.000026525931389187463,0.00011462579277576879,0.9999999403953552],"children":[18]},{"name":"thumb_02_l","translation":[-1.83063093572855e-7,0.039565373212099075,5.587935447692871e-9],"rotation":[0.0008555729873478413,0.000034565124224172905,-0.0004891895223408937,0.9999995231628418],"children":[19]},{"name":"thumb_01_l","translation":[0.021399976685643196,0.027700087055563927,0.02740001305937767],"rotation":[0.30099350214004517,0.9291350841522217,0.21020177006721497,0.04388770833611488],"children":[20]},{"name":"hand_l","translation":[8.156474962106586e-8,0.24042010307312012,-3.2514435588382185e-9],"rotation":[-0.015807554125785828,-0.0000011323515991534805,-1.859292275696589e-8,0.9998750686645508],"children":[5,9,13,17,21]},{"name":"lowerarm_l","translation":[-4.025901034765411e-8,0.25111493468284607,-8.731149137020111e-11],"rotation":[0.03093818761408329,0.000042500738345552236,-0.0000012440405043889768,0.9995213150978088],"children":[22]},{"name":"upperarm_l","translation":[-0.009641071781516075,0.1883048117160797,-0.03967198729515076],"rotation":[0.16515187919139862,0.6876330971717834,-0.16469810903072357,0.6875755786895752],"children":[23]},{"name":"clavicle_l","translation":[0.03139999881386757,0.1737176477909088,0.06732845306396484],"rotation":[-0.5359424352645874,-0.3172530233860016,-0.3989512026309967,0.673018753528595],"children":[24]},{"name":"index_04_leaf_r","translation":[-1.9281287677586079e-10,0.02411014772951603,1.6830023241709569e-7],"rotation":[-4.656613761255812e-9,1,-9.069184307350635e-15,0.000003651776296464959]},{"name":"index_03_r","translation":[1.6707417671568692e-9,0.027911463752388954,1.659820298982595e-7],"rotation":[-1.3487808647738575e-9,-3.968936290732472e-12,0.00018570991232991219,1],"children":[26]},{"name":"index_02_r","translation":[-1.2369127944111824e-10,0.032612428069114685,1.5866616820403578e-7],"rotation":[-4.891389959738035e-9,3.925104508084587e-8,0.0005329284467734396,0.9999998807907104],"children":[27]},{"name":"index_01_r","translation":[-0.00940000731498003,0.11500009149312973,0.032499995082616806],"rotation":[-0.00975793320685625,-0.7070369720458984,0.009757863357663155,0.7070419788360596],"children":[28]},{"name":"middle_04_leaf_r","translation":[-5.168658390175551e-9,0.030519818887114525,2.3141225824474532e-8],"rotation":[2.421438694000244e-8,1,8.419702652098793e-14,0.00000365177675121231]},{"name":"middle_03_r","translation":[-3.306013240944594e-9,0.03011666052043438,1.2451081943254394e-7],"rotation":[-1.0311155484998835e-8,-2.69988770923435e-11,0.001419748761691153,0.9999989867210388],"children":[30]},{"name":"middle_02_r","translation":[-1.2823875294998288e-9,0.03752618655562401,1.4930063230167434e-7],"rotation":[1.3419549915738571e-8,3.920036917293146e-8,-0.0020527271553874016,0.9999979138374329],"children":[31]},{"name":"middle_01_r","translation":[-0.006999965291470289,0.11260004341602325,0.0069999974220991135],"rotation":[-0.013192505575716496,-0.7069811820983887,0.013192412443459034,0.7069862484931946],"children":[32]},{"name":"pinky_04_leaf_r","translation":[-1.0335497790947556e-8,0.02152320370078087,-2.814119568483875e-7],"rotation":[-2.2351745343485163e-8,1,-9.381222605383058e-14,0.000003651776296464959]},{"name":"pinky_03_r","translation":[-2.8858266887255013e-9,0.02743077091872692,-3.729741138158715e-8],"rotation":[3.383400670742276e-9,9.110491007435773e-12,-0.0004658793332055211,0.9999998807907104],"children":[34]},{"name":"pinky_02_r","translation":[4.2391548049636185e-9,0.03163096681237221,9.059564831659372e-8],"rotation":[1.908002644768203e-9,3.8693851678317515e-8,0.0015674028545618057,0.9999988079071045],"children":[35]},{"name":"pinky_01_r","translation":[-0.009000054560601711,0.0951000526547432,-0.042500000447034836],"rotation":[-0.0156523697078228,-0.7069309949874878,0.015652237460017204,0.7069360613822937],"children":[36]},{"name":"ring_04_leaf_r","translation":[3.835339157376438e-9,0.029101528227329254,3.391586744783126e-8],"rotation":[1.1641533959050321e-8,1,3.932434822109636e-14,0.000003651776296464959]},{"name":"ring_03_r","translation":[8.026290743146092e-9,0.028300149366259575,1.1107695030432296e-7],"rotation":[-2.4604839055086813e-8,-5.959530785526468e-11,0.003387601813301444,0.9999942779541016],"children":[38]},{"name":"ring_02_r","translation":[6.081791070755571e-9,0.0360012948513031,1.4559928729340754e-7],"rotation":[1.7020420628455213e-8,3.94586443519529e-8,-0.0023997037205845118,0.9999971389770508],"children":[39]},{"name":"ring_01_r","translation":[-0.007300012744963169,0.10620005428791046,-0.020400000736117363],"rotation":[-0.002946224994957447,-0.7070980668067932,0.002946204040199518,0.7071031928062439],"children":[40]},{"name":"thumb_04_leaf_r","translation":[1.671724021434784e-7,0.03459971770644188,8.381903171539307e-9],"rotation":[2.2672949739899195e-8,-0.4282083213329315,1.8189894035458565e-7,0.9036800265312195]},{"name":"thumb_03_r","translation":[-1.8476566765457392e-7,0.03922785073518753,-2.2351741790771484e-8],"rotation":[-0.0003726781578734517,-0.00002651103204698302,-0.00011462859401945025,0.9999999403953552],"children":[42]},{"name":"thumb_02_r","translation":[-5.372567102313042e-8,0.03956543654203415,-2.60770320892334e-8],"rotation":[0.000855587946716696,-0.000034503656934248284,0.0004891885910183191,0.9999995231628418],"children":[43]},{"name":"thumb_01_r","translation":[-0.02139997109770775,0.027700087055563927,0.02740001119673252],"rotation":[0.30099350214004517,-0.9291350841522217,-0.21020175516605377,0.04388761147856712],"children":[44]},{"name":"hand_r","translation":[-9.193168182264344e-8,0.24042010307312012,-5.398987923399545e-9],"rotation":[-0.015807554125785828,0.0000012515496337073273,1.8592521300320186e-8,0.9998750686645508],"children":[29,33,37,41,45]},{"name":"lowerarm_r","translation":[4.025901034765411e-8,0.25111493468284607,-8.731149137020111e-11],"rotation":[0.03093818761408329,-0.00004256031024851836,0.0000012421967312548077,0.9995213150978088],"children":[46]},{"name":"upperarm_r","translation":[0.009641071781516075,0.1883048117160797,-0.03967198729515076],"rotation":[0.16515187919139862,-0.6876330971717834,0.16469810903072357,0.6875755786895752],"children":[47]},{"name":"clavicle_r","translation":[-0.03139999881386757,0.1737176477909088,0.06732845306396484],"rotation":[-0.5359424352645874,0.3172530233860016,0.3989512026309967,0.673018753528595],"children":[48]},{"name":"spine_03","translation":[0,0.1331336796283722,0],"rotation":[-0.12418898940086365,0,0,0.9922585487365723],"children":[1,25,49]},{"name":"spine_02","translation":[0,0.10634974390268326,-1.3969838619232178e-9],"rotation":[-0.03958535194396973,0,0,0.9992161989212036],"children":[50]},{"name":"spine_01","translation":[0,0.1280922144651413,-3.259629011154175e-8],"rotation":[-0.09185619652271271,0,0,0.9957723021507263],"children":[51]},{"name":"ball_leaf_l","translation":[-1.328826715329967e-9,0.07889983803033829,-2.1363266711205142e-10]},{"name":"ball_l","translation":[0,0.15907371044158936,-6.51925802230835e-9],"rotation":[-1.0066750988357853e-8,-0.9731196165084839,0.23030038177967072,4.2536413502602954e-8],"children":[53]},{"name":"foot_l","translation":[0,0.4587883949279785,5.587935447692871e-9],"rotation":[-0.5721680521965027,0,0,0.8201364278793335],"children":[54]},{"name":"calf_l","translation":[-7.450580596923828e-9,0.4288000166416168,3.1723175197839737e-9],"rotation":[0.05598893761634827,0,0,0.998431384563446],"children":[55]},{"name":"thigh_l","translation":[0.09059999883174896,0.023176943883299828,0.0004878304898738861],"rotation":[0.9898310303688049,0,0,0.14224845170974731],"children":[56]},{"name":"ball_leaf_r","translation":[-1.328826715329967e-9,0.07889983803033829,-1.1364305052552481e-9]},{"name":"ball_r","translation":[0,0.15907371044158936,-6.51925802230835e-9],"rotation":[-1.0066750988357853e-8,-0.9731196165084839,0.23030038177967072,4.2536413502602954e-8],"children":[58]},{"name":"foot_r","translation":[0,0.4587883949279785,5.587935447692871e-9],"rotation":[-0.5721680521965027,0,0,0.8201364278793335],"children":[59]},{"name":"calf_r","translation":[7.450580596923828e-9,0.4288000166416168,3.1723175197839737e-9],"rotation":[0.05598893761634827,0,0,0.998431384563446],"children":[60]},{"name":"thigh_r","translation":[-0.09059999883174896,0.023176943883299828,0.0004878304898738861],"rotation":[0.9898310303688049,0,0,0.14224845170974731],"children":[61]},{"name":"pelvis","translation":[0,0.042999982833862305,0.9491000175476074],"rotation":[0.8005710244178772,0,0,0.5992379188537598],"children":[52,57,62]},{"name":"root","rotation":[-0.7071067690849304,0,0,0.7071067690849304],"children":[63]},{"name":"Male_Ranger_Acc_Pauldron","mesh":0,"skin":0},{"name":"Male_Ranger_Arms","mesh":1,"skin":1},{"name":"Male_Ranger_Arms_Bracer","mesh":2,"skin":2},{"name":"Male_Ranger_Body","mesh":3,"skin":3},{"name":"Male_Ranger_Body_Belt_1","mesh":4,"skin":4},{"name":"Male_Ranger_Body_Belt_2","mesh":5,"skin":5},{"name":"Male_Ranger_Feet_Boots","mesh":6,"skin":6},{"name":"Male_Ranger_Head_Hood","mesh":7,"skin":7},{"name":"Male_Ranger_Legs","mesh":8,"skin":8},{"name":"Armature","children":[65,66,67,68,69,70,71,72,73,64]},{"name":"pack_root","children":[74]}],"skins":[{"name":"Armature","inverseBindMatrices":25,"joints":[64,63,52,51,50,1,0,25,24,23,22,5,4,3,2,9,8,7,6,13,12,11,10,17,16,15,14,21,20,19,18,49,48,47,46,29,28,27,26,33,32,31,30,37,36,35,34,41,40,39,38,45,44,43,42,57,56,55,54,53,62,61,60,59,58]},{"name":"Armature","inverseBindMatrices":30,"joints":[64,63,52,51,50,1,0,25,24,23,22,5,4,3,2,9,8,7,6,13,12,11,10,17,16,15,14,21,20,19,18,49,48,47,46,29,28,27,26,33,32,31,30,37,36,35,34,41,40,39,38,45,44,43,42,57,56,55,54,53,62,61,60,59,58]},{"name":"Armature","inverseBindMatrices":39,"joints":[64,63,52,51,50,1,0,25,24,23,22,5,4,3,2,9,8,7,6,13,12,11,10,17,16,15,14,21,20,19,18,49,48,47,46,29,28,27,26,33,32,31,30,37,36,35,34,41,40,39,38,45,44,43,42,57,56,55,54,53,62,61,60,59,58]},{"name":"Armature","inverseBindMatrices":44,"joints":[64,63,52,51,50,1,0,25,24,23,22,5,4,3,2,9,8,7,6,13,12,11,10,17,16,15,14,21,20,19,18,49,48,47,46,29,28,27,26,33,32,31,30,37,36,35,34,41,40,39,38,45,44,43,42,57,56,55,54,53,62,61,60,59,58]},{"name":"Armature","inverseBindMatrices":49,"joints":[64,63,52,51,50,1,0,25,24,23,22,5,4,3,2,9,8,7,6,13,12,11,10,17,16,15,14,21,20,19,18,49,48,47,46,29,28,27,26,33,32,31,30,37,36,35,34,41,40,39,38,45,44,43,42,57,56,55,54,53,62,61,60,59,58]},{"name":"Armature","inverseBindMatrices":54,"joints":[64,63,52,51,50,1,0,25,24,23,22,5,4,3,2,9,8,7,6,13,12,11,10,17,16,15,14,21,20,19,18,49,48,47,46,29,28,27,26,33,32,31,30,37,36,35,34,41,40,39,38,45,44,43,42,57,56,55,54,53,62,61,60,59,58]},{"name":"Armature","inverseBindMatrices":56,"joints":[64,63,52,51,50,1,0,25,24,23,22,5,4,3,2,9,8,7,6,13,12,11,10,17,16,15,14,21,20,19,18,49,48,47,46,29,28,27,26,33,32,31,30,37,36,35,34,41,40,39,38,45,44,43,42,57,56,55,54,53,62,61,60,59,58]},{"name":"Armature","inverseBindMatrices":61,"joints":[64,63,52,51,50,1,0,25,24,23,22,5,4,3,2,9,8,7,6,13,12,11,10,17,16,15,14,21,20,19,18,49,48,47,46,29,28,27,26,33,32,31,30,37,36,35,34,41,40,39,38,45,44,43,42,57,56,55,54,53,62,61,60,59,58]},{"name":"Armature","inverseBindMatrices":66,"joints":[64,63,52,51,50,1,0,25,24,23,22,5,4,3,2,9,8,7,6,13,12,11,10,17,16,15,14,21,20,19,18,49,48,47,46,29,28,27,26,33,32,31,30,37,36,35,34,41,40,39,38,45,44,43,42,57,56,55,54,53,62,61,60,59,58]}],"scenes":[{"name":"Scene","nodes":[75]}],"scene":0,"extensionsUsed":["EXT_meshopt_compression","EXT_texture_webp","KHR_mesh_quantization"],"extensionsRequired":["EXT_meshopt_compression","EXT_texture_webp","KHR_mesh_quantization"]}