{"asset":{"generator":"glTF-Transform v4.5.1","version":"2.0"},"accessors":[{"type":"SCALAR","componentType":5123,"count":72,"normalized":false,"byteOffset":0,"bufferView":0},{"type":"VEC3","componentType":5122,"count":36,"max":[3640,32767,4020],"min":[-3640,-32767,-4020],"normalized":true,"byteOffset":0,"bufferView":1},{"type":"VEC3","componentType":5122,"count":36,"normalized":true,"byteOffset":0,"bufferView":2},{"type":"VEC2","componentType":5123,"count":36,"normalized":true,"byteOffset":0,"bufferView":3}],"bufferViews":[{"buffer":1,"byteOffset":0,"byteLength":144,"target":34963,"extensions":{"EXT_meshopt_compression":{"buffer":0,"byteOffset":0,"byteLength":41,"mode":"TRIANGLES","byteStride":2,"count":72}}},{"buffer":1,"byteOffset":144,"byteLength":288,"target":34962,"byteStride":8,"extensions":{"EXT_meshopt_compression":{"buffer":0,"byteOffset":44,"byteLength":173,"mode":"ATTRIBUTES","byteStride":8,"count":36}}},{"buffer":1,"byteOffset":432,"byteLength":288,"target":34962,"byteStride":8,"extensions":{"EXT_meshopt_compression":{"buffer":0,"byteOffset":220,"byteLength":99,"mode":"ATTRIBUTES","byteStride":8,"count":36}}},{"buffer":1,"byteOffset":720,"byteLength":144,"target":34962,"byteStride":4,"extensions":{"EXT_meshopt_compression":{"buffer":0,"byteOffset":320,"byteLength":143,"mode":"ATTRIBUTES","byteStride":4,"count":36}}}],"samplers":[{"magFilter":9729,"minFilter":9987,"wrapS":10497,"wrapT":10497}],"textures":[{"sampler":0,"extensions":{"EXT_texture_webp":{"source":1}}},{"sampler":0,"extensions":{"EXT_texture_webp":{"source":0}}},{"sampler":0,"extensions":{"EXT_texture_webp":{"source":2}}}],"images":[{"name":"T_WoodTrim_Normal","mimeType":"image/webp","uri":"../../textures/f21ba25246cb568d.webp"},{"name":"T_WoodTrim_BaseColor","mimeType":"image/webp","uri":"../../textures/d90050e8e0b27d52.webp"},{"name":"T_WoodTrim_Roughness","mimeType":"image/webp","uri":"../../textures/210dc9e50bbcd89a.webp"}],"buffers":[{"uri":"Corner_Interior_Big.bin","byteLength":464},{"byteLength":864,"extensions":{"EXT_meshopt_compression":{"fallback":true}}}],"materials":[{"name":"MI_WoodTrim","doubleSided":true,"pbrMetallicRoughness":{"metallicFactor":0,"baseColorTexture":{"index":0},"metallicRoughnessTexture":{"index":2}},"normalTexture":{"index":1}}],"meshes":[{"name":"Cube.087","primitives":[{"attributes":{"POSITION":1,"NORMAL":2,"TEXCOORD_0":3},"mode":4,"material":0,"indices":0}]}],"nodes":[{"name":"Corner_Interior_Big","translation":[0.1573073398321867,1.4999998211860657,-0.13982888124883175],"scale":[1.4999999403953552,1.4999999403953552,1.4999999403953552],"mesh":0},{"name":"pack_root","children":[0]}],"scenes":[{"name":"Scene","nodes":[1]}],"scene":0,"extensionsUsed":["EXT_meshopt_compression","EXT_texture_webp","KHR_mesh_quantization"],"extensionsRequired":["EXT_meshopt_compression","EXT_texture_webp","KHR_mesh_quantization"]}