{"asset":{"generator":"glTF-Transform v4.5.1","version":"2.0"},"accessors":[{"type":"SCALAR","componentType":5123,"count":1680,"normalized":false,"byteOffset":0,"bufferView":0},{"type":"VEC2","componentType":5126,"count":754,"normalized":false,"byteOffset":0,"bufferView":1},{"type":"SCALAR","componentType":5123,"count":2004,"normalized":false,"byteOffset":3360,"bufferView":0},{"type":"VEC2","componentType":5126,"count":929,"normalized":false,"byteOffset":0,"bufferView":2},{"type":"VEC3","componentType":5122,"count":754,"max":[15725,32767,2208],"min":[-15725,-32767,-1484],"normalized":true,"byteOffset":0,"bufferView":3},{"type":"VEC3","componentType":5122,"count":754,"normalized":true,"byteOffset":0,"bufferView":4},{"type":"VEC3","componentType":5122,"count":929,"max":[13977,30791,2952],"min":[-14409,-30323,-2952],"normalized":true,"byteOffset":0,"bufferView":5},{"type":"VEC3","componentType":5122,"count":929,"normalized":true,"byteOffset":0,"bufferView":6}],"bufferViews":[{"buffer":1,"byteOffset":0,"byteLength":7368,"target":34963,"extensions":{"EXT_meshopt_compression":{"buffer":0,"byteOffset":0,"byteLength":1307,"mode":"TRIANGLES","byteStride":2,"count":3684}}},{"buffer":1,"byteOffset":7368,"byteLength":6032,"target":34962,"byteStride":8,"extensions":{"EXT_meshopt_compression":{"buffer":0,"byteOffset":1308,"byteLength":4459,"mode":"ATTRIBUTES","byteStride":8,"count":754}}},{"buffer":1,"byteOffset":13400,"byteLength":7432,"target":34962,"byteStride":8,"extensions":{"EXT_meshopt_compression":{"buffer":0,"byteOffset":5768,"byteLength":5685,"mode":"ATTRIBUTES","byteStride":8,"count":929}}},{"buffer":1,"byteOffset":20832,"byteLength":6032,"target":34962,"byteStride":8,"extensions":{"EXT_meshopt_compression":{"buffer":0,"byteOffset":11456,"byteLength":3286,"mode":"ATTRIBUTES","byteStride":8,"count":754}}},{"buffer":1,"byteOffset":26864,"byteLength":6032,"target":34962,"byteStride":8,"extensions":{"EXT_meshopt_compression":{"buffer":0,"byteOffset":14744,"byteLength":1349,"mode":"ATTRIBUTES","byteStride":8,"count":754}}},{"buffer":1,"byteOffset":32896,"byteLength":7432,"target":34962,"byteStride":8,"extensions":{"EXT_meshopt_compression":{"buffer":0,"byteOffset":16096,"byteLength":4612,"mode":"ATTRIBUTES","byteStride":8,"count":929}}},{"buffer":1,"byteOffset":40328,"byteLength":7432,"target":34962,"byteStride":8,"extensions":{"EXT_meshopt_compression":{"buffer":0,"byteOffset":20708,"byteLength":3104,"mode":"ATTRIBUTES","byteStride":8,"count":929}}}],"samplers":[{"magFilter":9729,"minFilter":9987,"wrapS":10497,"wrapT":10497}],"textures":[{"sampler":0,"extensions":{"EXT_texture_webp":{"source":1}}},{"sampler":0,"extensions":{"EXT_texture_webp":{"source":0}}},{"sampler":0,"extensions":{"EXT_texture_webp":{"source":2}}},{"sampler":0,"extensions":{"EXT_texture_webp":{"source":3}}},{"sampler":0,"extensions":{"EXT_texture_webp":{"source":4}}}],"images":[{"name":"T_WoodTrim_Normal","mimeType":"image/webp","uri":"../../textures/f21ba25246cb568d.webp"},{"name":"T_WoodTrim_BaseColor","mimeType":"image/webp","uri":"../../textures/d90050e8e0b27d52.webp"},{"name":"T_WoodTrim_Roughness","mimeType":"image/webp","uri":"../../textures/210dc9e50bbcd89a.webp"},{"name":"T_MetalOrnaments_BaseColor","mimeType":"image/webp","uri":"../../textures/feac1ea3ef093b15.webp"},{"name":"T_MetalOrnaments_Roughness","mimeType":"image/webp","uri":"../../textures/8eae494b384ebdc2.webp"}],"buffers":[{"uri":"Door_4_Round.bin","byteLength":23812},{"byteLength":47760,"extensions":{"EXT_meshopt_compression":{"fallback":true}}}],"materials":[{"name":"MI_WoodTrim_Wear","doubleSided":true,"pbrMetallicRoughness":{"metallicFactor":0,"baseColorTexture":{"index":0},"metallicRoughnessTexture":{"index":2}},"normalTexture":{"index":1}},{"name":"MI_MetalOrnaments","doubleSided":true,"pbrMetallicRoughness":{"baseColorTexture":{"index":3},"metallicRoughnessTexture":{"index":4}}}],"meshes":[{"name":"Cube.195","primitives":[{"attributes":{"TEXCOORD_0":1,"POSITION":4,"NORMAL":5},"mode":4,"material":0,"indices":0},{"attributes":{"TEXCOORD_0":3,"POSITION":6,"NORMAL":7},"mode":4,"material":1,"indices":2}]}],"nodes":[{"name":"Door_4_Round","translation":[0.5142482779920101,1.19446861743927,-0.012914516031742096],"scale":[1.1613789796829224,1.1613789796829224,1.1613789796829224],"mesh":0},{"name":"pack_root","children":[0]}],"scenes":[{"name":"Scene","nodes":[1]}],"scene":0,"extensionsUsed":["EXT_meshopt_compression","EXT_texture_webp","KHR_mesh_quantization"],"extensionsRequired":["EXT_meshopt_compression","EXT_texture_webp","KHR_mesh_quantization"]}