{"asset":{"generator":"glTF-Transform v4.5.1","version":"2.0"},"accessors":[{"type":"SCALAR","componentType":5123,"count":1362,"normalized":false,"byteOffset":0,"bufferView":0},{"type":"VEC2","componentType":5126,"count":744,"normalized":false,"byteOffset":0,"bufferView":1},{"type":"SCALAR","componentType":5123,"count":48,"normalized":false,"byteOffset":2724,"bufferView":0},{"type":"VEC3","componentType":5122,"count":744,"max":[15829,32767,1704],"min":[-15829,-32767,-1704],"normalized":true,"byteOffset":0,"bufferView":2},{"type":"VEC3","componentType":5122,"count":744,"normalized":true,"byteOffset":0,"bufferView":3},{"type":"VEC3","componentType":5122,"count":15,"max":[9981,16117,804],"min":[-9953,3380,804],"normalized":true,"byteOffset":0,"bufferView":4},{"type":"VEC3","componentType":5122,"count":15,"normalized":true,"byteOffset":0,"bufferView":5}],"bufferViews":[{"buffer":1,"byteOffset":0,"byteLength":2820,"target":34963,"extensions":{"EXT_meshopt_compression":{"buffer":0,"byteOffset":0,"byteLength":493,"mode":"TRIANGLES","byteStride":2,"count":1410}}},{"buffer":1,"byteOffset":2820,"byteLength":5952,"target":34962,"byteStride":8,"extensions":{"EXT_meshopt_compression":{"buffer":0,"byteOffset":496,"byteLength":4261,"mode":"ATTRIBUTES","byteStride":8,"count":744}}},{"buffer":1,"byteOffset":8772,"byteLength":5952,"target":34962,"byteStride":8,"extensions":{"EXT_meshopt_compression":{"buffer":0,"byteOffset":4760,"byteLength":3069,"mode":"ATTRIBUTES","byteStride":8,"count":744}}},{"buffer":1,"byteOffset":14724,"byteLength":5952,"target":34962,"byteStride":8,"extensions":{"EXT_meshopt_compression":{"buffer":0,"byteOffset":7832,"byteLength":1090,"mode":"ATTRIBUTES","byteStride":8,"count":744}}},{"buffer":1,"byteOffset":20676,"byteLength":120,"target":34962,"byteStride":8,"extensions":{"EXT_meshopt_compression":{"buffer":0,"byteOffset":8924,"byteLength":96,"mode":"ATTRIBUTES","byteStride":8,"count":15}}},{"buffer":1,"byteOffset":20796,"byteLength":120,"target":34962,"byteStride":8,"extensions":{"EXT_meshopt_compression":{"buffer":0,"byteOffset":9020,"byteLength":41,"mode":"ATTRIBUTES","byteStride":8,"count":15}}}],"samplers":[{"magFilter":9729,"minFilter":9987,"wrapS":10497,"wrapT":10497}],"textures":[{"sampler":0,"extensions":{"EXT_texture_webp":{"source":1}}},{"sampler":0,"extensions":{"EXT_texture_webp":{"source":0}}},{"sampler":0,"extensions":{"EXT_texture_webp":{"source":2}}}],"images":[{"name":"T_WoodTrim_Normal","mimeType":"image/webp","uri":"../../textures/f21ba25246cb568d.webp"},{"name":"T_WoodTrim_BaseColor","mimeType":"image/webp","uri":"../../textures/d90050e8e0b27d52.webp"},{"name":"T_WoodTrim_Roughness","mimeType":"image/webp","uri":"../../textures/210dc9e50bbcd89a.webp"}],"buffers":[{"uri":"Door_1_Round.bin","byteLength":9064},{"byteLength":20916,"extensions":{"EXT_meshopt_compression":{"fallback":true}}}],"materials":[{"name":"MI_WoodTrim","doubleSided":true,"pbrMetallicRoughness":{"metallicFactor":0,"baseColorTexture":{"index":0},"metallicRoughnessTexture":{"index":2}},"normalTexture":{"index":1}},{"name":"MI_WindowGlass","alphaMode":"BLEND","doubleSided":true,"pbrMetallicRoughness":{"baseColorFactor":[0.800000011920929,0.800000011920929,0.800000011920929,0.09545451402664185],"roughnessFactor":0.8,"metallicFactor":0}}],"meshes":[{"name":"Cube.235","primitives":[{"attributes":{"TEXCOORD_0":1,"POSITION":3,"NORMAL":4},"mode":4,"material":0,"indices":0},{"attributes":{"POSITION":5,"NORMAL":6},"mode":4,"material":1,"indices":2}]}],"nodes":[{"name":"Door_1_Round","translation":[0.5137433372437954,1.192207932472229,0.0027925800532102585],"scale":[1.1591182947158813,1.1591182947158813,1.1591182947158813],"mesh":0},{"name":"pack_root","children":[0]}],"scenes":[{"name":"Scene","nodes":[1]}],"scene":0,"extensionsUsed":["EXT_meshopt_compression","EXT_texture_webp","KHR_mesh_quantization"],"extensionsRequired":["EXT_meshopt_compression","EXT_texture_webp","KHR_mesh_quantization"]}