{"asset":{"generator":"glTF-Transform v4.5.1","version":"2.0"},"accessors":[{"type":"SCALAR","componentType":5123,"count":1464,"normalized":false,"byteOffset":0,"bufferView":0},{"type":"VEC2","componentType":5126,"count":792,"normalized":false,"byteOffset":0,"bufferView":1},{"type":"SCALAR","componentType":5123,"count":1962,"normalized":false,"byteOffset":2928,"bufferView":0},{"type":"VEC3","componentType":5122,"count":792,"max":[16237,32767,1848],"min":[-16237,-32767,-1400],"normalized":true,"byteOffset":0,"bufferView":2},{"type":"VEC3","componentType":5122,"count":792,"normalized":true,"byteOffset":0,"bufferView":3},{"type":"VEC3","componentType":5122,"count":703,"max":[14189,1556,2812],"min":[-13669,-31695,-2812],"normalized":true,"byteOffset":0,"bufferView":4},{"type":"VEC3","componentType":5122,"count":703,"normalized":true,"byteOffset":0,"bufferView":5},{"type":"VEC2","componentType":5123,"count":703,"normalized":true,"byteOffset":0,"bufferView":6}],"bufferViews":[{"buffer":1,"byteOffset":0,"byteLength":6852,"target":34963,"extensions":{"EXT_meshopt_compression":{"buffer":0,"byteOffset":0,"byteLength":1194,"mode":"TRIANGLES","byteStride":2,"count":3426}}},{"buffer":1,"byteOffset":6852,"byteLength":6336,"target":34962,"byteStride":8,"extensions":{"EXT_meshopt_compression":{"buffer":0,"byteOffset":1196,"byteLength":4598,"mode":"ATTRIBUTES","byteStride":8,"count":792}}},{"buffer":1,"byteOffset":13188,"byteLength":6336,"target":34962,"byteStride":8,"extensions":{"EXT_meshopt_compression":{"buffer":0,"byteOffset":5796,"byteLength":3540,"mode":"ATTRIBUTES","byteStride":8,"count":792}}},{"buffer":1,"byteOffset":19524,"byteLength":6336,"target":34962,"byteStride":8,"extensions":{"EXT_meshopt_compression":{"buffer":0,"byteOffset":9336,"byteLength":1534,"mode":"ATTRIBUTES","byteStride":8,"count":792}}},{"buffer":1,"byteOffset":25860,"byteLength":5624,"target":34962,"byteStride":8,"extensions":{"EXT_meshopt_compression":{"buffer":0,"byteOffset":10872,"byteLength":3142,"mode":"ATTRIBUTES","byteStride":8,"count":703}}},{"buffer":1,"byteOffset":31484,"byteLength":5624,"target":34962,"byteStride":8,"extensions":{"EXT_meshopt_compression":{"buffer":0,"byteOffset":14016,"byteLength":3069,"mode":"ATTRIBUTES","byteStride":8,"count":703}}},{"buffer":1,"byteOffset":37108,"byteLength":2812,"target":34962,"byteStride":4,"extensions":{"EXT_meshopt_compression":{"buffer":0,"byteOffset":17088,"byteLength":2339,"mode":"ATTRIBUTES","byteStride":4,"count":703}}}],"samplers":[{"magFilter":9729,"minFilter":9987,"wrapS":10497,"wrapT":10497}],"textures":[{"sampler":0,"extensions":{"EXT_texture_webp":{"source":1}}},{"sampler":0,"extensions":{"EXT_texture_webp":{"source":0}}},{"sampler":0,"extensions":{"EXT_texture_webp":{"source":2}}},{"sampler":0,"extensions":{"EXT_texture_webp":{"source":3}}},{"sampler":0,"extensions":{"EXT_texture_webp":{"source":4}}}],"images":[{"name":"T_WoodTrim_Normal","mimeType":"image/webp","uri":"../../textures/f21ba25246cb568d.webp"},{"name":"T_WoodTrim_BaseColor","mimeType":"image/webp","uri":"../../textures/d90050e8e0b27d52.webp"},{"name":"T_WoodTrim_Roughness","mimeType":"image/webp","uri":"../../textures/210dc9e50bbcd89a.webp"},{"name":"T_MetalOrnaments_BaseColor","mimeType":"image/webp","uri":"../../textures/feac1ea3ef093b15.webp"},{"name":"T_MetalOrnaments_Roughness","mimeType":"image/webp","uri":"../../textures/8eae494b384ebdc2.webp"}],"buffers":[{"uri":"Door_8_Round.bin","byteLength":19428},{"byteLength":39920,"extensions":{"EXT_meshopt_compression":{"fallback":true}}}],"materials":[{"name":"MI_WoodTrim_Wear","doubleSided":true,"pbrMetallicRoughness":{"metallicFactor":0,"baseColorTexture":{"index":0},"metallicRoughnessTexture":{"index":2}},"normalTexture":{"index":1}},{"name":"MI_MetalOrnaments","doubleSided":true,"pbrMetallicRoughness":{"baseColorTexture":{"index":3},"metallicRoughnessTexture":{"index":4}}}],"meshes":[{"name":"Cube.250","primitives":[{"attributes":{"TEXCOORD_0":1,"POSITION":3,"NORMAL":4},"mode":4,"material":0,"indices":0},{"attributes":{"POSITION":5,"NORMAL":6,"TEXCOORD_0":7},"mode":4,"material":1,"indices":2}]}],"nodes":[{"name":"Door_8_Round","translation":[0.5126253478229046,1.195105791091919,-0.007973499596118927],"scale":[1.1620161533355713,1.1620161533355713,1.1620161533355713],"mesh":0},{"name":"pack_root","children":[0]}],"scenes":[{"name":"Scene","nodes":[1]}],"scene":0,"extensionsUsed":["EXT_meshopt_compression","EXT_texture_webp","KHR_mesh_quantization"],"extensionsRequired":["EXT_meshopt_compression","EXT_texture_webp","KHR_mesh_quantization"]}