{"asset":{"generator":"glTF-Transform v4.5.1","version":"2.0"},"accessors":[{"type":"SCALAR","componentType":5123,"count":96,"normalized":false,"byteOffset":0,"bufferView":0},{"type":"VEC2","componentType":5126,"count":64,"normalized":false,"byteOffset":0,"bufferView":1},{"type":"VEC3","componentType":5122,"count":64,"max":[32767,328,32767],"min":[-32767,-328,-32767],"normalized":true,"byteOffset":0,"bufferView":2},{"type":"VEC3","componentType":5122,"count":64,"normalized":true,"byteOffset":0,"bufferView":3}],"bufferViews":[{"buffer":1,"byteOffset":0,"byteLength":192,"target":34963,"extensions":{"EXT_meshopt_compression":{"buffer":0,"byteOffset":0,"byteLength":49,"mode":"TRIANGLES","byteStride":2,"count":96}}},{"buffer":1,"byteOffset":192,"byteLength":512,"target":34962,"byteStride":8,"extensions":{"EXT_meshopt_compression":{"buffer":0,"byteOffset":52,"byteLength":399,"mode":"ATTRIBUTES","byteStride":8,"count":64}}},{"buffer":1,"byteOffset":704,"byteLength":512,"target":34962,"byteStride":8,"extensions":{"EXT_meshopt_compression":{"buffer":0,"byteOffset":452,"byteLength":153,"mode":"ATTRIBUTES","byteStride":8,"count":64}}},{"buffer":1,"byteOffset":1216,"byteLength":512,"target":34962,"byteStride":8,"extensions":{"EXT_meshopt_compression":{"buffer":0,"byteOffset":608,"byteLength":50,"mode":"ATTRIBUTES","byteStride":8,"count":64}}}],"samplers":[{"magFilter":9729,"minFilter":9987,"wrapS":10497,"wrapT":10497}],"textures":[{"sampler":0,"extensions":{"EXT_texture_webp":{"source":1}}},{"sampler":0,"extensions":{"EXT_texture_webp":{"source":0}}},{"sampler":0,"extensions":{"EXT_texture_webp":{"source":2}}}],"images":[{"name":"T_WoodTrim_Normal","mimeType":"image/webp","uri":"../../textures/f21ba25246cb568d.webp"},{"name":"T_WoodTrim_BaseColor","mimeType":"image/webp","uri":"../../textures/d90050e8e0b27d52.webp"},{"name":"T_WoodTrim_Roughness","mimeType":"image/webp","uri":"../../textures/210dc9e50bbcd89a.webp"}],"buffers":[{"uri":"Floor_WoodLight.bin","byteLength":660},{"byteLength":1728,"extensions":{"EXT_meshopt_compression":{"fallback":true}}}],"materials":[{"name":"MI_WoodTrim","doubleSided":true,"pbrMetallicRoughness":{"metallicFactor":0,"baseColorTexture":{"index":0},"metallicRoughnessTexture":{"index":2}},"normalTexture":{"index":1}}],"meshes":[{"name":"Plane.024","primitives":[{"attributes":{"TEXCOORD_0":1,"POSITION":2,"NORMAL":3},"mode":4,"material":0,"indices":0}]}],"nodes":[{"name":"Floor_WoodLight","mesh":0},{"name":"pack_root","children":[0]}],"scenes":[{"name":"Scene","nodes":[1]}],"scene":0,"extensionsUsed":["EXT_meshopt_compression","EXT_texture_webp","KHR_mesh_quantization"],"extensionsRequired":["EXT_meshopt_compression","EXT_texture_webp","KHR_mesh_quantization"]}