{"asset":{"generator":"glTF-Transform v4.5.1","version":"2.0"},"accessors":[{"type":"SCALAR","componentType":5123,"count":1830,"normalized":false,"byteOffset":0,"bufferView":0},{"type":"SCALAR","componentType":5123,"count":24,"normalized":false,"byteOffset":3660,"bufferView":0},{"type":"VEC2","componentType":5126,"count":16,"normalized":false,"byteOffset":0,"bufferView":1},{"type":"VEC3","componentType":5122,"count":508,"max":[9597,32767,9761],"min":[-8753,25795,-8897],"normalized":true,"byteOffset":0,"bufferView":2},{"type":"VEC3","componentType":5122,"count":508,"normalized":true,"byteOffset":0,"bufferView":3},{"type":"VEC2","componentType":5123,"count":508,"normalized":true,"byteOffset":0,"bufferView":4},{"type":"VEC3","componentType":5122,"count":16,"max":[9753,29099,10313],"min":[-9753,-32767,-10313],"normalized":true,"byteOffset":0,"bufferView":5},{"type":"VEC3","componentType":5122,"count":16,"normalized":true,"byteOffset":0,"bufferView":6}],"bufferViews":[{"buffer":1,"byteOffset":0,"byteLength":3708,"target":34963,"extensions":{"EXT_meshopt_compression":{"buffer":0,"byteOffset":0,"byteLength":659,"mode":"TRIANGLES","byteStride":2,"count":1854}}},{"buffer":1,"byteOffset":3708,"byteLength":128,"target":34962,"byteStride":8,"extensions":{"EXT_meshopt_compression":{"buffer":0,"byteOffset":660,"byteLength":139,"mode":"ATTRIBUTES","byteStride":8,"count":16}}},{"buffer":1,"byteOffset":3836,"byteLength":4064,"target":34962,"byteStride":8,"extensions":{"EXT_meshopt_compression":{"buffer":0,"byteOffset":800,"byteLength":2666,"mode":"ATTRIBUTES","byteStride":8,"count":508}}},{"buffer":1,"byteOffset":7900,"byteLength":4064,"target":34962,"byteStride":8,"extensions":{"EXT_meshopt_compression":{"buffer":0,"byteOffset":3468,"byteLength":3148,"mode":"ATTRIBUTES","byteStride":8,"count":508}}},{"buffer":1,"byteOffset":11964,"byteLength":2032,"target":34962,"byteStride":4,"extensions":{"EXT_meshopt_compression":{"buffer":0,"byteOffset":6616,"byteLength":1956,"mode":"ATTRIBUTES","byteStride":4,"count":508}}},{"buffer":1,"byteOffset":13996,"byteLength":128,"target":34962,"byteStride":8,"extensions":{"EXT_meshopt_compression":{"buffer":0,"byteOffset":8572,"byteLength":133,"mode":"ATTRIBUTES","byteStride":8,"count":16}}},{"buffer":1,"byteOffset":14124,"byteLength":128,"target":34962,"byteStride":8,"extensions":{"EXT_meshopt_compression":{"buffer":0,"byteOffset":8708,"byteLength":69,"mode":"ATTRIBUTES","byteStride":8,"count":16}}}],"samplers":[{"magFilter":9729,"minFilter":9987,"wrapS":10497,"wrapT":10497}],"textures":[{"sampler":0,"extensions":{"EXT_texture_webp":{"source":1}}},{"sampler":0,"extensions":{"EXT_texture_webp":{"source":0}}},{"sampler":0,"extensions":{"EXT_texture_webp":{"source":2}}},{"sampler":0,"extensions":{"EXT_texture_webp":{"source":4}}},{"sampler":0,"extensions":{"EXT_texture_webp":{"source":3}}},{"sampler":0,"extensions":{"EXT_texture_webp":{"source":5}}}],"images":[{"name":"T_RockTrim_Normal","mimeType":"image/webp","uri":"../../textures/cec21247e36d1587.webp"},{"name":"T_RockTrim_BaseColor","mimeType":"image/webp","uri":"../../textures/7c5cea1fd71de232.webp"},{"name":"T_RockTrim_ORM","mimeType":"image/webp","uri":"../../textures/a342d525d6f1a0c0.webp"},{"name":"T_Brick_Normal","mimeType":"image/webp","uri":"../../textures/b07f9ca6ba757e1b.webp"},{"name":"T_Brick_BaseColor","mimeType":"image/webp","uri":"../../textures/73ef4941c468fdad.webp"},{"name":"T_Brick_Roughness","mimeType":"image/webp","uri":"../../textures/7bac46a9f1115869.webp"}],"buffers":[{"uri":"Prop_Chimney.bin","byteLength":8780},{"byteLength":14252,"extensions":{"EXT_meshopt_compression":{"fallback":true}}}],"materials":[{"name":"MI_RockTrim","doubleSided":true,"pbrMetallicRoughness":{"baseColorTexture":{"index":0},"metallicRoughnessTexture":{"index":2}},"normalTexture":{"index":1}},{"name":"MI_Brick","doubleSided":true,"pbrMetallicRoughness":{"metallicFactor":0,"baseColorTexture":{"index":3},"metallicRoughnessTexture":{"index":5}},"normalTexture":{"index":4}}],"meshes":[{"name":"Cube.017_Retopology.006","primitives":[{"attributes":{"POSITION":3,"NORMAL":4,"TEXCOORD_0":5},"mode":4,"material":0,"indices":0},{"attributes":{"TEXCOORD_0":2,"POSITION":6,"NORMAL":7},"mode":4,"material":1,"indices":1}]}],"nodes":[{"name":"Prop_Chimney","translation":[-0.02711080014705658,1.588937669992447,0],"scale":[1.5889376103878021,1.5889376103878021,1.5889376103878021],"mesh":0},{"name":"pack_root","children":[0]}],"scenes":[{"name":"Scene","nodes":[1]}],"scene":0,"extensionsUsed":["EXT_meshopt_compression","EXT_texture_webp","KHR_mesh_quantization"],"extensionsRequired":["EXT_meshopt_compression","EXT_texture_webp","KHR_mesh_quantization"]}