{"asset":{"generator":"glTF-Transform v4.5.1","version":"2.0"},"accessors":[{"type":"SCALAR","componentType":5123,"count":390,"normalized":false,"byteOffset":0,"bufferView":0},{"type":"VEC2","componentType":5126,"count":122,"normalized":false,"byteOffset":0,"bufferView":1},{"type":"VEC3","componentType":5122,"count":122,"max":[10329,32767,10793],"min":[-10329,-32767,-10793],"normalized":true,"byteOffset":0,"bufferView":2},{"type":"VEC3","componentType":5122,"count":122,"normalized":true,"byteOffset":0,"bufferView":3}],"bufferViews":[{"buffer":1,"byteOffset":0,"byteLength":780,"target":34963,"extensions":{"EXT_meshopt_compression":{"buffer":0,"byteOffset":0,"byteLength":163,"mode":"TRIANGLES","byteStride":2,"count":390}}},{"buffer":1,"byteOffset":780,"byteLength":976,"target":34962,"byteStride":8,"extensions":{"EXT_meshopt_compression":{"buffer":0,"byteOffset":164,"byteLength":876,"mode":"ATTRIBUTES","byteStride":8,"count":122}}},{"buffer":1,"byteOffset":1756,"byteLength":976,"target":34962,"byteStride":8,"extensions":{"EXT_meshopt_compression":{"buffer":0,"byteOffset":1040,"byteLength":663,"mode":"ATTRIBUTES","byteStride":8,"count":122}}},{"buffer":1,"byteOffset":2732,"byteLength":976,"target":34962,"byteStride":8,"extensions":{"EXT_meshopt_compression":{"buffer":0,"byteOffset":1704,"byteLength":657,"mode":"ATTRIBUTES","byteStride":8,"count":122}}}],"samplers":[{"magFilter":9729,"minFilter":9987,"wrapS":10497,"wrapT":10497}],"textures":[{"sampler":0,"extensions":{"EXT_texture_webp":{"source":1}}},{"sampler":0,"extensions":{"EXT_texture_webp":{"source":0}}},{"sampler":0,"extensions":{"EXT_texture_webp":{"source":2}}}],"images":[{"name":"T_UnevenBrick_Normal","mimeType":"image/webp","uri":"../../textures/801d81eb6cdb0327.webp"},{"name":"T_UnevenBrick_BaseColor","mimeType":"image/webp","uri":"../../textures/a4114563336d6c22.webp"},{"name":"T_UnevenBrick_Roughness","mimeType":"image/webp","uri":"../../textures/19c8bcc4b1cd91bb.webp"}],"buffers":[{"uri":"Prop_Chimney2.bin","byteLength":2364},{"byteLength":3708,"extensions":{"EXT_meshopt_compression":{"fallback":true}}}],"materials":[{"name":"MI_UnevenBrick","doubleSided":true,"pbrMetallicRoughness":{"metallicFactor":0,"baseColorTexture":{"index":0},"metallicRoughnessTexture":{"index":2}},"normalTexture":{"index":1}}],"meshes":[{"name":"Cube.017_Retopology.005","primitives":[{"attributes":{"TEXCOORD_0":1,"POSITION":2,"NORMAL":3},"mode":4,"material":0,"indices":0}]}],"nodes":[{"name":"Prop_Chimney2","translation":[-0.02711080014705658,1.5000000291038305,1.4901161193847656e-8],"scale":[1.4999999708961695,1.4999999708961695,1.4999999708961695],"mesh":0},{"name":"pack_root","children":[0]}],"scenes":[{"name":"Scene","nodes":[1]}],"scene":0,"extensionsUsed":["EXT_meshopt_compression","EXT_texture_webp","KHR_mesh_quantization"],"extensionsRequired":["EXT_meshopt_compression","EXT_texture_webp","KHR_mesh_quantization"]}