{"asset":{"generator":"glTF-Transform v4.5.1","version":"2.0"},"accessors":[{"type":"SCALAR","componentType":5123,"count":5016,"normalized":false,"byteOffset":0,"bufferView":0},{"type":"VEC2","componentType":5126,"count":2331,"normalized":false,"byteOffset":0,"bufferView":1},{"type":"VEC3","componentType":5122,"count":2331,"max":[15889,12453,32767],"min":[-15889,-12453,-32767],"normalized":true,"byteOffset":0,"bufferView":2},{"type":"VEC3","componentType":5122,"count":2331,"normalized":true,"byteOffset":0,"bufferView":3}],"bufferViews":[{"buffer":1,"byteOffset":0,"byteLength":10032,"target":34963,"extensions":{"EXT_meshopt_compression":{"buffer":0,"byteOffset":0,"byteLength":1769,"mode":"TRIANGLES","byteStride":2,"count":5016}}},{"buffer":1,"byteOffset":10032,"byteLength":18648,"target":34962,"byteStride":8,"extensions":{"EXT_meshopt_compression":{"buffer":0,"byteOffset":1772,"byteLength":13318,"mode":"ATTRIBUTES","byteStride":8,"count":2331}}},{"buffer":1,"byteOffset":28680,"byteLength":18648,"target":34962,"byteStride":8,"extensions":{"EXT_meshopt_compression":{"buffer":0,"byteOffset":15092,"byteLength":10911,"mode":"ATTRIBUTES","byteStride":8,"count":2331}}},{"buffer":1,"byteOffset":47328,"byteLength":18648,"target":34962,"byteStride":8,"extensions":{"EXT_meshopt_compression":{"buffer":0,"byteOffset":26004,"byteLength":6534,"mode":"ATTRIBUTES","byteStride":8,"count":2331}}}],"samplers":[{"magFilter":9729,"minFilter":9987,"wrapS":10497,"wrapT":10497}],"textures":[{"sampler":0,"extensions":{"EXT_texture_webp":{"source":1}}},{"sampler":0,"extensions":{"EXT_texture_webp":{"source":0}}},{"sampler":0,"extensions":{"EXT_texture_webp":{"source":2}}}],"images":[{"name":"T_WoodTrim_Normal","mimeType":"image/webp","uri":"../../textures/f21ba25246cb568d.webp"},{"name":"T_WoodTrim_BaseColor","mimeType":"image/webp","uri":"../../textures/d90050e8e0b27d52.webp"},{"name":"T_WoodTrim_Roughness","mimeType":"image/webp","uri":"../../textures/210dc9e50bbcd89a.webp"}],"buffers":[{"uri":"Prop_Wagon.bin","byteLength":32540},{"byteLength":65976,"extensions":{"EXT_meshopt_compression":{"fallback":true}}}],"materials":[{"name":"MI_WoodTrim_Wear","doubleSided":true,"pbrMetallicRoughness":{"metallicFactor":0,"baseColorTexture":{"index":0},"metallicRoughnessTexture":{"index":2}},"normalTexture":{"index":1}}],"meshes":[{"name":"Cube.043","primitives":[{"attributes":{"TEXCOORD_0":1,"POSITION":2,"NORMAL":3},"mode":4,"material":0,"indices":0}]}],"nodes":[{"name":"Prop_Wagon","translation":[-0.003654956817626953,0.7677283901721239,-1.1384238600730896],"scale":[2.012008249759674,2.012008249759674,2.012008249759674],"mesh":0},{"name":"pack_root","children":[0]}],"scenes":[{"name":"Scene","nodes":[1]}],"scene":0,"extensionsUsed":["EXT_meshopt_compression","EXT_texture_webp","KHR_mesh_quantization"],"extensionsRequired":["EXT_meshopt_compression","EXT_texture_webp","KHR_mesh_quantization"]}