{"asset":{"generator":"glTF-Transform v4.5.1","version":"2.0"},"accessors":[{"type":"SCALAR","componentType":5123,"count":720,"normalized":false,"byteOffset":0,"bufferView":0},{"type":"VEC2","componentType":5126,"count":352,"normalized":false,"byteOffset":0,"bufferView":1},{"type":"SCALAR","componentType":5123,"count":36,"normalized":false,"byteOffset":1440,"bufferView":0},{"type":"VEC2","componentType":5126,"count":16,"normalized":false,"byteOffset":0,"bufferView":2},{"type":"VEC3","componentType":5122,"count":352,"max":[32767,18434,8409],"min":[-32767,-22854,-8409],"normalized":true,"byteOffset":0,"bufferView":3},{"type":"VEC3","componentType":5122,"count":352,"normalized":true,"byteOffset":0,"bufferView":4},{"type":"VEC3","componentType":5122,"count":16,"max":[32351,22854,-3420],"min":[-31723,-20602,-7140],"normalized":true,"byteOffset":0,"bufferView":5},{"type":"VEC3","componentType":5122,"count":16,"normalized":true,"byteOffset":0,"bufferView":6}],"bufferViews":[{"buffer":1,"byteOffset":0,"byteLength":1512,"target":34963,"extensions":{"EXT_meshopt_compression":{"buffer":0,"byteOffset":0,"byteLength":274,"mode":"TRIANGLES","byteStride":2,"count":756}}},{"buffer":1,"byteOffset":1512,"byteLength":2816,"target":34962,"byteStride":8,"extensions":{"EXT_meshopt_compression":{"buffer":0,"byteOffset":276,"byteLength":2136,"mode":"ATTRIBUTES","byteStride":8,"count":352}}},{"buffer":1,"byteOffset":4328,"byteLength":128,"target":34962,"byteStride":8,"extensions":{"EXT_meshopt_compression":{"buffer":0,"byteOffset":2412,"byteLength":147,"mode":"ATTRIBUTES","byteStride":8,"count":16}}},{"buffer":1,"byteOffset":4456,"byteLength":2816,"target":34962,"byteStride":8,"extensions":{"EXT_meshopt_compression":{"buffer":0,"byteOffset":2560,"byteLength":1535,"mode":"ATTRIBUTES","byteStride":8,"count":352}}},{"buffer":1,"byteOffset":7272,"byteLength":2816,"target":34962,"byteStride":8,"extensions":{"EXT_meshopt_compression":{"buffer":0,"byteOffset":4096,"byteLength":827,"mode":"ATTRIBUTES","byteStride":8,"count":352}}},{"buffer":1,"byteOffset":10088,"byteLength":128,"target":34962,"byteStride":8,"extensions":{"EXT_meshopt_compression":{"buffer":0,"byteOffset":4924,"byteLength":109,"mode":"ATTRIBUTES","byteStride":8,"count":16}}},{"buffer":1,"byteOffset":10216,"byteLength":128,"target":34962,"byteStride":8,"extensions":{"EXT_meshopt_compression":{"buffer":0,"byteOffset":5036,"byteLength":50,"mode":"ATTRIBUTES","byteStride":8,"count":16}}}],"samplers":[{"magFilter":9729,"minFilter":9987,"wrapS":10497,"wrapT":10497}],"textures":[{"sampler":0,"extensions":{"EXT_texture_webp":{"source":1}}},{"sampler":0,"extensions":{"EXT_texture_webp":{"source":0}}},{"sampler":0,"extensions":{"EXT_texture_webp":{"source":2}}},{"sampler":0,"extensions":{"EXT_texture_webp":{"source":4}}},{"sampler":0,"extensions":{"EXT_texture_webp":{"source":3}}},{"sampler":0,"extensions":{"EXT_texture_webp":{"source":5}}}],"images":[{"name":"T_WoodTrim_Normal","mimeType":"image/webp","uri":"../../textures/f21ba25246cb568d.webp"},{"name":"T_WoodTrim_BaseColor","mimeType":"image/webp","uri":"../../textures/d90050e8e0b27d52.webp"},{"name":"T_WoodTrim_Roughness","mimeType":"image/webp","uri":"../../textures/210dc9e50bbcd89a.webp"},{"name":"T_Plaster_Normal","mimeType":"image/webp","uri":"../../textures/ca638a0fd7dc4e15.webp"},{"name":"T_Plaster_BaseColor","mimeType":"image/webp","uri":"../../textures/1438c572277b3296.webp"},{"name":"T_Plaster_ORM","mimeType":"image/webp","uri":"../../textures/4d519296b29144c2.webp"}],"buffers":[{"uri":"Roof_Front_Brick4.bin","byteLength":5088},{"byteLength":10344,"extensions":{"EXT_meshopt_compression":{"fallback":true}}}],"materials":[{"name":"MI_WoodTrim","doubleSided":true,"pbrMetallicRoughness":{"metallicFactor":0,"baseColorTexture":{"index":0},"metallicRoughnessTexture":{"index":2}},"normalTexture":{"index":1}},{"name":"MI_Plaster","doubleSided":true,"pbrMetallicRoughness":{"baseColorTexture":{"index":3},"metallicRoughnessTexture":{"index":5}},"normalTexture":{"index":4}}],"meshes":[{"name":"Cube.182","primitives":[{"attributes":{"TEXCOORD_0":1,"POSITION":4,"NORMAL":5},"mode":4,"material":0,"indices":0},{"attributes":{"TEXCOORD_0":3,"POSITION":6,"NORMAL":7},"mode":4,"material":1,"indices":2}]}],"nodes":[{"name":"Roof_Front_Brick4","translation":[0.016094326972961426,1.402450330555439,0.22958803176879883],"scale":[2.1999017000198364,2.1999017000198364,2.1999017000198364],"mesh":0},{"name":"pack_root","children":[0]}],"scenes":[{"name":"Scene","nodes":[1]}],"scene":0,"extensionsUsed":["EXT_meshopt_compression","EXT_texture_webp","KHR_mesh_quantization"],"extensionsRequired":["EXT_meshopt_compression","EXT_texture_webp","KHR_mesh_quantization"]}