{"asset":{"generator":"glTF-Transform v4.5.1","version":"2.0"},"accessors":[{"type":"SCALAR","componentType":5123,"count":1056,"normalized":false,"byteOffset":0,"bufferView":0},{"type":"VEC2","componentType":5126,"count":596,"normalized":false,"byteOffset":0,"bufferView":1},{"type":"SCALAR","componentType":5123,"count":36,"normalized":false,"byteOffset":2112,"bufferView":0},{"type":"VEC2","componentType":5126,"count":16,"normalized":false,"byteOffset":0,"bufferView":2},{"type":"VEC3","componentType":5122,"count":596,"max":[32767,20626,4348],"min":[-32767,-20966,-4348],"normalized":true,"byteOffset":0,"bufferView":3},{"type":"VEC3","componentType":5122,"count":596,"normalized":true,"byteOffset":0,"bufferView":4},{"type":"VEC3","componentType":5122,"count":16,"max":[32047,20966,-1768],"min":[-32059,-19806,-3692],"normalized":true,"byteOffset":0,"bufferView":5},{"type":"VEC3","componentType":5122,"count":16,"normalized":true,"byteOffset":0,"bufferView":6}],"bufferViews":[{"buffer":1,"byteOffset":0,"byteLength":2184,"target":34963,"extensions":{"EXT_meshopt_compression":{"buffer":0,"byteOffset":0,"byteLength":386,"mode":"TRIANGLES","byteStride":2,"count":1092}}},{"buffer":1,"byteOffset":2184,"byteLength":4768,"target":34962,"byteStride":8,"extensions":{"EXT_meshopt_compression":{"buffer":0,"byteOffset":388,"byteLength":3619,"mode":"ATTRIBUTES","byteStride":8,"count":596}}},{"buffer":1,"byteOffset":6952,"byteLength":128,"target":34962,"byteStride":8,"extensions":{"EXT_meshopt_compression":{"buffer":0,"byteOffset":4008,"byteLength":143,"mode":"ATTRIBUTES","byteStride":8,"count":16}}},{"buffer":1,"byteOffset":7080,"byteLength":4768,"target":34962,"byteStride":8,"extensions":{"EXT_meshopt_compression":{"buffer":0,"byteOffset":4152,"byteLength":2555,"mode":"ATTRIBUTES","byteStride":8,"count":596}}},{"buffer":1,"byteOffset":11848,"byteLength":4768,"target":34962,"byteStride":8,"extensions":{"EXT_meshopt_compression":{"buffer":0,"byteOffset":6708,"byteLength":1427,"mode":"ATTRIBUTES","byteStride":8,"count":596}}},{"buffer":1,"byteOffset":16616,"byteLength":128,"target":34962,"byteStride":8,"extensions":{"EXT_meshopt_compression":{"buffer":0,"byteOffset":8136,"byteLength":107,"mode":"ATTRIBUTES","byteStride":8,"count":16}}},{"buffer":1,"byteOffset":16744,"byteLength":128,"target":34962,"byteStride":8,"extensions":{"EXT_meshopt_compression":{"buffer":0,"byteOffset":8244,"byteLength":50,"mode":"ATTRIBUTES","byteStride":8,"count":16}}}],"samplers":[{"magFilter":9729,"minFilter":9987,"wrapS":10497,"wrapT":10497}],"textures":[{"sampler":0,"extensions":{"EXT_texture_webp":{"source":1}}},{"sampler":0,"extensions":{"EXT_texture_webp":{"source":0}}},{"sampler":0,"extensions":{"EXT_texture_webp":{"source":2}}},{"sampler":0,"extensions":{"EXT_texture_webp":{"source":4}}},{"sampler":0,"extensions":{"EXT_texture_webp":{"source":3}}},{"sampler":0,"extensions":{"EXT_texture_webp":{"source":5}}}],"images":[{"name":"T_WoodTrim_Normal","mimeType":"image/webp","uri":"../../textures/f21ba25246cb568d.webp"},{"name":"T_WoodTrim_BaseColor","mimeType":"image/webp","uri":"../../textures/d90050e8e0b27d52.webp"},{"name":"T_WoodTrim_Roughness","mimeType":"image/webp","uri":"../../textures/210dc9e50bbcd89a.webp"},{"name":"T_Plaster_Normal","mimeType":"image/webp","uri":"../../textures/ca638a0fd7dc4e15.webp"},{"name":"T_Plaster_BaseColor","mimeType":"image/webp","uri":"../../textures/1438c572277b3296.webp"},{"name":"T_Plaster_ORM","mimeType":"image/webp","uri":"../../textures/4d519296b29144c2.webp"}],"buffers":[{"uri":"Roof_Front_Brick8.bin","byteLength":8296},{"byteLength":16872,"extensions":{"EXT_meshopt_compression":{"fallback":true}}}],"materials":[{"name":"MI_WoodTrim","doubleSided":true,"pbrMetallicRoughness":{"metallicFactor":0,"baseColorTexture":{"index":0},"metallicRoughnessTexture":{"index":2}},"normalTexture":{"index":1}},{"name":"MI_Plaster","doubleSided":true,"pbrMetallicRoughness":{"baseColorTexture":{"index":3},"metallicRoughnessTexture":{"index":5}},"normalTexture":{"index":4}}],"meshes":[{"name":"Cube.166","primitives":[{"attributes":{"TEXCOORD_0":1,"POSITION":4,"NORMAL":5},"mode":4,"material":0,"indices":0},{"attributes":{"TEXCOORD_0":3,"POSITION":6,"NORMAL":7},"mode":4,"material":1,"indices":2}]}],"nodes":[{"name":"Roof_Front_Brick8","translation":[0.0006794929504394531,2.591131918132305,0.22958792746067047],"scale":[4.255397319793701,4.255397319793701,4.255397319793701],"mesh":0},{"name":"pack_root","children":[0]}],"scenes":[{"name":"Scene","nodes":[1]}],"scene":0,"extensionsUsed":["EXT_meshopt_compression","EXT_texture_webp","KHR_mesh_quantization"],"extensionsRequired":["EXT_meshopt_compression","EXT_texture_webp","KHR_mesh_quantization"]}