{"asset":{"generator":"glTF-Transform v4.5.1","version":"2.0"},"accessors":[{"type":"SCALAR","componentType":5123,"count":2712,"normalized":false,"byteOffset":0,"bufferView":0},{"type":"VEC2","componentType":5126,"count":1640,"normalized":false,"byteOffset":0,"bufferView":1},{"type":"SCALAR","componentType":5123,"count":10188,"normalized":false,"byteOffset":5424,"bufferView":0},{"type":"VEC2","componentType":5126,"count":2870,"normalized":false,"byteOffset":0,"bufferView":2},{"type":"VEC3","componentType":5122,"count":1640,"max":[21890,12653,32071],"min":[-21890,-15681,-32387],"normalized":true,"byteOffset":0,"bufferView":3},{"type":"VEC3","componentType":5122,"count":1640,"normalized":true,"byteOffset":0,"bufferView":4},{"type":"VEC3","componentType":5122,"count":2870,"max":[22806,15681,32767],"min":[-22806,-14885,-32767],"normalized":true,"byteOffset":0,"bufferView":5},{"type":"VEC3","componentType":5122,"count":2870,"normalized":true,"byteOffset":0,"bufferView":6}],"bufferViews":[{"buffer":1,"byteOffset":0,"byteLength":25800,"target":34963,"extensions":{"EXT_meshopt_compression":{"buffer":0,"byteOffset":0,"byteLength":4677,"mode":"TRIANGLES","byteStride":2,"count":12900}}},{"buffer":1,"byteOffset":25800,"byteLength":13120,"target":34962,"byteStride":8,"extensions":{"EXT_meshopt_compression":{"buffer":0,"byteOffset":4680,"byteLength":9613,"mode":"ATTRIBUTES","byteStride":8,"count":1640}}},{"buffer":1,"byteOffset":38920,"byteLength":22960,"target":34962,"byteStride":8,"extensions":{"EXT_meshopt_compression":{"buffer":0,"byteOffset":14296,"byteLength":16033,"mode":"ATTRIBUTES","byteStride":8,"count":2870}}},{"buffer":1,"byteOffset":61880,"byteLength":13120,"target":34962,"byteStride":8,"extensions":{"EXT_meshopt_compression":{"buffer":0,"byteOffset":30332,"byteLength":7198,"mode":"ATTRIBUTES","byteStride":8,"count":1640}}},{"buffer":1,"byteOffset":75000,"byteLength":13120,"target":34962,"byteStride":8,"extensions":{"EXT_meshopt_compression":{"buffer":0,"byteOffset":37532,"byteLength":3121,"mode":"ATTRIBUTES","byteStride":8,"count":1640}}},{"buffer":1,"byteOffset":88120,"byteLength":22960,"target":34962,"byteStride":8,"extensions":{"EXT_meshopt_compression":{"buffer":0,"byteOffset":40656,"byteLength":14379,"mode":"ATTRIBUTES","byteStride":8,"count":2870}}},{"buffer":1,"byteOffset":111080,"byteLength":22960,"target":34962,"byteStride":8,"extensions":{"EXT_meshopt_compression":{"buffer":0,"byteOffset":55036,"byteLength":9635,"mode":"ATTRIBUTES","byteStride":8,"count":2870}}}],"samplers":[{"magFilter":9729,"minFilter":9987,"wrapS":10497,"wrapT":10497}],"textures":[{"sampler":0,"extensions":{"EXT_texture_webp":{"source":1}}},{"sampler":0,"extensions":{"EXT_texture_webp":{"source":0}}},{"sampler":0,"extensions":{"EXT_texture_webp":{"source":2}}},{"sampler":0,"extensions":{"EXT_texture_webp":{"source":4}}},{"sampler":0,"extensions":{"EXT_texture_webp":{"source":3}}},{"sampler":0,"extensions":{"EXT_texture_webp":{"source":5}}}],"images":[{"name":"T_WoodTrim_Normal","mimeType":"image/webp","uri":"../../textures/f21ba25246cb568d.webp"},{"name":"T_WoodTrim_BaseColor","mimeType":"image/webp","uri":"../../textures/d90050e8e0b27d52.webp"},{"name":"T_WoodTrim_Roughness","mimeType":"image/webp","uri":"../../textures/210dc9e50bbcd89a.webp"},{"name":"T_RoundTiles_Normal","mimeType":"image/webp","uri":"../../textures/a1f41c8177c1b929.webp"},{"name":"T_RoundTiles_BaseColor","mimeType":"image/webp","uri":"../../textures/ce38f226c2760532.webp"},{"name":"T_RoundTiles_Roughness","mimeType":"image/webp","uri":"../../textures/530344f7ee2c4d44.webp"}],"buffers":[{"uri":"Roof_RoundTiles_6x10.bin","byteLength":64672},{"byteLength":134040,"extensions":{"EXT_meshopt_compression":{"fallback":true}}}],"materials":[{"name":"MI_WoodTrim","doubleSided":true,"pbrMetallicRoughness":{"metallicFactor":0,"baseColorTexture":{"index":0},"metallicRoughnessTexture":{"index":2}},"normalTexture":{"index":1}},{"name":"MI_RoundTiles","doubleSided":true,"pbrMetallicRoughness":{"metallicFactor":0,"baseColorTexture":{"index":3},"metallicRoughnessTexture":{"index":5}},"normalTexture":{"index":4}}],"meshes":[{"name":"Cube.030","primitives":[{"attributes":{"TEXCOORD_0":1,"POSITION":4,"NORMAL":5},"mode":4,"material":0,"indices":0},{"attributes":{"TEXCOORD_0":3,"POSITION":6,"NORMAL":7},"mode":4,"material":1,"indices":2}]}],"nodes":[{"name":"Roof_RoundTiles_6x10","translation":[0,2.0539588928222656,0.028512239456176758],"scale":[5.926093339920044,5.926093339920044,5.926093339920044],"mesh":0},{"name":"pack_root","children":[0]}],"scenes":[{"name":"Scene","nodes":[1]}],"scene":0,"extensionsUsed":["EXT_meshopt_compression","EXT_texture_webp","KHR_mesh_quantization"],"extensionsRequired":["EXT_meshopt_compression","EXT_texture_webp","KHR_mesh_quantization"]}