{"asset":{"generator":"glTF-Transform v4.5.1","version":"2.0"},"accessors":[{"type":"SCALAR","componentType":5123,"count":2712,"normalized":false,"byteOffset":0,"bufferView":0},{"type":"VEC2","componentType":5126,"count":1632,"normalized":false,"byteOffset":0,"bufferView":1},{"type":"SCALAR","componentType":5123,"count":10728,"normalized":false,"byteOffset":5424,"bufferView":0},{"type":"VEC2","componentType":5126,"count":3200,"normalized":false,"byteOffset":0,"bufferView":2},{"type":"VEC3","componentType":5122,"count":1632,"max":[27391,16522,31943],"min":[-27391,-18738,-32767],"normalized":true,"byteOffset":0,"bufferView":3},{"type":"VEC3","componentType":5122,"count":1632,"normalized":true,"byteOffset":0,"bufferView":4},{"type":"VEC3","componentType":5122,"count":3200,"max":[27499,18738,32767],"min":[-27499,-17586,-32727],"normalized":true,"byteOffset":0,"bufferView":5},{"type":"VEC3","componentType":5122,"count":3200,"normalized":true,"byteOffset":0,"bufferView":6}],"bufferViews":[{"buffer":1,"byteOffset":0,"byteLength":26880,"target":34963,"extensions":{"EXT_meshopt_compression":{"buffer":0,"byteOffset":0,"byteLength":4815,"mode":"TRIANGLES","byteStride":2,"count":13440}}},{"buffer":1,"byteOffset":26880,"byteLength":13056,"target":34962,"byteStride":8,"extensions":{"EXT_meshopt_compression":{"buffer":0,"byteOffset":4816,"byteLength":9557,"mode":"ATTRIBUTES","byteStride":8,"count":1632}}},{"buffer":1,"byteOffset":39936,"byteLength":25600,"target":34962,"byteStride":8,"extensions":{"EXT_meshopt_compression":{"buffer":0,"byteOffset":14376,"byteLength":17301,"mode":"ATTRIBUTES","byteStride":8,"count":3200}}},{"buffer":1,"byteOffset":65536,"byteLength":13056,"target":34962,"byteStride":8,"extensions":{"EXT_meshopt_compression":{"buffer":0,"byteOffset":31680,"byteLength":7308,"mode":"ATTRIBUTES","byteStride":8,"count":1632}}},{"buffer":1,"byteOffset":78592,"byteLength":13056,"target":34962,"byteStride":8,"extensions":{"EXT_meshopt_compression":{"buffer":0,"byteOffset":38988,"byteLength":3248,"mode":"ATTRIBUTES","byteStride":8,"count":1632}}},{"buffer":1,"byteOffset":91648,"byteLength":25600,"target":34962,"byteStride":8,"extensions":{"EXT_meshopt_compression":{"buffer":0,"byteOffset":42236,"byteLength":15899,"mode":"ATTRIBUTES","byteStride":8,"count":3200}}},{"buffer":1,"byteOffset":117248,"byteLength":25600,"target":34962,"byteStride":8,"extensions":{"EXT_meshopt_compression":{"buffer":0,"byteOffset":58136,"byteLength":10457,"mode":"ATTRIBUTES","byteStride":8,"count":3200}}}],"samplers":[{"magFilter":9729,"minFilter":9987,"wrapS":10497,"wrapT":10497}],"textures":[{"sampler":0,"extensions":{"EXT_texture_webp":{"source":1}}},{"sampler":0,"extensions":{"EXT_texture_webp":{"source":0}}},{"sampler":0,"extensions":{"EXT_texture_webp":{"source":2}}},{"sampler":0,"extensions":{"EXT_texture_webp":{"source":4}}},{"sampler":0,"extensions":{"EXT_texture_webp":{"source":3}}},{"sampler":0,"extensions":{"EXT_texture_webp":{"source":5}}}],"images":[{"name":"T_WoodTrim_Normal","mimeType":"image/webp","uri":"../../textures/f21ba25246cb568d.webp"},{"name":"T_WoodTrim_BaseColor","mimeType":"image/webp","uri":"../../textures/d90050e8e0b27d52.webp"},{"name":"T_WoodTrim_Roughness","mimeType":"image/webp","uri":"../../textures/210dc9e50bbcd89a.webp"},{"name":"T_RoundTiles_Normal","mimeType":"image/webp","uri":"../../textures/a1f41c8177c1b929.webp"},{"name":"T_RoundTiles_BaseColor","mimeType":"image/webp","uri":"../../textures/ce38f226c2760532.webp"},{"name":"T_RoundTiles_Roughness","mimeType":"image/webp","uri":"../../textures/530344f7ee2c4d44.webp"}],"buffers":[{"uri":"Roof_RoundTiles_8x10.bin","byteLength":68596},{"byteLength":142848,"extensions":{"EXT_meshopt_compression":{"fallback":true}}}],"materials":[{"name":"MI_WoodTrim","doubleSided":true,"pbrMetallicRoughness":{"metallicFactor":0,"baseColorTexture":{"index":0},"metallicRoughnessTexture":{"index":2}},"normalTexture":{"index":1}},{"name":"MI_RoundTiles","doubleSided":true,"pbrMetallicRoughness":{"metallicFactor":0,"baseColorTexture":{"index":3},"metallicRoughnessTexture":{"index":5}},"normalTexture":{"index":4}}],"meshes":[{"name":"Cube.066","primitives":[{"attributes":{"TEXCOORD_0":1,"POSITION":4,"NORMAL":5},"mode":4,"material":0,"indices":0},{"attributes":{"TEXCOORD_0":3,"POSITION":6,"NORMAL":7},"mode":4,"material":1,"indices":2}]}],"nodes":[{"name":"Roof_RoundTiles_8x10","translation":[0,2.6107054948806763,0.07772397994995117],"scale":[5.929722309112549,5.929722309112549,5.929722309112549],"mesh":0},{"name":"pack_root","children":[0]}],"scenes":[{"name":"Scene","nodes":[1]}],"scene":0,"extensionsUsed":["EXT_meshopt_compression","EXT_texture_webp","KHR_mesh_quantization"],"extensionsRequired":["EXT_meshopt_compression","EXT_texture_webp","KHR_mesh_quantization"]}