{"asset":{"generator":"glTF-Transform v4.5.1","version":"2.0"},"accessors":[{"type":"SCALAR","componentType":5123,"count":2160,"normalized":false,"byteOffset":0,"bufferView":0},{"type":"VEC2","componentType":5126,"count":1176,"normalized":false,"byteOffset":0,"bufferView":1},{"type":"SCALAR","componentType":5123,"count":3828,"normalized":false,"byteOffset":4320,"bufferView":0},{"type":"VEC2","componentType":5126,"count":1156,"normalized":false,"byteOffset":0,"bufferView":2},{"type":"VEC3","componentType":5122,"count":1176,"max":[30255,18758,31871],"min":[-30255,-25039,-32767],"normalized":true,"byteOffset":0,"bufferView":3},{"type":"VEC3","componentType":5122,"count":1176,"normalized":true,"byteOffset":0,"bufferView":4},{"type":"VEC3","componentType":5122,"count":1156,"max":[32483,25039,32767],"min":[-32483,-23530,-32319],"normalized":true,"byteOffset":0,"bufferView":5},{"type":"VEC3","componentType":5122,"count":1156,"normalized":true,"byteOffset":0,"bufferView":6}],"bufferViews":[{"buffer":1,"byteOffset":0,"byteLength":11976,"target":34963,"extensions":{"EXT_meshopt_compression":{"buffer":0,"byteOffset":0,"byteLength":2141,"mode":"TRIANGLES","byteStride":2,"count":5988}}},{"buffer":1,"byteOffset":11976,"byteLength":9408,"target":34962,"byteStride":8,"extensions":{"EXT_meshopt_compression":{"buffer":0,"byteOffset":2144,"byteLength":7192,"mode":"ATTRIBUTES","byteStride":8,"count":1176}}},{"buffer":1,"byteOffset":21384,"byteLength":9248,"target":34962,"byteStride":8,"extensions":{"EXT_meshopt_compression":{"buffer":0,"byteOffset":9336,"byteLength":6312,"mode":"ATTRIBUTES","byteStride":8,"count":1156}}},{"buffer":1,"byteOffset":30632,"byteLength":9408,"target":34962,"byteStride":8,"extensions":{"EXT_meshopt_compression":{"buffer":0,"byteOffset":15648,"byteLength":5892,"mode":"ATTRIBUTES","byteStride":8,"count":1176}}},{"buffer":1,"byteOffset":40040,"byteLength":9408,"target":34962,"byteStride":8,"extensions":{"EXT_meshopt_compression":{"buffer":0,"byteOffset":21540,"byteLength":2198,"mode":"ATTRIBUTES","byteStride":8,"count":1176}}},{"buffer":1,"byteOffset":49448,"byteLength":9248,"target":34962,"byteStride":8,"extensions":{"EXT_meshopt_compression":{"buffer":0,"byteOffset":23740,"byteLength":6173,"mode":"ATTRIBUTES","byteStride":8,"count":1156}}},{"buffer":1,"byteOffset":58696,"byteLength":9248,"target":34962,"byteStride":8,"extensions":{"EXT_meshopt_compression":{"buffer":0,"byteOffset":29916,"byteLength":4278,"mode":"ATTRIBUTES","byteStride":8,"count":1156}}}],"samplers":[{"magFilter":9729,"minFilter":9987,"wrapS":10497,"wrapT":10497}],"textures":[{"sampler":0,"extensions":{"EXT_texture_webp":{"source":1}}},{"sampler":0,"extensions":{"EXT_texture_webp":{"source":0}}},{"sampler":0,"extensions":{"EXT_texture_webp":{"source":2}}},{"sampler":0,"extensions":{"EXT_texture_webp":{"source":4}}},{"sampler":0,"extensions":{"EXT_texture_webp":{"source":3}}},{"sampler":0,"extensions":{"EXT_texture_webp":{"source":5}}}],"images":[{"name":"T_WoodTrim_Normal","mimeType":"image/webp","uri":"../../textures/f21ba25246cb568d.webp"},{"name":"T_WoodTrim_BaseColor","mimeType":"image/webp","uri":"../../textures/d90050e8e0b27d52.webp"},{"name":"T_WoodTrim_Roughness","mimeType":"image/webp","uri":"../../textures/210dc9e50bbcd89a.webp"},{"name":"T_RoundTiles_Normal","mimeType":"image/webp","uri":"../../textures/a1f41c8177c1b929.webp"},{"name":"T_RoundTiles_BaseColor","mimeType":"image/webp","uri":"../../textures/ce38f226c2760532.webp"},{"name":"T_RoundTiles_Roughness","mimeType":"image/webp","uri":"../../textures/530344f7ee2c4d44.webp"}],"buffers":[{"uri":"Roof_RoundTiles_4x4.bin","byteLength":34196},{"byteLength":67944,"extensions":{"EXT_meshopt_compression":{"fallback":true}}}],"materials":[{"name":"MI_WoodTrim","doubleSided":true,"pbrMetallicRoughness":{"metallicFactor":0,"baseColorTexture":{"index":0},"metallicRoughnessTexture":{"index":2}},"normalTexture":{"index":1}},{"name":"MI_RoundTiles","doubleSided":true,"pbrMetallicRoughness":{"metallicFactor":0,"baseColorTexture":{"index":3},"metallicRoughnessTexture":{"index":5}},"normalTexture":{"index":4}}],"meshes":[{"name":"Cube.110","primitives":[{"attributes":{"TEXCOORD_0":1,"POSITION":4,"NORMAL":5},"mode":4,"material":0,"indices":0},{"attributes":{"TEXCOORD_0":3,"POSITION":6,"NORMAL":7},"mode":4,"material":1,"indices":2}]}],"nodes":[{"name":"Roof_RoundTiles_4x4","translation":[0,1.6089778542518616,0.04082942008972168],"scale":[2.7807374000549316,2.7807374000549316,2.7807374000549316],"mesh":0},{"name":"pack_root","children":[0]}],"scenes":[{"name":"Scene","nodes":[1]}],"scene":0,"extensionsUsed":["EXT_meshopt_compression","EXT_texture_webp","KHR_mesh_quantization"],"extensionsRequired":["EXT_meshopt_compression","EXT_texture_webp","KHR_mesh_quantization"]}