{"asset":{"generator":"glTF-Transform v4.5.1","version":"2.0"},"accessors":[{"type":"SCALAR","componentType":5123,"count":2712,"normalized":false,"byteOffset":0,"bufferView":0},{"type":"VEC2","componentType":5126,"count":1640,"normalized":false,"byteOffset":0,"bufferView":1},{"type":"SCALAR","componentType":5123,"count":13404,"normalized":false,"byteOffset":5424,"bufferView":0},{"type":"VEC2","componentType":5126,"count":3718,"normalized":false,"byteOffset":0,"bufferView":2},{"type":"VEC3","componentType":5122,"count":1640,"max":[16518,9549,32767],"min":[-16518,-11833,-32567],"normalized":true,"byteOffset":0,"bufferView":3},{"type":"VEC3","componentType":5122,"count":1640,"normalized":true,"byteOffset":0,"bufferView":4},{"type":"VEC3","componentType":5122,"count":3718,"max":[17210,11833,32543],"min":[-17210,-11233,-32767],"normalized":true,"byteOffset":0,"bufferView":5},{"type":"VEC3","componentType":5122,"count":3718,"normalized":true,"byteOffset":0,"bufferView":6}],"bufferViews":[{"buffer":1,"byteOffset":0,"byteLength":32232,"target":34963,"extensions":{"EXT_meshopt_compression":{"buffer":0,"byteOffset":0,"byteLength":5895,"mode":"TRIANGLES","byteStride":2,"count":16116}}},{"buffer":1,"byteOffset":32232,"byteLength":13120,"target":34962,"byteStride":8,"extensions":{"EXT_meshopt_compression":{"buffer":0,"byteOffset":5896,"byteLength":9638,"mode":"ATTRIBUTES","byteStride":8,"count":1640}}},{"buffer":1,"byteOffset":45352,"byteLength":29744,"target":34962,"byteStride":8,"extensions":{"EXT_meshopt_compression":{"buffer":0,"byteOffset":15536,"byteLength":20866,"mode":"ATTRIBUTES","byteStride":8,"count":3718}}},{"buffer":1,"byteOffset":75096,"byteLength":13120,"target":34962,"byteStride":8,"extensions":{"EXT_meshopt_compression":{"buffer":0,"byteOffset":36404,"byteLength":7449,"mode":"ATTRIBUTES","byteStride":8,"count":1640}}},{"buffer":1,"byteOffset":88216,"byteLength":13120,"target":34962,"byteStride":8,"extensions":{"EXT_meshopt_compression":{"buffer":0,"byteOffset":43856,"byteLength":3122,"mode":"ATTRIBUTES","byteStride":8,"count":1640}}},{"buffer":1,"byteOffset":101336,"byteLength":29744,"target":34962,"byteStride":8,"extensions":{"EXT_meshopt_compression":{"buffer":0,"byteOffset":46980,"byteLength":17830,"mode":"ATTRIBUTES","byteStride":8,"count":3718}}},{"buffer":1,"byteOffset":131080,"byteLength":29744,"target":34962,"byteStride":8,"extensions":{"EXT_meshopt_compression":{"buffer":0,"byteOffset":64812,"byteLength":13185,"mode":"ATTRIBUTES","byteStride":8,"count":3718}}}],"samplers":[{"magFilter":9729,"minFilter":9987,"wrapS":10497,"wrapT":10497}],"textures":[{"sampler":0,"extensions":{"EXT_texture_webp":{"source":1}}},{"sampler":0,"extensions":{"EXT_texture_webp":{"source":0}}},{"sampler":0,"extensions":{"EXT_texture_webp":{"source":2}}},{"sampler":0,"extensions":{"EXT_texture_webp":{"source":4}}},{"sampler":0,"extensions":{"EXT_texture_webp":{"source":3}}},{"sampler":0,"extensions":{"EXT_texture_webp":{"source":5}}}],"images":[{"name":"T_WoodTrim_Normal","mimeType":"image/webp","uri":"../../textures/f21ba25246cb568d.webp"},{"name":"T_WoodTrim_BaseColor","mimeType":"image/webp","uri":"../../textures/d90050e8e0b27d52.webp"},{"name":"T_WoodTrim_Roughness","mimeType":"image/webp","uri":"../../textures/210dc9e50bbcd89a.webp"},{"name":"T_RoundTiles_Normal","mimeType":"image/webp","uri":"../../textures/a1f41c8177c1b929.webp"},{"name":"T_RoundTiles_BaseColor","mimeType":"image/webp","uri":"../../textures/ce38f226c2760532.webp"},{"name":"T_RoundTiles_Roughness","mimeType":"image/webp","uri":"../../textures/530344f7ee2c4d44.webp"}],"buffers":[{"uri":"Roof_RoundTiles_6x14.bin","byteLength":78000},{"byteLength":160824,"extensions":{"EXT_meshopt_compression":{"fallback":true}}}],"materials":[{"name":"MI_WoodTrim","doubleSided":true,"pbrMetallicRoughness":{"metallicFactor":0,"baseColorTexture":{"index":0},"metallicRoughnessTexture":{"index":2}},"normalTexture":{"index":1}},{"name":"MI_RoundTiles","doubleSided":true,"pbrMetallicRoughness":{"metallicFactor":0,"baseColorTexture":{"index":3},"metallicRoughnessTexture":{"index":5}},"normalTexture":{"index":4}}],"meshes":[{"name":"Cube.077","primitives":[{"attributes":{"TEXCOORD_0":1,"POSITION":4,"NORMAL":5},"mode":4,"material":0,"indices":0},{"attributes":{"TEXCOORD_0":3,"POSITION":6,"NORMAL":7},"mode":4,"material":1,"indices":2}]}],"nodes":[{"name":"Roof_RoundTiles_6x14","translation":[0,2.0539588928222656,-0.024187564849853516],"scale":[7.852941513061523,7.852941513061523,7.852941513061523],"mesh":0},{"name":"pack_root","children":[0]}],"scenes":[{"name":"Scene","nodes":[1]}],"scene":0,"extensionsUsed":["EXT_meshopt_compression","EXT_texture_webp","KHR_mesh_quantization"],"extensionsRequired":["EXT_meshopt_compression","EXT_texture_webp","KHR_mesh_quantization"]}