{"asset":{"generator":"glTF-Transform v4.5.1","version":"2.0"},"accessors":[{"type":"SCALAR","componentType":5123,"count":2376,"normalized":false,"byteOffset":0,"bufferView":0},{"type":"VEC2","componentType":5126,"count":1328,"normalized":false,"byteOffset":0,"bufferView":1},{"type":"SCALAR","componentType":5123,"count":6972,"normalized":false,"byteOffset":4752,"bufferView":0},{"type":"VEC2","componentType":5126,"count":2060,"normalized":false,"byteOffset":0,"bufferView":2},{"type":"VEC3","componentType":5122,"count":1328,"max":[17378,10841,32595],"min":[-17378,-14313,-32767],"normalized":true,"byteOffset":0,"bufferView":3},{"type":"VEC3","componentType":5122,"count":1328,"normalized":true,"byteOffset":0,"bufferView":4},{"type":"VEC3","componentType":5122,"count":2060,"max":[18658,14313,32767],"min":[-18658,-13445,-32275],"normalized":true,"byteOffset":0,"bufferView":5},{"type":"VEC3","componentType":5122,"count":2060,"normalized":true,"byteOffset":0,"bufferView":6}],"bufferViews":[{"buffer":1,"byteOffset":0,"byteLength":18696,"target":34963,"extensions":{"EXT_meshopt_compression":{"buffer":0,"byteOffset":0,"byteLength":3282,"mode":"TRIANGLES","byteStride":2,"count":9348}}},{"buffer":1,"byteOffset":18696,"byteLength":10624,"target":34962,"byteStride":8,"extensions":{"EXT_meshopt_compression":{"buffer":0,"byteOffset":3284,"byteLength":7904,"mode":"ATTRIBUTES","byteStride":8,"count":1328}}},{"buffer":1,"byteOffset":29320,"byteLength":16480,"target":34962,"byteStride":8,"extensions":{"EXT_meshopt_compression":{"buffer":0,"byteOffset":11188,"byteLength":11038,"mode":"ATTRIBUTES","byteStride":8,"count":2060}}},{"buffer":1,"byteOffset":45800,"byteLength":10624,"target":34962,"byteStride":8,"extensions":{"EXT_meshopt_compression":{"buffer":0,"byteOffset":22228,"byteLength":6104,"mode":"ATTRIBUTES","byteStride":8,"count":1328}}},{"buffer":1,"byteOffset":56424,"byteLength":10624,"target":34962,"byteStride":8,"extensions":{"EXT_meshopt_compression":{"buffer":0,"byteOffset":28332,"byteLength":2325,"mode":"ATTRIBUTES","byteStride":8,"count":1328}}},{"buffer":1,"byteOffset":67048,"byteLength":16480,"target":34962,"byteStride":8,"extensions":{"EXT_meshopt_compression":{"buffer":0,"byteOffset":30660,"byteLength":10105,"mode":"ATTRIBUTES","byteStride":8,"count":2060}}},{"buffer":1,"byteOffset":83528,"byteLength":16480,"target":34962,"byteStride":8,"extensions":{"EXT_meshopt_compression":{"buffer":0,"byteOffset":40768,"byteLength":6775,"mode":"ATTRIBUTES","byteStride":8,"count":2060}}}],"samplers":[{"magFilter":9729,"minFilter":9987,"wrapS":10497,"wrapT":10497}],"textures":[{"sampler":0,"extensions":{"EXT_texture_webp":{"source":1}}},{"sampler":0,"extensions":{"EXT_texture_webp":{"source":0}}},{"sampler":0,"extensions":{"EXT_texture_webp":{"source":2}}},{"sampler":0,"extensions":{"EXT_texture_webp":{"source":4}}},{"sampler":0,"extensions":{"EXT_texture_webp":{"source":3}}},{"sampler":0,"extensions":{"EXT_texture_webp":{"source":5}}}],"images":[{"name":"T_WoodTrim_Normal","mimeType":"image/webp","uri":"../../textures/f21ba25246cb568d.webp"},{"name":"T_WoodTrim_BaseColor","mimeType":"image/webp","uri":"../../textures/d90050e8e0b27d52.webp"},{"name":"T_WoodTrim_Roughness","mimeType":"image/webp","uri":"../../textures/210dc9e50bbcd89a.webp"},{"name":"T_RoundTiles_Normal","mimeType":"image/webp","uri":"../../textures/a1f41c8177c1b929.webp"},{"name":"T_RoundTiles_BaseColor","mimeType":"image/webp","uri":"../../textures/ce38f226c2760532.webp"},{"name":"T_RoundTiles_Roughness","mimeType":"image/webp","uri":"../../textures/530344f7ee2c4d44.webp"}],"buffers":[{"uri":"Roof_RoundTiles_4x8.bin","byteLength":47544},{"byteLength":100008,"extensions":{"EXT_meshopt_compression":{"fallback":true}}}],"materials":[{"name":"MI_WoodTrim","doubleSided":true,"pbrMetallicRoughness":{"metallicFactor":0,"baseColorTexture":{"index":0},"metallicRoughnessTexture":{"index":2}},"normalTexture":{"index":1}},{"name":"MI_RoundTiles","doubleSided":true,"pbrMetallicRoughness":{"metallicFactor":0,"baseColorTexture":{"index":3},"metallicRoughnessTexture":{"index":5}},"normalTexture":{"index":4}}],"meshes":[{"name":"Cube.060","primitives":[{"attributes":{"TEXCOORD_0":1,"POSITION":4,"NORMAL":5},"mode":4,"material":0,"indices":0},{"attributes":{"TEXCOORD_0":3,"POSITION":6,"NORMAL":7},"mode":4,"material":1,"indices":2}]}],"nodes":[{"name":"Roof_RoundTiles_4x8","translation":[0,1.5988642573356628,0.012616395950317383],"scale":[4.841369867324829,4.841369867324829,4.841369867324829],"mesh":0},{"name":"pack_root","children":[0]}],"scenes":[{"name":"Scene","nodes":[1]}],"scene":0,"extensionsUsed":["EXT_meshopt_compression","EXT_texture_webp","KHR_mesh_quantization"],"extensionsRequired":["EXT_meshopt_compression","EXT_texture_webp","KHR_mesh_quantization"]}