{"asset":{"generator":"glTF-Transform v4.5.1","version":"2.0"},"accessors":[{"type":"SCALAR","componentType":5123,"count":198,"normalized":false,"byteOffset":0,"bufferView":0},{"type":"SCALAR","componentType":5123,"count":12,"normalized":false,"byteOffset":396,"bufferView":0},{"type":"VEC2","componentType":5126,"count":8,"normalized":false,"byteOffset":0,"bufferView":1},{"type":"SCALAR","componentType":5123,"count":6,"normalized":false,"byteOffset":420,"bufferView":0},{"type":"VEC3","componentType":5122,"count":96,"max":[21006,32767,4264],"min":[-21006,-19134,-4264],"normalized":true,"byteOffset":0,"bufferView":2},{"type":"VEC3","componentType":5122,"count":96,"normalized":true,"byteOffset":0,"bufferView":3},{"type":"VEC2","componentType":5123,"count":96,"normalized":true,"byteOffset":0,"bufferView":4},{"type":"VEC3","componentType":5122,"count":8,"max":[21006,30191,2324],"min":[-20966,-32767,-1872],"normalized":true,"byteOffset":0,"bufferView":5},{"type":"VEC3","componentType":5122,"count":8,"normalized":true,"byteOffset":0,"bufferView":6},{"type":"VEC3","componentType":5122,"count":4,"max":[21006,-14297,2324],"min":[-20966,-32767,2324],"normalized":true,"byteOffset":0,"bufferView":7},{"type":"VEC3","componentType":5122,"count":4,"normalized":true,"byteOffset":0,"bufferView":8},{"type":"VEC2","componentType":5123,"count":4,"normalized":true,"byteOffset":0,"bufferView":9}],"bufferViews":[{"buffer":1,"byteOffset":0,"byteLength":432,"target":34963,"extensions":{"EXT_meshopt_compression":{"buffer":0,"byteOffset":0,"byteLength":91,"mode":"TRIANGLES","byteStride":2,"count":216}}},{"buffer":1,"byteOffset":432,"byteLength":64,"target":34962,"byteStride":8,"extensions":{"EXT_meshopt_compression":{"buffer":0,"byteOffset":92,"byteLength":92,"mode":"ATTRIBUTES","byteStride":8,"count":8}}},{"buffer":1,"byteOffset":496,"byteLength":768,"target":34962,"byteStride":8,"extensions":{"EXT_meshopt_compression":{"buffer":0,"byteOffset":184,"byteLength":452,"mode":"ATTRIBUTES","byteStride":8,"count":96}}},{"buffer":1,"byteOffset":1264,"byteLength":768,"target":34962,"byteStride":8,"extensions":{"EXT_meshopt_compression":{"buffer":0,"byteOffset":636,"byteLength":225,"mode":"ATTRIBUTES","byteStride":8,"count":96}}},{"buffer":1,"byteOffset":2032,"byteLength":384,"target":34962,"byteStride":4,"extensions":{"EXT_meshopt_compression":{"buffer":0,"byteOffset":864,"byteLength":315,"mode":"ATTRIBUTES","byteStride":4,"count":96}}},{"buffer":1,"byteOffset":2416,"byteLength":64,"target":34962,"byteStride":8,"extensions":{"EXT_meshopt_compression":{"buffer":0,"byteOffset":1180,"byteLength":81,"mode":"ATTRIBUTES","byteStride":8,"count":8}}},{"buffer":1,"byteOffset":2480,"byteLength":64,"target":34962,"byteStride":8,"extensions":{"EXT_meshopt_compression":{"buffer":0,"byteOffset":1264,"byteLength":50,"mode":"ATTRIBUTES","byteStride":8,"count":8}}},{"buffer":1,"byteOffset":2544,"byteLength":32,"target":34962,"byteStride":8,"extensions":{"EXT_meshopt_compression":{"buffer":0,"byteOffset":1316,"byteLength":63,"mode":"ATTRIBUTES","byteStride":8,"count":4}}},{"buffer":1,"byteOffset":2576,"byteLength":32,"target":34962,"byteStride":8,"extensions":{"EXT_meshopt_compression":{"buffer":0,"byteOffset":1380,"byteLength":41,"mode":"ATTRIBUTES","byteStride":8,"count":4}}},{"buffer":1,"byteOffset":2608,"byteLength":16,"target":34962,"byteStride":4,"extensions":{"EXT_meshopt_compression":{"buffer":0,"byteOffset":1424,"byteLength":55,"mode":"ATTRIBUTES","byteStride":4,"count":4}}}],"samplers":[{"magFilter":9729,"minFilter":9987,"wrapS":10497,"wrapT":10497}],"textures":[{"sampler":0,"extensions":{"EXT_texture_webp":{"source":1}}},{"sampler":0,"extensions":{"EXT_texture_webp":{"source":0}}},{"sampler":0,"extensions":{"EXT_texture_webp":{"source":2}}},{"sampler":0,"extensions":{"EXT_texture_webp":{"source":4}}},{"sampler":0,"extensions":{"EXT_texture_webp":{"source":3}}},{"sampler":0,"extensions":{"EXT_texture_webp":{"source":5}}},{"sampler":0,"extensions":{"EXT_texture_webp":{"source":7}}},{"sampler":0,"extensions":{"EXT_texture_webp":{"source":6}}},{"sampler":0,"extensions":{"EXT_texture_webp":{"source":8}}}],"images":[{"name":"T_WoodTrim_Normal","mimeType":"image/webp","uri":"../../textures/f21ba25246cb568d.webp"},{"name":"T_WoodTrim_BaseColor","mimeType":"image/webp","uri":"../../textures/d90050e8e0b27d52.webp"},{"name":"T_WoodTrim_Roughness","mimeType":"image/webp","uri":"../../textures/210dc9e50bbcd89a.webp"},{"name":"T_Plaster_Normal","mimeType":"image/webp","uri":"../../textures/ca638a0fd7dc4e15.webp"},{"name":"T_Plaster_BaseColor","mimeType":"image/webp","uri":"../../textures/1438c572277b3296.webp"},{"name":"T_Plaster_ORM","mimeType":"image/webp","uri":"../../textures/4d519296b29144c2.webp"},{"name":"T_Brick_Normal","mimeType":"image/webp","uri":"../../textures/b07f9ca6ba757e1b.webp"},{"name":"T_Brick_BaseColor","mimeType":"image/webp","uri":"../../textures/73ef4941c468fdad.webp"},{"name":"T_Brick_Roughness","mimeType":"image/webp","uri":"../../textures/7bac46a9f1115869.webp"}],"buffers":[{"uri":"Wall_Plaster_Straight_R.bin","byteLength":1480},{"byteLength":2624,"extensions":{"EXT_meshopt_compression":{"fallback":true}}}],"materials":[{"name":"MI_WoodTrim","doubleSided":true,"pbrMetallicRoughness":{"metallicFactor":0,"baseColorTexture":{"index":0},"metallicRoughnessTexture":{"index":2}},"normalTexture":{"index":1}},{"name":"MI_Plaster","doubleSided":true,"pbrMetallicRoughness":{"baseColorTexture":{"index":3},"metallicRoughnessTexture":{"index":5}},"normalTexture":{"index":4}},{"name":"MI_Brick","doubleSided":true,"pbrMetallicRoughness":{"metallicFactor":0,"baseColorTexture":{"index":6},"metallicRoughnessTexture":{"index":8}},"normalTexture":{"index":7}}],"meshes":[{"name":"Cube.010","primitives":[{"attributes":{"POSITION":4,"NORMAL":5,"TEXCOORD_0":6},"mode":4,"material":0,"indices":0},{"attributes":{"TEXCOORD_0":2,"POSITION":7,"NORMAL":8},"mode":4,"material":1,"indices":1},{"attributes":{"POSITION":9,"NORMAL":10,"TEXCOORD_0":11},"mode":4,"material":2,"indices":3}]}],"nodes":[{"name":"Wall_Plaster_Straight_R","translation":[-0.0008889436721801758,1.5613443851470947,-0.1107943058013916],"scale":[1.5613443851470947,1.5613443851470947,1.5613443851470947],"mesh":0},{"name":"pack_root","children":[0]}],"scenes":[{"name":"Scene","nodes":[1]}],"scene":0,"extensionsUsed":["EXT_meshopt_compression","EXT_texture_webp","KHR_mesh_quantization"],"extensionsRequired":["EXT_meshopt_compression","EXT_texture_webp","KHR_mesh_quantization"]}