{"asset":{"generator":"glTF-Transform v4.5.1","version":"2.0"},"accessors":[{"type":"SCALAR","componentType":5123,"count":204,"normalized":false,"byteOffset":0,"bufferView":0},{"type":"SCALAR","componentType":5123,"count":195,"normalized":false,"byteOffset":408,"bufferView":0},{"type":"VEC2","componentType":5126,"count":69,"normalized":false,"byteOffset":0,"bufferView":1},{"type":"SCALAR","componentType":5123,"count":12,"normalized":false,"byteOffset":798,"bufferView":0},{"type":"VEC3","componentType":5122,"count":124,"max":[20986,32767,4264],"min":[-20986,-19134,-4264],"normalized":true,"byteOffset":0,"bufferView":2},{"type":"VEC3","componentType":5122,"count":124,"normalized":true,"byteOffset":0,"bufferView":3},{"type":"VEC2","componentType":5123,"count":124,"normalized":true,"byteOffset":0,"bufferView":4},{"type":"VEC3","componentType":5122,"count":69,"max":[20986,30191,2324],"min":[-20986,-32767,-1872],"normalized":true,"byteOffset":0,"bufferView":5},{"type":"VEC3","componentType":5122,"count":69,"normalized":true,"byteOffset":0,"bufferView":6},{"type":"VEC3","componentType":5122,"count":8,"max":[20986,-13669,2324],"min":[-20986,-32767,2324],"normalized":true,"byteOffset":0,"bufferView":7},{"type":"VEC3","componentType":5122,"count":8,"normalized":true,"byteOffset":0,"bufferView":8},{"type":"VEC2","componentType":5123,"count":8,"normalized":true,"byteOffset":0,"bufferView":9}],"bufferViews":[{"buffer":1,"byteOffset":0,"byteLength":822,"target":34963,"extensions":{"EXT_meshopt_compression":{"buffer":0,"byteOffset":0,"byteLength":162,"mode":"TRIANGLES","byteStride":2,"count":411}}},{"buffer":1,"byteOffset":824,"byteLength":552,"target":34962,"byteStride":8,"extensions":{"EXT_meshopt_compression":{"buffer":0,"byteOffset":164,"byteLength":532,"mode":"ATTRIBUTES","byteStride":8,"count":69}}},{"buffer":1,"byteOffset":1376,"byteLength":992,"target":34962,"byteStride":8,"extensions":{"EXT_meshopt_compression":{"buffer":0,"byteOffset":696,"byteLength":568,"mode":"ATTRIBUTES","byteStride":8,"count":124}}},{"buffer":1,"byteOffset":2368,"byteLength":992,"target":34962,"byteStride":8,"extensions":{"EXT_meshopt_compression":{"buffer":0,"byteOffset":1264,"byteLength":261,"mode":"ATTRIBUTES","byteStride":8,"count":124}}},{"buffer":1,"byteOffset":3360,"byteLength":496,"target":34962,"byteStride":4,"extensions":{"EXT_meshopt_compression":{"buffer":0,"byteOffset":1528,"byteLength":402,"mode":"ATTRIBUTES","byteStride":4,"count":124}}},{"buffer":1,"byteOffset":3856,"byteLength":552,"target":34962,"byteStride":8,"extensions":{"EXT_meshopt_compression":{"buffer":0,"byteOffset":1932,"byteLength":328,"mode":"ATTRIBUTES","byteStride":8,"count":69}}},{"buffer":1,"byteOffset":4408,"byteLength":552,"target":34962,"byteStride":8,"extensions":{"EXT_meshopt_compression":{"buffer":0,"byteOffset":2260,"byteLength":58,"mode":"ATTRIBUTES","byteStride":8,"count":69}}},{"buffer":1,"byteOffset":4960,"byteLength":64,"target":34962,"byteStride":8,"extensions":{"EXT_meshopt_compression":{"buffer":0,"byteOffset":2320,"byteLength":74,"mode":"ATTRIBUTES","byteStride":8,"count":8}}},{"buffer":1,"byteOffset":5024,"byteLength":64,"target":34962,"byteStride":8,"extensions":{"EXT_meshopt_compression":{"buffer":0,"byteOffset":2396,"byteLength":41,"mode":"ATTRIBUTES","byteStride":8,"count":8}}},{"buffer":1,"byteOffset":5088,"byteLength":32,"target":34962,"byteStride":4,"extensions":{"EXT_meshopt_compression":{"buffer":0,"byteOffset":2440,"byteLength":68,"mode":"ATTRIBUTES","byteStride":4,"count":8}}}],"samplers":[{"magFilter":9729,"minFilter":9987,"wrapS":10497,"wrapT":10497}],"textures":[{"sampler":0,"extensions":{"EXT_texture_webp":{"source":1}}},{"sampler":0,"extensions":{"EXT_texture_webp":{"source":0}}},{"sampler":0,"extensions":{"EXT_texture_webp":{"source":2}}},{"sampler":0,"extensions":{"EXT_texture_webp":{"source":4}}},{"sampler":0,"extensions":{"EXT_texture_webp":{"source":3}}},{"sampler":0,"extensions":{"EXT_texture_webp":{"source":5}}},{"sampler":0,"extensions":{"EXT_texture_webp":{"source":7}}},{"sampler":0,"extensions":{"EXT_texture_webp":{"source":6}}},{"sampler":0,"extensions":{"EXT_texture_webp":{"source":8}}}],"images":[{"name":"T_WoodTrim_Normal","mimeType":"image/webp","uri":"../../textures/f21ba25246cb568d.webp"},{"name":"T_WoodTrim_BaseColor","mimeType":"image/webp","uri":"../../textures/d90050e8e0b27d52.webp"},{"name":"T_WoodTrim_Roughness","mimeType":"image/webp","uri":"../../textures/210dc9e50bbcd89a.webp"},{"name":"T_Plaster_Normal","mimeType":"image/webp","uri":"../../textures/ca638a0fd7dc4e15.webp"},{"name":"T_Plaster_BaseColor","mimeType":"image/webp","uri":"../../textures/1438c572277b3296.webp"},{"name":"T_Plaster_ORM","mimeType":"image/webp","uri":"../../textures/4d519296b29144c2.webp"},{"name":"T_RockTrim_Normal","mimeType":"image/webp","uri":"../../textures/cec21247e36d1587.webp"},{"name":"T_RockTrim_BaseColor","mimeType":"image/webp","uri":"../../textures/7c5cea1fd71de232.webp"},{"name":"T_RockTrim_ORM","mimeType":"image/webp","uri":"../../textures/a342d525d6f1a0c0.webp"}],"buffers":[{"uri":"Wall_Plaster_Door_Round.bin","byteLength":2508},{"byteLength":5120,"extensions":{"EXT_meshopt_compression":{"fallback":true}}}],"materials":[{"name":"MI_WoodTrim","doubleSided":true,"pbrMetallicRoughness":{"metallicFactor":0,"baseColorTexture":{"index":0},"metallicRoughnessTexture":{"index":2}},"normalTexture":{"index":1}},{"name":"MI_Plaster","doubleSided":true,"pbrMetallicRoughness":{"baseColorTexture":{"index":3},"metallicRoughnessTexture":{"index":5}},"normalTexture":{"index":4}},{"name":"MI_RockTrim","doubleSided":true,"pbrMetallicRoughness":{"baseColorTexture":{"index":6},"metallicRoughnessTexture":{"index":8}},"normalTexture":{"index":7}}],"meshes":[{"name":"Cube.227","primitives":[{"attributes":{"POSITION":4,"NORMAL":5,"TEXCOORD_0":6},"mode":4,"material":0,"indices":0},{"attributes":{"TEXCOORD_0":2,"POSITION":7,"NORMAL":8},"mode":4,"material":1,"indices":1},{"attributes":{"POSITION":9,"NORMAL":10,"TEXCOORD_0":11},"mode":4,"material":2,"indices":3}]}],"nodes":[{"name":"Wall_Plaster_Door_Round","translation":[-5.960464477539063e-8,1.5613443851470947,-0.1107943058013916],"scale":[1.5613443851470947,1.5613443851470947,1.5613443851470947],"mesh":0},{"name":"pack_root","children":[0]}],"scenes":[{"name":"Scene","nodes":[1]}],"scene":0,"extensionsUsed":["EXT_meshopt_compression","EXT_texture_webp","KHR_mesh_quantization"],"extensionsRequired":["EXT_meshopt_compression","EXT_texture_webp","KHR_mesh_quantization"]}