{"asset":{"generator":"glTF-Transform v4.5.1","version":"2.0"},"accessors":[{"type":"SCALAR","componentType":5123,"count":264,"normalized":false,"byteOffset":0,"bufferView":0},{"type":"VEC2","componentType":5126,"count":88,"normalized":false,"byteOffset":0,"bufferView":1},{"type":"SCALAR","componentType":5123,"count":60,"normalized":false,"byteOffset":528,"bufferView":0},{"type":"SCALAR","componentType":5123,"count":174,"normalized":false,"byteOffset":648,"bufferView":0},{"type":"VEC3","componentType":5122,"count":88,"max":[20986,30191,2324],"min":[-20986,-32767,-1872],"normalized":true,"byteOffset":0,"bufferView":2},{"type":"VEC3","componentType":5122,"count":88,"normalized":true,"byteOffset":0,"bufferView":3},{"type":"VEC3","componentType":5122,"count":22,"max":[20986,-14297,2324],"min":[-20986,-32767,2324],"normalized":true,"byteOffset":0,"bufferView":4},{"type":"VEC3","componentType":5122,"count":22,"normalized":true,"byteOffset":0,"bufferView":5},{"type":"VEC2","componentType":5123,"count":22,"normalized":true,"byteOffset":0,"bufferView":6},{"type":"VEC3","componentType":5122,"count":104,"max":[20986,32767,4264],"min":[-20986,-19134,-4264],"normalized":true,"byteOffset":0,"bufferView":7},{"type":"VEC3","componentType":5122,"count":104,"normalized":true,"byteOffset":0,"bufferView":8},{"type":"VEC2","componentType":5123,"count":104,"normalized":true,"byteOffset":0,"bufferView":9}],"bufferViews":[{"buffer":1,"byteOffset":0,"byteLength":996,"target":34963,"extensions":{"EXT_meshopt_compression":{"buffer":0,"byteOffset":0,"byteLength":187,"mode":"TRIANGLES","byteStride":2,"count":498}}},{"buffer":1,"byteOffset":996,"byteLength":704,"target":34962,"byteStride":8,"extensions":{"EXT_meshopt_compression":{"buffer":0,"byteOffset":188,"byteLength":622,"mode":"ATTRIBUTES","byteStride":8,"count":88}}},{"buffer":1,"byteOffset":1700,"byteLength":704,"target":34962,"byteStride":8,"extensions":{"EXT_meshopt_compression":{"buffer":0,"byteOffset":812,"byteLength":383,"mode":"ATTRIBUTES","byteStride":8,"count":88}}},{"buffer":1,"byteOffset":2404,"byteLength":704,"target":34962,"byteStride":8,"extensions":{"EXT_meshopt_compression":{"buffer":0,"byteOffset":1196,"byteLength":58,"mode":"ATTRIBUTES","byteStride":8,"count":88}}},{"buffer":1,"byteOffset":3108,"byteLength":176,"target":34962,"byteStride":8,"extensions":{"EXT_meshopt_compression":{"buffer":0,"byteOffset":1256,"byteLength":130,"mode":"ATTRIBUTES","byteStride":8,"count":22}}},{"buffer":1,"byteOffset":3284,"byteLength":176,"target":34962,"byteStride":8,"extensions":{"EXT_meshopt_compression":{"buffer":0,"byteOffset":1388,"byteLength":41,"mode":"ATTRIBUTES","byteStride":8,"count":22}}},{"buffer":1,"byteOffset":3460,"byteLength":88,"target":34962,"byteStride":4,"extensions":{"EXT_meshopt_compression":{"buffer":0,"byteOffset":1432,"byteLength":117,"mode":"ATTRIBUTES","byteStride":4,"count":22}}},{"buffer":1,"byteOffset":3548,"byteLength":832,"target":34962,"byteStride":8,"extensions":{"EXT_meshopt_compression":{"buffer":0,"byteOffset":1552,"byteLength":479,"mode":"ATTRIBUTES","byteStride":8,"count":104}}},{"buffer":1,"byteOffset":4380,"byteLength":832,"target":34962,"byteStride":8,"extensions":{"EXT_meshopt_compression":{"buffer":0,"byteOffset":2032,"byteLength":194,"mode":"ATTRIBUTES","byteStride":8,"count":104}}},{"buffer":1,"byteOffset":5212,"byteLength":416,"target":34962,"byteStride":4,"extensions":{"EXT_meshopt_compression":{"buffer":0,"byteOffset":2228,"byteLength":326,"mode":"ATTRIBUTES","byteStride":4,"count":104}}}],"samplers":[{"magFilter":9729,"minFilter":9987,"wrapS":10497,"wrapT":10497}],"textures":[{"sampler":0,"extensions":{"EXT_texture_webp":{"source":1}}},{"sampler":0,"extensions":{"EXT_texture_webp":{"source":0}}},{"sampler":0,"extensions":{"EXT_texture_webp":{"source":2}}},{"sampler":0,"extensions":{"EXT_texture_webp":{"source":4}}},{"sampler":0,"extensions":{"EXT_texture_webp":{"source":3}}},{"sampler":0,"extensions":{"EXT_texture_webp":{"source":5}}},{"sampler":0,"extensions":{"EXT_texture_webp":{"source":7}}},{"sampler":0,"extensions":{"EXT_texture_webp":{"source":6}}},{"sampler":0,"extensions":{"EXT_texture_webp":{"source":8}}}],"images":[{"name":"T_Plaster_Normal","mimeType":"image/webp","uri":"../../textures/ca638a0fd7dc4e15.webp"},{"name":"T_Plaster_BaseColor","mimeType":"image/webp","uri":"../../textures/1438c572277b3296.webp"},{"name":"T_Plaster_ORM","mimeType":"image/webp","uri":"../../textures/4d519296b29144c2.webp"},{"name":"T_Brick_Normal","mimeType":"image/webp","uri":"../../textures/b07f9ca6ba757e1b.webp"},{"name":"T_Brick_BaseColor","mimeType":"image/webp","uri":"../../textures/73ef4941c468fdad.webp"},{"name":"T_Brick_Roughness","mimeType":"image/webp","uri":"../../textures/7bac46a9f1115869.webp"},{"name":"T_WoodTrim_Normal","mimeType":"image/webp","uri":"../../textures/f21ba25246cb568d.webp"},{"name":"T_WoodTrim_BaseColor","mimeType":"image/webp","uri":"../../textures/d90050e8e0b27d52.webp"},{"name":"T_WoodTrim_Roughness","mimeType":"image/webp","uri":"../../textures/210dc9e50bbcd89a.webp"}],"buffers":[{"uri":"Wall_Plaster_Window_Thin_Round.bin","byteLength":2556},{"byteLength":5628,"extensions":{"EXT_meshopt_compression":{"fallback":true}}}],"materials":[{"name":"MI_Plaster","doubleSided":true,"pbrMetallicRoughness":{"baseColorTexture":{"index":0},"metallicRoughnessTexture":{"index":2}},"normalTexture":{"index":1}},{"name":"MI_Brick","doubleSided":true,"pbrMetallicRoughness":{"metallicFactor":0,"baseColorTexture":{"index":3},"metallicRoughnessTexture":{"index":5}},"normalTexture":{"index":4}},{"name":"MI_WoodTrim","doubleSided":true,"pbrMetallicRoughness":{"metallicFactor":0,"baseColorTexture":{"index":6},"metallicRoughnessTexture":{"index":8}},"normalTexture":{"index":7}}],"meshes":[{"name":"Plane.022","primitives":[{"attributes":{"TEXCOORD_0":1,"POSITION":4,"NORMAL":5},"mode":4,"material":0,"indices":0},{"attributes":{"POSITION":6,"NORMAL":7,"TEXCOORD_0":8},"mode":4,"material":1,"indices":2},{"attributes":{"POSITION":9,"NORMAL":10,"TEXCOORD_0":11},"mode":4,"material":2,"indices":3}]}],"nodes":[{"name":"Wall_Plaster_Window_Thin_Round","translation":[-5.960464477539063e-8,1.5613443851470947,-0.1107943058013916],"scale":[1.5613443851470947,1.5613443851470947,1.5613443851470947],"mesh":0},{"name":"pack_root","children":[0]}],"scenes":[{"name":"Scene","nodes":[1]}],"scene":0,"extensionsUsed":["EXT_meshopt_compression","EXT_texture_webp","KHR_mesh_quantization"],"extensionsRequired":["EXT_meshopt_compression","EXT_texture_webp","KHR_mesh_quantization"]}