{"asset":{"generator":"glTF-Transform v4.5.1","version":"2.0"},"accessors":[{"type":"SCALAR","componentType":5123,"count":150,"normalized":false,"byteOffset":0,"bufferView":0},{"type":"SCALAR","componentType":5123,"count":48,"normalized":false,"byteOffset":300,"bufferView":0},{"type":"VEC2","componentType":5126,"count":16,"normalized":false,"byteOffset":0,"bufferView":1},{"type":"SCALAR","componentType":5123,"count":66,"normalized":false,"byteOffset":396,"bufferView":0},{"type":"VEC2","componentType":5126,"count":22,"normalized":false,"byteOffset":0,"bufferView":2},{"type":"VEC3","componentType":5122,"count":64,"max":[20986,32767,4264],"min":[-20986,27619,-4264],"normalized":true,"byteOffset":0,"bufferView":3},{"type":"VEC3","componentType":5122,"count":64,"normalized":true,"byteOffset":0,"bufferView":4},{"type":"VEC2","componentType":5123,"count":64,"normalized":true,"byteOffset":0,"bufferView":5},{"type":"VEC3","componentType":5122,"count":16,"max":[20986,30191,-1872],"min":[-20986,-32767,-1872],"normalized":true,"byteOffset":0,"bufferView":6},{"type":"VEC3","componentType":5122,"count":16,"normalized":true,"byteOffset":0,"bufferView":7},{"type":"VEC3","componentType":5122,"count":22,"max":[20986,30191,2324],"min":[-20986,-32767,2324],"normalized":true,"byteOffset":0,"bufferView":8},{"type":"VEC3","componentType":5122,"count":22,"normalized":true,"byteOffset":0,"bufferView":9}],"bufferViews":[{"buffer":1,"byteOffset":0,"byteLength":528,"target":34963,"extensions":{"EXT_meshopt_compression":{"buffer":0,"byteOffset":0,"byteLength":109,"mode":"TRIANGLES","byteStride":2,"count":264}}},{"buffer":1,"byteOffset":528,"byteLength":128,"target":34962,"byteStride":8,"extensions":{"EXT_meshopt_compression":{"buffer":0,"byteOffset":112,"byteLength":142,"mode":"ATTRIBUTES","byteStride":8,"count":16}}},{"buffer":1,"byteOffset":656,"byteLength":176,"target":34962,"byteStride":8,"extensions":{"EXT_meshopt_compression":{"buffer":0,"byteOffset":256,"byteLength":204,"mode":"ATTRIBUTES","byteStride":8,"count":22}}},{"buffer":1,"byteOffset":832,"byteLength":512,"target":34962,"byteStride":8,"extensions":{"EXT_meshopt_compression":{"buffer":0,"byteOffset":460,"byteLength":301,"mode":"ATTRIBUTES","byteStride":8,"count":64}}},{"buffer":1,"byteOffset":1344,"byteLength":512,"target":34962,"byteStride":8,"extensions":{"EXT_meshopt_compression":{"buffer":0,"byteOffset":764,"byteLength":140,"mode":"ATTRIBUTES","byteStride":8,"count":64}}},{"buffer":1,"byteOffset":1856,"byteLength":256,"target":34962,"byteStride":4,"extensions":{"EXT_meshopt_compression":{"buffer":0,"byteOffset":904,"byteLength":223,"mode":"ATTRIBUTES","byteStride":4,"count":64}}},{"buffer":1,"byteOffset":2112,"byteLength":128,"target":34962,"byteStride":8,"extensions":{"EXT_meshopt_compression":{"buffer":0,"byteOffset":1128,"byteLength":97,"mode":"ATTRIBUTES","byteStride":8,"count":16}}},{"buffer":1,"byteOffset":2240,"byteLength":128,"target":34962,"byteStride":8,"extensions":{"EXT_meshopt_compression":{"buffer":0,"byteOffset":1228,"byteLength":41,"mode":"ATTRIBUTES","byteStride":8,"count":16}}},{"buffer":1,"byteOffset":2368,"byteLength":176,"target":34962,"byteStride":8,"extensions":{"EXT_meshopt_compression":{"buffer":0,"byteOffset":1272,"byteLength":126,"mode":"ATTRIBUTES","byteStride":8,"count":22}}},{"buffer":1,"byteOffset":2544,"byteLength":176,"target":34962,"byteStride":8,"extensions":{"EXT_meshopt_compression":{"buffer":0,"byteOffset":1400,"byteLength":41,"mode":"ATTRIBUTES","byteStride":8,"count":22}}}],"samplers":[{"magFilter":9729,"minFilter":9987,"wrapS":10497,"wrapT":10497}],"textures":[{"sampler":0,"extensions":{"EXT_texture_webp":{"source":1}}},{"sampler":0,"extensions":{"EXT_texture_webp":{"source":0}}},{"sampler":0,"extensions":{"EXT_texture_webp":{"source":2}}},{"sampler":0,"extensions":{"EXT_texture_webp":{"source":4}}},{"sampler":0,"extensions":{"EXT_texture_webp":{"source":3}}},{"sampler":0,"extensions":{"EXT_texture_webp":{"source":5}}},{"sampler":0,"extensions":{"EXT_texture_webp":{"source":7}}},{"sampler":0,"extensions":{"EXT_texture_webp":{"source":6}}},{"sampler":0,"extensions":{"EXT_texture_webp":{"source":8}}}],"images":[{"name":"T_WoodTrim_Normal","mimeType":"image/webp","uri":"../../textures/f21ba25246cb568d.webp"},{"name":"T_WoodTrim_BaseColor","mimeType":"image/webp","uri":"../../textures/d90050e8e0b27d52.webp"},{"name":"T_WoodTrim_Roughness","mimeType":"image/webp","uri":"../../textures/210dc9e50bbcd89a.webp"},{"name":"T_Plaster_Normal","mimeType":"image/webp","uri":"../../textures/ca638a0fd7dc4e15.webp"},{"name":"T_Plaster_BaseColor","mimeType":"image/webp","uri":"../../textures/1438c572277b3296.webp"},{"name":"T_Plaster_ORM","mimeType":"image/webp","uri":"../../textures/4d519296b29144c2.webp"},{"name":"T_UnevenBrick_Normal","mimeType":"image/webp","uri":"../../textures/801d81eb6cdb0327.webp"},{"name":"T_UnevenBrick_BaseColor","mimeType":"image/webp","uri":"../../textures/a4114563336d6c22.webp"},{"name":"T_UnevenBrick_Roughness","mimeType":"image/webp","uri":"../../textures/19c8bcc4b1cd91bb.webp"}],"buffers":[{"uri":"Wall_UnevenBrick_Window_Wide_Flat.bin","byteLength":1444},{"byteLength":2720,"extensions":{"EXT_meshopt_compression":{"fallback":true}}}],"materials":[{"name":"MI_WoodTrim","doubleSided":true,"pbrMetallicRoughness":{"metallicFactor":0,"baseColorTexture":{"index":0},"metallicRoughnessTexture":{"index":2}},"normalTexture":{"index":1}},{"name":"MI_Plaster","doubleSided":true,"pbrMetallicRoughness":{"baseColorTexture":{"index":3},"metallicRoughnessTexture":{"index":5}},"normalTexture":{"index":4}},{"name":"MI_UnevenBrick","doubleSided":true,"pbrMetallicRoughness":{"metallicFactor":0,"baseColorTexture":{"index":6},"metallicRoughnessTexture":{"index":8}},"normalTexture":{"index":7}}],"meshes":[{"name":"Cube.202","primitives":[{"attributes":{"POSITION":5,"NORMAL":6,"TEXCOORD_0":7},"mode":4,"material":0,"indices":0},{"attributes":{"TEXCOORD_0":2,"POSITION":8,"NORMAL":9},"mode":4,"material":1,"indices":1},{"attributes":{"TEXCOORD_0":4,"POSITION":10,"NORMAL":11},"mode":4,"material":2,"indices":3}]}],"nodes":[{"name":"Wall_UnevenBrick_Window_Wide_Flat","translation":[-5.960464477539063e-8,1.5613443851470947,-0.11079446226358414],"scale":[1.5613443851470947,1.5613443851470947,1.5613443851470947],"mesh":0},{"name":"pack_root","children":[0]}],"scenes":[{"name":"Scene","nodes":[1]}],"scene":0,"extensionsUsed":["EXT_meshopt_compression","EXT_texture_webp","KHR_mesh_quantization"],"extensionsRequired":["EXT_meshopt_compression","EXT_texture_webp","KHR_mesh_quantization"]}