{"asset":{"generator":"glTF-Transform v4.5.1","version":"2.0"},"accessors":[{"type":"SCALAR","componentType":5123,"count":408,"normalized":false,"byteOffset":0,"bufferView":0},{"type":"VEC2","componentType":5126,"count":268,"normalized":false,"byteOffset":0,"bufferView":1},{"type":"VEC3","componentType":5122,"count":268,"max":[32767,23430,6720],"min":[-32767,-23430,-6720],"normalized":true,"byteOffset":0,"bufferView":2},{"type":"VEC3","componentType":5122,"count":268,"normalized":true,"byteOffset":0,"bufferView":3}],"bufferViews":[{"buffer":1,"byteOffset":0,"byteLength":816,"target":34963,"extensions":{"EXT_meshopt_compression":{"buffer":0,"byteOffset":0,"byteLength":153,"mode":"TRIANGLES","byteStride":2,"count":408}}},{"buffer":1,"byteOffset":816,"byteLength":2144,"target":34962,"byteStride":8,"extensions":{"EXT_meshopt_compression":{"buffer":0,"byteOffset":156,"byteLength":1723,"mode":"ATTRIBUTES","byteStride":8,"count":268}}},{"buffer":1,"byteOffset":2960,"byteLength":2144,"target":34962,"byteStride":8,"extensions":{"EXT_meshopt_compression":{"buffer":0,"byteOffset":1880,"byteLength":1509,"mode":"ATTRIBUTES","byteStride":8,"count":268}}},{"buffer":1,"byteOffset":5104,"byteLength":2144,"target":34962,"byteStride":8,"extensions":{"EXT_meshopt_compression":{"buffer":0,"byteOffset":3392,"byteLength":815,"mode":"ATTRIBUTES","byteStride":8,"count":268}}}],"samplers":[{"magFilter":9729,"minFilter":9987,"wrapS":10497,"wrapT":10497}],"textures":[{"sampler":0,"extensions":{"EXT_texture_webp":{"source":1}}},{"sampler":0,"extensions":{"EXT_texture_webp":{"source":0}}},{"sampler":0,"extensions":{"EXT_texture_webp":{"source":2}}}],"images":[{"name":"T_WoodTrim_Normal","mimeType":"image/webp","uri":"../../textures/f21ba25246cb568d.webp"},{"name":"T_WoodTrim_BaseColor","mimeType":"image/webp","uri":"../../textures/d90050e8e0b27d52.webp"},{"name":"T_WoodTrim_Roughness","mimeType":"image/webp","uri":"../../textures/210dc9e50bbcd89a.webp"}],"buffers":[{"uri":"WindowShutters_Wide_Round_Open.bin","byteLength":4208},{"byteLength":7248,"extensions":{"EXT_meshopt_compression":{"fallback":true}}}],"materials":[{"name":"MI_WoodTrim_Wear","doubleSided":true,"pbrMetallicRoughness":{"metallicFactor":0,"baseColorTexture":{"index":0},"metallicRoughnessTexture":{"index":2}},"normalTexture":{"index":1}}],"meshes":[{"name":"Cube.178","primitives":[{"attributes":{"TEXCOORD_0":1,"POSITION":2,"NORMAL":3},"mode":4,"material":0,"indices":0}]}],"nodes":[{"name":"WindowShutters_Wide_Round_Open","translation":[-0.04821544885635376,1.9168379306793213,0.32697251439094543],"scale":[1.1517418026924133,1.1517418026924133,1.1517418026924133],"mesh":0},{"name":"pack_root","children":[0]}],"scenes":[{"name":"Scene","nodes":[1]}],"scene":0,"extensionsUsed":["EXT_meshopt_compression","EXT_texture_webp","KHR_mesh_quantization"],"extensionsRequired":["EXT_meshopt_compression","EXT_texture_webp","KHR_mesh_quantization"]}