{"asset":{"generator":"glTF-Transform v4.5.1","version":"2.0"},"accessors":[{"type":"SCALAR","componentType":5123,"count":900,"normalized":false,"byteOffset":0,"bufferView":0},{"type":"VEC2","componentType":5126,"count":440,"normalized":false,"byteOffset":0,"bufferView":1},{"type":"SCALAR","componentType":5123,"count":354,"normalized":false,"byteOffset":1800,"bufferView":0},{"type":"VEC3","componentType":5122,"count":440,"max":[18126,32767,7032],"min":[-18126,-32767,-7032],"normalized":true,"byteOffset":0,"bufferView":2},{"type":"VEC3","componentType":5122,"count":440,"normalized":true,"byteOffset":0,"bufferView":3},{"type":"VEC3","componentType":5122,"count":75,"max":[11313,26975,3420],"min":[-11393,-29847,3420],"normalized":true,"byteOffset":0,"bufferView":4},{"type":"VEC3","componentType":5122,"count":75,"normalized":true,"byteOffset":0,"bufferView":5}],"bufferViews":[{"buffer":1,"byteOffset":0,"byteLength":2508,"target":34963,"extensions":{"EXT_meshopt_compression":{"buffer":0,"byteOffset":0,"byteLength":446,"mode":"TRIANGLES","byteStride":2,"count":1254}}},{"buffer":1,"byteOffset":2508,"byteLength":3520,"target":34962,"byteStride":8,"extensions":{"EXT_meshopt_compression":{"buffer":0,"byteOffset":448,"byteLength":2619,"mode":"ATTRIBUTES","byteStride":8,"count":440}}},{"buffer":1,"byteOffset":6028,"byteLength":3520,"target":34962,"byteStride":8,"extensions":{"EXT_meshopt_compression":{"buffer":0,"byteOffset":3068,"byteLength":2099,"mode":"ATTRIBUTES","byteStride":8,"count":440}}},{"buffer":1,"byteOffset":9548,"byteLength":3520,"target":34962,"byteStride":8,"extensions":{"EXT_meshopt_compression":{"buffer":0,"byteOffset":5168,"byteLength":1149,"mode":"ATTRIBUTES","byteStride":8,"count":440}}},{"buffer":1,"byteOffset":13068,"byteLength":600,"target":34962,"byteStride":8,"extensions":{"EXT_meshopt_compression":{"buffer":0,"byteOffset":6320,"byteLength":321,"mode":"ATTRIBUTES","byteStride":8,"count":75}}},{"buffer":1,"byteOffset":13668,"byteLength":600,"target":34962,"byteStride":8,"extensions":{"EXT_meshopt_compression":{"buffer":0,"byteOffset":6644,"byteLength":49,"mode":"ATTRIBUTES","byteStride":8,"count":75}}}],"samplers":[{"magFilter":9729,"minFilter":9987,"wrapS":10497,"wrapT":10497}],"textures":[{"sampler":0,"extensions":{"EXT_texture_webp":{"source":1}}},{"sampler":0,"extensions":{"EXT_texture_webp":{"source":0}}},{"sampler":0,"extensions":{"EXT_texture_webp":{"source":2}}}],"images":[{"name":"T_WoodTrim_Normal","mimeType":"image/webp","uri":"../../textures/f21ba25246cb568d.webp"},{"name":"T_WoodTrim_BaseColor","mimeType":"image/webp","uri":"../../textures/d90050e8e0b27d52.webp"},{"name":"T_WoodTrim_Roughness","mimeType":"image/webp","uri":"../../textures/210dc9e50bbcd89a.webp"}],"buffers":[{"uri":"Window_Thin_Round1.bin","byteLength":6696},{"byteLength":14268,"extensions":{"EXT_meshopt_compression":{"fallback":true}}}],"materials":[{"name":"MI_WoodTrim_Wear","doubleSided":true,"pbrMetallicRoughness":{"metallicFactor":0,"baseColorTexture":{"index":0},"metallicRoughnessTexture":{"index":2}},"normalTexture":{"index":1}},{"name":"MI_WindowGlass","alphaMode":"BLEND","doubleSided":true,"pbrMetallicRoughness":{"baseColorFactor":[0.800000011920929,0.800000011920929,0.800000011920929,0.09545451402664185],"roughnessFactor":0.8,"metallicFactor":0}}],"meshes":[{"name":"Cube.128","primitives":[{"attributes":{"TEXCOORD_0":1,"POSITION":3,"NORMAL":4},"mode":4,"material":0,"indices":0},{"attributes":{"POSITION":5,"NORMAL":6},"mode":4,"material":1,"indices":2}]}],"nodes":[{"name":"Window_Thin_Round1","translation":[0,1.8183864951133728,-0.07982790470123291],"scale":[0.8023422360420227,0.8023422360420227,0.8023422360420227],"mesh":0},{"name":"pack_root","children":[0]}],"scenes":[{"name":"Scene","nodes":[1]}],"scene":0,"extensionsUsed":["EXT_meshopt_compression","EXT_texture_webp","KHR_mesh_quantization"],"extensionsRequired":["EXT_meshopt_compression","EXT_texture_webp","KHR_mesh_quantization"]}