{"asset":{"generator":"glTF-Transform v4.5.1","version":"2.0"},"accessors":[{"type":"SCALAR","componentType":5123,"count":408,"normalized":false,"byteOffset":0,"bufferView":0},{"type":"VEC2","componentType":5126,"count":272,"normalized":false,"byteOffset":0,"bufferView":1},{"type":"SCALAR","componentType":5123,"count":72,"normalized":false,"byteOffset":816,"bufferView":0},{"type":"VEC3","componentType":5122,"count":272,"max":[32767,32195,13925],"min":[-32767,-32195,-13925],"normalized":true,"byteOffset":0,"bufferView":2},{"type":"VEC3","componentType":5122,"count":272,"normalized":true,"byteOffset":0,"bufferView":3},{"type":"VEC3","componentType":5122,"count":20,"max":[20598,25311,-2904],"min":[-20598,-25963,-2904],"normalized":true,"byteOffset":0,"bufferView":4},{"type":"VEC3","componentType":5122,"count":20,"normalized":true,"byteOffset":0,"bufferView":5}],"bufferViews":[{"buffer":1,"byteOffset":0,"byteLength":960,"target":34963,"extensions":{"EXT_meshopt_compression":{"buffer":0,"byteOffset":0,"byteLength":180,"mode":"TRIANGLES","byteStride":2,"count":480}}},{"buffer":1,"byteOffset":960,"byteLength":2176,"target":34962,"byteStride":8,"extensions":{"EXT_meshopt_compression":{"buffer":0,"byteOffset":180,"byteLength":1577,"mode":"ATTRIBUTES","byteStride":8,"count":272}}},{"buffer":1,"byteOffset":3136,"byteLength":2176,"target":34962,"byteStride":8,"extensions":{"EXT_meshopt_compression":{"buffer":0,"byteOffset":1760,"byteLength":1175,"mode":"ATTRIBUTES","byteStride":8,"count":272}}},{"buffer":1,"byteOffset":5312,"byteLength":2176,"target":34962,"byteStride":8,"extensions":{"EXT_meshopt_compression":{"buffer":0,"byteOffset":2936,"byteLength":544,"mode":"ATTRIBUTES","byteStride":8,"count":272}}},{"buffer":1,"byteOffset":7488,"byteLength":160,"target":34962,"byteStride":8,"extensions":{"EXT_meshopt_compression":{"buffer":0,"byteOffset":3480,"byteLength":124,"mode":"ATTRIBUTES","byteStride":8,"count":20}}},{"buffer":1,"byteOffset":7648,"byteLength":160,"target":34962,"byteStride":8,"extensions":{"EXT_meshopt_compression":{"buffer":0,"byteOffset":3604,"byteLength":41,"mode":"ATTRIBUTES","byteStride":8,"count":20}}}],"samplers":[{"magFilter":9729,"minFilter":9987,"wrapS":10497,"wrapT":10497}],"textures":[{"sampler":0,"extensions":{"EXT_texture_webp":{"source":1}}},{"sampler":0,"extensions":{"EXT_texture_webp":{"source":0}}},{"sampler":0,"extensions":{"EXT_texture_webp":{"source":2}}}],"images":[{"name":"T_WoodTrim_Normal","mimeType":"image/webp","uri":"../../textures/f21ba25246cb568d.webp"},{"name":"T_WoodTrim_BaseColor","mimeType":"image/webp","uri":"../../textures/d90050e8e0b27d52.webp"},{"name":"T_WoodTrim_Roughness","mimeType":"image/webp","uri":"../../textures/210dc9e50bbcd89a.webp"}],"buffers":[{"uri":"Window_Wide_Flat1.bin","byteLength":3648},{"byteLength":7808,"extensions":{"EXT_meshopt_compression":{"fallback":true}}}],"materials":[{"name":"MI_WoodTrim","doubleSided":true,"pbrMetallicRoughness":{"metallicFactor":0,"baseColorTexture":{"index":0},"metallicRoughnessTexture":{"index":2}},"normalTexture":{"index":1}},{"name":"MI_WindowGlass","alphaMode":"BLEND","doubleSided":true,"pbrMetallicRoughness":{"baseColorFactor":[0.800000011920929,0.800000011920929,0.800000011920929,0.09545451402664185],"roughnessFactor":0.8,"metallicFactor":0}}],"meshes":[{"name":"Cube.153","primitives":[{"attributes":{"TEXCOORD_0":1,"POSITION":3,"NORMAL":4},"mode":4,"material":0,"indices":0},{"attributes":{"POSITION":5,"NORMAL":6},"mode":4,"material":1,"indices":2}]}],"nodes":[{"name":"Window_Wide_Flat1","translation":[-9.5367431640625e-7,1.7342334687709808,0.07513831555843353],"scale":[0.8041181564331055,0.8041181564331055,0.8041181564331055],"mesh":0},{"name":"pack_root","children":[0]}],"scenes":[{"name":"Scene","nodes":[1]}],"scene":0,"extensionsUsed":["EXT_meshopt_compression","EXT_texture_webp","KHR_mesh_quantization"],"extensionsRequired":["EXT_meshopt_compression","EXT_texture_webp","KHR_mesh_quantization"]}