{"asset":{"generator":"glTF-Transform v4.5.1","version":"2.0"},"accessors":[{"type":"SCALAR","componentType":5123,"count":828,"normalized":false,"byteOffset":0,"bufferView":0},{"type":"VEC2","componentType":5126,"count":392,"normalized":false,"byteOffset":0,"bufferView":1},{"type":"SCALAR","componentType":5123,"count":234,"normalized":false,"byteOffset":1656,"bufferView":0},{"type":"VEC3","componentType":5122,"count":392,"max":[25915,32767,10057],"min":[-25915,-32767,-10057],"normalized":true,"byteOffset":0,"bufferView":2},{"type":"VEC3","componentType":5122,"count":392,"normalized":true,"byteOffset":0,"bufferView":3},{"type":"VEC3","componentType":5122,"count":53,"max":[20558,28115,-328],"min":[-20678,-30919,-328],"normalized":true,"byteOffset":0,"bufferView":4},{"type":"VEC3","componentType":5122,"count":53,"normalized":true,"byteOffset":0,"bufferView":5}],"bufferViews":[{"buffer":1,"byteOffset":0,"byteLength":2124,"target":34963,"extensions":{"EXT_meshopt_compression":{"buffer":0,"byteOffset":0,"byteLength":380,"mode":"TRIANGLES","byteStride":2,"count":1062}}},{"buffer":1,"byteOffset":2124,"byteLength":3136,"target":34962,"byteStride":8,"extensions":{"EXT_meshopt_compression":{"buffer":0,"byteOffset":380,"byteLength":2401,"mode":"ATTRIBUTES","byteStride":8,"count":392}}},{"buffer":1,"byteOffset":5260,"byteLength":3136,"target":34962,"byteStride":8,"extensions":{"EXT_meshopt_compression":{"buffer":0,"byteOffset":2784,"byteLength":1895,"mode":"ATTRIBUTES","byteStride":8,"count":392}}},{"buffer":1,"byteOffset":8396,"byteLength":3136,"target":34962,"byteStride":8,"extensions":{"EXT_meshopt_compression":{"buffer":0,"byteOffset":4680,"byteLength":1042,"mode":"ATTRIBUTES","byteStride":8,"count":392}}},{"buffer":1,"byteOffset":11532,"byteLength":424,"target":34962,"byteStride":8,"extensions":{"EXT_meshopt_compression":{"buffer":0,"byteOffset":5724,"byteLength":253,"mode":"ATTRIBUTES","byteStride":8,"count":53}}},{"buffer":1,"byteOffset":11956,"byteLength":424,"target":34962,"byteStride":8,"extensions":{"EXT_meshopt_compression":{"buffer":0,"byteOffset":5980,"byteLength":41,"mode":"ATTRIBUTES","byteStride":8,"count":53}}}],"samplers":[{"magFilter":9729,"minFilter":9987,"wrapS":10497,"wrapT":10497}],"textures":[{"sampler":0,"extensions":{"EXT_texture_webp":{"source":1}}},{"sampler":0,"extensions":{"EXT_texture_webp":{"source":0}}},{"sampler":0,"extensions":{"EXT_texture_webp":{"source":2}}}],"images":[{"name":"T_WoodTrim_Normal","mimeType":"image/webp","uri":"../../textures/f21ba25246cb568d.webp"},{"name":"T_WoodTrim_BaseColor","mimeType":"image/webp","uri":"../../textures/d90050e8e0b27d52.webp"},{"name":"T_WoodTrim_Roughness","mimeType":"image/webp","uri":"../../textures/210dc9e50bbcd89a.webp"}],"buffers":[{"uri":"Window_Wide_Round1.bin","byteLength":6024},{"byteLength":12380,"extensions":{"EXT_meshopt_compression":{"fallback":true}}}],"materials":[{"name":"MI_WoodTrim_Wear","doubleSided":true,"pbrMetallicRoughness":{"metallicFactor":0,"baseColorTexture":{"index":0},"metallicRoughnessTexture":{"index":2}},"normalTexture":{"index":1}},{"name":"MI_WindowGlass","alphaMode":"BLEND","doubleSided":true,"pbrMetallicRoughness":{"baseColorFactor":[0.800000011920929,0.800000011920929,0.800000011920929,0.09545451402664185],"roughnessFactor":0.8,"metallicFactor":0}}],"meshes":[{"name":"Cube.147","primitives":[{"attributes":{"TEXCOORD_0":1,"POSITION":3,"NORMAL":4},"mode":4,"material":0,"indices":0},{"attributes":{"POSITION":5,"NORMAL":6},"mode":4,"material":1,"indices":2}]}],"nodes":[{"name":"Window_Wide_Round1","translation":[0,1.878912627696991,0.012504488229751587],"scale":[0.8628683686256409,0.8628683686256409,0.8628683686256409],"mesh":0},{"name":"pack_root","children":[0]}],"scenes":[{"name":"Scene","nodes":[1]}],"scene":0,"extensionsUsed":["EXT_meshopt_compression","EXT_texture_webp","KHR_mesh_quantization"],"extensionsRequired":["EXT_meshopt_compression","EXT_texture_webp","KHR_mesh_quantization"]}